<svg xmlns="http://www.w3.org/2000/svg" xmlns:xlink="http://www.w3.org/1999/xlink" preserveAspectRatio="xMidYMid meet" width="1024" height="480" viewBox="0 0 1024 480" style="width:100%;height:100%"><defs><animateMotion repeatCount="indefinite" dur="4s" begin="0s" xlink:href="#_R_G_L_5_G_L_7_G" fill="freeze" keyTimes="0;0.2708333;1" path="M725.54 792.87 C725.54,792.87 725.54,392.87 725.54,392.87 C725.54,392.87 725.54,392.87 725.54,392.87 " keyPoints="0;1;1" keySplines="0.036 0 0 1;0 0 0 0" calcMode="spline"/><animateTransform repeatCount="indefinite" dur="4s" begin="0s" xlink:href="#_R_G_L_5_G_L_7_G" fill="freeze" attributeName="transform" from="-725.535 -392.869" to="-725.535 -392.869" type="translate" additive="sum" keyTimes="0;1" values="-725.535 -392.869;-725.535 -392.869" keySplines="0 0 1 1" calcMode="spline"/><animateMotion repeatCount="indefinite" dur="4s" begin="0s" xlink:href="#_R_G_L_5_G_L_6_G_N_8_T_0" fill="freeze" keyTimes="0;0.2708333;1" path="M725.54 792.87 C725.54,792.87 725.54,392.87 725.54,392.87 C725.54,392.87 725.54,392.87 725.54,392.87 " keyPoints="0;1;1" keySplines="0.036 0 0 1;0 0 0 0" calcMode="spline"/><animateTransform repeatCount="indefinite" dur="4s" begin="0s" xlink:href="#_R_G_L_5_G_L_6_G_N_8_T_0" fill="freeze" attributeName="transform" from="-725.535 -392.869" to="-725.535 -392.869" type="translate" additive="sum" keyTimes="0;1" values="-725.535 -392.869;-725.535 -392.869" keySplines="0 0 1 1" calcMode="spline"/><animateMotion repeatCount="indefinite" dur="4s" begin="0s" xlink:href="#_R_G_L_5_G_L_5_G_N_8_T_0" fill="freeze" keyTimes="0;0.2708333;1" path="M725.54 792.87 C725.54,792.87 725.54,392.87 725.54,392.87 C725.54,392.87 725.54,392.87 725.54,392.87 " keyPoints="0;1;1" keySplines="0.036 0 0 1;0 0 0 0" calcMode="spline"/><animateTransform repeatCount="indefinite" dur="4s" begin="0s" xlink:href="#_R_G_L_5_G_L_5_G_N_8_T_0" fill="freeze" attributeName="transform" from="-725.535 -392.869" to="-725.535 -392.869" type="translate" additive="sum" keyTimes="0;1" values="-725.535 -392.869;-725.535 -392.869" keySplines="0 0 1 1" calcMode="spline"/><animateMotion repeatCount="indefinite" dur="4s" begin="0s" xlink:href="#_R_G_L_5_G_L_4_G_N_8_T_0" fill="freeze" keyTimes="0;0.2708333;1" path="M725.54 792.87 C725.54,792.87 725.54,392.87 725.54,392.87 C725.54,392.87 725.54,392.87 725.54,392.87 " keyPoints="0;1;1" keySplines="0.036 0 0 1;0 0 0 0" calcMode="spline"/><animateTransform repeatCount="indefinite" dur="4s" begin="0s" xlink:href="#_R_G_L_5_G_L_4_G_N_8_T_0" fill="freeze" attributeName="transform" from="-725.535 -392.869" to="-725.535 -392.869" type="translate" additive="sum" keyTimes="0;1" values="-725.535 -392.869;-725.535 -392.869" keySplines="0 0 1 1" calcMode="spline"/><animate repeatCount="indefinite" dur="4s" begin="0s" xlink:href="#_R_G_L_5_G_L_3_G_M" fill="freeze" attributeName="opacity" from="0" to="1" keyTimes="0;0.375;0.375001;1" values="0;0;1;1" keySplines="0 0 0 0;0 0 0 0;0 0 0 0" calcMode="spline"/><animate repeatCount="indefinite" dur="4s" begin="0s" xlink:href="#_R_G_L_5_G_L_2_G" fill="freeze" attributeName="opacity" from="1" to="0" keyTimes="0;0.375;0.4583333;1" values="1;1;0;0" keySplines="0.167 0.167 0.833 0.833;0.167 0.167 0.833 0.833;0 0 0 0" calcMode="spline"/><animateMotion repeatCount="indefinite" dur="4s" begin="0s" xlink:href="#_R_G_L_5_G_L_2_G_N_8_T_0" fill="freeze" keyTimes="0;0.2708333;1" path="M725.54 792.87 C725.54,792.87 725.54,392.87 725.54,392.87 C725.54,392.87 725.54,392.87 725.54,392.87 " keyPoints="0;1;1" keySplines="0.036 0 0 1;0 0 0 0" calcMode="spline"/><animateTransform repeatCount="indefinite" dur="4s" begin="0s" xlink:href="#_R_G_L_5_G_L_2_G_N_8_T_0" fill="freeze" attributeName="transform" from="-725.535 -392.869" to="-725.535 -392.869" type="translate" additive="sum" keyTimes="0;1" values="-725.535 -392.869;-725.535 -392.869" keySplines="0 0 1 1" calcMode="spline"/><animate repeatCount="indefinite" dur="4s" begin="0s" xlink:href="#_R_G_L_5_G_L_2_G_N_8_T_0_M" fill="freeze" attributeName="opacity" from="1" to="0" keyTimes="0;0.46875;0.46875;1" values="1;1;0;0" keySplines="0 0 0 0;0 0 0 0;0 0 0 0" calcMode="spline"/><animate repeatCount="indefinite" dur="4s" begin="0s" xlink:href="#_R_G_L_5_G_L_1_G" fill="freeze" attributeName="opacity" from="1" to="0" keyTimes="0;0.375;0.4583333;1" values="1;1;0;0" keySplines="0.167 0.167 0.833 0.833;0.167 0.167 0.833 0.833;0 0 0 0" calcMode="spline"/><animateMotion repeatCount="indefinite" dur="4s" begin="0s" xlink:href="#_R_G_L_5_G_L_1_G" fill="freeze" keyTimes="0;0.375;0.4583333;1" path="M682.38 390.82 C682.38,390.82 682.38,390.82 682.38,390.82 C682.38,390.82 703.13,390.82 703.13,390.82 C703.13,390.82 703.13,390.82 703.13,390.82 " keyPoints="0;0;1;1" keySplines="0.762 0 0.401 1;0.762 0 0.401 1;0 0 0 0" calcMode="spline"/><animateMotion repeatCount="indefinite" dur="4s" begin="0s" xlink:href="#_R_G_L_5_G_L_1_G_N_8_T_0" fill="freeze" keyTimes="0;0.2708333;1" path="M725.54 792.87 C725.54,792.87 725.54,392.87 725.54,392.87 C725.54,392.87 725.54,392.87 725.54,392.87 " keyPoints="0;1;1" keySplines="0.036 0 0 1;0 0 0 0" calcMode="spline"/><animateTransform repeatCount="indefinite" dur="4s" begin="0s" xlink:href="#_R_G_L_5_G_L_1_G_N_8_T_0" fill="freeze" attributeName="transform" from="-725.535 -392.869" to="-725.535 -392.869" type="translate" additive="sum" keyTimes="0;1" values="-725.535 -392.869;-725.535 -392.869" keySplines="0 0 1 1" calcMode="spline"/><animate repeatCount="indefinite" dur="4s" begin="0s" xlink:href="#_R_G_L_5_G_L_1_G_N_8_T_0_M" fill="freeze" attributeName="opacity" from="1" to="0" keyTimes="0;0.46875;0.46875;1" values="1;1;0;0" keySplines="0 0 0 0;0 0 0 0;0 0 0 0" calcMode="spline"/><animate repeatCount="indefinite" dur="4s" begin="0s" xlink:href="#_R_G_L_5_G_L_0_G" fill="freeze" attributeName="opacity" from="0" to="1" keyTimes="0;0.375;0.4583333;1" values="0;0;1;1" keySplines="0.167 0.167 0.833 0.833;0.167 0.167 0.833 0.833;0 0 0 0" calcMode="spline"/><animateMotion repeatCount="indefinite" dur="4s" begin="0s" xlink:href="#_R_G_L_5_G_L_0_G" fill="freeze" keyTimes="0;0.375;0.4583333;1" path="M682.38 390.82 C682.38,390.82 682.38,390.82 682.38,390.82 C682.38,390.82 703.13,390.82 703.13,390.82 C703.13,390.82 703.13,390.82 703.13,390.82 " keyPoints="0;0;1;1" keySplines="0.762 0 0.401 1;0.762 0 0.401 1;0 0 0 0" calcMode="spline"/><animate repeatCount="indefinite" dur="4s" begin="0s" xlink:href="#_R_G_L_5_G_L_0_G_M" fill="freeze" attributeName="opacity" from="0" to="1" keyTimes="0;0.375;0.375001;1" values="0;0;1;1" keySplines="0 0 0 0;0 0 0 0;0 0 0 0" calcMode="spline"/><animateTransform repeatCount="indefinite" dur="4s" begin="0s" xlink:href="#_R_G_L_4_G_D_0_P_0_G_0_T_0" fill="freeze" attributeName="transform" from="0.23 0.23" to="1 1" type="scale" additive="sum" keyTimes="0;0.3854167;0.562502;1" values="0.23 0.23;0.23 0.23;1 1;1 1" keySplines="0.167 0.167 0 1;0.167 0.167 0 1;0 0 0 0" calcMode="spline"/><animate repeatCount="indefinite" dur="4s" begin="0s" xlink:href="#_R_G_L_4_G" fill="freeze" attributeName="opacity" from="0" to="0" keyTimes="0;0.3958333;0.4041667;0.5041771;0.562502;1" values="0;0;1;1;0;0" keySplines="0.167 0.167 0.833 0.833;0.167 0.167 0.833 0.833;0.167 0.167 0.833 0.833;0.167 0.167 0.833 0.833;0 0 0 0" calcMode="spline"/><animate repeatCount="indefinite" dur="4s" begin="0s" xlink:href="#_R_G_L_4_G_M" fill="freeze" attributeName="opacity" from="0" to="0" keyTimes="0;0.3583333;0.3583344;0.5583333;0.5583333;1" values="0;0;1;1;0;0" keySplines="0 0 0 0;0 0 0 0;0 0 0 0;0 0 0 0;0 0 0 0" calcMode="spline"/><animateTransform repeatCount="indefinite" dur="4s" begin="0s" xlink:href="#_R_G_L_3_G_D_0_P_0_G_0_T_0" fill="freeze" attributeName="transform" from="0.28 0.28" to="1 1" type="scale" additive="sum" keyTimes="0;0.3854167;0.5416687;1" values="0.28 0.28;0.28 0.28;1 1;1 1" keySplines="0.167 0.167 0 1;0.167 0.167 0 1;0 0 0 0" calcMode="spline"/><animate repeatCount="indefinite" dur="4s" begin="0s" xlink:href="#_R_G_L_3_G" fill="freeze" attributeName="opacity" from="0" to="0" keyTimes="0;0.375;0.3833333;0.4833333;0.5416687;1" values="0;0;1;1;0;0" keySplines="0.167 0.167 0.833 0.833;0.167 0.167 0.833 0.833;0.167 0.167 0.833 0.833;0.167 0.167 0.833 0.833;0 0 0 0" calcMode="spline"/><animate repeatCount="indefinite" dur="4s" begin="0s" xlink:href="#_R_G_L_3_G_M" fill="freeze" attributeName="opacity" from="0" to="0" keyTimes="0;0.3583333;0.3583344;0.5583333;0.5583333;1" values="0;0;1;1;0;0" keySplines="0 0 0 0;0 0 0 0;0 0 0 0;0 0 0 0;0 0 0 0" calcMode="spline"/><animateTransform repeatCount="indefinite" dur="4s" begin="0s" xlink:href="#_R_G_L_2_G_D_0_P_0_G_0_T_0" fill="freeze" attributeName="transform" from="0.23 0.23" to="1 1" type="scale" additive="sum" keyTimes="0;0.3645833;0.531252;1" values="0.23 0.23;0.23 0.23;1 1;1 1" keySplines="0.167 0.167 0 1;0.167 0.167 0 1;0 0 0 0" calcMode="spline"/><animate repeatCount="indefinite" dur="4s" begin="0s" xlink:href="#_R_G_L_2_G" fill="freeze" attributeName="opacity" from="0" to="0" keyTimes="0;0.3541667;0.3625104;0.4625104;0.5208354;1" values="0;0;1;1;0;0" keySplines="0.167 0.167 0.833 0.833;0.167 0.167 0.833 0.833;0.167 0.167 0.833 0.833;0.167 0.167 0.833 0.833;0 0 0 0" calcMode="spline"/><animate repeatCount="indefinite" dur="4s" begin="0s" xlink:href="#_R_G_L_2_G_M" fill="freeze" attributeName="opacity" from="0" to="0" keyTimes="0;0.3583333;0.3583344;0.5583333;0.5583333;1" values="0;0;1;1;0;0" keySplines="0 0 0 0;0 0 0 0;0 0 0 0;0 0 0 0;0 0 0 0" calcMode="spline"/><animateMotion repeatCount="indefinite" dur="4s" begin="0s" xlink:href="#_R_G_L_1_G_N_1_T_0" fill="freeze" keyTimes="0;0.09375;0.3229167;0.4895833;0.687502;1" path="M914.36 572.71 C914.36,572.71 914.36,572.71 914.36,572.71 C696.7,561.57 683.36,394.71 683.36,394.71 C683.36,394.71 683.36,394.71 683.36,394.71 C683.36,394.71 562,476 627.36,598.71 C627.36,598.71 627.36,598.71 627.36,598.71 " keyPoints="0;0;0.58;0.58;1;1" keySplines="0.337 0 0.112 1;0.337 0 0.112 1;0.765 0.765 0.667 0.667;0.765 0 0.667 1;0 0 0 0" calcMode="spline"/><animateTransform repeatCount="indefinite" dur="4s" begin="0s" xlink:href="#_R_G_L_1_G_N_1_T_0" fill="freeze" attributeName="transform" from="1 1" to="1 1" type="scale" additive="sum" keyTimes="0;0.3583438;0.375;0.4479167;0.4895854;1" values="1 1;1 1;0.9 0.9;0.9 0.9;1 1;1 1" keySplines="0.331 0 0.833 0.833;0.331 0 0.833 0.833;0.325 0 0.833 1;0.328 0 0.667 1;0 0 0 0" calcMode="spline"/><animateTransform repeatCount="indefinite" dur="4s" begin="0s" xlink:href="#_R_G_L_1_G_N_1_T_0" fill="freeze" attributeName="transform" from="-1562.36 -741.21" to="-1562.36 -741.21" type="translate" additive="sum" keyTimes="0;1" values="-1562.36 -741.21;-1562.36 -741.21" keySplines="0 0 1 1" calcMode="spline"/><animate repeatCount="indefinite" dur="4s" begin="0s" xlink:href="#_R_G_L_1_G_N_1_T_0_M" fill="freeze" attributeName="opacity" from="0" to="0" keyTimes="0;0.0833333;0.0833344;0.65625;0.65625;1" values="0;0;1;1;0;0" keySplines="0 0 0 0;0 0 0 0;0 0 0 0;0 0 0 0;0 0 0 0" calcMode="spline"/><animateMotion repeatCount="indefinite" dur="4s" begin="0s" xlink:href="#_R_G_L_0_G" fill="freeze" keyTimes="0;0.09375;0.3229167;0.4895833;0.687502;1" path="M914.36 572.71 C914.36,572.71 914.36,572.71 914.36,572.71 C696.7,561.57 683.36,394.71 683.36,394.71 C683.36,394.71 683.36,394.71 683.36,394.71 C683.36,394.71 562,476 627.36,598.71 C627.36,598.71 627.36,598.71 627.36,598.71 " keyPoints="0;0;0.58;0.58;1;1" keySplines="0.337 0 0.112 1;0.337 0 0.112 1;0.765 0.765 0.667 0.667;0.765 0 0.667 1;0 0 0 0" calcMode="spline"/><animateTransform repeatCount="indefinite" dur="4s" begin="0s" xlink:href="#_R_G_L_0_G" fill="freeze" attributeName="transform" from="1 1" to="1 1" type="scale" additive="sum" keyTimes="0;0.3583438;0.375;0.4479167;0.4895854;1" values="1 1;1 1;0.9 0.9;0.9 0.9;1 1;1 1" keySplines="0.331 0 0.833 0.833;0.331 0 0.833 0.833;0.325 0 0.833 1;0.328 0 0.667 1;0 0 0 0" calcMode="spline"/><animateTransform repeatCount="indefinite" dur="4s" begin="0s" xlink:href="#_R_G_L_0_G" fill="freeze" attributeName="transform" from="-1562.36 -741.21" to="-1562.36 -741.21" type="translate" additive="sum" keyTimes="0;1" values="-1562.36 -741.21;-1562.36 -741.21" keySplines="0 0 1 1" calcMode="spline"/><animate repeatCount="indefinite" dur="4s" begin="0s" xlink:href="#_R_G_L_0_G_M" fill="freeze" attributeName="opacity" from="0" to="0" keyTimes="0;0.0833333;0.0833344;0.65625;0.65625;1" values="0;0;1;1;0;0" keySplines="0 0 0 0;0 0 0 0;0 0 0 0;0 0 0 0;0 0 0 0" calcMode="spline"/><animate attributeType="XML" attributeName="opacity" dur="4s" from="0" to="1" xlink:href="#time_group"/></defs><g id="_R_G"><g id="_R_G_L_6_G" transform=" translate(512, 240) translate(0, 0)"><path id="_R_G_L_6_G_D_0_P_0" fill="#ffddd6" fill-opacity="1" fill-rule="nonzero" d=" M512 240 C512,240 -512,240 -512,240 C-512,240 -512,-240 -512,-240 C-512,-240 512,-240 512,-240 C512,-240 512,240 512,240z "/></g><g id="_R_G_L_5_G"><g id="_R_G_L_5_G_L_7_G"><path id="_R_G_L_5_G_L_7_G_D_0_P_0" fill="#f8f9fa" fill-opacity="1" fill-rule="nonzero" d=" M893.85 480 C893.85,480 130.15,480 130.15,480 C130.15,480 130.15,96.18 130.15,96.18 C130.15,89.87 135.26,84.75 141.58,84.75 C141.58,84.75 882.42,84.75 882.42,84.75 C888.74,84.75 893.85,89.87 893.85,96.18 C893.85,96.18 893.85,480 893.85,480z "/><path id="_R_G_L_5_G_L_7_G_D_1_P_0" fill="#ffffff" fill-opacity="1" fill-rule="nonzero" d=" M741.1 480.3 C741.1,480.3 271.97,480.3 271.97,480.3 C271.97,480.3 271.97,132.07 271.97,132.07 C271.97,132.07 741.1,132.07 741.1,132.07 C741.1,132.07 741.1,480.3 741.1,480.3z "/><path id="_R_G_L_5_G_L_7_G_D_2_P_0" fill="#b2b2b2" fill-opacity="1" fill-rule="nonzero" d=" M341.13 216.08 C341.13,216.08 303.38,216.08 303.38,216.08 C301.23,216.08 299.48,214.33 299.48,212.17 C299.48,212.17 299.48,212.17 299.48,212.17 C299.48,210.02 301.23,208.27 303.38,208.27 C303.38,208.27 341.13,208.27 341.13,208.27 C343.29,208.27 345.04,210.02 345.04,212.17 C345.04,212.17 345.04,212.17 345.04,212.17 C345.04,214.33 343.29,216.08 341.13,216.08z "/><path id="_R_G_L_5_G_L_7_G_D_3_P_0" fill="#d9d9d9" fill-opacity="1" fill-rule="nonzero" d=" M599.32 233.37 C599.32,233.37 303.38,233.37 303.38,233.37 C301.23,233.37 299.48,231.62 299.48,229.47 C299.48,229.47 299.48,229.47 299.48,229.47 C299.48,227.31 301.23,225.56 303.38,225.56 C303.38,225.56 599.32,225.56 599.32,225.56 C601.47,225.56 603.22,227.31 603.22,229.47 C603.22,229.47 603.22,229.47 603.22,229.47 C603.22,231.62 601.47,233.37 599.32,233.37z "/><path id="_R_G_L_5_G_L_7_G_D_4_P_0" fill="#b2b2b2" fill-opacity="1" fill-rule="nonzero" d=" M341.13 271.58 C341.13,271.58 303.38,271.58 303.38,271.58 C301.23,271.58 299.48,269.83 299.48,267.68 C299.48,267.68 299.48,267.68 299.48,267.68 C299.48,265.52 301.23,263.77 303.38,263.77 C303.38,263.77 341.13,263.77 341.13,263.77 C343.29,263.77 345.04,265.52 345.04,267.68 C345.04,267.68 345.04,267.68 345.04,267.68 C345.04,269.83 343.29,271.58 341.13,271.58z "/><path id="_R_G_L_5_G_L_7_G_D_5_P_0" fill="#d9d9d9" fill-opacity="1" fill-rule="nonzero" d=" M599.32 288.88 C599.32,288.88 303.38,288.88 303.38,288.88 C301.23,288.88 299.48,287.13 299.48,284.97 C299.48,284.97 299.48,284.97 299.48,284.97 C299.48,282.81 301.23,281.07 303.38,281.07 C303.38,281.07 599.32,281.07 599.32,281.07 C601.47,281.07 603.22,282.81 603.22,284.97 C603.22,284.97 603.22,284.97 603.22,284.97 C603.22,287.13 601.47,288.88 599.32,288.88z "/><path id="_R_G_L_5_G_L_7_G_D_6_P_0" fill="#b2b2b2" fill-opacity="1" fill-rule="nonzero" d=" M341.13 325.97 C341.13,325.97 303.38,325.97 303.38,325.97 C301.23,325.97 299.48,324.22 299.48,322.07 C299.48,322.07 299.48,322.07 299.48,322.07 C299.48,319.91 301.23,318.16 303.38,318.16 C303.38,318.16 341.13,318.16 341.13,318.16 C343.29,318.16 345.04,319.91 345.04,322.07 C345.04,322.07 345.04,322.07 345.04,322.07 C345.04,324.22 343.29,325.97 341.13,325.97z "/><path id="_R_G_L_5_G_L_7_G_D_7_P_0" fill="#d9d9d9" fill-opacity="1" fill-rule="nonzero" d=" M599.32 343.26 C599.32,343.26 303.38,343.26 303.38,343.26 C301.23,343.26 299.48,341.52 299.48,339.36 C299.48,339.36 299.48,339.36 299.48,339.36 C299.48,337.2 301.23,335.45 303.38,335.45 C303.38,335.45 599.32,335.45 599.32,335.45 C601.47,335.45 603.22,337.2 603.22,339.36 C603.22,339.36 603.22,339.36 603.22,339.36 C603.22,341.52 601.47,343.26 599.32,343.26z "/><path id="_R_G_L_5_G_L_7_G_D_8_P_0" fill="#b2b2b2" fill-opacity="1" fill-rule="nonzero" d=" M341.13 435.86 C341.13,435.86 303.38,435.86 303.38,435.86 C301.23,435.86 299.48,434.12 299.48,431.96 C299.48,431.96 299.48,431.96 299.48,431.96 C299.48,429.8 301.23,428.05 303.38,428.05 C303.38,428.05 341.13,428.05 341.13,428.05 C343.29,428.05 345.04,429.8 345.04,431.96 C345.04,431.96 345.04,431.96 345.04,431.96 C345.04,434.12 343.29,435.86 341.13,435.86z "/><path id="_R_G_L_5_G_L_7_G_D_9_P_0" fill="#d9d9d9" fill-opacity="1" fill-rule="nonzero" d=" M599.32 453.16 C599.32,453.16 303.38,453.16 303.38,453.16 C301.23,453.16 299.48,451.41 299.48,449.25 C299.48,449.25 299.48,449.25 299.48,449.25 C299.48,447.09 301.23,445.35 303.38,445.35 C303.38,445.35 599.32,445.35 599.32,445.35 C601.47,445.35 603.22,447.09 603.22,449.25 C603.22,449.25 603.22,449.25 603.22,449.25 C603.22,451.41 601.47,453.16 599.32,453.16z "/><path id="_R_G_L_5_G_L_7_G_D_10_P_0" fill="#5a5a5a" fill-opacity="1" fill-rule="nonzero" d=" M353.86 175.56 C353.86,175.56 352.96,178.33 352.96,178.33 C352.93,178.43 352.87,178.48 352.76,178.48 C352.76,178.48 350.58,178.48 350.58,178.48 C350.45,178.48 350.41,178.41 350.43,178.3 C350.43,178.3 354.18,167.49 354.18,167.49 C354.26,167.28 354.33,167.05 354.37,166.34 C354.37,166.27 354.43,166.21 354.48,166.21 C354.48,166.21 357.48,166.21 357.48,166.21 C357.57,166.21 357.61,166.23 357.63,166.32 C357.63,166.32 361.88,178.31 361.88,178.31 C361.92,178.41 361.9,178.48 361.79,178.48 C361.79,178.48 359.35,178.48 359.35,178.48 C359.24,178.48 359.18,178.45 359.15,178.35 C359.15,178.35 358.19,175.56 358.19,175.56 C358.19,175.56 353.86,175.56 353.86,175.56z  M357.5 173.22 C357.12,171.98 356.37,169.71 356.02,168.38 C356.02,168.38 356,168.38 356,168.38 C355.7,169.64 355.02,171.7 354.54,173.22 C354.54,173.22 357.5,173.22 357.5,173.22z "/><path id="_R_G_L_5_G_L_7_G_D_11_P_0" fill="#5a5a5a" fill-opacity="1" fill-rule="nonzero" d=" M362.44 173.91 C362.44,171.23 364.44,168.98 367.87,168.98 C368.02,168.98 368.21,169 368.49,169.02 C368.49,169.02 368.49,165.33 368.49,165.33 C368.49,165.24 368.55,165.2 368.62,165.2 C368.62,165.2 370.98,165.2 370.98,165.2 C371.08,165.2 371.1,165.24 371.1,165.31 C371.1,165.31 371.1,176.39 371.1,176.39 C371.1,176.82 371.11,177.38 371.17,177.75 C371.17,177.85 371.15,177.88 371.04,177.92 C369.74,178.47 368.51,178.67 367.35,178.67 C364.58,178.67 362.44,177.1 362.44,173.91z  M368.49 171.25 C368.3,171.18 368.06,171.16 367.8,171.16 C366.35,171.16 365.12,172.04 365.12,173.78 C365.12,175.64 366.18,176.44 367.61,176.44 C367.93,176.44 368.23,176.42 368.49,176.33 C368.49,176.33 368.49,171.25 368.49,171.25z "/><path id="_R_G_L_5_G_L_7_G_D_12_P_0" fill="#5a5a5a" fill-opacity="1" fill-rule="nonzero" d=" M382.01 173.78 C382.01,176.72 380.1,178.67 377.4,178.67 C374.2,178.67 372.78,176.25 372.78,173.84 C372.78,171.18 374.56,168.98 377.44,168.98 C380.46,168.98 382.01,171.25 382.01,173.78z  M375.42 173.8 C375.42,175.45 376.19,176.5 377.44,176.5 C378.53,176.5 379.35,175.56 379.35,173.84 C379.35,172.37 378.75,171.16 377.33,171.16 C376.24,171.16 375.42,172.13 375.42,173.8z "/><path id="_R_G_L_5_G_L_7_G_D_13_P_0" fill="#5a5a5a" fill-opacity="1" fill-rule="nonzero" d=" M386.11 165.2 C386.26,165.2 386.3,165.22 386.3,165.35 C386.3,165.35 386.3,169.19 386.3,169.19 C386.79,169.06 387.31,168.98 387.87,168.98 C390.63,168.98 392.37,170.93 392.37,173.44 C392.37,176.95 389.6,178.67 386.75,178.67 C385.76,178.67 384.76,178.54 383.81,178.24 C383.75,178.22 383.69,178.13 383.69,178.05 C383.69,178.05 383.69,165.33 383.69,165.33 C383.69,165.24 383.73,165.2 383.83,165.2 C383.83,165.2 386.11,165.2 386.11,165.2z  M387.4 171.2 C386.8,171.2 386.54,171.29 386.3,171.35 C386.3,171.35 386.3,176.42 386.3,176.42 C386.52,176.48 386.77,176.5 386.99,176.5 C388.42,176.5 389.71,175.64 389.71,173.69 C389.71,171.98 388.72,171.2 387.4,171.2z "/><path id="_R_G_L_5_G_L_7_G_D_14_P_0" fill="#5a5a5a" fill-opacity="1" fill-rule="nonzero" d=" M396.28 174.51 C396.37,175.58 397.12,176.46 398.96,176.46 C399.8,176.46 400.55,176.33 401.26,176.03 C401.32,175.99 401.38,176.01 401.38,176.12 C401.38,176.12 401.38,177.9 401.38,177.9 C401.38,178.03 401.34,178.09 401.25,178.13 C400.5,178.48 399.67,178.67 398.38,178.67 C394.86,178.67 393.62,176.25 393.62,173.93 C393.62,171.34 395.21,168.98 398.15,168.98 C400.98,168.98 402.11,171.18 402.11,173.03 C402.11,173.61 402.07,174.08 402.01,174.29 C402,174.38 401.96,174.42 401.86,174.44 C401.62,174.47 400.91,174.51 399.93,174.51 C399.93,174.51 396.28,174.51 396.28,174.51z  M398.72 172.69 C399.32,172.69 399.58,172.67 399.65,172.66 C399.65,172.62 399.65,172.54 399.65,172.53 C399.65,172.08 399.3,171.05 398.06,171.05 C396.88,171.05 396.37,171.93 396.26,172.69 C396.26,172.69 398.72,172.69 398.72,172.69z "/><path id="_R_G_L_5_G_L_7_G_D_15_P_0" fill="#5a5a5a" fill-opacity="1" fill-rule="nonzero" d=" M410.36 175.56 C410.36,175.56 409.46,178.33 409.46,178.33 C409.43,178.43 409.37,178.48 409.26,178.48 C409.26,178.48 407.09,178.48 407.09,178.48 C406.95,178.48 406.92,178.41 406.94,178.3 C406.94,178.3 410.68,167.49 410.68,167.49 C410.76,167.28 410.83,167.05 410.87,166.34 C410.87,166.27 410.93,166.21 410.98,166.21 C410.98,166.21 413.98,166.21 413.98,166.21 C414.08,166.21 414.11,166.23 414.13,166.32 C414.13,166.32 418.38,178.31 418.38,178.31 C418.42,178.41 418.4,178.48 418.29,178.48 C418.29,178.48 415.85,178.48 415.85,178.48 C415.74,178.48 415.69,178.45 415.65,178.35 C415.65,178.35 414.69,175.56 414.69,175.56 C414.69,175.56 410.36,175.56 410.36,175.56z  M414 173.22 C413.63,171.98 412.88,169.71 412.52,168.38 C412.52,168.38 412.5,168.38 412.5,168.38 C412.2,169.64 411.53,171.7 411.04,173.22 C411.04,173.22 414,173.22 414,173.22z "/><path id="_R_G_L_5_G_L_7_G_D_16_P_0" fill="#5a5a5a" fill-opacity="1" fill-rule="nonzero" d=" M426.08 178.22 C426.08,178.31 426.06,178.35 425.98,178.37 C425.38,178.61 424.62,178.67 423.89,178.67 C420.85,178.67 418.94,176.63 418.94,173.87 C418.94,171.06 421.06,168.98 424.24,168.98 C425.16,168.98 425.67,169.08 425.97,169.19 C426.06,169.23 426.08,169.28 426.08,169.4 C426.08,169.4 426.06,171.33 426.06,171.33 C426.06,171.46 425.98,171.48 425.91,171.46 C425.55,171.33 425.03,171.23 424.34,171.23 C422.76,171.23 421.62,172.09 421.62,173.78 C421.62,175.73 423.06,176.37 424.37,176.37 C425.03,176.37 425.61,176.29 425.93,176.2 C426.04,176.16 426.08,176.2 426.08,176.27 C426.08,176.27 426.08,178.22 426.08,178.22z "/><path id="_R_G_L_5_G_L_7_G_D_17_P_0" fill="#5a5a5a" fill-opacity="1" fill-rule="nonzero" d=" M429.73 169.17 C429.86,169.17 429.92,169.23 429.95,169.34 C430.05,169.58 430.14,169.98 430.16,170.39 C430.78,169.66 431.81,168.98 433.14,168.98 C433.25,168.98 433.29,169.02 433.29,169.13 C433.29,169.13 433.29,171.44 433.29,171.44 C433.29,171.53 433.25,171.57 433.12,171.57 C431.77,171.51 430.68,171.93 430.29,172.38 C430.29,172.38 430.27,178.33 430.27,178.33 C430.27,178.45 430.23,178.48 430.1,178.48 C430.1,178.48 427.85,178.48 427.85,178.48 C427.7,178.48 427.67,178.43 427.67,178.32 C427.67,178.32 427.67,171.85 427.67,171.85 C427.67,171.05 427.65,169.96 427.57,169.3 C427.57,169.21 427.59,169.17 427.69,169.17 C427.69,169.17 429.73,169.17 429.73,169.17z "/><path id="_R_G_L_5_G_L_7_G_D_18_P_0" fill="#5a5a5a" fill-opacity="1" fill-rule="nonzero" d=" M443.35 173.78 C443.35,176.72 441.44,178.67 438.74,178.67 C435.53,178.67 434.11,176.25 434.11,173.84 C434.11,171.18 435.89,168.98 438.78,168.98 C441.79,168.98 443.35,171.25 443.35,173.78z  M436.75 173.8 C436.75,175.45 437.52,176.5 438.78,176.5 C439.86,176.5 440.69,175.56 440.69,173.84 C440.69,172.37 440.09,171.16 438.66,171.16 C437.58,171.16 436.75,172.13 436.75,173.8z "/><path id="_R_G_L_5_G_L_7_G_D_19_P_0" fill="#5a5a5a" fill-opacity="1" fill-rule="nonzero" d=" M447.45 165.2 C447.6,165.2 447.63,165.22 447.63,165.35 C447.63,165.35 447.63,169.19 447.63,169.19 C448.12,169.06 448.65,168.98 449.21,168.98 C451.96,168.98 453.7,170.93 453.7,173.44 C453.7,176.95 450.93,178.67 448.08,178.67 C447.09,178.67 446.1,178.54 445.14,178.24 C445.09,178.22 445.03,178.13 445.03,178.05 C445.03,178.05 445.03,165.33 445.03,165.33 C445.03,165.24 445.07,165.2 445.16,165.2 C445.16,165.2 447.45,165.2 447.45,165.2z  M448.74 171.2 C448.14,171.2 447.88,171.29 447.63,171.35 C447.63,171.35 447.63,176.42 447.63,176.42 C447.86,176.48 448.1,176.5 448.33,176.5 C449.75,176.5 451.04,175.64 451.04,173.69 C451.04,171.98 450.05,171.2 448.74,171.2z "/><path id="_R_G_L_5_G_L_7_G_D_20_P_0" fill="#5a5a5a" fill-opacity="1" fill-rule="nonzero" d=" M462.69 176.4 C462.69,176.89 462.69,177.28 462.73,177.73 C462.73,177.77 462.73,177.81 462.69,177.83 C461.04,178.46 459.96,178.67 458.61,178.67 C456.53,178.67 454.82,177.71 454.82,175.54 C454.82,173.56 456.56,172.51 459.06,172.51 C459.56,172.51 459.99,172.51 460.16,172.54 C460.16,172.54 460.16,172.41 460.16,172.41 C460.16,172.06 459.94,171.23 458.36,171.23 C457.43,171.23 456.6,171.42 455.89,171.74 C455.81,171.78 455.72,171.74 455.72,171.64 C455.72,171.64 455.72,169.75 455.72,169.75 C455.72,169.66 455.74,169.6 455.85,169.57 C456.68,169.17 457.75,168.98 458.79,168.98 C461.49,168.98 462.69,170.65 462.69,172.79 C462.69,172.79 462.69,176.4 462.69,176.4z  M460.16 174.47 C459.86,174.44 459.6,174.42 459.23,174.42 C457.89,174.42 457.35,174.85 457.35,175.52 C457.35,176.14 457.82,176.65 459,176.65 C459.43,176.65 459.8,176.59 460.16,176.48 C460.16,176.48 460.16,174.47 460.16,174.47z "/><path id="_R_G_L_5_G_L_7_G_D_21_P_0" fill="#5a5a5a" fill-opacity="1" fill-rule="nonzero" d=" M469.43 178.16 C469.43,178.28 469.41,178.37 469.3,178.41 C468.78,178.6 468.29,178.67 467.63,178.67 C466,178.67 465.05,177.86 465.05,175.99 C465.05,175.99 465.05,171.34 465.05,171.34 C465.05,171.34 463.92,171.34 463.92,171.34 C463.81,171.33 463.77,171.29 463.77,171.18 C463.77,171.18 463.77,169.34 463.77,169.34 C463.77,169.21 463.81,169.17 463.94,169.17 C463.94,169.17 465.07,169.17 465.07,169.17 C465.08,168.53 465.16,167.43 465.25,166.91 C465.27,166.81 465.33,166.76 465.42,166.74 C465.42,166.74 467.61,166.46 467.61,166.46 C467.71,166.44 467.76,166.44 467.76,166.57 C467.71,167.15 467.67,168.25 467.67,169.17 C467.67,169.17 469.4,169.17 469.4,169.17 C469.51,169.17 469.55,169.21 469.55,169.32 C469.55,169.32 469.55,171.21 469.55,171.21 C469.55,171.31 469.51,171.33 469.41,171.34 C469.41,171.34 467.65,171.34 467.65,171.34 C467.65,171.34 467.65,175.35 467.65,175.35 C467.65,176.18 467.9,176.55 468.66,176.55 C468.89,176.55 469.08,176.52 469.3,176.48 C469.38,176.48 469.43,176.5 469.43,176.61 C469.43,176.61 469.43,178.16 469.43,178.16z "/><path id="_R_G_L_5_G_L_7_G_D_22_P_0" stroke="#707070" stroke-linecap="round" stroke-linejoin="round" fill="none" stroke-width="0.988" stroke-opacity="1" d=" M298.9 172.21 C298.9,172.21 288.67,172.21 288.67,172.21 "/><path id="_R_G_L_5_G_L_7_G_D_23_P_0" stroke="#707070" stroke-linecap="round" stroke-linejoin="round" fill="none" stroke-width="0.988" stroke-opacity="1" d=" M294.08 167.01 C294.08,167.01 288.67,172.21 288.67,172.21 C288.67,172.21 294.04,177.41 294.04,177.41 "/><path id="_R_G_L_5_G_L_7_G_D_24_P_0" fill="#4066cf" fill-opacity="1" fill-rule="nonzero" d=" M883.13 84.75 C883.13,84.75 140.87,84.75 140.87,84.75 C134.95,84.75 130.15,89.55 130.15,95.47 C130.15,95.47 130.15,132.07 130.15,132.07 C130.15,132.07 893.85,132.07 893.85,132.07 C893.85,132.07 893.85,95.47 893.85,95.47 C893.85,89.55 889.05,84.75 883.13,84.75z "/><path id="_R_G_L_5_G_L_7_G_D_25_P_0" fill="#9fb2e6" fill-opacity="1" fill-rule="nonzero" d=" M797.54 112.84 C797.54,112.84 761.22,112.84 761.22,112.84 C758.77,112.84 756.78,110.86 756.78,108.41 C756.78,108.41 756.78,108.41 756.78,108.41 C756.78,105.96 758.77,103.98 761.22,103.98 C761.22,103.98 797.54,103.98 797.54,103.98 C799.99,103.98 801.97,105.96 801.97,108.41 C801.97,108.41 801.97,108.41 801.97,108.41 C801.97,110.86 799.99,112.84 797.54,112.84z "/><path id="_R_G_L_5_G_L_7_G_D_26_P_0" fill="#9fb2e6" fill-opacity="1" fill-rule="nonzero" d=" M241.71 112.84 C241.71,112.84 205.39,112.84 205.39,112.84 C202.94,112.84 200.95,110.86 200.95,108.41 C200.95,108.41 200.95,108.41 200.95,108.41 C200.95,105.96 202.94,103.98 205.39,103.98 C205.39,103.98 241.71,103.98 241.71,103.98 C244.16,103.98 246.14,105.96 246.14,108.41 C246.14,108.41 246.14,108.41 246.14,108.41 C246.14,110.86 244.16,112.84 241.71,112.84z "/><path id="_R_G_L_5_G_L_7_G_D_27_P_0" fill="#81868b" fill-opacity="1" fill-rule="nonzero" d=" M861.84 116.01 C861.84,116.01 840.03,116.01 840.03,116.01 C835.84,116.01 832.44,112.61 832.44,108.41 C832.44,108.41 832.44,108.41 832.44,108.41 C832.44,104.21 835.84,100.81 840.03,100.81 C840.03,100.81 861.84,100.81 861.84,100.81 C866.04,100.81 869.44,104.21 869.44,108.41 C869.44,108.41 869.44,108.41 869.44,108.41 C869.44,112.61 866.04,116.01 861.84,116.01z "/><path id="_R_G_L_5_G_L_7_G_D_28_P_0" fill="#ffffff" fill-opacity="1" fill-rule="nonzero" d=" M830.02 108.41 C830.02,114.19 834.7,118.87 840.48,118.87 C846.25,118.87 850.94,114.19 850.94,108.41 C850.94,102.63 846.25,97.95 840.48,97.95 C834.7,97.95 830.02,102.63 830.02,108.41z "/><path id="_R_G_L_5_G_L_7_G_D_29_P_0" fill="#3250a2" fill-opacity="1" fill-rule="nonzero" d=" M741.1 124.77 C741.1,124.77 271.97,124.77 271.97,124.77 C271.97,124.77 271.97,94.55 271.97,94.55 C271.97,94.55 741.1,94.55 741.1,94.55 C741.1,94.55 741.1,124.77 741.1,124.77z "/><path id="_R_G_L_5_G_L_7_G_D_30_P_0" fill="#ffffff" fill-opacity="1" fill-rule="nonzero" d=" M180.09 100.69 C180.09,100.69 150.67,100.69 150.67,100.69 C150.67,100.69 150.67,96.44 150.67,96.44 C150.67,96.44 180.09,96.44 180.09,96.44 C180.09,96.44 180.09,100.69 180.09,100.69z "/><path id="_R_G_L_5_G_L_7_G_D_31_P_0" fill="#ffffff" fill-opacity="1" fill-rule="nonzero" d=" M180.09 110.53 C180.09,110.53 150.67,110.53 150.67,110.53 C150.67,110.53 150.67,106.29 150.67,106.29 C150.67,106.29 180.09,106.29 180.09,106.29 C180.09,106.29 180.09,110.53 180.09,110.53z "/><path id="_R_G_L_5_G_L_7_G_D_32_P_0" fill="#ffffff" fill-opacity="1" fill-rule="nonzero" d=" M180.09 120.38 C180.09,120.38 150.67,120.38 150.67,120.38 C150.67,120.38 150.67,116.13 150.67,116.13 C150.67,116.13 180.09,116.13 180.09,116.13 C180.09,116.13 180.09,120.38 180.09,120.38z "/></g><g id="_R_G_L_5_G_L_6_G_N_8_T_0"><g id="_R_G_L_5_G_L_6_G"><path id="_R_G_L_5_G_L_6_G_D_0_P_0" fill="#2f2f2f" fill-opacity="1" fill-rule="nonzero" d=" M300.34 384.59 C300.34,384.52 300.36,384.46 300.43,384.46 C301.01,384.45 302.19,384.41 303.4,384.41 C306.59,384.41 307.99,386.21 307.99,388.23 C307.99,390.96 305.83,392.24 303.22,392.24 C302.46,392.24 302.23,392.23 301.83,392.23 C301.83,392.23 301.83,396.22 301.83,396.22 C301.83,396.31 301.82,396.35 301.73,396.35 C301.73,396.35 300.45,396.35 300.45,396.35 C300.38,396.35 300.34,396.31 300.34,396.24 C300.34,396.24 300.34,384.59 300.34,384.59z  M301.83 390.87 C302.14,390.89 302.45,390.89 303.2,390.89 C304.97,390.89 306.5,390.23 306.5,388.26 C306.5,386.63 305.24,385.74 303.42,385.74 C302.68,385.74 302.12,385.76 301.83,385.78 C301.83,385.78 301.83,390.87 301.83,390.87z "/><path id="_R_G_L_5_G_L_6_G_D_1_P_0" fill="#2f2f2f" fill-opacity="1" fill-rule="nonzero" d=" M310.62 392.15 C310.6,393.86 311.59,395.21 313.62,395.21 C314.42,395.21 315.17,395.07 315.88,394.73 C315.93,394.69 315.97,394.73 315.97,394.8 C315.97,394.8 315.97,395.83 315.97,395.83 C315.97,395.93 315.93,395.97 315.88,396.01 C315.26,396.31 314.47,396.53 313.34,396.53 C310.22,396.53 309.11,394.24 309.11,392.04 C309.11,389.52 310.58,387.42 313.08,387.42 C315.66,387.42 316.6,389.51 316.6,391.04 C316.6,391.49 316.56,391.81 316.52,391.97 C316.52,392.03 316.47,392.08 316.4,392.08 C316.13,392.13 315.33,392.15 314.54,392.15 C314.54,392.15 310.62,392.15 310.62,392.15z  M313.98 391.04 C314.87,391.04 315.08,391.02 315.14,391 C315.16,390.95 315.16,390.86 315.16,390.8 C315.16,390.15 314.72,388.66 313.03,388.66 C311.54,388.66 310.8,389.83 310.64,391.04 C310.64,391.04 313.98,391.04 313.98,391.04z "/><path id="_R_G_L_5_G_L_6_G_D_2_P_0" fill="#2f2f2f" fill-opacity="1" fill-rule="nonzero" d=" M319.56 387.6 C319.67,387.6 319.69,387.63 319.73,387.72 C319.8,387.94 319.85,388.57 319.87,388.97 C320.5,388.1 321.62,387.42 322.77,387.42 C322.86,387.42 322.89,387.44 322.89,387.54 C322.89,387.54 322.89,388.84 322.89,388.84 C322.89,388.93 322.88,388.95 322.77,388.95 C321.53,388.93 320.39,389.54 319.94,390.26 C319.94,390.26 319.92,396.24 319.92,396.24 C319.92,396.33 319.89,396.35 319.82,396.35 C319.82,396.35 318.54,396.35 318.54,396.35 C318.45,396.35 318.41,396.31 318.41,396.22 C318.41,396.22 318.41,390.01 318.41,390.01 C318.41,389.25 318.37,388.21 318.32,387.71 C318.32,387.63 318.34,387.6 318.41,387.6 C318.41,387.6 319.56,387.6 319.56,387.6z "/><path id="_R_G_L_5_G_L_6_G_D_3_P_0" fill="#2f2f2f" fill-opacity="1" fill-rule="nonzero" d=" M324.37 396.35 C324.28,396.35 324.26,396.31 324.26,396.22 C324.26,396.22 324.26,389.49 324.26,389.49 C324.26,388.7 324.22,388.05 324.19,387.71 C324.19,387.63 324.21,387.6 324.3,387.6 C324.3,387.6 325.43,387.6 325.43,387.6 C325.5,387.6 325.54,387.63 325.57,387.69 C325.63,387.87 325.66,388.26 325.68,388.55 C326.51,387.78 327.39,387.42 328.38,387.42 C329.46,387.42 330.27,387.83 330.78,388.73 C331.53,387.99 332.47,387.42 333.79,387.42 C335.12,387.42 336.7,388.12 336.7,390.86 C336.7,390.86 336.7,396.24 336.7,396.24 C336.7,396.31 336.67,396.35 336.58,396.35 C336.58,396.35 335.33,396.35 335.33,396.35 C335.24,396.35 335.21,396.31 335.21,396.22 C335.21,396.22 335.21,390.96 335.21,390.96 C335.21,389.74 334.65,388.75 333.37,388.75 C332.47,388.75 331.73,389.15 331.16,389.79 C331.21,390.01 331.25,390.51 331.25,390.95 C331.25,390.95 331.25,396.22 331.25,396.22 C331.25,396.31 331.21,396.35 331.12,396.35 C331.12,396.35 329.86,396.35 329.86,396.35 C329.77,396.35 329.73,396.31 329.73,396.22 C329.73,396.22 329.73,390.91 329.73,390.91 C329.73,389.54 329.1,388.75 327.93,388.75 C327.09,388.75 326.44,389.07 325.76,389.76 C325.76,389.76 325.76,396.24 325.76,396.24 C325.76,396.31 325.74,396.35 325.65,396.35 C325.65,396.35 324.37,396.35 324.37,396.35z "/><path id="_R_G_L_5_G_L_6_G_D_4_P_0" fill="#2f2f2f" fill-opacity="1" fill-rule="nonzero" d=" M339.09 384.95 C339.09,384.41 339.47,384.03 340.01,384.03 C340.59,384.03 340.91,384.43 340.91,384.95 C340.91,385.49 340.55,385.87 339.99,385.87 C339.43,385.87 339.09,385.49 339.09,384.95z  M339.24 387.72 C339.24,387.63 339.27,387.6 339.36,387.6 C339.36,387.6 340.64,387.6 340.64,387.6 C340.71,387.6 340.75,387.62 340.75,387.71 C340.75,387.71 340.75,396.22 340.75,396.22 C340.75,396.31 340.73,396.35 340.62,396.35 C340.62,396.35 339.38,396.35 339.38,396.35 C339.29,396.35 339.24,396.31 339.24,396.2 C339.24,396.2 339.24,387.72 339.24,387.72z "/><path id="_R_G_L_5_G_L_6_G_D_5_P_0" fill="#2f2f2f" fill-opacity="1" fill-rule="nonzero" d=" M347.19 396.1 C347.19,396.17 347.18,396.24 347.09,396.28 C346.67,396.46 346.22,396.53 345.73,396.53 C344.42,396.53 343.63,395.9 343.63,394.17 C343.63,394.17 343.63,388.89 343.63,388.89 C343.63,388.89 342.4,388.89 342.4,388.89 C342.3,388.87 342.28,388.84 342.28,388.75 C342.28,388.75 342.28,387.72 342.28,387.72 C342.28,387.63 342.31,387.6 342.4,387.6 C342.4,387.6 343.63,387.6 343.63,387.6 C343.65,386.93 343.72,385.69 343.79,385.29 C343.81,385.22 343.84,385.19 343.92,385.17 C343.92,385.17 345.14,384.97 345.14,384.97 C345.21,384.95 345.25,384.97 345.25,385.04 C345.19,385.67 345.14,386.71 345.14,387.6 C345.14,387.6 347.05,387.6 347.05,387.6 C347.12,387.6 347.16,387.63 347.16,387.72 C347.16,387.72 347.16,388.79 347.16,388.79 C347.16,388.86 347.12,388.89 347.05,388.89 C347.05,388.89 345.14,388.89 345.14,388.89 C345.14,388.89 345.14,393.95 345.14,393.95 C345.14,394.78 345.45,395.25 346.24,395.25 C346.51,395.25 346.78,395.21 347.09,395.11 C347.14,395.09 347.19,395.09 347.19,395.18 C347.19,395.18 347.19,396.1 347.19,396.1z "/><path id="_R_G_L_5_G_L_6_G_D_6_P_0" fill="#2f2f2f" fill-opacity="1" fill-rule="nonzero" d=" M348.69 384.95 C348.69,384.41 349.06,384.03 349.6,384.03 C350.18,384.03 350.5,384.43 350.5,384.95 C350.5,385.49 350.14,385.87 349.59,385.87 C349.03,385.87 348.69,385.49 348.69,384.95z  M348.83 387.72 C348.83,387.63 348.87,387.6 348.96,387.6 C348.96,387.6 350.23,387.6 350.23,387.6 C350.31,387.6 350.34,387.62 350.34,387.71 C350.34,387.71 350.34,396.22 350.34,396.22 C350.34,396.31 350.32,396.35 350.22,396.35 C350.22,396.35 348.97,396.35 348.97,396.35 C348.88,396.35 348.83,396.31 348.83,396.2 C348.83,396.2 348.83,387.72 348.83,387.72z "/><path id="_R_G_L_5_G_L_6_G_D_7_P_0" fill="#2f2f2f" fill-opacity="1" fill-rule="nonzero" d=" M354.03 387.6 C354.14,387.6 354.16,387.63 354.19,387.72 C354.27,387.94 354.32,388.57 354.34,388.97 C354.97,388.1 356.09,387.42 357.24,387.42 C357.33,387.42 357.36,387.44 357.36,387.54 C357.36,387.54 357.36,388.84 357.36,388.84 C357.36,388.93 357.35,388.95 357.24,388.95 C356,388.93 354.86,389.54 354.41,390.26 C354.41,390.26 354.39,396.24 354.39,396.24 C354.39,396.33 354.36,396.35 354.28,396.35 C354.28,396.35 353.01,396.35 353.01,396.35 C352.92,396.35 352.88,396.31 352.88,396.22 C352.88,396.22 352.88,390.01 352.88,390.01 C352.88,389.25 352.84,388.21 352.79,387.71 C352.79,387.63 352.81,387.6 352.88,387.6 C352.88,387.6 354.03,387.6 354.03,387.6z "/><path id="_R_G_L_5_G_L_6_G_D_8_P_0" fill="#2f2f2f" fill-opacity="1" fill-rule="nonzero" d=" M363.64 392.15 C363.63,393.86 364.61,395.21 366.65,395.21 C367.44,395.21 368.2,395.07 368.9,394.73 C368.96,394.69 368.99,394.73 368.99,394.8 C368.99,394.8 368.99,395.83 368.99,395.83 C368.99,395.93 368.96,395.97 368.9,396.01 C368.29,396.31 367.5,396.53 366.36,396.53 C363.25,396.53 362.13,394.24 362.13,392.04 C362.13,389.52 363.61,387.42 366.11,387.42 C368.69,387.42 369.62,389.51 369.62,391.04 C369.62,391.49 369.59,391.81 369.55,391.97 C369.55,392.03 369.5,392.08 369.42,392.08 C369.15,392.13 368.36,392.15 367.57,392.15 C367.57,392.15 363.64,392.15 363.64,392.15z  M367.01 391.04 C367.89,391.04 368.11,391.02 368.16,391 C368.18,390.95 368.18,390.86 368.18,390.8 C368.18,390.15 367.75,388.66 366.06,388.66 C364.56,388.66 363.82,389.83 363.66,391.04 C363.66,391.04 367.01,391.04 367.01,391.04z "/><path id="_R_G_L_5_G_L_6_G_D_9_P_0" fill="#2f2f2f" fill-opacity="1" fill-rule="nonzero" d=" M371.44 383.55 C371.44,383.46 371.47,383.44 371.56,383.44 C371.56,383.44 372.82,383.44 372.82,383.44 C372.91,383.44 372.93,383.47 372.93,383.55 C372.93,383.55 372.93,394.4 372.93,394.4 C372.93,395.11 373.22,395.27 373.65,395.27 C373.78,395.27 373.85,395.25 374.01,395.21 C374.07,395.21 374.08,395.25 374.08,395.32 C374.08,395.32 374.08,396.26 374.08,396.26 C374.08,396.35 374.07,396.37 373.99,396.4 C373.83,396.47 373.54,396.53 373.17,396.53 C372.28,396.53 371.44,396.22 371.44,394.53 C371.44,394.53 371.44,383.55 371.44,383.55z "/><path id="_R_G_L_5_G_L_6_G_D_10_P_0" fill="#2f2f2f" fill-opacity="1" fill-rule="nonzero" d=" M385.95 394.82 C385.95,395.12 385.95,395.39 385.98,395.68 C385.98,395.72 385.98,395.73 385.95,395.75 C384.65,396.36 383.62,396.53 382.58,396.53 C380.67,396.53 379.23,395.59 379.23,393.7 C379.23,391.79 381.01,390.95 383.25,390.95 C383.91,390.95 384.29,390.96 384.49,390.98 C384.49,390.98 384.49,390.55 384.49,390.55 C384.49,389.99 384.22,388.75 382.45,388.75 C381.59,388.75 380.8,388.95 380.17,389.29 C380.11,389.31 380.04,389.29 380.04,389.2 C380.04,389.2 380.04,388.1 380.04,388.1 C380.04,388.03 380.08,387.99 380.13,387.96 C380.83,387.62 381.73,387.42 382.69,387.42 C384.99,387.42 385.95,388.93 385.95,390.8 C385.95,390.8 385.95,394.82 385.95,394.82z  M384.49 392.17 C384.24,392.13 383.84,392.1 383.3,392.1 C381.55,392.1 380.71,392.69 380.71,393.7 C380.71,394.51 381.27,395.3 382.85,395.3 C383.43,395.3 383.97,395.21 384.49,395 C384.49,395 384.49,392.17 384.49,392.17z "/><path id="_R_G_L_5_G_L_6_G_D_11_P_0" fill="#2f2f2f" fill-opacity="1" fill-rule="nonzero" d=" M394.24 396.11 C394.24,396.19 394.24,396.22 394.17,396.24 C393.58,396.47 392.88,396.53 392.21,396.53 C389.27,396.53 387.76,394.44 387.76,392.01 C387.76,389.38 389.63,387.42 392.46,387.42 C393.38,387.42 393.88,387.52 394.17,387.65 C394.24,387.69 394.24,387.72 394.24,387.81 C394.24,387.81 394.24,388.95 394.24,388.95 C394.24,389.04 394.19,389.04 394.12,389.02 C393.67,388.84 393.2,388.75 392.46,388.75 C390.61,388.75 389.29,389.99 389.29,391.95 C389.29,394.11 390.79,395.18 392.46,395.18 C393.13,395.18 393.69,395.11 394.14,394.92 C394.23,394.91 394.24,394.94 394.24,395 C394.24,395 394.24,396.11 394.24,396.11z "/><path id="_R_G_L_5_G_L_6_G_D_12_P_0" fill="#2f2f2f" fill-opacity="1" fill-rule="nonzero" d=" M401.8 396.11 C401.8,396.19 401.8,396.22 401.73,396.24 C401.14,396.47 400.44,396.53 399.77,396.53 C396.83,396.53 395.32,394.44 395.32,392.01 C395.32,389.38 397.19,387.42 400.02,387.42 C400.94,387.42 401.44,387.52 401.73,387.65 C401.8,387.69 401.8,387.72 401.8,387.81 C401.8,387.81 401.8,388.95 401.8,388.95 C401.8,389.04 401.75,389.04 401.68,389.02 C401.23,388.84 400.76,388.75 400.02,388.75 C398.17,388.75 396.85,389.99 396.85,391.95 C396.85,394.11 398.35,395.18 400.02,395.18 C400.69,395.18 401.25,395.11 401.7,394.92 C401.79,394.91 401.8,394.94 401.8,395 C401.8,395 401.8,396.11 401.8,396.11z "/><path id="_R_G_L_5_G_L_6_G_D_13_P_0" fill="#2f2f2f" fill-opacity="1" fill-rule="nonzero" d=" M404.39 392.15 C404.38,393.86 405.37,395.21 407.4,395.21 C408.19,395.21 408.95,395.07 409.65,394.73 C409.71,394.69 409.74,394.73 409.74,394.8 C409.74,394.8 409.74,395.83 409.74,395.83 C409.74,395.93 409.71,395.97 409.65,396.01 C409.04,396.31 408.25,396.53 407.11,396.53 C404,396.53 402.88,394.24 402.88,392.04 C402.88,389.52 404.36,387.42 406.86,387.42 C409.44,387.42 410.37,389.51 410.37,391.04 C410.37,391.49 410.34,391.81 410.3,391.97 C410.3,392.03 410.25,392.08 410.17,392.08 C409.9,392.13 409.11,392.15 408.32,392.15 C408.32,392.15 404.39,392.15 404.39,392.15z  M407.76 391.04 C408.64,391.04 408.86,391.02 408.91,391 C408.93,390.95 408.93,390.86 408.93,390.8 C408.93,390.15 408.5,388.66 406.81,388.66 C405.31,388.66 404.57,389.83 404.41,391.04 C404.41,391.04 407.76,391.04 407.76,391.04z "/><path id="_R_G_L_5_G_L_6_G_D_14_P_0" fill="#2f2f2f" fill-opacity="1" fill-rule="nonzero" d=" M414.87 388.66 C413.68,388.66 413.29,389.23 413.29,389.78 C413.29,390.32 413.61,390.69 414.96,391.23 C416.78,391.94 417.52,392.67 417.52,393.95 C417.52,395.61 416.17,396.53 414.29,396.53 C413.3,396.53 412.4,396.31 411.88,396.01 C411.83,395.97 411.79,395.93 411.79,395.84 C411.79,395.84 411.79,394.64 411.79,394.64 C411.79,394.55 411.85,394.51 411.9,394.55 C412.62,395.05 413.54,395.27 414.33,395.27 C415.48,395.27 416.04,394.76 416.04,394.1 C416.04,393.43 415.65,393.03 414.4,392.55 C412.6,391.86 411.85,391.13 411.85,389.85 C411.85,388.55 412.94,387.42 414.91,387.42 C415.9,387.42 416.64,387.6 417.01,387.81 C417.1,387.85 417.1,387.92 417.1,387.99 C417.1,387.99 417.1,389.09 417.1,389.09 C417.1,389.18 417.05,389.23 416.96,389.18 C416.46,388.87 415.63,388.66 414.87,388.66z "/><path id="_R_G_L_5_G_L_6_G_D_15_P_0" fill="#2f2f2f" fill-opacity="1" fill-rule="nonzero" d=" M427.04 391.95 C427.04,394.69 425.35,396.53 422.93,396.53 C420.04,396.53 418.79,394.19 418.79,391.97 C418.79,389.43 420.41,387.42 422.93,387.42 C425.47,387.42 427.04,389.36 427.04,391.95z  M420.31 391.94 C420.31,393.77 421.26,395.23 422.97,395.23 C424.25,395.23 425.51,394.22 425.51,391.99 C425.51,390.32 424.74,388.71 422.86,388.71 C421.35,388.71 420.31,390.01 420.31,391.94z "/><path id="_R_G_L_5_G_L_6_G_D_16_P_0" fill="#2f2f2f" fill-opacity="1" fill-rule="nonzero" d=" M439.08 394.82 C439.08,395.12 439.08,395.39 439.12,395.68 C439.12,395.72 439.12,395.73 439.08,395.75 C437.78,396.36 436.76,396.53 435.71,396.53 C433.81,396.53 432.37,395.59 432.37,393.7 C432.37,391.79 434.15,390.95 436.38,390.95 C437.05,390.95 437.43,390.96 437.62,390.98 C437.62,390.98 437.62,390.55 437.62,390.55 C437.62,389.99 437.35,388.75 435.59,388.75 C434.72,388.75 433.93,388.95 433.3,389.29 C433.25,389.31 433.18,389.29 433.18,389.2 C433.18,389.2 433.18,388.1 433.18,388.1 C433.18,388.03 433.21,387.99 433.27,387.96 C433.97,387.62 434.87,387.42 435.82,387.42 C438.13,387.42 439.08,388.93 439.08,390.8 C439.08,390.8 439.08,394.82 439.08,394.82z  M437.62 392.17 C437.37,392.13 436.97,392.1 436.43,392.1 C434.69,392.1 433.84,392.69 433.84,393.7 C433.84,394.51 434.4,395.3 435.98,395.3 C436.56,395.3 437.1,395.21 437.62,395 C437.62,395 437.62,392.17 437.62,392.17z "/><path id="_R_G_L_5_G_L_6_G_D_17_P_0" fill="#2f2f2f" fill-opacity="1" fill-rule="nonzero" d=" M445.76 383.55 C445.76,383.46 445.79,383.44 445.88,383.44 C445.88,383.44 447.14,383.44 447.14,383.44 C447.23,383.44 447.25,383.47 447.25,383.55 C447.25,383.55 447.25,394.4 447.25,394.4 C447.25,395.11 447.54,395.27 447.97,395.27 C448.1,395.27 448.17,395.25 448.33,395.21 C448.39,395.21 448.4,395.25 448.4,395.32 C448.4,395.32 448.4,396.26 448.4,396.26 C448.4,396.35 448.39,396.37 448.31,396.4 C448.15,396.47 447.86,396.53 447.49,396.53 C446.6,396.53 445.76,396.22 445.76,394.53 C445.76,394.53 445.76,383.55 445.76,383.55z "/><path id="_R_G_L_5_G_L_6_G_D_18_P_0" fill="#2f2f2f" fill-opacity="1" fill-rule="nonzero" d=" M456.18 394.82 C456.18,395.12 456.18,395.39 456.22,395.68 C456.22,395.72 456.22,395.73 456.18,395.75 C454.88,396.36 453.86,396.53 452.81,396.53 C450.91,396.53 449.47,395.59 449.47,393.7 C449.47,391.79 451.25,390.95 453.48,390.95 C454.15,390.95 454.53,390.96 454.72,390.98 C454.72,390.98 454.72,390.55 454.72,390.55 C454.72,389.99 454.45,388.75 452.69,388.75 C451.82,388.75 451.03,388.95 450.4,389.29 C450.35,389.31 450.28,389.29 450.28,389.2 C450.28,389.2 450.28,388.1 450.28,388.1 C450.28,388.03 450.31,387.99 450.37,387.96 C451.07,387.62 451.97,387.42 452.92,387.42 C455.23,387.42 456.18,388.93 456.18,390.8 C456.18,390.8 456.18,394.82 456.18,394.82z  M454.72 392.17 C454.47,392.13 454.07,392.1 453.53,392.1 C451.79,392.1 450.94,392.69 450.94,393.7 C450.94,394.51 451.5,395.3 453.08,395.3 C453.66,395.3 454.2,395.21 454.72,395 C454.72,395 454.72,392.17 454.72,392.17z "/><path id="_R_G_L_5_G_L_6_G_D_19_P_0" fill="#2f2f2f" fill-opacity="1" fill-rule="nonzero" d=" M461.06 388.66 C459.87,388.66 459.47,389.23 459.47,389.78 C459.47,390.32 459.8,390.69 461.15,391.23 C462.97,391.94 463.71,392.67 463.71,393.95 C463.71,395.61 462.35,396.53 460.48,396.53 C459.49,396.53 458.59,396.31 458.07,396.01 C458.02,395.97 457.98,395.93 457.98,395.84 C457.98,395.84 457.98,394.64 457.98,394.64 C457.98,394.55 458.03,394.51 458.09,394.55 C458.81,395.05 459.73,395.27 460.52,395.27 C461.67,395.27 462.23,394.76 462.23,394.1 C462.23,393.43 461.83,393.03 460.59,392.55 C458.79,391.86 458.03,391.13 458.03,389.85 C458.03,388.55 459.13,387.42 461.09,387.42 C462.08,387.42 462.82,387.6 463.2,387.81 C463.29,387.85 463.29,387.92 463.29,387.99 C463.29,387.99 463.29,389.09 463.29,389.09 C463.29,389.18 463.24,389.23 463.15,389.18 C462.64,388.87 461.81,388.66 461.06,388.66z "/><path id="_R_G_L_5_G_L_6_G_D_20_P_0" fill="#2f2f2f" fill-opacity="1" fill-rule="nonzero" d=" M471.17 391.95 C471.17,393.93 472.25,395.18 474.22,395.18 C475.73,395.18 477.17,394.51 477.17,391.92 C477.17,391.92 477.17,384.57 477.17,384.57 C477.17,384.48 477.21,384.45 477.28,384.45 C477.28,384.45 478.56,384.45 478.56,384.45 C478.65,384.45 478.68,384.48 478.68,384.57 C478.68,384.57 478.68,391.94 478.68,391.94 C478.68,395.25 476.72,396.53 474.16,396.53 C471.44,396.53 469.68,395.05 469.68,392.04 C469.68,392.04 469.68,384.57 469.68,384.57 C469.68,384.5 469.7,384.45 469.79,384.45 C469.79,384.45 471.07,384.45 471.07,384.45 C471.14,384.45 471.17,384.48 471.17,384.55 C471.17,384.55 471.17,391.95 471.17,391.95z "/><path id="_R_G_L_5_G_L_6_G_D_21_P_0" fill="#2f2f2f" fill-opacity="1" fill-rule="nonzero" d=" M481.54 396.35 C481.47,396.35 481.43,396.33 481.43,396.24 C481.43,396.24 481.43,384.61 481.43,384.61 C481.43,384.52 481.45,384.46 481.54,384.46 C482.55,384.43 483.47,384.41 484.67,384.41 C487.32,384.41 489.08,385.54 489.08,387.85 C489.08,389.54 487.93,390.59 486.6,391.04 C487.21,391.88 489.62,395.43 490.09,396.2 C490.13,396.28 490.13,396.35 490.04,396.35 C490.04,396.35 488.53,396.35 488.53,396.35 C488.42,396.35 488.38,396.33 488.33,396.28 C487.77,395.43 486.28,393.12 485.38,391.74 C485.23,391.52 485.14,391.45 484.96,391.45 C484.96,391.45 482.91,391.45 482.91,391.45 C482.91,391.45 482.91,396.24 482.91,396.24 C482.91,396.31 482.87,396.35 482.8,396.35 C482.8,396.35 481.54,396.35 481.54,396.35z  M484.83 390.14 C486.55,390.14 487.59,389.25 487.59,387.92 C487.59,386.55 486.55,385.74 484.62,385.74 C483.93,385.74 483.27,385.76 482.91,385.78 C482.91,385.78 482.91,390.14 482.91,390.14 C482.91,390.14 484.83,390.14 484.83,390.14z "/><path id="_R_G_L_5_G_L_6_G_D_22_P_0" fill="#2f2f2f" fill-opacity="1" fill-rule="nonzero" d=" M491.73 396.35 C491.62,396.35 491.58,396.29 491.58,396.2 C491.58,396.2 491.58,384.57 491.58,384.57 C491.58,384.5 491.6,384.45 491.69,384.45 C491.69,384.45 492.99,384.45 492.99,384.45 C493.06,384.45 493.08,384.48 493.08,384.55 C493.08,384.55 493.08,394.98 493.08,394.98 C493.08,394.98 498.66,394.98 498.66,394.98 C498.75,394.98 498.77,395.03 498.75,395.09 C498.75,395.09 498.53,396.24 498.53,396.24 C498.52,396.33 498.46,396.35 498.39,396.35 C498.39,396.35 491.73,396.35 491.73,396.35z "/><path id="_R_G_L_5_G_L_6_G_D_23_P_0" fill="#2f2f2f" fill-opacity="1" fill-rule="nonzero" d=" M503.55 392.04 C503.55,389.4 505.52,387.42 508.45,387.42 C508.95,387.42 509.24,387.47 509.59,387.52 C509.59,387.52 509.59,383.55 509.59,383.55 C509.59,383.46 509.62,383.44 509.69,383.44 C509.69,383.44 510.99,383.44 510.99,383.44 C511.08,383.44 511.1,383.47 511.1,383.53 C511.1,383.53 511.1,394.87 511.1,394.87 C511.1,395.12 511.1,395.43 511.13,395.74 C511.13,395.81 511.12,395.83 511.04,395.86 C510.02,396.35 509.01,396.53 508,396.53 C505.5,396.53 503.55,395.02 503.55,392.04z  M509.59 388.89 C509.3,388.77 508.86,388.71 508.41,388.71 C506.36,388.71 505.08,390.1 505.08,391.97 C505.08,394.31 506.56,395.21 508.14,395.21 C508.61,395.21 509.17,395.16 509.59,394.98 C509.59,394.98 509.59,388.89 509.59,388.89z "/><path id="_R_G_L_5_G_L_6_G_D_24_P_0" fill="#2f2f2f" fill-opacity="1" fill-rule="nonzero" d=" M514.5 392.15 C514.48,393.86 515.47,395.21 517.5,395.21 C518.3,395.21 519.05,395.07 519.75,394.73 C519.81,394.69 519.84,394.73 519.84,394.8 C519.84,394.8 519.84,395.83 519.84,395.83 C519.84,395.93 519.81,395.97 519.75,396.01 C519.14,396.31 518.35,396.53 517.21,396.53 C514.1,396.53 512.98,394.24 512.98,392.04 C512.98,389.52 514.46,387.42 516.96,387.42 C519.54,387.42 520.47,389.51 520.47,391.04 C520.47,391.49 520.44,391.81 520.4,391.97 C520.4,392.03 520.35,392.08 520.28,392.08 C520.01,392.13 519.21,392.15 518.42,392.15 C518.42,392.15 514.5,392.15 514.5,392.15z  M517.86 391.04 C518.75,391.04 518.96,391.02 519.02,391 C519.03,390.95 519.03,390.86 519.03,390.8 C519.03,390.15 518.6,388.66 516.91,388.66 C515.42,388.66 514.68,389.83 514.51,391.04 C514.51,391.04 517.86,391.04 517.86,391.04z "/><path id="_R_G_L_5_G_L_6_G_D_25_P_0" fill="#2f2f2f" fill-opacity="1" fill-rule="nonzero" d=" M526.45 383.55 C526.45,383.46 526.48,383.44 526.57,383.44 C526.57,383.44 527.83,383.44 527.83,383.44 C527.92,383.44 527.94,383.47 527.94,383.55 C527.94,383.55 527.94,394.4 527.94,394.4 C527.94,395.11 528.23,395.27 528.66,395.27 C528.79,395.27 528.86,395.25 529.02,395.21 C529.08,395.21 529.09,395.25 529.09,395.32 C529.09,395.32 529.09,396.26 529.09,396.26 C529.09,396.35 529.08,396.37 529,396.4 C528.84,396.47 528.55,396.53 528.18,396.53 C527.29,396.53 526.45,396.22 526.45,394.53 C526.45,394.53 526.45,383.55 526.45,383.55z "/><path id="_R_G_L_5_G_L_6_G_D_26_P_0" fill="#2f2f2f" fill-opacity="1" fill-rule="nonzero" d=" M538.4 391.95 C538.4,394.69 536.71,396.53 534.3,396.53 C531.4,396.53 530.16,394.19 530.16,391.97 C530.16,389.43 531.78,387.42 534.3,387.42 C536.84,387.42 538.4,389.36 538.4,391.95z  M531.67 391.94 C531.67,393.77 532.62,395.23 534.33,395.23 C535.61,395.23 536.87,394.22 536.87,391.99 C536.87,390.32 536.1,388.71 534.22,388.71 C532.71,388.71 531.67,390.01 531.67,391.94z "/><path id="_R_G_L_5_G_L_6_G_D_27_P_0" fill="#2f2f2f" fill-opacity="1" fill-rule="nonzero" d=" M542.99 388.66 C541.8,388.66 541.41,389.23 541.41,389.78 C541.41,390.32 541.73,390.69 543.08,391.23 C544.9,391.94 545.64,392.67 545.64,393.95 C545.64,395.61 544.29,396.53 542.41,396.53 C541.42,396.53 540.52,396.31 540,396.01 C539.95,395.97 539.91,395.93 539.91,395.84 C539.91,395.84 539.91,394.64 539.91,394.64 C539.91,394.55 539.97,394.51 540.02,394.55 C540.74,395.05 541.66,395.27 542.45,395.27 C543.6,395.27 544.16,394.76 544.16,394.1 C544.16,393.43 543.76,393.03 542.52,392.55 C540.72,391.86 539.97,391.13 539.97,389.85 C539.97,388.55 541.06,387.42 543.03,387.42 C544.02,387.42 544.76,387.6 545.13,387.81 C545.22,387.85 545.22,387.92 545.22,387.99 C545.22,387.99 545.22,389.09 545.22,389.09 C545.22,389.18 545.17,389.23 545.08,389.18 C544.57,388.87 543.75,388.66 542.99,388.66z "/><path id="_R_G_L_5_G_L_6_G_D_28_P_0" fill="#2f2f2f" fill-opacity="1" fill-rule="nonzero" d=" M557.61 394.82 C557.61,395.12 557.61,395.39 557.64,395.68 C557.64,395.72 557.64,395.73 557.61,395.75 C556.31,396.36 555.29,396.53 554.24,396.53 C552.33,396.53 550.89,395.59 550.89,393.7 C550.89,391.79 552.67,390.95 554.91,390.95 C555.57,390.95 555.95,390.96 556.15,390.98 C556.15,390.98 556.15,390.55 556.15,390.55 C556.15,389.99 555.88,388.75 554.11,388.75 C553.25,388.75 552.46,388.95 551.83,389.29 C551.77,389.31 551.7,389.29 551.7,389.2 C551.7,389.2 551.7,388.1 551.7,388.1 C551.7,388.03 551.74,387.99 551.79,387.96 C552.49,387.62 553.39,387.42 554.35,387.42 C556.65,387.42 557.61,388.93 557.61,390.8 C557.61,390.8 557.61,394.82 557.61,394.82z  M556.15 392.17 C555.9,392.13 555.5,392.1 554.96,392.1 C553.21,392.1 552.37,392.69 552.37,393.7 C552.37,394.51 552.93,395.3 554.51,395.3 C555.09,395.3 555.63,395.21 556.15,395 C556.15,395 556.15,392.17 556.15,392.17z "/><path id="_R_G_L_5_G_L_6_G_D_29_P_0" fill="#2f2f2f" fill-opacity="1" fill-rule="nonzero" d=" M561.28 387.6 C561.39,387.6 561.4,387.63 561.44,387.72 C561.51,387.94 561.57,388.57 561.58,388.97 C562.21,388.1 563.33,387.42 564.48,387.42 C564.57,387.42 564.61,387.44 564.61,387.54 C564.61,387.54 564.61,388.84 564.61,388.84 C564.61,388.93 564.59,388.95 564.48,388.95 C563.24,388.93 562.11,389.54 561.66,390.26 C561.66,390.26 561.64,396.24 561.64,396.24 C561.64,396.33 561.6,396.35 561.53,396.35 C561.53,396.35 560.25,396.35 560.25,396.35 C560.16,396.35 560.13,396.31 560.13,396.22 C560.13,396.22 560.13,390.01 560.13,390.01 C560.13,389.25 560.09,388.21 560.04,387.71 C560.04,387.63 560.05,387.6 560.13,387.6 C560.13,387.6 561.28,387.6 561.28,387.6z "/><path id="_R_G_L_5_G_L_6_G_D_30_P_0" fill="#2f2f2f" fill-opacity="1" fill-rule="nonzero" d=" M571.85 396.11 C571.85,396.19 571.85,396.22 571.77,396.24 C571.18,396.47 570.48,396.53 569.81,396.53 C566.88,396.53 565.36,394.44 565.36,392.01 C565.36,389.38 567.24,387.42 570.06,387.42 C570.98,387.42 571.49,387.52 571.77,387.65 C571.85,387.69 571.85,387.72 571.85,387.81 C571.85,387.81 571.85,388.95 571.85,388.95 C571.85,389.04 571.79,389.04 571.72,389.02 C571.27,388.84 570.8,388.75 570.06,388.75 C568.21,388.75 566.89,389.99 566.89,391.95 C566.89,394.11 568.39,395.18 570.06,395.18 C570.73,395.18 571.29,395.11 571.74,394.92 C571.83,394.91 571.85,394.94 571.85,395 C571.85,395 571.85,396.11 571.85,396.11z "/><path id="_R_G_L_5_G_L_6_G_D_31_P_0" fill="#2f2f2f" fill-opacity="1" fill-rule="nonzero" d=" M575.16 396.24 C575.16,396.33 575.14,396.35 575.05,396.35 C575.05,396.35 573.79,396.35 573.79,396.35 C573.7,396.35 573.66,396.31 573.66,396.22 C573.66,396.22 573.66,383.55 573.66,383.55 C573.66,383.47 573.68,383.44 573.77,383.44 C573.77,383.44 575.06,383.44 575.06,383.44 C575.14,383.44 575.16,383.46 575.16,383.53 C575.16,383.53 575.17,388.46 575.17,388.46 C575.91,387.78 576.78,387.42 577.84,387.42 C579.12,387.42 580.77,388.05 580.77,390.89 C580.77,390.89 580.77,396.22 580.77,396.22 C580.77,396.31 580.74,396.35 580.65,396.35 C580.65,396.35 579.39,396.35 579.39,396.35 C579.29,396.35 579.26,396.31 579.26,396.2 C579.26,396.2 579.26,391.05 579.26,391.05 C579.26,389.67 578.67,388.75 577.41,388.75 C576.52,388.75 575.73,389.11 575.16,389.74 C575.16,389.74 575.16,396.24 575.16,396.24z "/><path id="_R_G_L_5_G_L_6_G_D_32_P_0" fill="#2f2f2f" fill-opacity="1" fill-rule="nonzero" d=" M583.16 384.95 C583.16,384.41 583.54,384.03 584.08,384.03 C584.66,384.03 584.98,384.43 584.98,384.95 C584.98,385.49 584.62,385.87 584.06,385.87 C583.51,385.87 583.16,385.49 583.16,384.95z  M583.31 387.72 C583.31,387.63 583.34,387.6 583.43,387.6 C583.43,387.6 584.71,387.6 584.71,387.6 C584.79,387.6 584.82,387.62 584.82,387.71 C584.82,387.71 584.82,396.22 584.82,396.22 C584.82,396.31 584.8,396.35 584.7,396.35 C584.7,396.35 583.45,396.35 583.45,396.35 C583.36,396.35 583.31,396.31 583.31,396.2 C583.31,396.2 583.31,387.72 583.31,387.72z "/><path id="_R_G_L_5_G_L_6_G_D_33_P_0" fill="#2f2f2f" fill-opacity="1" fill-rule="nonzero" d=" M589.57 396.35 C589.46,396.35 589.45,396.31 589.41,396.26 C589.03,395.16 586.82,388.93 586.39,387.72 C586.37,387.65 586.37,387.6 586.46,387.6 C586.46,387.6 587.84,387.6 587.84,387.6 C587.93,387.6 587.95,387.63 587.99,387.71 C589.5,392.26 590.15,394.22 590.35,394.96 C590.35,394.96 590.38,394.96 590.38,394.96 C590.6,394.22 591.27,392.29 592.85,387.69 C592.89,387.62 592.92,387.6 592.99,387.6 C592.99,387.6 594.24,387.6 594.24,387.6 C594.29,387.6 594.34,387.63 594.31,387.72 C593.79,389.13 591.59,395.16 591.19,396.24 C591.16,396.31 591.12,396.35 591.03,396.35 C591.03,396.35 589.57,396.35 589.57,396.35z "/><path id="_R_G_L_5_G_L_6_G_D_34_P_0" fill="#2f2f2f" fill-opacity="1" fill-rule="nonzero" d=" M603.45 391.95 C603.45,394.69 601.76,396.53 599.35,396.53 C596.45,396.53 595.2,394.19 595.2,391.97 C595.2,389.43 596.83,387.42 599.35,387.42 C601.89,387.42 603.45,389.36 603.45,391.95z  M596.72 391.94 C596.72,393.77 597.67,395.23 599.38,395.23 C600.66,395.23 601.92,394.22 601.92,391.99 C601.92,390.32 601.15,388.71 599.27,388.71 C597.76,388.71 596.72,390.01 596.72,391.94z "/><path id="_R_G_L_5_G_L_6_G_D_35_P_0" fill="#2f2f2f" fill-opacity="1" fill-rule="nonzero" d=" M608.04 388.66 C606.85,388.66 606.45,389.23 606.45,389.78 C606.45,390.32 606.78,390.69 608.13,391.23 C609.95,391.94 610.69,392.67 610.69,393.95 C610.69,395.61 609.34,396.53 607.46,396.53 C606.47,396.53 605.57,396.31 605.05,396.01 C605,395.97 604.96,395.93 604.96,395.84 C604.96,395.84 604.96,394.64 604.96,394.64 C604.96,394.55 605.02,394.51 605.07,394.55 C605.79,395.05 606.71,395.27 607.5,395.27 C608.65,395.27 609.21,394.76 609.21,394.1 C609.21,393.43 608.81,393.03 607.57,392.55 C605.77,391.86 605.02,391.13 605.02,389.85 C605.02,388.55 606.11,387.42 608.08,387.42 C609.07,387.42 609.8,387.6 610.18,387.81 C610.27,387.85 610.27,387.92 610.27,387.99 C610.27,387.99 610.27,389.09 610.27,389.09 C610.27,389.18 610.22,389.23 610.13,389.18 C609.62,388.87 608.8,388.66 608.04,388.66z "/></g></g><g id="_R_G_L_5_G_L_5_G_N_8_T_0"><g id="_R_G_L_5_G_L_5_G" transform=" translate(327.159, 172.252) translate(0, 0)"><path id="_R_G_L_5_G_L_5_G_D_0_P_0" fill="#c30000" fill-opacity="1" fill-rule="nonzero" d=" M-7.94 -11.98 C-7.94,-11.98 7.94,-11.98 7.94,-11.98 C10.34,-11.98 12.29,-10.04 12.29,-7.64 C12.29,-7.63 12.29,-7.63 12.29,-7.63 C12.29,-7.63 12.29,7.63 12.29,7.63 C12.29,10.03 10.35,11.98 7.94,11.98 C7.94,11.98 7.94,11.98 7.94,11.98 C7.94,11.98 -7.94,11.98 -7.94,11.98 C-10.34,11.98 -12.29,10.04 -12.29,7.64 C-12.29,7.63 -12.29,7.63 -12.29,7.63 C-12.29,7.63 -12.29,-7.63 -12.29,-7.63 C-12.29,-10.03 -10.34,-11.98 -7.94,-11.98 C-7.94,-11.98 -7.94,-11.98 -7.94,-11.98z "/></g></g><g id="_R_G_L_5_G_L_4_G_N_8_T_0"><g id="_R_G_L_5_G_L_4_G" transform=" translate(327.332, 172.278) translate(0, 0)"><path id="_R_G_L_5_G_L_4_G_D_0_P_0" fill="#ffffff" fill-opacity="1" fill-rule="nonzero" d=" M7.3 1.87 C6.16,0.66 3.02,1.15 2.28,1.27 C1.46,0.45 0.76,-0.48 0.19,-1.49 C0.61,-2.65 0.85,-3.88 0.9,-5.11 C0.9,-6.22 0.46,-7.41 -0.77,-7.41 C-1.19,-7.4 -1.58,-7.17 -1.8,-6.8 C-2.33,-5.9 -2.12,-4.04 -1.28,-2.16 C-1.77,-0.77 -2.48,1.22 -3.41,2.84 C-4.67,3.34 -7.34,4.57 -7.6,5.93 C-7.68,6.34 -7.54,6.75 -7.23,7.02 C-6.93,7.28 -6.54,7.42 -6.14,7.41 C-4.54,7.41 -2.93,5.18 -1.84,3.26 C-0.59,2.83 0.69,2.5 1.99,2.26 C3.69,3.74 5.2,3.97 5.97,3.97 C7.02,3.97 7.4,3.52 7.55,3.14 C7.7,2.7 7.61,2.22 7.3,1.87z  M6.2 2.65 C6.15,2.94 5.77,3.24 5.06,3.09 C4.24,2.88 3.48,2.5 2.83,1.96 C3.38,1.87 4.67,1.75 5.58,1.92 C5.91,1.98 6.29,2.17 6.2,2.65z  M-1.14 -6.42 C-1.07,-6.55 -0.93,-6.64 -0.78,-6.64 C-0.39,-6.64 -0.31,-6.17 -0.31,-5.78 C-0.37,-4.85 -0.54,-3.93 -0.82,-3.05 C-1.47,-4.79 -1.38,-6 -1.14,-6.42z  M-1.23 2.09 C-0.85,1.3 -0.51,0.49 -0.21,-0.34 C0.19,0.31 0.66,0.92 1.18,1.48 C0.37,1.64 -0.44,1.85 -1.23,2.09z  M-3.8 3.86 C-4.83,5.51 -5.85,6.56 -6.44,6.56 C-6.54,6.56 -6.63,6.53 -6.71,6.47 C-6.82,6.38 -6.87,6.23 -6.84,6.09 C-6.73,5.49 -5.55,4.63 -3.8,3.86 C-3.8,3.86 -3.8,3.86 -3.8,3.86z "/></g></g><g id="_R_G_L_5_G_L_3_G_M"><g id="_R_G_L_5_G_L_3_G" transform=" translate(692.84, 390.818) translate(0, 0)"><path id="_R_G_L_5_G_L_3_G_D_0_P_0" fill="#9cb9f0" fill-opacity="1" fill-rule="nonzero" d=" M10.9 7.6 C10.9,7.6 -10.9,7.6 -10.9,7.6 C-15.1,7.6 -18.5,4.2 -18.5,0 C-18.5,0 -18.5,0 -18.5,0 C-18.5,-4.2 -15.1,-7.6 -10.9,-7.6 C-10.9,-7.6 10.9,-7.6 10.9,-7.6 C15.1,-7.6 18.5,-4.2 18.5,0 C18.5,0 18.5,0 18.5,0 C18.5,4.2 15.1,7.6 10.9,7.6z "/></g></g><g id="_R_G_L_5_G_L_2_G_N_8_T_0_M"><g id="_R_G_L_5_G_L_2_G_N_8_T_0"><g id="_R_G_L_5_G_L_2_G" transform=" translate(692.84, 390.818) translate(0, 0)"><path id="_R_G_L_5_G_L_2_G_D_0_P_0" fill="#bfc1c5" fill-opacity="1" fill-rule="nonzero" d=" M10.9 7.6 C10.9,7.6 -10.9,7.6 -10.9,7.6 C-15.1,7.6 -18.5,4.2 -18.5,0 C-18.5,0 -18.5,0 -18.5,0 C-18.5,-4.2 -15.1,-7.6 -10.9,-7.6 C-10.9,-7.6 10.9,-7.6 10.9,-7.6 C15.1,-7.6 18.5,-4.2 18.5,0 C18.5,0 18.5,0 18.5,0 C18.5,4.2 15.1,7.6 10.9,7.6z "/></g></g></g><g id="_R_G_L_5_G_L_1_G_N_8_T_0_M"><g id="_R_G_L_5_G_L_1_G_N_8_T_0"><g id="_R_G_L_5_G_L_1_G"><path id="_R_G_L_5_G_L_1_G_D_0_P_0" fill="#ffffff" fill-opacity="1" fill-rule="nonzero" d=" M-10.46 0 C-10.46,5.78 -5.78,10.46 0,10.46 C5.78,10.46 10.46,5.78 10.46,0 C10.46,-5.78 5.78,-10.46 0,-10.46 C-5.78,-10.46 -10.46,-5.78 -10.46,0z "/><path id="_R_G_L_5_G_L_1_G_D_1_P_0" stroke="#e6e6e6" stroke-linecap="round" stroke-linejoin="round" fill="none" stroke-width="1" stroke-opacity="1" d=" M-10.46 0 C-10.46,5.78 -5.78,10.46 0,10.46 C5.78,10.46 10.46,5.78 10.46,0 C10.46,-5.78 5.78,-10.46 0,-10.46 C-5.78,-10.46 -10.46,-5.78 -10.46,0z "/></g></g></g><g id="_R_G_L_5_G_L_0_G_M"><g id="_R_G_L_5_G_L_0_G"><path id="_R_G_L_5_G_L_0_G_D_0_P_0" fill="#3872e0" fill-opacity="1" fill-rule="nonzero" d=" M-10.46 0 C-10.46,5.78 -5.78,10.46 0,10.46 C5.78,10.46 10.46,5.78 10.46,0 C10.46,-5.78 5.78,-10.46 0,-10.46 C-5.78,-10.46 -10.46,-5.78 -10.46,0z "/></g></g></g><g id="_R_G_L_4_G_M"><g id="_R_G_L_4_G" transform=" translate(683.13, 395.892) scale(0.6, 0.6) translate(-1378.179, -739.009)"><g id="_R_G_L_4_G_D_0_P_0_G_0_T_0" transform=" translate(1378.179, 739.009)"><path id="_R_G_L_4_G_D_0_P_0" stroke="#ffa72f" stroke-linecap="round" stroke-linejoin="round" fill="none" stroke-width="13" stroke-opacity="1" d=" M61.7 0 C61.7,34.07 34.07,61.7 0,61.7 C-34.07,61.7 -61.7,34.07 -61.7,0 C-61.7,-34.07 -34.07,-61.7 0,-61.7 C34.07,-61.7 61.7,-34.07 61.7,0z "/></g></g></g><g id="_R_G_L_3_G_M"><g id="_R_G_L_3_G" transform=" translate(683.13, 395.892) scale(0.6, 0.6) translate(-1378.179, -739.009)"><g id="_R_G_L_3_G_D_0_P_0_G_0_T_0" transform=" translate(1378.179, 739.009)"><path id="_R_G_L_3_G_D_0_P_0" stroke="#ffa72f" stroke-linecap="round" stroke-linejoin="round" fill="none" stroke-width="7.5" stroke-opacity="1" d=" M82.12 0 C82.12,45.36 45.36,82.12 0,82.12 C-45.35,82.12 -82.12,45.36 -82.12,0 C-82.12,-45.35 -45.35,-82.12 0,-82.12 C45.36,-82.12 82.12,-45.35 82.12,0z "/></g></g></g><g id="_R_G_L_2_G_M"><g id="_R_G_L_2_G" transform=" translate(683.13, 395.892) scale(0.6, 0.6) translate(-1378.179, -739.009)"><g id="_R_G_L_2_G_D_0_P_0_G_0_T_0" transform=" translate(1378.179, 739.009)"><path id="_R_G_L_2_G_D_0_P_0" stroke="#ffa72f" stroke-linecap="round" stroke-linejoin="round" fill="none" stroke-width="2.5" stroke-opacity="1" d=" M99.12 0 C99.12,54.74 54.74,99.12 0,99.12 C-54.74,99.12 -99.12,54.74 -99.12,0 C-99.12,-54.74 -54.74,-99.12 0,-99.12 C54.74,-99.12 99.12,-54.74 99.12,0z "/></g></g></g><g id="_R_G_L_1_G_N_1_T_0_M"><g id="_R_G_L_1_G_N_1_T_0"><g id="_R_G_L_1_G" opacity="0.3" transform=" translate(1568.36, 743.988) translate(-1562.36, -741.21)"><path id="_R_G_L_1_G_D_0_P_0" fill="#1a1818" fill-opacity="1" fill-rule="nonzero" d=" M1576.33 783.55 C1576.33,783.55 1575.58,783.55 1575.58,783.55 C1575.58,783.55 1574.45,782.42 1574.45,782.42 C1574.45,782.42 1570.31,771.88 1570.31,771.88 C1570.31,771.88 1563.9,776.77 1563.9,776.77 C1563.9,776.77 1562.03,776.77 1562.03,776.77 C1561.41,776.51 1560.98,775.93 1560.9,775.27 C1560.9,775.27 1560.14,740.63 1560.14,740.63 C1560.08,739.82 1560.53,739.07 1561.27,738.75 C1561.27,738.75 1562.03,738.75 1562.03,738.75 C1562.03,738.75 1563.53,739.5 1563.53,739.5 C1563.53,739.5 1586.5,765.11 1586.5,765.11 C1587.14,765.93 1587,767.11 1586.18,767.75 C1585.94,767.94 1585.67,768.06 1585.37,768.12 C1585.37,768.12 1577.09,769.25 1577.09,769.25 C1577.09,769.25 1581.23,779.78 1581.23,779.78 C1581.49,780.71 1581,781.69 1580.1,782.04 C1580.1,782.04 1576.71,783.17 1576.71,783.17 C1576.71,783.17 1576.33,783.17 1576.33,783.17 "/><path id="_R_G_L_1_G_D_1_P_0" fill="#000000" fill-opacity="1" fill-rule="nonzero" d=" M1562.03 740.63 C1562.03,740.63 1585.36,766.6 1585.36,766.6 C1585.36,766.6 1574.82,767.74 1574.82,767.74 C1574.82,767.74 1580.1,780.54 1580.1,780.54 C1580.1,780.54 1576.71,781.67 1576.71,781.67 C1576.71,781.67 1571.07,768.87 1571.07,768.87 C1571.07,768.87 1562.77,775.27 1562.77,775.27 C1562.77,775.27 1562.03,740.63 1562.03,740.63  M1562.03 736.86 C1562.03,736.86 1560.52,736.86 1560.52,736.86 C1559.03,737.5 1558.12,739.02 1558.25,740.63 C1558.25,740.63 1559.01,775.27 1559.01,775.27 C1559.03,776.74 1559.92,778.07 1561.27,778.66 C1561.27,778.66 1562.76,778.66 1562.76,778.66 C1562.76,778.66 1565.02,777.91 1565.02,777.91 C1565.02,777.91 1569.54,774.89 1569.54,774.89 C1569.54,774.89 1572.95,783.17 1572.95,783.17 C1573.54,784.52 1574.86,785.4 1576.33,785.43 C1576.33,785.43 1577.84,785.43 1577.84,785.43 C1577.84,785.43 1581.23,784.3 1581.23,784.3 C1583.19,783.6 1584.22,781.45 1583.52,779.49 C1583.52,779.49 1583.52,779.49 1583.52,779.49 C1583.51,779.46 1583.5,779.43 1583.49,779.4 C1583.49,779.4 1579.72,770.74 1579.72,770.74 C1579.72,770.74 1585.75,770.74 1585.75,770.74 C1587.82,770.52 1589.31,768.67 1589.1,766.6 C1589.01,765.74 1588.62,764.94 1588.01,764.33 C1588.01,764.33 1564.67,737.98 1564.67,737.98 C1563.97,737.27 1563.02,736.87 1562.02,736.85 "/></g></g></g><g id="_R_G_L_0_G_M"><g id="_R_G_L_0_G"><path id="_R_G_L_0_G_D_0_P_0" fill="#1a1818" fill-opacity="1" fill-rule="nonzero" d=" M1576.33 783.55 C1576.33,783.55 1575.58,783.55 1575.58,783.55 C1575.58,783.55 1574.45,782.42 1574.45,782.42 C1574.45,782.42 1570.31,771.88 1570.31,771.88 C1570.31,771.88 1563.9,776.77 1563.9,776.77 C1563.9,776.77 1562.03,776.77 1562.03,776.77 C1561.41,776.51 1560.98,775.93 1560.9,775.27 C1560.9,775.27 1560.14,740.63 1560.14,740.63 C1560.08,739.82 1560.53,739.07 1561.27,738.75 C1561.27,738.75 1562.03,738.75 1562.03,738.75 C1562.03,738.75 1563.53,739.5 1563.53,739.5 C1563.53,739.5 1586.5,765.11 1586.5,765.11 C1587.14,765.93 1587,767.11 1586.18,767.75 C1585.94,767.94 1585.67,768.06 1585.37,768.12 C1585.37,768.12 1577.09,769.25 1577.09,769.25 C1577.09,769.25 1581.23,779.78 1581.23,779.78 C1581.49,780.71 1581,781.69 1580.1,782.04 C1580.1,782.04 1576.71,783.17 1576.71,783.17 C1576.71,783.17 1576.33,783.17 1576.33,783.17 "/><path id="_R_G_L_0_G_D_1_P_0" fill="#ffffff" fill-opacity="1" fill-rule="nonzero" d=" M1562.03 740.63 C1562.03,740.63 1585.36,766.6 1585.36,766.6 C1585.36,766.6 1574.82,767.74 1574.82,767.74 C1574.82,767.74 1580.1,780.54 1580.1,780.54 C1580.1,780.54 1576.71,781.67 1576.71,781.67 C1576.71,781.67 1571.07,768.87 1571.07,768.87 C1571.07,768.87 1562.77,775.27 1562.77,775.27 C1562.77,775.27 1562.03,740.63 1562.03,740.63  M1562.03 736.86 C1562.03,736.86 1560.52,736.86 1560.52,736.86 C1559.03,737.5 1558.12,739.02 1558.25,740.63 C1558.25,740.63 1559.01,775.27 1559.01,775.27 C1559.03,776.74 1559.92,778.07 1561.27,778.66 C1561.27,778.66 1562.76,778.66 1562.76,778.66 C1562.76,778.66 1565.02,777.91 1565.02,777.91 C1565.02,777.91 1569.54,774.89 1569.54,774.89 C1569.54,774.89 1572.95,783.17 1572.95,783.17 C1573.54,784.52 1574.86,785.4 1576.33,785.43 C1576.33,785.43 1577.84,785.43 1577.84,785.43 C1577.84,785.43 1581.23,784.3 1581.23,784.3 C1583.19,783.6 1584.22,781.45 1583.52,779.49 C1583.52,779.49 1583.52,779.49 1583.52,779.49 C1583.51,779.46 1583.5,779.43 1583.49,779.4 C1583.49,779.4 1579.72,770.74 1579.72,770.74 C1579.72,770.74 1585.75,770.74 1585.75,770.74 C1587.82,770.52 1589.31,768.67 1589.1,766.6 C1589.01,765.74 1588.62,764.94 1588.01,764.33 C1588.01,764.33 1564.67,737.98 1564.67,737.98 C1563.97,737.27 1563.02,736.87 1562.02,736.85 "/></g></g></g><g id="time_group"/></svg>