<?xml version="1.0" encoding="UTF-8"?>
<svg id="a" data-name="Layer 1" xmlns="http://www.w3.org/2000/svg" width="160" height="160" viewBox="0 0 160 160">
  <path d="M117.71,111.18c-16.72,0-35.28-7.09-45.51-24.78-.49-.85-.2-1.95.65-2.44.85-.5,1.94-.2,2.44.65,2.05,3.54,4.46,6.62,7.13,9.28,17.11-17.85,43.49-23.43,57.8-17.36,7.14,3.03,10.83,8.75,10.39,16.12-.46,7.71-8.14,14.25-20.04,17.07-4.02.95-8.38,1.46-12.86,1.46ZM85.06,96.31c12.97,10.94,30.89,13.2,44.69,9.94,10.31-2.44,16.94-7.73,17.3-13.81.44-7.36-4.23-10.93-8.22-12.62-12.91-5.48-37.9,0-53.77,16.49Z" fill="#d5d5d5" stroke-width="0"/>
  <path d="M69.67,145.79c-.92,0-1.7-.71-1.78-1.64-1.24-15.08,2.13-30.59,9.24-42.56.5-.85,1.6-1.12,2.45-.62.85.5,1.13,1.6.62,2.45-6.74,11.34-9.93,26.08-8.76,40.44.08.98-.65,1.84-1.63,1.93-.05,0-.1,0-.15,0Z" fill="#dbdcdd" stroke-width="0"/>
  <path d="M83.26,81.66h-39.42s0,0-.01,0c-.9,0-1.79-.24-2.57-.69-1.18-.68-2.04-1.79-2.4-3.12-.36-1.33-.18-2.72.51-3.91l19.71-34.16h0c.46-.79,1.11-1.44,1.89-1.88,1.19-.69,2.58-.87,3.91-.51,1.33.36,2.44,1.21,3.13,2.4l19.71,34.16c.45.78.69,1.67.69,2.56,0,1.38-.53,2.67-1.5,3.65-.97.97-2.26,1.51-3.64,1.51ZM43.84,77.85h39.42c.36,0,.7-.14.95-.39.25-.25.39-.59.39-.95,0-.24-.06-.47-.18-.67l-19.71-34.15c-.18-.31-.47-.53-.81-.63-.34-.09-.7-.04-1.02.13-.2.12-.37.29-.5.5h0s-19.7,34.15-19.7,34.15c-.18.31-.23.67-.13,1.02.09.34.31.63.62.81.21.12.42.16.67.18Z" fill="#fa0f00" stroke-width="0"/>
  <path d="M63.87,49h0c2.17,0,3.94,1.76,3.94,3.94v10.33c0,2.17-1.76,3.94-3.94,3.94h0c-2.17,0-3.94-1.76-3.94-3.94v-10.33c0-2.17,1.76-3.94,3.94-3.94Z" fill="#fa0f00" stroke-width="0"/>
  <path d="M67.13,72.55c0-2.14-1.73-3.86-3.87-3.88-2.14,0-3.86,1.73-3.88,3.87,0,2.14,1.73,3.86,3.87,3.88,2.14,0,3.88-1.73,3.88-3.87Z" fill="#fa0f00" stroke-width="0"/>
  <path d="M68.33,109.17H19.19c-3.29,0-5.97-2.68-5.97-5.97V31.19c0-3.29,2.68-5.97,5.97-5.97h115.62c3.29,0,5.97,2.68,5.97,5.97v39.17c0,.99-.8,1.79-1.79,1.79s-1.79-.8-1.79-1.79V31.19c0-1.32-1.08-2.4-2.4-2.4H19.19c-1.32,0-2.4,1.08-2.4,2.4v72.02c0,1.32,1.08,2.4,2.4,2.4h49.14c.99,0,1.79.8,1.79,1.79s-.8,1.79-1.79,1.79Z" fill="#d5d5d5" stroke-width="0"/>
  <path d="M138.24,49.79h-59.24c-.99,0-1.79-.8-1.79-1.79s.8-1.79,1.79-1.79h59.24c.99,0,1.79.8,1.79,1.79s-.8,1.79-1.79,1.79Z" fill="#d5d5d5" stroke-width="0"/>
  <path d="M49,49.79H16c-.99,0-1.79-.8-1.79-1.79s.8-1.79,1.79-1.79h33c.99,0,1.79.8,1.79,1.79s-.8,1.79-1.79,1.79Z" fill="#d5d5d5" stroke-width="0"/>
  <path d="M32,39.79h-6.5c-.99,0-1.79-.8-1.79-1.79s.8-1.79,1.79-1.79h6.5c.99,0,1.79.8,1.79,1.79s-.8,1.79-1.79,1.79Z" fill="#d5d5d5" stroke-width="0"/>
</svg>