<?xml version="1.0" encoding="UTF-8"?>
<svg id="a" data-name="Layer 1" xmlns="http://www.w3.org/2000/svg" width="160" height="160" viewBox="0 0 160 160">
  <path d="M140.23,76.53c-14.31-6.07-40.7-.49-57.8,17.36-2.68-2.66-5.08-5.74-7.13-9.28-.49-.85-1.59-1.15-2.44-.65-.85.49-1.15,1.58-.65,2.44,10.23,17.7,28.79,24.78,45.51,24.78,4.48,0,8.84-.51,12.86-1.46,11.9-2.82,19.58-9.36,20.04-17.07.44-7.37-3.25-13.09-10.39-16.12ZM147.05,92.44c-.36,6.08-6.99,11.37-17.3,13.81-13.8,3.27-31.72,1-44.69-9.94,15.87-16.5,40.86-21.97,53.77-16.49,3.99,1.69,8.66,5.26,8.22,12.62Z" fill="#010101" stroke-width="0"/>
  <path d="M79.58,100.97c-.85-.5-1.94-.23-2.45.62-7.11,11.96-10.48,27.48-9.24,42.56.08.93.86,1.64,1.78,1.64.05,0,.1,0,.15,0,.98-.08,1.71-.94,1.63-1.93-1.18-14.36,2.01-29.1,8.76-40.44.5-.85.23-1.94-.62-2.45Z" fill="#010101" stroke-width="0"/>
  <path d="M67.88,37.38c-1.33-.36-2.72-.17-3.91.51-.78.45-1.43,1.1-1.89,1.89h0s-19.71,34.16-19.71,34.16c-.69,1.19-.87,2.58-.51,3.91.36,1.33,1.21,2.44,2.4,3.12.78.45,1.67.69,2.57.69h39.43c1.38,0,2.67-.54,3.64-1.51.97-.97,1.51-2.27,1.5-3.65,0-.9-.24-1.78-.69-2.56l-19.71-34.16c-.69-1.19-1.8-2.04-3.13-2.4ZM87.59,76.51c0,.36-.14.69-.39.95-.25.25-.59.39-.95.39h-39.42c-.19-.02-.46-.06-.67-.18-.31-.18-.53-.47-.62-.81-.09-.35-.05-.71.13-1.02l19.7-34.15h0c.12-.21.29-.38.5-.5.31-.18.67-.23,1.02-.13.35.09.63.32.81.63l19.71,34.15c.12.21.18.44.18.67Z" fill="#fa0f00" stroke-width="0"/>
  <path d="M66.86,49h0c2.17,0,3.94,1.76,3.94,3.94v10.33c0,2.17-1.76,3.94-3.94,3.94h0c-2.17,0-3.94-1.76-3.94-3.94v-10.33c0-2.17,1.76-3.94,3.94-3.94Z" fill="#fa0f00" stroke-width="0"/>
  <path d="M66.26,68.67c-2.14,0-3.86,1.73-3.88,3.87,0,2.14,1.73,3.86,3.87,3.88,2.14,0,3.88-1.73,3.88-3.87,0-2.14-1.73-3.86-3.87-3.88Z" fill="#fa0f00" stroke-width="0"/>
  <path d="M70.12,107.39c0-.99-.8-1.79-1.79-1.79H19.19c-1.32,0-2.4-1.08-2.4-2.4v-53.42h-.79c-.99,0-1.79-.8-1.79-1.79s.8-1.79,1.79-1.79h.79v-15.03c0-1.32,1.08-2.4,2.4-2.4h115.62c1.33,0,2.4,1.08,2.4,2.4v14.8h1.54c.99,0,1.79.8,1.79,1.79s-.8,1.79-1.79,1.79h-1.54v20.8c0,.99.8,1.79,1.79,1.79s1.79-.8,1.79-1.79V31.19c0-3.29-2.68-5.97-5.97-5.97H19.19c-3.29,0-5.97,2.68-5.97,5.97v72.02c0,3.29,2.68,5.97,5.97,5.97h49.14c.99,0,1.79-.8,1.79-1.79Z" fill="#010101" stroke-width="0"/>
  <path d="M81.5,45.99c-.99,0-1.79.8-1.79,1.79s.8,1.79,1.79,1.79h55.71v-3.57h-55.71Z" fill="#010101" stroke-width="0"/>
  <path d="M140.53,47.77c0-.99-.8-1.79-1.79-1.79h-1.54v3.57h1.54c.99,0,1.79-.8,1.79-1.79Z" fill="#010101" stroke-width="0"/>
  <path d="M52,49.79c.99,0,1.79-.8,1.79-1.79s-.8-1.79-1.79-1.79H16.79v3.57h35.21Z" fill="#010101" stroke-width="0"/>
  <path d="M14.21,48c0,.99.8,1.79,1.79,1.79h.79v-3.57h-.79c-.99,0-1.79.8-1.79,1.79Z" fill="#010101" stroke-width="0"/>
  <path d="M25.5,36.21c-.99,0-1.79.8-1.79,1.79s.8,1.79,1.79,1.79h6.5c.99,0,1.79-.8,1.79-1.79s-.8-1.79-1.79-1.79h-6.5Z" fill="#010101" stroke-width="0"/>
</svg>