<svg xmlns="http://www.w3.org/2000/svg" xmlns:xlink="http://www.w3.org/1999/xlink" preserveAspectRatio="xMidYMid meet" width="1024" height="480" viewBox="0 0 1024 480" style="width:100%;height:100%"><defs><animateMotion repeatCount="indefinite" dur="4s" begin="0s" xlink:href="#_R_G_L_5_G_L_7_G" fill="freeze" keyTimes="0;0.2708333;1" path="M725.54 792.87 C725.54,792.87 725.54,392.87 725.54,392.87 C725.54,392.87 725.54,392.87 725.54,392.87 " keyPoints="0;1;1" keySplines="0.036 0 0 1;0 0 0 0" calcMode="spline"/><animateTransform repeatCount="indefinite" dur="4s" begin="0s" xlink:href="#_R_G_L_5_G_L_7_G" fill="freeze" attributeName="transform" from="-725.535 -392.869" to="-725.535 -392.869" type="translate" additive="sum" keyTimes="0;1" values="-725.535 -392.869;-725.535 -392.869" keySplines="0 0 1 1" calcMode="spline"/><animateMotion repeatCount="indefinite" dur="4s" begin="0s" xlink:href="#_R_G_L_5_G_L_6_G_N_8_T_0" fill="freeze" keyTimes="0;0.2708333;1" path="M725.54 792.87 C725.54,792.87 725.54,392.87 725.54,392.87 C725.54,392.87 725.54,392.87 725.54,392.87 " keyPoints="0;1;1" keySplines="0.036 0 0 1;0 0 0 0" calcMode="spline"/><animateTransform repeatCount="indefinite" dur="4s" begin="0s" xlink:href="#_R_G_L_5_G_L_6_G_N_8_T_0" fill="freeze" attributeName="transform" from="-725.535 -392.869" to="-725.535 -392.869" type="translate" additive="sum" keyTimes="0;1" values="-725.535 -392.869;-725.535 -392.869" keySplines="0 0 1 1" calcMode="spline"/><animateMotion repeatCount="indefinite" dur="4s" begin="0s" xlink:href="#_R_G_L_5_G_L_5_G_N_8_T_0" fill="freeze" keyTimes="0;0.2708333;1" path="M725.54 792.87 C725.54,792.87 725.54,392.87 725.54,392.87 C725.54,392.87 725.54,392.87 725.54,392.87 " keyPoints="0;1;1" keySplines="0.036 0 0 1;0 0 0 0" calcMode="spline"/><animateTransform repeatCount="indefinite" dur="4s" begin="0s" xlink:href="#_R_G_L_5_G_L_5_G_N_8_T_0" fill="freeze" attributeName="transform" from="-725.535 -392.869" to="-725.535 -392.869" type="translate" additive="sum" keyTimes="0;1" values="-725.535 -392.869;-725.535 -392.869" keySplines="0 0 1 1" calcMode="spline"/><animateMotion repeatCount="indefinite" dur="4s" begin="0s" xlink:href="#_R_G_L_5_G_L_4_G_N_8_T_0" fill="freeze" keyTimes="0;0.2708333;1" path="M725.54 792.87 C725.54,792.87 725.54,392.87 725.54,392.87 C725.54,392.87 725.54,392.87 725.54,392.87 " keyPoints="0;1;1" keySplines="0.036 0 0 1;0 0 0 0" calcMode="spline"/><animateTransform repeatCount="indefinite" dur="4s" begin="0s" xlink:href="#_R_G_L_5_G_L_4_G_N_8_T_0" fill="freeze" attributeName="transform" from="-725.535 -392.869" to="-725.535 -392.869" type="translate" additive="sum" keyTimes="0;1" values="-725.535 -392.869;-725.535 -392.869" keySplines="0 0 1 1" calcMode="spline"/><animate repeatCount="indefinite" dur="4s" begin="0s" xlink:href="#_R_G_L_5_G_L_3_G_M" fill="freeze" attributeName="opacity" from="0" to="1" keyTimes="0;0.375;0.375001;1" values="0;0;1;1" keySplines="0 0 0 0;0 0 0 0;0 0 0 0" calcMode="spline"/><animate repeatCount="indefinite" dur="4s" begin="0s" xlink:href="#_R_G_L_5_G_L_2_G" fill="freeze" attributeName="opacity" from="1" to="0" keyTimes="0;0.375;0.4583333;1" values="1;1;0;0" keySplines="0.167 0.167 0.833 0.833;0.167 0.167 0.833 0.833;0 0 0 0" calcMode="spline"/><animateMotion repeatCount="indefinite" dur="4s" begin="0s" xlink:href="#_R_G_L_5_G_L_2_G_N_8_T_0" fill="freeze" keyTimes="0;0.2708333;1" path="M725.54 792.87 C725.54,792.87 725.54,392.87 725.54,392.87 C725.54,392.87 725.54,392.87 725.54,392.87 " keyPoints="0;1;1" keySplines="0.036 0 0 1;0 0 0 0" calcMode="spline"/><animateTransform repeatCount="indefinite" dur="4s" begin="0s" xlink:href="#_R_G_L_5_G_L_2_G_N_8_T_0" fill="freeze" attributeName="transform" from="-725.535 -392.869" to="-725.535 -392.869" type="translate" additive="sum" keyTimes="0;1" values="-725.535 -392.869;-725.535 -392.869" keySplines="0 0 1 1" calcMode="spline"/><animate repeatCount="indefinite" dur="4s" begin="0s" xlink:href="#_R_G_L_5_G_L_2_G_N_8_T_0_M" fill="freeze" attributeName="opacity" from="1" to="0" keyTimes="0;0.46875;0.46875;1" values="1;1;0;0" keySplines="0 0 0 0;0 0 0 0;0 0 0 0" calcMode="spline"/><animate repeatCount="indefinite" dur="4s" begin="0s" xlink:href="#_R_G_L_5_G_L_1_G" fill="freeze" attributeName="opacity" from="1" to="0" keyTimes="0;0.375;0.4583333;1" values="1;1;0;0" keySplines="0.167 0.167 0.833 0.833;0.167 0.167 0.833 0.833;0 0 0 0" calcMode="spline"/><animateMotion repeatCount="indefinite" dur="4s" begin="0s" xlink:href="#_R_G_L_5_G_L_1_G" fill="freeze" keyTimes="0;0.375;0.4583333;1" path="M682.38 390.82 C682.38,390.82 682.38,390.82 682.38,390.82 C682.38,390.82 703.13,390.82 703.13,390.82 C703.13,390.82 703.13,390.82 703.13,390.82 " keyPoints="0;0;1;1" keySplines="0.762 0 0.401 1;0.762 0 0.401 1;0 0 0 0" calcMode="spline"/><animateMotion repeatCount="indefinite" dur="4s" begin="0s" xlink:href="#_R_G_L_5_G_L_1_G_N_8_T_0" fill="freeze" keyTimes="0;0.2708333;1" path="M725.54 792.87 C725.54,792.87 725.54,392.87 725.54,392.87 C725.54,392.87 725.54,392.87 725.54,392.87 " keyPoints="0;1;1" keySplines="0.036 0 0 1;0 0 0 0" calcMode="spline"/><animateTransform repeatCount="indefinite" dur="4s" begin="0s" xlink:href="#_R_G_L_5_G_L_1_G_N_8_T_0" fill="freeze" attributeName="transform" from="-725.535 -392.869" to="-725.535 -392.869" type="translate" additive="sum" keyTimes="0;1" values="-725.535 -392.869;-725.535 -392.869" keySplines="0 0 1 1" calcMode="spline"/><animate repeatCount="indefinite" dur="4s" begin="0s" xlink:href="#_R_G_L_5_G_L_1_G_N_8_T_0_M" fill="freeze" attributeName="opacity" from="1" to="0" keyTimes="0;0.46875;0.46875;1" values="1;1;0;0" keySplines="0 0 0 0;0 0 0 0;0 0 0 0" calcMode="spline"/><animate repeatCount="indefinite" dur="4s" begin="0s" xlink:href="#_R_G_L_5_G_L_0_G" fill="freeze" attributeName="opacity" from="0" to="1" keyTimes="0;0.375;0.4583333;1" values="0;0;1;1" keySplines="0.167 0.167 0.833 0.833;0.167 0.167 0.833 0.833;0 0 0 0" calcMode="spline"/><animateMotion repeatCount="indefinite" dur="4s" begin="0s" xlink:href="#_R_G_L_5_G_L_0_G" fill="freeze" keyTimes="0;0.375;0.4583333;1" path="M682.38 390.82 C682.38,390.82 682.38,390.82 682.38,390.82 C682.38,390.82 703.13,390.82 703.13,390.82 C703.13,390.82 703.13,390.82 703.13,390.82 " keyPoints="0;0;1;1" keySplines="0.762 0 0.401 1;0.762 0 0.401 1;0 0 0 0" calcMode="spline"/><animate repeatCount="indefinite" dur="4s" begin="0s" xlink:href="#_R_G_L_5_G_L_0_G_M" fill="freeze" attributeName="opacity" from="0" to="1" keyTimes="0;0.375;0.375001;1" values="0;0;1;1" keySplines="0 0 0 0;0 0 0 0;0 0 0 0" calcMode="spline"/><animateTransform repeatCount="indefinite" dur="4s" begin="0s" xlink:href="#_R_G_L_4_G_D_0_P_0_G_0_T_0" fill="freeze" attributeName="transform" from="0.23 0.23" to="1 1" type="scale" additive="sum" keyTimes="0;0.3854167;0.562502;1" values="0.23 0.23;0.23 0.23;1 1;1 1" keySplines="0.167 0.167 0 1;0.167 0.167 0 1;0 0 0 0" calcMode="spline"/><animate repeatCount="indefinite" dur="4s" begin="0s" xlink:href="#_R_G_L_4_G" fill="freeze" attributeName="opacity" from="0" to="0" keyTimes="0;0.3958333;0.4041667;0.5041771;0.562502;1" values="0;0;1;1;0;0" keySplines="0.167 0.167 0.833 0.833;0.167 0.167 0.833 0.833;0.167 0.167 0.833 0.833;0.167 0.167 0.833 0.833;0 0 0 0" calcMode="spline"/><animate repeatCount="indefinite" dur="4s" begin="0s" xlink:href="#_R_G_L_4_G_M" fill="freeze" attributeName="opacity" from="0" to="0" keyTimes="0;0.3583333;0.3583344;0.5583333;0.5583333;1" values="0;0;1;1;0;0" keySplines="0 0 0 0;0 0 0 0;0 0 0 0;0 0 0 0;0 0 0 0" calcMode="spline"/><animateTransform repeatCount="indefinite" dur="4s" begin="0s" xlink:href="#_R_G_L_3_G_D_0_P_0_G_0_T_0" fill="freeze" attributeName="transform" from="0.28 0.28" to="1 1" type="scale" additive="sum" keyTimes="0;0.3854167;0.5416687;1" values="0.28 0.28;0.28 0.28;1 1;1 1" keySplines="0.167 0.167 0 1;0.167 0.167 0 1;0 0 0 0" calcMode="spline"/><animate repeatCount="indefinite" dur="4s" begin="0s" xlink:href="#_R_G_L_3_G" fill="freeze" attributeName="opacity" from="0" to="0" keyTimes="0;0.375;0.3833333;0.4833333;0.5416687;1" values="0;0;1;1;0;0" keySplines="0.167 0.167 0.833 0.833;0.167 0.167 0.833 0.833;0.167 0.167 0.833 0.833;0.167 0.167 0.833 0.833;0 0 0 0" calcMode="spline"/><animate repeatCount="indefinite" dur="4s" begin="0s" xlink:href="#_R_G_L_3_G_M" fill="freeze" attributeName="opacity" from="0" to="0" keyTimes="0;0.3583333;0.3583344;0.5583333;0.5583333;1" values="0;0;1;1;0;0" keySplines="0 0 0 0;0 0 0 0;0 0 0 0;0 0 0 0;0 0 0 0" calcMode="spline"/><animateTransform repeatCount="indefinite" dur="4s" begin="0s" xlink:href="#_R_G_L_2_G_D_0_P_0_G_0_T_0" fill="freeze" attributeName="transform" from="0.23 0.23" to="1 1" type="scale" additive="sum" keyTimes="0;0.3645833;0.531252;1" values="0.23 0.23;0.23 0.23;1 1;1 1" keySplines="0.167 0.167 0 1;0.167 0.167 0 1;0 0 0 0" calcMode="spline"/><animate repeatCount="indefinite" dur="4s" begin="0s" xlink:href="#_R_G_L_2_G" fill="freeze" attributeName="opacity" from="0" to="0" keyTimes="0;0.3541667;0.3625104;0.4625104;0.5208354;1" values="0;0;1;1;0;0" keySplines="0.167 0.167 0.833 0.833;0.167 0.167 0.833 0.833;0.167 0.167 0.833 0.833;0.167 0.167 0.833 0.833;0 0 0 0" calcMode="spline"/><animate repeatCount="indefinite" dur="4s" begin="0s" xlink:href="#_R_G_L_2_G_M" fill="freeze" attributeName="opacity" from="0" to="0" keyTimes="0;0.3583333;0.3583344;0.5583333;0.5583333;1" values="0;0;1;1;0;0" keySplines="0 0 0 0;0 0 0 0;0 0 0 0;0 0 0 0;0 0 0 0" calcMode="spline"/><animateMotion repeatCount="indefinite" dur="4s" begin="0s" xlink:href="#_R_G_L_1_G_N_1_T_0" fill="freeze" keyTimes="0;0.09375;0.3229167;0.4895833;0.687502;1" path="M914.36 572.71 C914.36,572.71 914.36,572.71 914.36,572.71 C696.7,561.57 683.36,394.71 683.36,394.71 C683.36,394.71 683.36,394.71 683.36,394.71 C683.36,394.71 562,476 627.36,598.71 C627.36,598.71 627.36,598.71 627.36,598.71 " keyPoints="0;0;0.58;0.58;1;1" keySplines="0.337 0 0.112 1;0.337 0 0.112 1;0.765 0.765 0.667 0.667;0.765 0 0.667 1;0 0 0 0" calcMode="spline"/><animateTransform repeatCount="indefinite" dur="4s" begin="0s" xlink:href="#_R_G_L_1_G_N_1_T_0" fill="freeze" attributeName="transform" from="1 1" to="1 1" type="scale" additive="sum" keyTimes="0;0.3583438;0.375;0.4479167;0.4895854;1" values="1 1;1 1;0.9 0.9;0.9 0.9;1 1;1 1" keySplines="0.331 0 0.833 0.833;0.331 0 0.833 0.833;0.325 0 0.833 1;0.328 0 0.667 1;0 0 0 0" calcMode="spline"/><animateTransform repeatCount="indefinite" dur="4s" begin="0s" xlink:href="#_R_G_L_1_G_N_1_T_0" fill="freeze" attributeName="transform" from="-1562.36 -741.21" to="-1562.36 -741.21" type="translate" additive="sum" keyTimes="0;1" values="-1562.36 -741.21;-1562.36 -741.21" keySplines="0 0 1 1" calcMode="spline"/><animate repeatCount="indefinite" dur="4s" begin="0s" xlink:href="#_R_G_L_1_G_N_1_T_0_M" fill="freeze" attributeName="opacity" from="0" to="0" keyTimes="0;0.0833333;0.0833344;0.65625;0.65625;1" values="0;0;1;1;0;0" keySplines="0 0 0 0;0 0 0 0;0 0 0 0;0 0 0 0;0 0 0 0" calcMode="spline"/><animateMotion repeatCount="indefinite" dur="4s" begin="0s" xlink:href="#_R_G_L_0_G" fill="freeze" keyTimes="0;0.09375;0.3229167;0.4895833;0.687502;1" path="M914.36 572.71 C914.36,572.71 914.36,572.71 914.36,572.71 C696.7,561.57 683.36,394.71 683.36,394.71 C683.36,394.71 683.36,394.71 683.36,394.71 C683.36,394.71 562,476 627.36,598.71 C627.36,598.71 627.36,598.71 627.36,598.71 " keyPoints="0;0;0.58;0.58;1;1" keySplines="0.337 0 0.112 1;0.337 0 0.112 1;0.765 0.765 0.667 0.667;0.765 0 0.667 1;0 0 0 0" calcMode="spline"/><animateTransform repeatCount="indefinite" dur="4s" begin="0s" xlink:href="#_R_G_L_0_G" fill="freeze" attributeName="transform" from="1 1" to="1 1" type="scale" additive="sum" keyTimes="0;0.3583438;0.375;0.4479167;0.4895854;1" values="1 1;1 1;0.9 0.9;0.9 0.9;1 1;1 1" keySplines="0.331 0 0.833 0.833;0.331 0 0.833 0.833;0.325 0 0.833 1;0.328 0 0.667 1;0 0 0 0" calcMode="spline"/><animateTransform repeatCount="indefinite" dur="4s" begin="0s" xlink:href="#_R_G_L_0_G" fill="freeze" attributeName="transform" from="-1562.36 -741.21" to="-1562.36 -741.21" type="translate" additive="sum" keyTimes="0;1" values="-1562.36 -741.21;-1562.36 -741.21" keySplines="0 0 1 1" calcMode="spline"/><animate repeatCount="indefinite" dur="4s" begin="0s" xlink:href="#_R_G_L_0_G_M" fill="freeze" attributeName="opacity" from="0" to="0" keyTimes="0;0.0833333;0.0833344;0.65625;0.65625;1" values="0;0;1;1;0;0" keySplines="0 0 0 0;0 0 0 0;0 0 0 0;0 0 0 0;0 0 0 0" calcMode="spline"/><animate attributeType="XML" attributeName="opacity" dur="4s" from="0" to="1" xlink:href="#time_group"/></defs><g id="_R_G"><g id="_R_G_L_6_G" transform=" translate(512, 240) translate(0, 0)"><path id="_R_G_L_6_G_D_0_P_0" fill="#ffddd6" fill-opacity="1" fill-rule="nonzero" d=" M512 240 C512,240 -512,240 -512,240 C-512,240 -512,-240 -512,-240 C-512,-240 512,-240 512,-240 C512,-240 512,240 512,240z "/></g><g id="_R_G_L_5_G"><g id="_R_G_L_5_G_L_7_G"><path id="_R_G_L_5_G_L_7_G_D_0_P_0" fill="#f8f9fa" fill-opacity="1" fill-rule="nonzero" d=" M893.85 480 C893.85,480 130.15,480 130.15,480 C130.15,480 130.15,96.18 130.15,96.18 C130.15,89.87 135.26,84.75 141.58,84.75 C141.58,84.75 882.42,84.75 882.42,84.75 C888.74,84.75 893.85,89.87 893.85,96.18 C893.85,96.18 893.85,480 893.85,480z "/><path id="_R_G_L_5_G_L_7_G_D_1_P_0" fill="#ffffff" fill-opacity="1" fill-rule="nonzero" d=" M741.1 480.3 C741.1,480.3 271.97,480.3 271.97,480.3 C271.97,480.3 271.97,132.07 271.97,132.07 C271.97,132.07 741.1,132.07 741.1,132.07 C741.1,132.07 741.1,480.3 741.1,480.3z "/><path id="_R_G_L_5_G_L_7_G_D_2_P_0" fill="#b2b2b2" fill-opacity="1" fill-rule="nonzero" d=" M341.13 216.08 C341.13,216.08 303.38,216.08 303.38,216.08 C301.23,216.08 299.48,214.33 299.48,212.17 C299.48,212.17 299.48,212.17 299.48,212.17 C299.48,210.02 301.23,208.27 303.38,208.27 C303.38,208.27 341.13,208.27 341.13,208.27 C343.29,208.27 345.04,210.02 345.04,212.17 C345.04,212.17 345.04,212.17 345.04,212.17 C345.04,214.33 343.29,216.08 341.13,216.08z "/><path id="_R_G_L_5_G_L_7_G_D_3_P_0" fill="#d9d9d9" fill-opacity="1" fill-rule="nonzero" d=" M599.32 233.37 C599.32,233.37 303.38,233.37 303.38,233.37 C301.23,233.37 299.48,231.62 299.48,229.47 C299.48,229.47 299.48,229.47 299.48,229.47 C299.48,227.31 301.23,225.56 303.38,225.56 C303.38,225.56 599.32,225.56 599.32,225.56 C601.47,225.56 603.22,227.31 603.22,229.47 C603.22,229.47 603.22,229.47 603.22,229.47 C603.22,231.62 601.47,233.37 599.32,233.37z "/><path id="_R_G_L_5_G_L_7_G_D_4_P_0" fill="#b2b2b2" fill-opacity="1" fill-rule="nonzero" d=" M341.13 271.58 C341.13,271.58 303.38,271.58 303.38,271.58 C301.23,271.58 299.48,269.83 299.48,267.68 C299.48,267.68 299.48,267.68 299.48,267.68 C299.48,265.52 301.23,263.77 303.38,263.77 C303.38,263.77 341.13,263.77 341.13,263.77 C343.29,263.77 345.04,265.52 345.04,267.68 C345.04,267.68 345.04,267.68 345.04,267.68 C345.04,269.83 343.29,271.58 341.13,271.58z "/><path id="_R_G_L_5_G_L_7_G_D_5_P_0" fill="#d9d9d9" fill-opacity="1" fill-rule="nonzero" d=" M599.32 288.88 C599.32,288.88 303.38,288.88 303.38,288.88 C301.23,288.88 299.48,287.13 299.48,284.97 C299.48,284.97 299.48,284.97 299.48,284.97 C299.48,282.81 301.23,281.07 303.38,281.07 C303.38,281.07 599.32,281.07 599.32,281.07 C601.47,281.07 603.22,282.81 603.22,284.97 C603.22,284.97 603.22,284.97 603.22,284.97 C603.22,287.13 601.47,288.88 599.32,288.88z "/><path id="_R_G_L_5_G_L_7_G_D_6_P_0" fill="#b2b2b2" fill-opacity="1" fill-rule="nonzero" d=" M341.13 325.97 C341.13,325.97 303.38,325.97 303.38,325.97 C301.23,325.97 299.48,324.22 299.48,322.07 C299.48,322.07 299.48,322.07 299.48,322.07 C299.48,319.91 301.23,318.16 303.38,318.16 C303.38,318.16 341.13,318.16 341.13,318.16 C343.29,318.16 345.04,319.91 345.04,322.07 C345.04,322.07 345.04,322.07 345.04,322.07 C345.04,324.22 343.29,325.97 341.13,325.97z "/><path id="_R_G_L_5_G_L_7_G_D_7_P_0" fill="#d9d9d9" fill-opacity="1" fill-rule="nonzero" d=" M599.32 343.26 C599.32,343.26 303.38,343.26 303.38,343.26 C301.23,343.26 299.48,341.52 299.48,339.36 C299.48,339.36 299.48,339.36 299.48,339.36 C299.48,337.2 301.23,335.45 303.38,335.45 C303.38,335.45 599.32,335.45 599.32,335.45 C601.47,335.45 603.22,337.2 603.22,339.36 C603.22,339.36 603.22,339.36 603.22,339.36 C603.22,341.52 601.47,343.26 599.32,343.26z "/><path id="_R_G_L_5_G_L_7_G_D_8_P_0" fill="#b2b2b2" fill-opacity="1" fill-rule="nonzero" d=" M341.13 435.86 C341.13,435.86 303.38,435.86 303.38,435.86 C301.23,435.86 299.48,434.12 299.48,431.96 C299.48,431.96 299.48,431.96 299.48,431.96 C299.48,429.8 301.23,428.05 303.38,428.05 C303.38,428.05 341.13,428.05 341.13,428.05 C343.29,428.05 345.04,429.8 345.04,431.96 C345.04,431.96 345.04,431.96 345.04,431.96 C345.04,434.12 343.29,435.86 341.13,435.86z "/><path id="_R_G_L_5_G_L_7_G_D_9_P_0" fill="#d9d9d9" fill-opacity="1" fill-rule="nonzero" d=" M599.32 453.16 C599.32,453.16 303.38,453.16 303.38,453.16 C301.23,453.16 299.48,451.41 299.48,449.25 C299.48,449.25 299.48,449.25 299.48,449.25 C299.48,447.09 301.23,445.35 303.38,445.35 C303.38,445.35 599.32,445.35 599.32,445.35 C601.47,445.35 603.22,447.09 603.22,449.25 C603.22,449.25 603.22,449.25 603.22,449.25 C603.22,451.41 601.47,453.16 599.32,453.16z "/><path id="_R_G_L_5_G_L_7_G_D_10_P_0" fill="#5a5a5a" fill-opacity="1" fill-rule="nonzero" d=" M353.86 175.56 C353.86,175.56 352.96,178.33 352.96,178.33 C352.93,178.43 352.87,178.48 352.76,178.48 C352.76,178.48 350.58,178.48 350.58,178.48 C350.45,178.48 350.41,178.41 350.43,178.3 C350.43,178.3 354.18,167.49 354.18,167.49 C354.26,167.28 354.33,167.05 354.37,166.34 C354.37,166.27 354.43,166.21 354.48,166.21 C354.48,166.21 357.48,166.21 357.48,166.21 C357.57,166.21 357.61,166.23 357.63,166.32 C357.63,166.32 361.88,178.31 361.88,178.31 C361.92,178.41 361.9,178.48 361.79,178.48 C361.79,178.48 359.35,178.48 359.35,178.48 C359.24,178.48 359.18,178.45 359.15,178.35 C359.15,178.35 358.19,175.56 358.19,175.56 C358.19,175.56 353.86,175.56 353.86,175.56z  M357.5 173.22 C357.12,171.98 356.37,169.71 356.02,168.38 C356.02,168.38 356,168.38 356,168.38 C355.7,169.64 355.02,171.7 354.54,173.22 C354.54,173.22 357.5,173.22 357.5,173.22z "/><path id="_R_G_L_5_G_L_7_G_D_11_P_0" fill="#5a5a5a" fill-opacity="1" fill-rule="nonzero" d=" M362.44 173.91 C362.44,171.23 364.44,168.98 367.87,168.98 C368.02,168.98 368.21,169 368.49,169.02 C368.49,169.02 368.49,165.33 368.49,165.33 C368.49,165.24 368.55,165.2 368.62,165.2 C368.62,165.2 370.98,165.2 370.98,165.2 C371.08,165.2 371.1,165.24 371.1,165.31 C371.1,165.31 371.1,176.39 371.1,176.39 C371.1,176.82 371.11,177.38 371.17,177.75 C371.17,177.85 371.15,177.88 371.04,177.92 C369.74,178.47 368.51,178.67 367.35,178.67 C364.58,178.67 362.44,177.1 362.44,173.91z  M368.49 171.25 C368.3,171.18 368.06,171.16 367.8,171.16 C366.35,171.16 365.12,172.04 365.12,173.78 C365.12,175.64 366.18,176.44 367.61,176.44 C367.93,176.44 368.23,176.42 368.49,176.33 C368.49,176.33 368.49,171.25 368.49,171.25z "/><path id="_R_G_L_5_G_L_7_G_D_12_P_0" fill="#5a5a5a" fill-opacity="1" fill-rule="nonzero" d=" M382.01 173.78 C382.01,176.72 380.1,178.67 377.4,178.67 C374.2,178.67 372.78,176.25 372.78,173.84 C372.78,171.18 374.56,168.98 377.44,168.98 C380.46,168.98 382.01,171.25 382.01,173.78z  M375.42 173.8 C375.42,175.45 376.19,176.5 377.44,176.5 C378.53,176.5 379.35,175.56 379.35,173.84 C379.35,172.37 378.75,171.16 377.33,171.16 C376.24,171.16 375.42,172.13 375.42,173.8z "/><path id="_R_G_L_5_G_L_7_G_D_13_P_0" fill="#5a5a5a" fill-opacity="1" fill-rule="nonzero" d=" M386.11 165.2 C386.26,165.2 386.3,165.22 386.3,165.35 C386.3,165.35 386.3,169.19 386.3,169.19 C386.79,169.06 387.31,168.98 387.87,168.98 C390.63,168.98 392.37,170.93 392.37,173.44 C392.37,176.95 389.6,178.67 386.75,178.67 C385.76,178.67 384.76,178.54 383.81,178.24 C383.75,178.22 383.69,178.13 383.69,178.05 C383.69,178.05 383.69,165.33 383.69,165.33 C383.69,165.24 383.73,165.2 383.83,165.2 C383.83,165.2 386.11,165.2 386.11,165.2z  M387.4 171.2 C386.8,171.2 386.54,171.29 386.3,171.35 C386.3,171.35 386.3,176.42 386.3,176.42 C386.52,176.48 386.77,176.5 386.99,176.5 C388.42,176.5 389.71,175.64 389.71,173.69 C389.71,171.98 388.72,171.2 387.4,171.2z "/><path id="_R_G_L_5_G_L_7_G_D_14_P_0" fill="#5a5a5a" fill-opacity="1" fill-rule="nonzero" d=" M396.28 174.51 C396.37,175.58 397.12,176.46 398.96,176.46 C399.8,176.46 400.55,176.33 401.26,176.03 C401.32,175.99 401.38,176.01 401.38,176.12 C401.38,176.12 401.38,177.9 401.38,177.9 C401.38,178.03 401.34,178.09 401.25,178.13 C400.5,178.48 399.67,178.67 398.38,178.67 C394.86,178.67 393.62,176.25 393.62,173.93 C393.62,171.34 395.21,168.98 398.15,168.98 C400.98,168.98 402.11,171.18 402.11,173.03 C402.11,173.61 402.07,174.08 402.01,174.29 C402,174.38 401.96,174.42 401.86,174.44 C401.62,174.47 400.91,174.51 399.93,174.51 C399.93,174.51 396.28,174.51 396.28,174.51z  M398.72 172.69 C399.32,172.69 399.58,172.67 399.65,172.66 C399.65,172.62 399.65,172.54 399.65,172.53 C399.65,172.08 399.3,171.05 398.06,171.05 C396.88,171.05 396.37,171.93 396.26,172.69 C396.26,172.69 398.72,172.69 398.72,172.69z "/><path id="_R_G_L_5_G_L_7_G_D_15_P_0" fill="#5a5a5a" fill-opacity="1" fill-rule="nonzero" d=" M410.36 175.56 C410.36,175.56 409.46,178.33 409.46,178.33 C409.43,178.43 409.37,178.48 409.26,178.48 C409.26,178.48 407.09,178.48 407.09,178.48 C406.95,178.48 406.92,178.41 406.94,178.3 C406.94,178.3 410.68,167.49 410.68,167.49 C410.76,167.28 410.83,167.05 410.87,166.34 C410.87,166.27 410.93,166.21 410.98,166.21 C410.98,166.21 413.98,166.21 413.98,166.21 C414.08,166.21 414.11,166.23 414.13,166.32 C414.13,166.32 418.38,178.31 418.38,178.31 C418.42,178.41 418.4,178.48 418.29,178.48 C418.29,178.48 415.85,178.48 415.85,178.48 C415.74,178.48 415.69,178.45 415.65,178.35 C415.65,178.35 414.69,175.56 414.69,175.56 C414.69,175.56 410.36,175.56 410.36,175.56z  M414 173.22 C413.63,171.98 412.88,169.71 412.52,168.38 C412.52,168.38 412.5,168.38 412.5,168.38 C412.2,169.64 411.53,171.7 411.04,173.22 C411.04,173.22 414,173.22 414,173.22z "/><path id="_R_G_L_5_G_L_7_G_D_16_P_0" fill="#5a5a5a" fill-opacity="1" fill-rule="nonzero" d=" M426.08 178.22 C426.08,178.31 426.06,178.35 425.98,178.37 C425.38,178.61 424.62,178.67 423.89,178.67 C420.85,178.67 418.94,176.63 418.94,173.87 C418.94,171.06 421.06,168.98 424.24,168.98 C425.16,168.98 425.67,169.08 425.97,169.19 C426.06,169.23 426.08,169.28 426.08,169.4 C426.08,169.4 426.06,171.33 426.06,171.33 C426.06,171.46 425.98,171.48 425.91,171.46 C425.55,171.33 425.03,171.23 424.34,171.23 C422.76,171.23 421.62,172.09 421.62,173.78 C421.62,175.73 423.06,176.37 424.37,176.37 C425.03,176.37 425.61,176.29 425.93,176.2 C426.04,176.16 426.08,176.2 426.08,176.27 C426.08,176.27 426.08,178.22 426.08,178.22z "/><path id="_R_G_L_5_G_L_7_G_D_17_P_0" fill="#5a5a5a" fill-opacity="1" fill-rule="nonzero" d=" M429.73 169.17 C429.86,169.17 429.92,169.23 429.95,169.34 C430.05,169.58 430.14,169.98 430.16,170.39 C430.78,169.66 431.81,168.98 433.14,168.98 C433.25,168.98 433.29,169.02 433.29,169.13 C433.29,169.13 433.29,171.44 433.29,171.44 C433.29,171.53 433.25,171.57 433.12,171.57 C431.77,171.51 430.68,171.93 430.29,172.38 C430.29,172.38 430.27,178.33 430.27,178.33 C430.27,178.45 430.23,178.48 430.1,178.48 C430.1,178.48 427.85,178.48 427.85,178.48 C427.7,178.48 427.67,178.43 427.67,178.32 C427.67,178.32 427.67,171.85 427.67,171.85 C427.67,171.05 427.65,169.96 427.57,169.3 C427.57,169.21 427.59,169.17 427.69,169.17 C427.69,169.17 429.73,169.17 429.73,169.17z "/><path id="_R_G_L_5_G_L_7_G_D_18_P_0" fill="#5a5a5a" fill-opacity="1" fill-rule="nonzero" d=" M443.35 173.78 C443.35,176.72 441.44,178.67 438.74,178.67 C435.53,178.67 434.11,176.25 434.11,173.84 C434.11,171.18 435.89,168.98 438.78,168.98 C441.79,168.98 443.35,171.25 443.35,173.78z  M436.75 173.8 C436.75,175.45 437.52,176.5 438.78,176.5 C439.86,176.5 440.69,175.56 440.69,173.84 C440.69,172.37 440.09,171.16 438.66,171.16 C437.58,171.16 436.75,172.13 436.75,173.8z "/><path id="_R_G_L_5_G_L_7_G_D_19_P_0" fill="#5a5a5a" fill-opacity="1" fill-rule="nonzero" d=" M447.45 165.2 C447.6,165.2 447.63,165.22 447.63,165.35 C447.63,165.35 447.63,169.19 447.63,169.19 C448.12,169.06 448.65,168.98 449.21,168.98 C451.96,168.98 453.7,170.93 453.7,173.44 C453.7,176.95 450.93,178.67 448.08,178.67 C447.09,178.67 446.1,178.54 445.14,178.24 C445.09,178.22 445.03,178.13 445.03,178.05 C445.03,178.05 445.03,165.33 445.03,165.33 C445.03,165.24 445.07,165.2 445.16,165.2 C445.16,165.2 447.45,165.2 447.45,165.2z  M448.74 171.2 C448.14,171.2 447.88,171.29 447.63,171.35 C447.63,171.35 447.63,176.42 447.63,176.42 C447.86,176.48 448.1,176.5 448.33,176.5 C449.75,176.5 451.04,175.64 451.04,173.69 C451.04,171.98 450.05,171.2 448.74,171.2z "/><path id="_R_G_L_5_G_L_7_G_D_20_P_0" fill="#5a5a5a" fill-opacity="1" fill-rule="nonzero" d=" M462.69 176.4 C462.69,176.89 462.69,177.28 462.73,177.73 C462.73,177.77 462.73,177.81 462.69,177.83 C461.04,178.46 459.96,178.67 458.61,178.67 C456.53,178.67 454.82,177.71 454.82,175.54 C454.82,173.56 456.56,172.51 459.06,172.51 C459.56,172.51 459.99,172.51 460.16,172.54 C460.16,172.54 460.16,172.41 460.16,172.41 C460.16,172.06 459.94,171.23 458.36,171.23 C457.43,171.23 456.6,171.42 455.89,171.74 C455.81,171.78 455.72,171.74 455.72,171.64 C455.72,171.64 455.72,169.75 455.72,169.75 C455.72,169.66 455.74,169.6 455.85,169.57 C456.68,169.17 457.75,168.98 458.79,168.98 C461.49,168.98 462.69,170.65 462.69,172.79 C462.69,172.79 462.69,176.4 462.69,176.4z  M460.16 174.47 C459.86,174.44 459.6,174.42 459.23,174.42 C457.89,174.42 457.35,174.85 457.35,175.52 C457.35,176.14 457.82,176.65 459,176.65 C459.43,176.65 459.8,176.59 460.16,176.48 C460.16,176.48 460.16,174.47 460.16,174.47z "/><path id="_R_G_L_5_G_L_7_G_D_21_P_0" fill="#5a5a5a" fill-opacity="1" fill-rule="nonzero" d=" M469.43 178.16 C469.43,178.28 469.41,178.37 469.3,178.41 C468.78,178.6 468.29,178.67 467.63,178.67 C466,178.67 465.05,177.86 465.05,175.99 C465.05,175.99 465.05,171.34 465.05,171.34 C465.05,171.34 463.92,171.34 463.92,171.34 C463.81,171.33 463.77,171.29 463.77,171.18 C463.77,171.18 463.77,169.34 463.77,169.34 C463.77,169.21 463.81,169.17 463.94,169.17 C463.94,169.17 465.07,169.17 465.07,169.17 C465.08,168.53 465.16,167.43 465.25,166.91 C465.27,166.81 465.33,166.76 465.42,166.74 C465.42,166.74 467.61,166.46 467.61,166.46 C467.71,166.44 467.76,166.44 467.76,166.57 C467.71,167.15 467.67,168.25 467.67,169.17 C467.67,169.17 469.4,169.17 469.4,169.17 C469.51,169.17 469.55,169.21 469.55,169.32 C469.55,169.32 469.55,171.21 469.55,171.21 C469.55,171.31 469.51,171.33 469.41,171.34 C469.41,171.34 467.65,171.34 467.65,171.34 C467.65,171.34 467.65,175.35 467.65,175.35 C467.65,176.18 467.9,176.55 468.66,176.55 C468.89,176.55 469.08,176.52 469.3,176.48 C469.38,176.48 469.43,176.5 469.43,176.61 C469.43,176.61 469.43,178.16 469.43,178.16z "/><path id="_R_G_L_5_G_L_7_G_D_22_P_0" stroke="#707070" stroke-linecap="round" stroke-linejoin="round" fill="none" stroke-width="0.988" stroke-opacity="1" d=" M298.9 172.21 C298.9,172.21 288.67,172.21 288.67,172.21 "/><path id="_R_G_L_5_G_L_7_G_D_23_P_0" stroke="#707070" stroke-linecap="round" stroke-linejoin="round" fill="none" stroke-width="0.988" stroke-opacity="1" d=" M294.08 167.01 C294.08,167.01 288.67,172.21 288.67,172.21 C288.67,172.21 294.04,177.41 294.04,177.41 "/><path id="_R_G_L_5_G_L_7_G_D_24_P_0" fill="#4066cf" fill-opacity="1" fill-rule="nonzero" d=" M883.13 84.75 C883.13,84.75 140.87,84.75 140.87,84.75 C134.95,84.75 130.15,89.55 130.15,95.47 C130.15,95.47 130.15,132.07 130.15,132.07 C130.15,132.07 893.85,132.07 893.85,132.07 C893.85,132.07 893.85,95.47 893.85,95.47 C893.85,89.55 889.05,84.75 883.13,84.75z "/><path id="_R_G_L_5_G_L_7_G_D_25_P_0" fill="#9fb2e6" fill-opacity="1" fill-rule="nonzero" d=" M797.54 112.84 C797.54,112.84 761.22,112.84 761.22,112.84 C758.77,112.84 756.78,110.86 756.78,108.41 C756.78,108.41 756.78,108.41 756.78,108.41 C756.78,105.96 758.77,103.98 761.22,103.98 C761.22,103.98 797.54,103.98 797.54,103.98 C799.99,103.98 801.97,105.96 801.97,108.41 C801.97,108.41 801.97,108.41 801.97,108.41 C801.97,110.86 799.99,112.84 797.54,112.84z "/><path id="_R_G_L_5_G_L_7_G_D_26_P_0" fill="#9fb2e6" fill-opacity="1" fill-rule="nonzero" d=" M241.71 112.84 C241.71,112.84 205.39,112.84 205.39,112.84 C202.94,112.84 200.95,110.86 200.95,108.41 C200.95,108.41 200.95,108.41 200.95,108.41 C200.95,105.96 202.94,103.98 205.39,103.98 C205.39,103.98 241.71,103.98 241.71,103.98 C244.16,103.98 246.14,105.96 246.14,108.41 C246.14,108.41 246.14,108.41 246.14,108.41 C246.14,110.86 244.16,112.84 241.71,112.84z "/><path id="_R_G_L_5_G_L_7_G_D_27_P_0" fill="#81868b" fill-opacity="1" fill-rule="nonzero" d=" M861.84 116.01 C861.84,116.01 840.03,116.01 840.03,116.01 C835.84,116.01 832.44,112.61 832.44,108.41 C832.44,108.41 832.44,108.41 832.44,108.41 C832.44,104.21 835.84,100.81 840.03,100.81 C840.03,100.81 861.84,100.81 861.84,100.81 C866.04,100.81 869.44,104.21 869.44,108.41 C869.44,108.41 869.44,108.41 869.44,108.41 C869.44,112.61 866.04,116.01 861.84,116.01z "/><path id="_R_G_L_5_G_L_7_G_D_28_P_0" fill="#ffffff" fill-opacity="1" fill-rule="nonzero" d=" M830.02 108.41 C830.02,114.19 834.7,118.87 840.48,118.87 C846.25,118.87 850.94,114.19 850.94,108.41 C850.94,102.63 846.25,97.95 840.48,97.95 C834.7,97.95 830.02,102.63 830.02,108.41z "/><path id="_R_G_L_5_G_L_7_G_D_29_P_0" fill="#3250a2" fill-opacity="1" fill-rule="nonzero" d=" M741.1 124.77 C741.1,124.77 271.97,124.77 271.97,124.77 C271.97,124.77 271.97,94.55 271.97,94.55 C271.97,94.55 741.1,94.55 741.1,94.55 C741.1,94.55 741.1,124.77 741.1,124.77z "/><path id="_R_G_L_5_G_L_7_G_D_30_P_0" fill="#ffffff" fill-opacity="1" fill-rule="nonzero" d=" M180.09 100.69 C180.09,100.69 150.67,100.69 150.67,100.69 C150.67,100.69 150.67,96.44 150.67,96.44 C150.67,96.44 180.09,96.44 180.09,96.44 C180.09,96.44 180.09,100.69 180.09,100.69z "/><path id="_R_G_L_5_G_L_7_G_D_31_P_0" fill="#ffffff" fill-opacity="1" fill-rule="nonzero" d=" M180.09 110.53 C180.09,110.53 150.67,110.53 150.67,110.53 C150.67,110.53 150.67,106.29 150.67,106.29 C150.67,106.29 180.09,106.29 180.09,106.29 C180.09,106.29 180.09,110.53 180.09,110.53z "/><path id="_R_G_L_5_G_L_7_G_D_32_P_0" fill="#ffffff" fill-opacity="1" fill-rule="nonzero" d=" M180.09 120.38 C180.09,120.38 150.67,120.38 150.67,120.38 C150.67,120.38 150.67,116.13 150.67,116.13 C150.67,116.13 180.09,116.13 180.09,116.13 C180.09,116.13 180.09,120.38 180.09,120.38z "/></g><g id="_R_G_L_5_G_L_6_G_N_8_T_0"><g id="_R_G_L_5_G_L_6_G"><path id="_R_G_L_5_G_L_6_G_D_0_P_0" fill="#2f2f2f" fill-opacity="1" fill-rule="nonzero" d=" M299.26 396.35 C299.19,396.35 299.13,396.33 299.13,396.24 C299.13,396.24 299.13,395.41 299.13,395.41 C299.13,395.34 299.15,395.3 299.19,395.23 C299.19,395.23 306.08,385.81 306.08,385.81 C306.08,385.81 299.46,385.81 299.46,385.81 C299.38,385.81 299.35,385.8 299.37,385.69 C299.37,385.69 299.56,384.55 299.56,384.55 C299.58,384.46 299.62,384.45 299.71,384.45 C299.71,384.45 307.9,384.45 307.9,384.45 C307.99,384.45 308.01,384.48 308.01,384.54 C308.01,384.54 308.01,385.4 308.01,385.4 C308.01,385.47 307.99,385.54 307.92,385.62 C307.92,385.62 301.09,394.98 301.09,394.98 C301.09,394.98 308.15,394.98 308.15,394.98 C308.24,394.98 308.26,395.01 308.24,395.1 C308.24,395.1 308.01,396.24 308.01,396.24 C307.99,396.31 307.97,396.35 307.88,396.35 C307.88,396.35 299.26,396.35 299.26,396.35z "/><path id="_R_G_L_5_G_L_6_G_D_1_P_0" fill="#2f2f2f" fill-opacity="1" fill-rule="nonzero" d=" M316.54 394.44 C316.54,395.39 316.59,395.84 316.65,396.24 C316.65,396.31 316.63,396.35 316.54,396.35 C316.54,396.35 315.39,396.35 315.39,396.35 C315.3,396.35 315.28,396.33 315.24,396.26 C315.19,396.06 315.15,395.73 315.14,395.48 C314.38,396.26 313.43,396.53 312.52,396.53 C310.99,396.53 309.55,395.75 309.55,393.14 C309.55,393.14 309.55,387.7 309.55,387.7 C309.55,387.61 309.59,387.6 309.68,387.6 C309.68,387.6 310.96,387.6 310.96,387.6 C311.03,387.6 311.05,387.63 311.05,387.7 C311.05,387.7 311.05,392.96 311.05,392.96 C311.05,394.35 311.7,395.19 312.96,395.19 C313.82,395.19 314.51,394.87 315.05,394.28 C315.05,394.28 315.05,387.7 315.05,387.7 C315.05,387.63 315.08,387.6 315.17,387.6 C315.17,387.6 316.43,387.6 316.43,387.6 C316.54,387.6 316.54,387.63 316.54,387.7 C316.54,387.7 316.54,394.44 316.54,394.44z "/><path id="_R_G_L_5_G_L_6_G_D_2_P_0" fill="#2f2f2f" fill-opacity="1" fill-rule="nonzero" d=" M322.98 394.87 C325.22,394.98 326.48,395.79 326.48,397.37 C326.48,399.17 324.77,400.6 322.12,400.6 C319.46,400.6 318.14,399.19 318.14,397.86 C318.14,397.25 318.66,396.44 319.91,395.39 C319.62,395 319.47,394.53 319.47,394.04 C319.47,393.65 319.58,393.25 319.78,392.91 C319.04,392.42 318.56,391.61 318.56,390.48 C318.56,388.8 319.8,387.42 321.92,387.42 C322.48,387.42 322.95,387.49 323.27,387.56 C323.43,387.6 323.54,387.6 323.65,387.6 C323.65,387.6 326.19,387.6 326.19,387.6 C326.28,387.6 326.3,387.63 326.3,387.7 C326.3,387.7 326.3,388.73 326.3,388.73 C326.3,388.8 326.28,388.84 326.19,388.84 C325.72,388.84 324.96,388.8 324.53,388.77 C324.86,389.11 325.16,389.68 325.16,390.51 C325.16,392.49 323.69,393.48 321.9,393.48 C321.56,393.48 321.24,393.45 320.91,393.38 C320.82,393.59 320.79,393.83 320.82,394.04 C320.86,394.31 320.97,394.56 321.15,394.78 C321.15,394.78 322.98,394.87 322.98,394.87z  M320.77 396.08 C320.03,396.6 319.56,397.35 319.56,397.75 C319.56,398.58 320.55,399.42 322.21,399.42 C324.19,399.42 325.07,398.49 325.07,397.59 C325.07,396.53 323.96,396.24 322.68,396.17 C322.68,396.17 320.77,396.08 320.77,396.08z  M320.03 390.46 C320.03,391.56 320.68,392.35 321.89,392.35 C323.02,392.35 323.72,391.67 323.72,390.49 C323.72,389.45 323.16,388.57 321.9,388.57 C320.77,388.57 320.03,389.31 320.03,390.46z "/><path id="_R_G_L_5_G_L_6_G_D_3_P_0" fill="#2f2f2f" fill-opacity="1" fill-rule="nonzero" d=" M328.96 387.6 C329.07,387.6 329.09,387.63 329.12,387.72 C329.19,387.94 329.25,388.57 329.27,388.96 C329.9,388.1 331.01,387.42 332.16,387.42 C332.25,387.42 332.29,387.43 332.29,387.54 C332.29,387.54 332.29,388.84 332.29,388.84 C332.29,388.93 332.27,388.95 332.16,388.95 C330.92,388.93 329.79,389.54 329.34,390.26 C329.34,390.26 329.32,396.24 329.32,396.24 C329.32,396.33 329.28,396.35 329.21,396.35 C329.21,396.35 327.93,396.35 327.93,396.35 C327.84,396.35 327.81,396.31 327.81,396.22 C327.81,396.22 327.81,390.01 327.81,390.01 C327.81,389.25 327.77,388.21 327.72,387.7 C327.72,387.63 327.73,387.6 327.81,387.6 C327.81,387.6 328.96,387.6 328.96,387.6z "/><path id="_R_G_L_5_G_L_6_G_D_4_P_0" fill="#2f2f2f" fill-opacity="1" fill-rule="nonzero" d=" M333.51 384.95 C333.51,384.41 333.89,384.03 334.43,384.03 C335.01,384.03 335.33,384.43 335.33,384.95 C335.33,385.49 334.97,385.87 334.41,385.87 C333.86,385.87 333.51,385.49 333.51,384.95z  M333.66 387.72 C333.66,387.63 333.69,387.6 333.78,387.6 C333.78,387.6 335.06,387.6 335.06,387.6 C335.13,387.6 335.17,387.61 335.17,387.7 C335.17,387.7 335.17,396.22 335.17,396.22 C335.17,396.31 335.15,396.35 335.04,396.35 C335.04,396.35 333.8,396.35 333.8,396.35 C333.71,396.35 333.66,396.31 333.66,396.2 C333.66,396.2 333.66,387.72 333.66,387.72z "/><path id="_R_G_L_5_G_L_6_G_D_5_P_0" fill="#2f2f2f" fill-opacity="1" fill-rule="nonzero" d=" M336.75 387.69 C336.75,387.63 336.81,387.6 336.84,387.6 C336.84,387.6 338.01,387.6 338.01,387.6 C338.01,387.6 338.01,386.8 338.01,386.8 C338.01,385.85 338.14,385.15 338.41,384.61 C338.88,383.71 339.65,383.26 340.73,383.26 C341.15,383.26 341.38,383.29 341.54,383.37 C341.61,383.4 341.63,383.46 341.63,383.51 C341.63,383.51 341.63,384.61 341.63,384.61 C341.63,384.68 341.6,384.72 341.52,384.7 C341.31,384.61 341.07,384.59 340.88,384.59 C340.07,384.59 339.51,384.99 339.51,386.71 C339.51,386.71 339.51,387.6 339.51,387.6 C339.51,387.6 342.6,387.6 342.6,387.6 C342.6,387.6 342.6,386.64 342.6,386.64 C342.62,384.12 343.86,383.26 345.3,383.26 C345.75,383.26 346.04,383.31 346.22,383.4 C346.29,383.44 346.29,383.47 346.29,383.55 C346.29,383.55 346.29,384.61 346.29,384.61 C346.29,384.68 346.28,384.73 346.19,384.7 C346.01,384.63 345.77,384.59 345.5,384.59 C344.85,384.59 344.12,384.77 344.12,386.68 C344.12,386.68 344.12,387.6 344.12,387.6 C344.12,387.6 345.84,387.6 345.84,387.6 C345.93,387.6 345.95,387.63 345.95,387.69 C345.95,387.69 345.95,388.77 345.95,388.77 C345.95,388.86 345.92,388.89 345.84,388.89 C345.84,388.89 344.12,388.89 344.12,388.89 C344.12,388.89 344.12,396.22 344.12,396.22 C344.12,396.29 344.1,396.35 344.01,396.35 C344.01,396.35 342.73,396.35 342.73,396.35 C342.66,396.35 342.62,396.31 342.62,396.22 C342.62,396.22 342.62,388.89 342.62,388.89 C342.62,388.89 339.51,388.89 339.51,388.89 C339.51,388.89 339.51,396.22 339.51,396.22 C339.51,396.29 339.49,396.35 339.4,396.35 C339.4,396.35 338.12,396.35 338.12,396.35 C338.05,396.35 338.01,396.31 338.01,396.22 C338.01,396.22 338.01,388.89 338.01,388.89 C338.01,388.89 336.82,388.89 336.82,388.89 C336.77,388.89 336.75,388.88 336.75,388.8 C336.75,388.8 336.75,387.69 336.75,387.69z "/><path id="_R_G_L_5_G_L_6_G_D_6_P_0" fill="#2f2f2f" fill-opacity="1" fill-rule="nonzero" d=" M357.17 394.82 C357.17,395.12 357.17,395.39 357.2,395.68 C357.2,395.72 357.2,395.73 357.17,395.75 C355.87,396.36 354.84,396.53 353.8,396.53 C351.89,396.53 350.45,395.59 350.45,393.7 C350.45,391.79 352.23,390.95 354.47,390.95 C355.13,390.95 355.51,390.96 355.71,390.98 C355.71,390.98 355.71,390.55 355.71,390.55 C355.71,389.99 355.44,388.75 353.67,388.75 C352.81,388.75 352.02,388.95 351.39,389.29 C351.33,389.31 351.26,389.29 351.26,389.2 C351.26,389.2 351.26,388.1 351.26,388.1 C351.26,388.03 351.3,387.99 351.35,387.96 C352.05,387.61 352.95,387.42 353.91,387.42 C356.21,387.42 357.17,388.93 357.17,390.8 C357.17,390.8 357.17,394.82 357.17,394.82z  M355.71 392.17 C355.46,392.13 355.06,392.1 354.52,392.1 C352.77,392.1 351.93,392.69 351.93,393.7 C351.93,394.51 352.49,395.3 354.07,395.3 C354.65,395.3 355.19,395.21 355.71,395 C355.71,395 355.71,392.17 355.71,392.17z "/><path id="_R_G_L_5_G_L_6_G_D_7_P_0" fill="#2f2f2f" fill-opacity="1" fill-rule="nonzero" d=" M366.51 394.44 C366.51,395.39 366.56,395.84 366.62,396.24 C366.62,396.31 366.6,396.35 366.51,396.35 C366.51,396.35 365.36,396.35 365.36,396.35 C365.27,396.35 365.25,396.33 365.21,396.26 C365.16,396.06 365.12,395.73 365.1,395.48 C364.35,396.26 363.39,396.53 362.49,396.53 C360.96,396.53 359.52,395.75 359.52,393.14 C359.52,393.14 359.52,387.7 359.52,387.7 C359.52,387.61 359.56,387.6 359.65,387.6 C359.65,387.6 360.93,387.6 360.93,387.6 C361,387.6 361.02,387.63 361.02,387.7 C361.02,387.7 361.02,392.96 361.02,392.96 C361.02,394.35 361.66,395.19 362.93,395.19 C363.79,395.19 364.47,394.87 365.01,394.28 C365.01,394.28 365.01,387.7 365.01,387.7 C365.01,387.63 365.05,387.6 365.14,387.6 C365.14,387.6 366.4,387.6 366.4,387.6 C366.51,387.6 366.51,387.63 366.51,387.7 C366.51,387.7 366.51,394.44 366.51,394.44z "/><path id="_R_G_L_5_G_L_6_G_D_8_P_0" fill="#2f2f2f" fill-opacity="1" fill-rule="nonzero" d=" M368.18 388.89 C368.11,388.89 368.07,388.86 368.07,388.77 C368.07,388.77 368.07,387.7 368.07,387.7 C368.07,387.63 368.11,387.6 368.18,387.6 C368.18,387.6 369.35,387.6 369.35,387.6 C369.35,387.6 369.35,386.95 369.35,386.95 C369.35,385.9 369.5,385.22 369.77,384.68 C370.23,383.78 371.01,383.26 372.12,383.26 C372.5,383.26 372.75,383.29 372.95,383.38 C373.04,383.4 373.04,383.46 373.04,383.53 C373.04,383.53 373.04,384.59 373.04,384.59 C373.04,384.66 373.01,384.7 372.93,384.68 C372.74,384.61 372.48,384.59 372.3,384.59 C371.44,384.59 370.85,385.06 370.85,386.79 C370.85,386.79 370.85,387.6 370.85,387.6 C370.85,387.6 372.57,387.6 372.57,387.6 C372.65,387.6 372.68,387.63 372.68,387.69 C372.68,387.69 372.68,388.77 372.68,388.77 C372.68,388.86 372.65,388.88 372.57,388.89 C372.57,388.89 370.85,388.89 370.85,388.89 C370.85,388.89 370.85,396.22 370.85,396.22 C370.85,396.29 370.83,396.35 370.74,396.35 C370.74,396.35 369.46,396.35 369.46,396.35 C369.39,396.35 369.35,396.31 369.35,396.22 C369.35,396.22 369.35,388.89 369.35,388.89 C369.35,388.89 368.18,388.89 368.18,388.89z "/><path id="_R_G_L_5_G_L_6_G_D_9_P_0" fill="#2f2f2f" fill-opacity="1" fill-rule="nonzero" d=" M378.04 384.61 C378.04,384.52 378.06,384.48 378.15,384.46 C378.6,384.45 379.52,384.41 381.3,384.41 C385.37,384.41 387.57,386.77 387.57,390.19 C387.57,394.74 384.15,396.38 381.12,396.38 C380.12,396.38 378.76,396.37 378.13,396.35 C378.06,396.35 378.04,396.29 378.04,396.2 C378.04,396.2 378.04,384.61 378.04,384.61z  M379.54 395.02 C379.9,395.03 380.51,395.05 381.07,395.05 C383.97,395.05 386.02,393.47 386.04,390.21 C386.04,387.22 383.99,385.74 381.27,385.74 C380.64,385.74 380.06,385.76 379.54,385.78 C379.54,385.78 379.54,395.02 379.54,395.02z "/><path id="_R_G_L_5_G_L_6_G_D_10_P_0" fill="#2f2f2f" fill-opacity="1" fill-rule="nonzero" d=" M395.56 394.82 C395.56,395.12 395.56,395.39 395.6,395.68 C395.6,395.72 395.6,395.73 395.56,395.75 C394.26,396.36 393.24,396.53 392.19,396.53 C390.28,396.53 388.84,395.59 388.84,393.7 C388.84,391.79 390.63,390.95 392.86,390.95 C393.53,390.95 393.9,390.96 394.1,390.98 C394.1,390.98 394.1,390.55 394.1,390.55 C394.1,389.99 393.83,388.75 392.07,388.75 C391.2,388.75 390.41,388.95 389.78,389.29 C389.73,389.31 389.65,389.29 389.65,389.2 C389.65,389.2 389.65,388.1 389.65,388.1 C389.65,388.03 389.69,387.99 389.74,387.96 C390.45,387.61 391.35,387.42 392.3,387.42 C394.61,387.42 395.56,388.93 395.56,390.8 C395.56,390.8 395.56,394.82 395.56,394.82z  M394.1 392.17 C393.85,392.13 393.45,392.1 392.91,392.1 C391.17,392.1 390.32,392.69 390.32,393.7 C390.32,394.51 390.88,395.3 392.46,395.3 C393.04,395.3 393.58,395.21 394.1,395 C394.1,395 394.1,392.17 394.1,392.17z "/><path id="_R_G_L_5_G_L_6_G_D_11_P_0" fill="#2f2f2f" fill-opacity="1" fill-rule="nonzero" d=" M401.72 396.1 C401.72,396.17 401.7,396.24 401.61,396.28 C401.19,396.46 400.74,396.53 400.26,396.53 C398.94,396.53 398.15,395.9 398.15,394.17 C398.15,394.17 398.15,388.89 398.15,388.89 C398.15,388.89 396.93,388.89 396.93,388.89 C396.82,388.87 396.8,388.84 396.8,388.75 C396.8,388.75 396.8,387.72 396.8,387.72 C396.8,387.63 396.84,387.6 396.93,387.6 C396.93,387.6 398.15,387.6 398.15,387.6 C398.17,386.93 398.24,385.69 398.31,385.29 C398.33,385.22 398.37,385.18 398.44,385.17 C398.44,385.17 399.66,384.97 399.66,384.97 C399.73,384.95 399.77,384.97 399.77,385.04 C399.72,385.67 399.66,386.71 399.66,387.6 C399.66,387.6 401.57,387.6 401.57,387.6 C401.64,387.6 401.68,387.63 401.68,387.72 C401.68,387.72 401.68,388.79 401.68,388.79 C401.68,388.86 401.64,388.89 401.57,388.89 C401.57,388.89 399.66,388.89 399.66,388.89 C399.66,388.89 399.66,393.95 399.66,393.95 C399.66,394.78 399.97,395.25 400.76,395.25 C401.03,395.25 401.3,395.21 401.61,395.1 C401.66,395.09 401.72,395.09 401.72,395.18 C401.72,395.18 401.72,396.1 401.72,396.1z "/><path id="_R_G_L_5_G_L_6_G_D_12_P_0" fill="#2f2f2f" fill-opacity="1" fill-rule="nonzero" d=" M404.11 392.15 C404.09,393.86 405.08,395.21 407.12,395.21 C407.91,395.21 408.66,395.07 409.37,394.73 C409.42,394.69 409.46,394.73 409.46,394.8 C409.46,394.8 409.46,395.83 409.46,395.83 C409.46,395.93 409.42,395.97 409.37,396.01 C408.75,396.31 407.96,396.53 406.83,396.53 C403.71,396.53 402.6,394.24 402.6,392.04 C402.6,389.52 404.07,387.42 406.58,387.42 C409.15,387.42 410.09,389.51 410.09,391.04 C410.09,391.48 410.05,391.81 410.01,391.97 C410.01,392.03 409.96,392.08 409.89,392.08 C409.62,392.13 408.83,392.15 408.03,392.15 C408.03,392.15 404.11,392.15 404.11,392.15z  M407.48 391.04 C408.36,391.04 408.57,391.02 408.63,391 C408.65,390.95 408.65,390.86 408.65,390.8 C408.65,390.15 408.21,388.66 406.52,388.66 C405.03,388.66 404.29,389.83 404.13,391.04 C404.13,391.04 407.48,391.04 407.48,391.04z "/><path id="_R_G_L_5_G_L_6_G_D_13_P_0" fill="#2f2f2f" fill-opacity="1" fill-rule="nonzero" d=" M411.85 384.95 C411.85,384.41 412.23,384.03 412.77,384.03 C413.34,384.03 413.67,384.43 413.67,384.95 C413.67,385.49 413.31,385.87 412.75,385.87 C412.19,385.87 411.85,385.49 411.85,384.95z  M411.99 387.72 C411.99,387.63 412.03,387.6 412.12,387.6 C412.12,387.6 413.4,387.6 413.4,387.6 C413.47,387.6 413.5,387.61 413.5,387.7 C413.5,387.7 413.5,396.22 413.5,396.22 C413.5,396.31 413.49,396.35 413.38,396.35 C413.38,396.35 412.14,396.35 412.14,396.35 C412.05,396.35 411.99,396.31 411.99,396.2 C411.99,396.2 411.99,387.72 411.99,387.72z "/><path id="_R_G_L_5_G_L_6_G_D_14_P_0" fill="#2f2f2f" fill-opacity="1" fill-rule="nonzero" d=" M415.56 392.46 C415.48,392.46 415.47,392.44 415.47,392.37 C415.47,392.37 415.47,391.23 415.47,391.23 C415.47,391.18 415.48,391.14 415.56,391.14 C415.56,391.14 419.59,391.14 419.59,391.14 C419.64,391.14 419.68,391.16 419.68,391.23 C419.68,391.23 419.68,392.37 419.68,392.37 C419.68,392.44 419.66,392.46 419.59,392.46 C419.59,392.46 415.56,392.46 415.56,392.46z "/><path id="_R_G_L_5_G_L_6_G_D_15_P_0" fill="#2f2f2f" fill-opacity="1" fill-rule="nonzero" d=" M423.08 391.95 C423.08,393.93 424.16,395.18 426.12,395.18 C427.64,395.18 429.08,394.51 429.08,391.92 C429.08,391.92 429.08,384.57 429.08,384.57 C429.08,384.48 429.11,384.45 429.18,384.45 C429.18,384.45 430.46,384.45 430.46,384.45 C430.55,384.45 430.59,384.48 430.59,384.57 C430.59,384.57 430.59,391.94 430.59,391.94 C430.59,395.25 428.63,396.53 426.07,396.53 C423.35,396.53 421.59,395.05 421.59,392.04 C421.59,392.04 421.59,384.57 421.59,384.57 C421.59,384.5 421.6,384.45 421.69,384.45 C421.69,384.45 422.97,384.45 422.97,384.45 C423.04,384.45 423.08,384.48 423.08,384.55 C423.08,384.55 423.08,391.95 423.08,391.95z "/><path id="_R_G_L_5_G_L_6_G_D_16_P_0" fill="#2f2f2f" fill-opacity="1" fill-rule="nonzero" d=" M433.45 396.35 C433.37,396.35 433.34,396.33 433.34,396.24 C433.34,396.24 433.34,384.61 433.34,384.61 C433.34,384.52 433.36,384.46 433.45,384.46 C434.45,384.43 435.37,384.41 436.58,384.41 C439.23,384.41 440.99,385.54 440.99,387.85 C440.99,389.54 439.84,390.59 438.51,391.04 C439.12,391.88 441.53,395.43 442,396.2 C442.04,396.28 442.04,396.35 441.95,396.35 C441.95,396.35 440.43,396.35 440.43,396.35 C440.33,396.35 440.29,396.33 440.23,396.28 C439.68,395.43 438.18,393.12 437.28,391.74 C437.14,391.52 437.05,391.45 436.87,391.45 C436.87,391.45 434.82,391.45 434.82,391.45 C434.82,391.45 434.82,396.24 434.82,396.24 C434.82,396.31 434.78,396.35 434.71,396.35 C434.71,396.35 433.45,396.35 433.45,396.35z  M436.74 390.14 C438.45,390.14 439.5,389.25 439.5,387.92 C439.5,386.55 438.45,385.74 436.53,385.74 C435.84,385.74 435.18,385.76 434.82,385.78 C434.82,385.78 434.82,390.14 434.82,390.14 C434.82,390.14 436.74,390.14 436.74,390.14z "/><path id="_R_G_L_5_G_L_6_G_D_17_P_0" fill="#2f2f2f" fill-opacity="1" fill-rule="nonzero" d=" M443.64 396.35 C443.53,396.35 443.49,396.29 443.49,396.2 C443.49,396.2 443.49,384.57 443.49,384.57 C443.49,384.5 443.51,384.45 443.6,384.45 C443.6,384.45 444.9,384.45 444.9,384.45 C444.97,384.45 444.99,384.48 444.99,384.55 C444.99,384.55 444.99,394.98 444.99,394.98 C444.99,394.98 450.57,394.98 450.57,394.98 C450.66,394.98 450.68,395.03 450.66,395.09 C450.66,395.09 450.44,396.24 450.44,396.24 C450.42,396.33 450.37,396.35 450.3,396.35 C450.3,396.35 443.64,396.35 443.64,396.35z "/><path id="_R_G_L_5_G_L_6_G_D_18_P_0" fill="#2f2f2f" fill-opacity="1" fill-rule="nonzero" d=" M454.87 388.66 C453.68,388.66 453.28,389.23 453.28,389.78 C453.28,390.32 453.61,390.69 454.96,391.23 C456.78,391.94 457.51,392.67 457.51,393.95 C457.51,395.61 456.16,396.53 454.29,396.53 C453.3,396.53 452.4,396.31 451.88,396.01 C451.82,395.97 451.79,395.93 451.79,395.84 C451.79,395.84 451.79,394.64 451.79,394.64 C451.79,394.55 451.84,394.51 451.9,394.55 C452.62,395.05 453.54,395.27 454.33,395.27 C455.48,395.27 456.04,394.76 456.04,394.1 C456.04,393.43 455.64,393.03 454.4,392.55 C452.6,391.86 451.84,391.13 451.84,389.85 C451.84,388.55 452.94,387.42 454.9,387.42 C455.89,387.42 456.63,387.6 457.01,387.81 C457.1,387.85 457.1,387.92 457.1,387.99 C457.1,387.99 457.1,389.09 457.1,389.09 C457.1,389.18 457.05,389.23 456.96,389.18 C456.45,388.88 455.62,388.66 454.87,388.66z "/><path id="_R_G_L_5_G_L_6_G_D_19_P_0" fill="#2f2f2f" fill-opacity="1" fill-rule="nonzero" d=" M464.35 392.15 C464.33,393.86 465.32,395.21 467.36,395.21 C468.15,395.21 468.91,395.07 469.61,394.73 C469.66,394.69 469.7,394.73 469.7,394.8 C469.7,394.8 469.7,395.83 469.7,395.83 C469.7,395.93 469.66,395.97 469.61,396.01 C469,396.31 468.21,396.53 467.07,396.53 C463.96,396.53 462.84,394.24 462.84,392.04 C462.84,389.52 464.32,387.42 466.82,387.42 C469.39,387.42 470.33,389.51 470.33,391.04 C470.33,391.48 470.29,391.81 470.26,391.97 C470.26,392.03 470.2,392.08 470.13,392.08 C469.86,392.13 469.07,392.15 468.28,392.15 C468.28,392.15 464.35,392.15 464.35,392.15z  M467.72 391.04 C468.6,391.04 468.82,391.02 468.87,391 C468.89,390.95 468.89,390.86 468.89,390.8 C468.89,390.15 468.46,388.66 466.77,388.66 C465.27,388.66 464.53,389.83 464.37,391.04 C464.37,391.04 467.72,391.04 467.72,391.04z "/><path id="_R_G_L_5_G_L_6_G_D_20_P_0" fill="#2f2f2f" fill-opacity="1" fill-rule="nonzero" d=" M473.3 387.6 C473.41,387.6 473.42,387.63 473.46,387.72 C473.53,387.94 473.59,388.57 473.6,388.96 C474.23,388.1 475.35,387.42 476.5,387.42 C476.59,387.42 476.63,387.43 476.63,387.54 C476.63,387.54 476.63,388.84 476.63,388.84 C476.63,388.93 476.61,388.95 476.5,388.95 C475.26,388.93 474.13,389.54 473.68,390.26 C473.68,390.26 473.66,396.24 473.66,396.24 C473.66,396.33 473.62,396.35 473.55,396.35 C473.55,396.35 472.27,396.35 472.27,396.35 C472.18,396.35 472.15,396.31 472.15,396.22 C472.15,396.22 472.15,390.01 472.15,390.01 C472.15,389.25 472.11,388.21 472.06,387.7 C472.06,387.63 472.07,387.6 472.15,387.6 C472.15,387.6 473.3,387.6 473.3,387.6z "/><path id="_R_G_L_5_G_L_6_G_D_21_P_0" fill="#2f2f2f" fill-opacity="1" fill-rule="nonzero" d=" M478.1 396.35 C478.01,396.35 478,396.31 478,396.22 C478,396.22 478,389.49 478,389.49 C478,388.69 477.96,388.05 477.92,387.7 C477.92,387.63 477.94,387.6 478.03,387.6 C478.03,387.6 479.17,387.6 479.17,387.6 C479.24,387.6 479.27,387.63 479.31,387.69 C479.36,387.87 479.4,388.26 479.42,388.55 C480.25,387.78 481.13,387.42 482.12,387.42 C483.2,387.42 484.01,387.83 484.51,388.73 C485.27,387.99 486.21,387.42 487.52,387.42 C488.85,387.42 490.44,388.12 490.44,390.85 C490.44,390.85 490.44,396.24 490.44,396.24 C490.44,396.31 490.4,396.35 490.31,396.35 C490.31,396.35 489.07,396.35 489.07,396.35 C488.98,396.35 488.94,396.31 488.94,396.22 C488.94,396.22 488.94,390.96 488.94,390.96 C488.94,389.74 488.38,388.75 487.11,388.75 C486.21,388.75 485.47,389.15 484.89,389.79 C484.95,390.01 484.98,390.51 484.98,390.95 C484.98,390.95 484.98,396.22 484.98,396.22 C484.98,396.31 484.95,396.35 484.86,396.35 C484.86,396.35 483.6,396.35 483.6,396.35 C483.51,396.35 483.47,396.31 483.47,396.22 C483.47,396.22 483.47,390.91 483.47,390.91 C483.47,389.54 482.84,388.75 481.67,388.75 C480.82,388.75 480.17,389.07 479.49,389.76 C479.49,389.76 479.49,396.24 479.49,396.24 C479.49,396.31 479.47,396.35 479.38,396.35 C479.38,396.35 478.1,396.35 478.1,396.35z "/><path id="_R_G_L_5_G_L_6_G_D_22_P_0" fill="#2f2f2f" fill-opacity="1" fill-rule="nonzero" d=" M500.59 391.95 C500.59,394.69 498.9,396.53 496.48,396.53 C493.58,396.53 492.34,394.19 492.34,391.97 C492.34,389.43 493.96,387.42 496.48,387.42 C499.02,387.42 500.59,389.36 500.59,391.95z  M493.85 391.94 C493.85,393.77 494.81,395.23 496.52,395.23 C497.8,395.23 499.06,394.22 499.06,391.99 C499.06,390.32 498.28,388.71 496.41,388.71 C494.9,388.71 493.85,390.01 493.85,391.94z  M493.96 384.95 C493.96,384.43 494.32,384.1 494.81,384.1 C495.26,384.1 495.58,384.45 495.58,384.95 C495.58,385.45 495.22,385.78 494.77,385.78 C494.3,385.78 493.96,385.45 493.96,384.95z  M497.26 384.95 C497.26,384.43 497.64,384.1 498.09,384.1 C498.55,384.1 498.88,384.45 498.88,384.95 C498.88,385.44 498.54,385.78 498.07,385.78 C497.6,385.78 497.26,385.45 497.26,384.95z "/><path id="_R_G_L_5_G_L_6_G_D_23_P_0" fill="#2f2f2f" fill-opacity="1" fill-rule="nonzero" d=" M506.42 394.87 C508.65,394.98 509.91,395.79 509.91,397.37 C509.91,399.17 508.2,400.6 505.55,400.6 C502.89,400.6 501.58,399.19 501.58,397.86 C501.58,397.25 502.1,396.44 503.34,395.39 C503.05,395 502.91,394.53 502.91,394.04 C502.91,393.65 503.02,393.25 503.21,392.91 C502.48,392.42 501.99,391.61 501.99,390.48 C501.99,388.8 503.23,387.42 505.36,387.42 C505.91,387.42 506.38,387.49 506.71,387.56 C506.87,387.6 506.98,387.6 507.08,387.6 C507.08,387.6 509.62,387.6 509.62,387.6 C509.71,387.6 509.73,387.63 509.73,387.7 C509.73,387.7 509.73,388.73 509.73,388.73 C509.73,388.8 509.71,388.84 509.62,388.84 C509.16,388.84 508.4,388.8 507.97,388.77 C508.29,389.11 508.6,389.68 508.6,390.51 C508.6,392.49 507.12,393.48 505.34,393.48 C505,393.48 504.67,393.45 504.35,393.38 C504.26,393.59 504.22,393.83 504.26,394.04 C504.29,394.31 504.4,394.56 504.58,394.78 C504.58,394.78 506.42,394.87 506.42,394.87z  M504.2 396.08 C503.47,396.6 503,397.35 503,397.75 C503,398.58 503.99,399.42 505.64,399.42 C507.63,399.42 508.51,398.49 508.51,397.59 C508.51,396.53 507.39,396.24 506.11,396.17 C506.11,396.17 504.2,396.08 504.2,396.08z  M503.47 390.46 C503.47,391.56 504.11,392.35 505.32,392.35 C506.45,392.35 507.16,391.67 507.16,390.49 C507.16,389.45 506.6,388.57 505.34,388.57 C504.2,388.57 503.47,389.31 503.47,390.46z "/><path id="_R_G_L_5_G_L_6_G_D_24_P_0" fill="#2f2f2f" fill-opacity="1" fill-rule="nonzero" d=" M511.12 383.54 C511.12,383.45 511.15,383.44 511.24,383.44 C511.24,383.44 512.5,383.44 512.5,383.44 C512.59,383.44 512.61,383.47 512.61,383.54 C512.61,383.54 512.61,394.4 512.61,394.4 C512.61,395.1 512.9,395.27 513.33,395.27 C513.46,395.27 513.53,395.25 513.69,395.21 C513.74,395.21 513.76,395.25 513.76,395.32 C513.76,395.32 513.76,396.26 513.76,396.26 C513.76,396.35 513.74,396.37 513.67,396.4 C513.51,396.47 513.22,396.53 512.84,396.53 C511.96,396.53 511.12,396.22 511.12,394.53 C511.12,394.53 511.12,383.54 511.12,383.54z "/><path id="_R_G_L_5_G_L_6_G_D_25_P_0" fill="#2f2f2f" fill-opacity="1" fill-rule="nonzero" d=" M515.31 384.95 C515.31,384.41 515.69,384.03 516.23,384.03 C516.8,384.03 517.13,384.43 517.13,384.95 C517.13,385.49 516.77,385.87 516.21,385.87 C515.65,385.87 515.31,385.49 515.31,384.95z  M515.45 387.72 C515.45,387.63 515.49,387.6 515.58,387.6 C515.58,387.6 516.86,387.6 516.86,387.6 C516.93,387.6 516.96,387.61 516.96,387.7 C516.96,387.7 516.96,396.22 516.96,396.22 C516.96,396.31 516.95,396.35 516.84,396.35 C516.84,396.35 515.6,396.35 515.6,396.35 C515.51,396.35 515.45,396.31 515.45,396.2 C515.45,396.2 515.45,387.72 515.45,387.72z "/><path id="_R_G_L_5_G_L_6_G_D_26_P_0" fill="#2f2f2f" fill-opacity="1" fill-rule="nonzero" d=" M525.35 396.11 C525.35,396.19 525.35,396.22 525.28,396.24 C524.69,396.47 523.99,396.53 523.32,396.53 C520.38,396.53 518.87,394.44 518.87,392.01 C518.87,389.38 520.75,387.42 523.57,387.42 C524.49,387.42 524.99,387.53 525.28,387.65 C525.35,387.69 525.35,387.72 525.35,387.81 C525.35,387.81 525.35,388.95 525.35,388.95 C525.35,389.04 525.3,389.04 525.23,389.02 C524.78,388.84 524.31,388.75 523.57,388.75 C521.72,388.75 520.4,389.99 520.4,391.95 C520.4,394.11 521.9,395.18 523.57,395.18 C524.24,395.18 524.8,395.1 525.25,394.92 C525.34,394.91 525.35,394.94 525.35,395 C525.35,395 525.35,396.11 525.35,396.11z "/><path id="_R_G_L_5_G_L_6_G_D_27_P_0" fill="#2f2f2f" fill-opacity="1" fill-rule="nonzero" d=" M528.67 396.24 C528.67,396.33 528.65,396.35 528.56,396.35 C528.56,396.35 527.3,396.35 527.3,396.35 C527.21,396.35 527.17,396.31 527.17,396.22 C527.17,396.22 527.17,383.55 527.17,383.55 C527.17,383.47 527.19,383.44 527.28,383.44 C527.28,383.44 528.57,383.44 528.57,383.44 C528.65,383.44 528.67,383.46 528.67,383.53 C528.67,383.53 528.68,388.46 528.68,388.46 C529.42,387.78 530.29,387.42 531.35,387.42 C532.63,387.42 534.28,388.05 534.28,390.89 C534.28,390.89 534.28,396.22 534.28,396.22 C534.28,396.31 534.25,396.35 534.16,396.35 C534.16,396.35 532.9,396.35 532.9,396.35 C532.8,396.35 532.77,396.31 532.77,396.2 C532.77,396.2 532.77,391.05 532.77,391.05 C532.77,389.67 532.18,388.75 530.92,388.75 C530.03,388.75 529.24,389.11 528.67,389.74 C528.67,389.74 528.67,396.24 528.67,396.24z "/><path id="_R_G_L_5_G_L_6_G_D_28_P_0" fill="#2f2f2f" fill-opacity="1" fill-rule="nonzero" d=" M537.7 392.15 C537.68,393.86 538.67,395.21 540.71,395.21 C541.5,395.21 542.26,395.07 542.96,394.73 C543.01,394.69 543.05,394.73 543.05,394.8 C543.05,394.8 543.05,395.83 543.05,395.83 C543.05,395.93 543.01,395.97 542.96,396.01 C542.35,396.31 541.55,396.53 540.42,396.53 C537.3,396.53 536.19,394.24 536.19,392.04 C536.19,389.52 537.66,387.42 540.17,387.42 C542.74,387.42 543.68,389.51 543.68,391.04 C543.68,391.48 543.64,391.81 543.61,391.97 C543.61,392.03 543.55,392.08 543.48,392.08 C543.21,392.13 542.42,392.15 541.63,392.15 C541.63,392.15 537.7,392.15 537.7,392.15z  M541.07 391.04 C541.95,391.04 542.17,391.02 542.22,391 C542.24,390.95 542.24,390.86 542.24,390.8 C542.24,390.15 541.81,388.66 540.11,388.66 C538.62,388.66 537.88,389.83 537.72,391.04 C537.72,391.04 541.07,391.04 541.07,391.04z "/><path id="_R_G_L_5_G_L_6_G_D_29_P_0" fill="#2f2f2f" fill-opacity="1" fill-rule="nonzero" d=" M545.49 389.63 C545.49,389.02 545.46,388.01 545.42,387.7 C545.42,387.63 545.44,387.6 545.53,387.6 C545.53,387.6 546.65,387.6 546.65,387.6 C546.74,387.6 546.77,387.63 546.81,387.7 C546.86,387.87 546.88,388.21 546.92,388.6 C547.71,387.81 548.63,387.42 549.67,387.42 C550.95,387.42 552.61,388.05 552.61,390.89 C552.61,390.89 552.61,396.22 552.61,396.22 C552.61,396.31 552.57,396.35 552.48,396.35 C552.48,396.35 551.22,396.35 551.22,396.35 C551.13,396.35 551.09,396.31 551.09,396.2 C551.09,396.2 551.09,391.04 551.09,391.04 C551.09,389.67 550.5,388.75 549.24,388.75 C548.32,388.75 547.56,389.16 546.99,389.85 C546.99,389.85 546.99,396.22 546.99,396.22 C546.99,396.31 546.97,396.35 546.88,396.35 C546.88,396.35 545.6,396.35 545.6,396.35 C545.53,396.35 545.49,396.31 545.49,396.22 C545.49,396.22 545.49,389.63 545.49,389.63z "/></g></g><g id="_R_G_L_5_G_L_5_G_N_8_T_0"><g id="_R_G_L_5_G_L_5_G" transform=" translate(327.159, 172.252) translate(0, 0)"><path id="_R_G_L_5_G_L_5_G_D_0_P_0" fill="#c30000" fill-opacity="1" fill-rule="nonzero" d=" M-7.94 -11.98 C-7.94,-11.98 7.94,-11.98 7.94,-11.98 C10.34,-11.98 12.29,-10.04 12.29,-7.64 C12.29,-7.63 12.29,-7.63 12.29,-7.63 C12.29,-7.63 12.29,7.63 12.29,7.63 C12.29,10.03 10.35,11.98 7.94,11.98 C7.94,11.98 7.94,11.98 7.94,11.98 C7.94,11.98 -7.94,11.98 -7.94,11.98 C-10.34,11.98 -12.29,10.04 -12.29,7.64 C-12.29,7.63 -12.29,7.63 -12.29,7.63 C-12.29,7.63 -12.29,-7.63 -12.29,-7.63 C-12.29,-10.03 -10.34,-11.98 -7.94,-11.98 C-7.94,-11.98 -7.94,-11.98 -7.94,-11.98z "/></g></g><g id="_R_G_L_5_G_L_4_G_N_8_T_0"><g id="_R_G_L_5_G_L_4_G" transform=" translate(327.332, 172.278) translate(0, 0)"><path id="_R_G_L_5_G_L_4_G_D_0_P_0" fill="#ffffff" fill-opacity="1" fill-rule="nonzero" d=" M7.3 1.87 C6.16,0.66 3.02,1.15 2.28,1.27 C1.46,0.45 0.76,-0.48 0.19,-1.49 C0.61,-2.65 0.85,-3.88 0.9,-5.11 C0.9,-6.22 0.46,-7.41 -0.77,-7.41 C-1.19,-7.4 -1.58,-7.17 -1.8,-6.8 C-2.33,-5.9 -2.12,-4.04 -1.28,-2.16 C-1.77,-0.77 -2.48,1.22 -3.41,2.84 C-4.67,3.34 -7.34,4.57 -7.6,5.93 C-7.68,6.34 -7.54,6.75 -7.23,7.02 C-6.93,7.28 -6.54,7.42 -6.14,7.41 C-4.54,7.41 -2.93,5.18 -1.84,3.26 C-0.59,2.83 0.69,2.5 1.99,2.26 C3.69,3.74 5.2,3.97 5.97,3.97 C7.02,3.97 7.4,3.52 7.55,3.14 C7.7,2.7 7.61,2.22 7.3,1.87z  M6.2 2.65 C6.15,2.94 5.77,3.24 5.06,3.09 C4.24,2.88 3.48,2.5 2.83,1.96 C3.38,1.87 4.67,1.75 5.58,1.92 C5.91,1.98 6.29,2.17 6.2,2.65z  M-1.14 -6.42 C-1.07,-6.55 -0.93,-6.64 -0.78,-6.64 C-0.39,-6.64 -0.31,-6.17 -0.31,-5.78 C-0.37,-4.85 -0.54,-3.93 -0.82,-3.05 C-1.47,-4.79 -1.38,-6 -1.14,-6.42z  M-1.23 2.09 C-0.85,1.3 -0.51,0.49 -0.21,-0.34 C0.19,0.31 0.66,0.92 1.18,1.48 C0.37,1.64 -0.44,1.85 -1.23,2.09z  M-3.8 3.86 C-4.83,5.51 -5.85,6.56 -6.44,6.56 C-6.54,6.56 -6.63,6.53 -6.71,6.47 C-6.82,6.38 -6.87,6.23 -6.84,6.09 C-6.73,5.49 -5.55,4.63 -3.8,3.86 C-3.8,3.86 -3.8,3.86 -3.8,3.86z "/></g></g><g id="_R_G_L_5_G_L_3_G_M"><g id="_R_G_L_5_G_L_3_G" transform=" translate(692.84, 390.818) translate(0, 0)"><path id="_R_G_L_5_G_L_3_G_D_0_P_0" fill="#9cb9f0" fill-opacity="1" fill-rule="nonzero" d=" M10.9 7.6 C10.9,7.6 -10.9,7.6 -10.9,7.6 C-15.1,7.6 -18.5,4.2 -18.5,0 C-18.5,0 -18.5,0 -18.5,0 C-18.5,-4.2 -15.1,-7.6 -10.9,-7.6 C-10.9,-7.6 10.9,-7.6 10.9,-7.6 C15.1,-7.6 18.5,-4.2 18.5,0 C18.5,0 18.5,0 18.5,0 C18.5,4.2 15.1,7.6 10.9,7.6z "/></g></g><g id="_R_G_L_5_G_L_2_G_N_8_T_0_M"><g id="_R_G_L_5_G_L_2_G_N_8_T_0"><g id="_R_G_L_5_G_L_2_G" transform=" translate(692.84, 390.818) translate(0, 0)"><path id="_R_G_L_5_G_L_2_G_D_0_P_0" fill="#bfc1c5" fill-opacity="1" fill-rule="nonzero" d=" M10.9 7.6 C10.9,7.6 -10.9,7.6 -10.9,7.6 C-15.1,7.6 -18.5,4.2 -18.5,0 C-18.5,0 -18.5,0 -18.5,0 C-18.5,-4.2 -15.1,-7.6 -10.9,-7.6 C-10.9,-7.6 10.9,-7.6 10.9,-7.6 C15.1,-7.6 18.5,-4.2 18.5,0 C18.5,0 18.5,0 18.5,0 C18.5,4.2 15.1,7.6 10.9,7.6z "/></g></g></g><g id="_R_G_L_5_G_L_1_G_N_8_T_0_M"><g id="_R_G_L_5_G_L_1_G_N_8_T_0"><g id="_R_G_L_5_G_L_1_G"><path id="_R_G_L_5_G_L_1_G_D_0_P_0" fill="#ffffff" fill-opacity="1" fill-rule="nonzero" d=" M-10.46 0 C-10.46,5.78 -5.78,10.46 0,10.46 C5.78,10.46 10.46,5.78 10.46,0 C10.46,-5.78 5.78,-10.46 0,-10.46 C-5.78,-10.46 -10.46,-5.78 -10.46,0z "/><path id="_R_G_L_5_G_L_1_G_D_1_P_0" stroke="#e6e6e6" stroke-linecap="round" stroke-linejoin="round" fill="none" stroke-width="1" stroke-opacity="1" d=" M-10.46 0 C-10.46,5.78 -5.78,10.46 0,10.46 C5.78,10.46 10.46,5.78 10.46,0 C10.46,-5.78 5.78,-10.46 0,-10.46 C-5.78,-10.46 -10.46,-5.78 -10.46,0z "/></g></g></g><g id="_R_G_L_5_G_L_0_G_M"><g id="_R_G_L_5_G_L_0_G"><path id="_R_G_L_5_G_L_0_G_D_0_P_0" fill="#3872e0" fill-opacity="1" fill-rule="nonzero" d=" M-10.46 0 C-10.46,5.78 -5.78,10.46 0,10.46 C5.78,10.46 10.46,5.78 10.46,0 C10.46,-5.78 5.78,-10.46 0,-10.46 C-5.78,-10.46 -10.46,-5.78 -10.46,0z "/></g></g></g><g id="_R_G_L_4_G_M"><g id="_R_G_L_4_G" transform=" translate(683.13, 395.892) scale(0.6, 0.6) translate(-1378.179, -739.009)"><g id="_R_G_L_4_G_D_0_P_0_G_0_T_0" transform=" translate(1378.179, 739.009)"><path id="_R_G_L_4_G_D_0_P_0" stroke="#ffa72f" stroke-linecap="round" stroke-linejoin="round" fill="none" stroke-width="13" stroke-opacity="1" d=" M61.7 0 C61.7,34.07 34.07,61.7 0,61.7 C-34.07,61.7 -61.7,34.07 -61.7,0 C-61.7,-34.07 -34.07,-61.7 0,-61.7 C34.07,-61.7 61.7,-34.07 61.7,0z "/></g></g></g><g id="_R_G_L_3_G_M"><g id="_R_G_L_3_G" transform=" translate(683.13, 395.892) scale(0.6, 0.6) translate(-1378.179, -739.009)"><g id="_R_G_L_3_G_D_0_P_0_G_0_T_0" transform=" translate(1378.179, 739.009)"><path id="_R_G_L_3_G_D_0_P_0" stroke="#ffa72f" stroke-linecap="round" stroke-linejoin="round" fill="none" stroke-width="7.5" stroke-opacity="1" d=" M82.12 0 C82.12,45.36 45.36,82.12 0,82.12 C-45.35,82.12 -82.12,45.36 -82.12,0 C-82.12,-45.35 -45.35,-82.12 0,-82.12 C45.36,-82.12 82.12,-45.35 82.12,0z "/></g></g></g><g id="_R_G_L_2_G_M"><g id="_R_G_L_2_G" transform=" translate(683.13, 395.892) scale(0.6, 0.6) translate(-1378.179, -739.009)"><g id="_R_G_L_2_G_D_0_P_0_G_0_T_0" transform=" translate(1378.179, 739.009)"><path id="_R_G_L_2_G_D_0_P_0" stroke="#ffa72f" stroke-linecap="round" stroke-linejoin="round" fill="none" stroke-width="2.5" stroke-opacity="1" d=" M99.12 0 C99.12,54.74 54.74,99.12 0,99.12 C-54.74,99.12 -99.12,54.74 -99.12,0 C-99.12,-54.74 -54.74,-99.12 0,-99.12 C54.74,-99.12 99.12,-54.74 99.12,0z "/></g></g></g><g id="_R_G_L_1_G_N_1_T_0_M"><g id="_R_G_L_1_G_N_1_T_0"><g id="_R_G_L_1_G" opacity="0.3" transform=" translate(1568.36, 743.988) translate(-1562.36, -741.21)"><path id="_R_G_L_1_G_D_0_P_0" fill="#1a1818" fill-opacity="1" fill-rule="nonzero" d=" M1576.33 783.55 C1576.33,783.55 1575.58,783.55 1575.58,783.55 C1575.58,783.55 1574.45,782.42 1574.45,782.42 C1574.45,782.42 1570.31,771.88 1570.31,771.88 C1570.31,771.88 1563.9,776.77 1563.9,776.77 C1563.9,776.77 1562.03,776.77 1562.03,776.77 C1561.41,776.51 1560.98,775.93 1560.9,775.27 C1560.9,775.27 1560.14,740.63 1560.14,740.63 C1560.08,739.82 1560.53,739.07 1561.27,738.75 C1561.27,738.75 1562.03,738.75 1562.03,738.75 C1562.03,738.75 1563.53,739.5 1563.53,739.5 C1563.53,739.5 1586.5,765.11 1586.5,765.11 C1587.14,765.93 1587,767.11 1586.18,767.75 C1585.94,767.94 1585.67,768.06 1585.37,768.12 C1585.37,768.12 1577.09,769.25 1577.09,769.25 C1577.09,769.25 1581.23,779.78 1581.23,779.78 C1581.49,780.71 1581,781.69 1580.1,782.04 C1580.1,782.04 1576.71,783.17 1576.71,783.17 C1576.71,783.17 1576.33,783.17 1576.33,783.17 "/><path id="_R_G_L_1_G_D_1_P_0" fill="#000000" fill-opacity="1" fill-rule="nonzero" d=" M1562.03 740.63 C1562.03,740.63 1585.36,766.6 1585.36,766.6 C1585.36,766.6 1574.82,767.74 1574.82,767.74 C1574.82,767.74 1580.1,780.54 1580.1,780.54 C1580.1,780.54 1576.71,781.67 1576.71,781.67 C1576.71,781.67 1571.07,768.87 1571.07,768.87 C1571.07,768.87 1562.77,775.27 1562.77,775.27 C1562.77,775.27 1562.03,740.63 1562.03,740.63  M1562.03 736.86 C1562.03,736.86 1560.52,736.86 1560.52,736.86 C1559.03,737.5 1558.12,739.02 1558.25,740.63 C1558.25,740.63 1559.01,775.27 1559.01,775.27 C1559.03,776.74 1559.92,778.07 1561.27,778.66 C1561.27,778.66 1562.76,778.66 1562.76,778.66 C1562.76,778.66 1565.02,777.91 1565.02,777.91 C1565.02,777.91 1569.54,774.89 1569.54,774.89 C1569.54,774.89 1572.95,783.17 1572.95,783.17 C1573.54,784.52 1574.86,785.4 1576.33,785.43 C1576.33,785.43 1577.84,785.43 1577.84,785.43 C1577.84,785.43 1581.23,784.3 1581.23,784.3 C1583.19,783.6 1584.22,781.45 1583.52,779.49 C1583.52,779.49 1583.52,779.49 1583.52,779.49 C1583.51,779.46 1583.5,779.43 1583.49,779.4 C1583.49,779.4 1579.72,770.74 1579.72,770.74 C1579.72,770.74 1585.75,770.74 1585.75,770.74 C1587.82,770.52 1589.31,768.67 1589.1,766.6 C1589.01,765.74 1588.62,764.94 1588.01,764.33 C1588.01,764.33 1564.67,737.98 1564.67,737.98 C1563.97,737.27 1563.02,736.87 1562.02,736.85 "/></g></g></g><g id="_R_G_L_0_G_M"><g id="_R_G_L_0_G"><path id="_R_G_L_0_G_D_0_P_0" fill="#1a1818" fill-opacity="1" fill-rule="nonzero" d=" M1576.33 783.55 C1576.33,783.55 1575.58,783.55 1575.58,783.55 C1575.58,783.55 1574.45,782.42 1574.45,782.42 C1574.45,782.42 1570.31,771.88 1570.31,771.88 C1570.31,771.88 1563.9,776.77 1563.9,776.77 C1563.9,776.77 1562.03,776.77 1562.03,776.77 C1561.41,776.51 1560.98,775.93 1560.9,775.27 C1560.9,775.27 1560.14,740.63 1560.14,740.63 C1560.08,739.82 1560.53,739.07 1561.27,738.75 C1561.27,738.75 1562.03,738.75 1562.03,738.75 C1562.03,738.75 1563.53,739.5 1563.53,739.5 C1563.53,739.5 1586.5,765.11 1586.5,765.11 C1587.14,765.93 1587,767.11 1586.18,767.75 C1585.94,767.94 1585.67,768.06 1585.37,768.12 C1585.37,768.12 1577.09,769.25 1577.09,769.25 C1577.09,769.25 1581.23,779.78 1581.23,779.78 C1581.49,780.71 1581,781.69 1580.1,782.04 C1580.1,782.04 1576.71,783.17 1576.71,783.17 C1576.71,783.17 1576.33,783.17 1576.33,783.17 "/><path id="_R_G_L_0_G_D_1_P_0" fill="#ffffff" fill-opacity="1" fill-rule="nonzero" d=" M1562.03 740.63 C1562.03,740.63 1585.36,766.6 1585.36,766.6 C1585.36,766.6 1574.82,767.74 1574.82,767.74 C1574.82,767.74 1580.1,780.54 1580.1,780.54 C1580.1,780.54 1576.71,781.67 1576.71,781.67 C1576.71,781.67 1571.07,768.87 1571.07,768.87 C1571.07,768.87 1562.77,775.27 1562.77,775.27 C1562.77,775.27 1562.03,740.63 1562.03,740.63  M1562.03 736.86 C1562.03,736.86 1560.52,736.86 1560.52,736.86 C1559.03,737.5 1558.12,739.02 1558.25,740.63 C1558.25,740.63 1559.01,775.27 1559.01,775.27 C1559.03,776.74 1559.92,778.07 1561.27,778.66 C1561.27,778.66 1562.76,778.66 1562.76,778.66 C1562.76,778.66 1565.02,777.91 1565.02,777.91 C1565.02,777.91 1569.54,774.89 1569.54,774.89 C1569.54,774.89 1572.95,783.17 1572.95,783.17 C1573.54,784.52 1574.86,785.4 1576.33,785.43 C1576.33,785.43 1577.84,785.43 1577.84,785.43 C1577.84,785.43 1581.23,784.3 1581.23,784.3 C1583.19,783.6 1584.22,781.45 1583.52,779.49 C1583.52,779.49 1583.52,779.49 1583.52,779.49 C1583.51,779.46 1583.5,779.43 1583.49,779.4 C1583.49,779.4 1579.72,770.74 1579.72,770.74 C1579.72,770.74 1585.75,770.74 1585.75,770.74 C1587.82,770.52 1589.31,768.67 1589.1,766.6 C1589.01,765.74 1588.62,764.94 1588.01,764.33 C1588.01,764.33 1564.67,737.98 1564.67,737.98 C1563.97,737.27 1563.02,736.87 1562.02,736.85 "/></g></g></g><g id="time_group"/></svg>