<svg xmlns="http://www.w3.org/2000/svg" xmlns:xlink="http://www.w3.org/1999/xlink" preserveAspectRatio="xMidYMid meet" width="1024" height="480" viewBox="0 0 1024 480" style="width:100%;height:100%"><defs><animateMotion repeatCount="indefinite" dur="4s" begin="0s" xlink:href="#_R_G_L_5_G_L_7_G" fill="freeze" keyTimes="0;0.2708333;1" path="M725.54 792.87 C725.54,792.87 725.54,392.87 725.54,392.87 C725.54,392.87 725.54,392.87 725.54,392.87 " keyPoints="0;1;1" keySplines="0.036 0 0 1;0 0 0 0" calcMode="spline"/><animateTransform repeatCount="indefinite" dur="4s" begin="0s" xlink:href="#_R_G_L_5_G_L_7_G" fill="freeze" attributeName="transform" from="-725.535 -392.869" to="-725.535 -392.869" type="translate" additive="sum" keyTimes="0;1" values="-725.535 -392.869;-725.535 -392.869" keySplines="0 0 1 1" calcMode="spline"/><animateMotion repeatCount="indefinite" dur="4s" begin="0s" xlink:href="#_R_G_L_5_G_L_6_G_N_8_T_0" fill="freeze" keyTimes="0;0.2708333;1" path="M725.54 792.87 C725.54,792.87 725.54,392.87 725.54,392.87 C725.54,392.87 725.54,392.87 725.54,392.87 " keyPoints="0;1;1" keySplines="0.036 0 0 1;0 0 0 0" calcMode="spline"/><animateTransform repeatCount="indefinite" dur="4s" begin="0s" xlink:href="#_R_G_L_5_G_L_6_G_N_8_T_0" fill="freeze" attributeName="transform" from="-725.535 -392.869" to="-725.535 -392.869" type="translate" additive="sum" keyTimes="0;1" values="-725.535 -392.869;-725.535 -392.869" keySplines="0 0 1 1" calcMode="spline"/><animateMotion repeatCount="indefinite" dur="4s" begin="0s" xlink:href="#_R_G_L_5_G_L_5_G_N_8_T_0" fill="freeze" keyTimes="0;0.2708333;1" path="M725.54 792.87 C725.54,792.87 725.54,392.87 725.54,392.87 C725.54,392.87 725.54,392.87 725.54,392.87 " keyPoints="0;1;1" keySplines="0.036 0 0 1;0 0 0 0" calcMode="spline"/><animateTransform repeatCount="indefinite" dur="4s" begin="0s" xlink:href="#_R_G_L_5_G_L_5_G_N_8_T_0" fill="freeze" attributeName="transform" from="-725.535 -392.869" to="-725.535 -392.869" type="translate" additive="sum" keyTimes="0;1" values="-725.535 -392.869;-725.535 -392.869" keySplines="0 0 1 1" calcMode="spline"/><animateMotion repeatCount="indefinite" dur="4s" begin="0s" xlink:href="#_R_G_L_5_G_L_4_G_N_8_T_0" fill="freeze" keyTimes="0;0.2708333;1" path="M725.54 792.87 C725.54,792.87 725.54,392.87 725.54,392.87 C725.54,392.87 725.54,392.87 725.54,392.87 " keyPoints="0;1;1" keySplines="0.036 0 0 1;0 0 0 0" calcMode="spline"/><animateTransform repeatCount="indefinite" dur="4s" begin="0s" xlink:href="#_R_G_L_5_G_L_4_G_N_8_T_0" fill="freeze" attributeName="transform" from="-725.535 -392.869" to="-725.535 -392.869" type="translate" additive="sum" keyTimes="0;1" values="-725.535 -392.869;-725.535 -392.869" keySplines="0 0 1 1" calcMode="spline"/><animate repeatCount="indefinite" dur="4s" begin="0s" xlink:href="#_R_G_L_5_G_L_3_G_M" fill="freeze" attributeName="opacity" from="0" to="1" keyTimes="0;0.375;0.375001;1" values="0;0;1;1" keySplines="0 0 0 0;0 0 0 0;0 0 0 0" calcMode="spline"/><animate repeatCount="indefinite" dur="4s" begin="0s" xlink:href="#_R_G_L_5_G_L_2_G" fill="freeze" attributeName="opacity" from="1" to="0" keyTimes="0;0.375;0.4583333;1" values="1;1;0;0" keySplines="0.167 0.167 0.833 0.833;0.167 0.167 0.833 0.833;0 0 0 0" calcMode="spline"/><animateMotion repeatCount="indefinite" dur="4s" begin="0s" xlink:href="#_R_G_L_5_G_L_2_G_N_8_T_0" fill="freeze" keyTimes="0;0.2708333;1" path="M725.54 792.87 C725.54,792.87 725.54,392.87 725.54,392.87 C725.54,392.87 725.54,392.87 725.54,392.87 " keyPoints="0;1;1" keySplines="0.036 0 0 1;0 0 0 0" calcMode="spline"/><animateTransform repeatCount="indefinite" dur="4s" begin="0s" xlink:href="#_R_G_L_5_G_L_2_G_N_8_T_0" fill="freeze" attributeName="transform" from="-725.535 -392.869" to="-725.535 -392.869" type="translate" additive="sum" keyTimes="0;1" values="-725.535 -392.869;-725.535 -392.869" keySplines="0 0 1 1" calcMode="spline"/><animate repeatCount="indefinite" dur="4s" begin="0s" xlink:href="#_R_G_L_5_G_L_2_G_N_8_T_0_M" fill="freeze" attributeName="opacity" from="1" to="0" keyTimes="0;0.46875;0.46875;1" values="1;1;0;0" keySplines="0 0 0 0;0 0 0 0;0 0 0 0" calcMode="spline"/><animate repeatCount="indefinite" dur="4s" begin="0s" xlink:href="#_R_G_L_5_G_L_1_G" fill="freeze" attributeName="opacity" from="1" to="0" keyTimes="0;0.375;0.4583333;1" values="1;1;0;0" keySplines="0.167 0.167 0.833 0.833;0.167 0.167 0.833 0.833;0 0 0 0" calcMode="spline"/><animateMotion repeatCount="indefinite" dur="4s" begin="0s" xlink:href="#_R_G_L_5_G_L_1_G" fill="freeze" keyTimes="0;0.375;0.4583333;1" path="M682.38 390.82 C682.38,390.82 682.38,390.82 682.38,390.82 C682.38,390.82 703.13,390.82 703.13,390.82 C703.13,390.82 703.13,390.82 703.13,390.82 " keyPoints="0;0;1;1" keySplines="0.762 0 0.401 1;0.762 0 0.401 1;0 0 0 0" calcMode="spline"/><animateMotion repeatCount="indefinite" dur="4s" begin="0s" xlink:href="#_R_G_L_5_G_L_1_G_N_8_T_0" fill="freeze" keyTimes="0;0.2708333;1" path="M725.54 792.87 C725.54,792.87 725.54,392.87 725.54,392.87 C725.54,392.87 725.54,392.87 725.54,392.87 " keyPoints="0;1;1" keySplines="0.036 0 0 1;0 0 0 0" calcMode="spline"/><animateTransform repeatCount="indefinite" dur="4s" begin="0s" xlink:href="#_R_G_L_5_G_L_1_G_N_8_T_0" fill="freeze" attributeName="transform" from="-725.535 -392.869" to="-725.535 -392.869" type="translate" additive="sum" keyTimes="0;1" values="-725.535 -392.869;-725.535 -392.869" keySplines="0 0 1 1" calcMode="spline"/><animate repeatCount="indefinite" dur="4s" begin="0s" xlink:href="#_R_G_L_5_G_L_1_G_N_8_T_0_M" fill="freeze" attributeName="opacity" from="1" to="0" keyTimes="0;0.46875;0.46875;1" values="1;1;0;0" keySplines="0 0 0 0;0 0 0 0;0 0 0 0" calcMode="spline"/><animate repeatCount="indefinite" dur="4s" begin="0s" xlink:href="#_R_G_L_5_G_L_0_G" fill="freeze" attributeName="opacity" from="0" to="1" keyTimes="0;0.375;0.4583333;1" values="0;0;1;1" keySplines="0.167 0.167 0.833 0.833;0.167 0.167 0.833 0.833;0 0 0 0" calcMode="spline"/><animateMotion repeatCount="indefinite" dur="4s" begin="0s" xlink:href="#_R_G_L_5_G_L_0_G" fill="freeze" keyTimes="0;0.375;0.4583333;1" path="M682.38 390.82 C682.38,390.82 682.38,390.82 682.38,390.82 C682.38,390.82 703.13,390.82 703.13,390.82 C703.13,390.82 703.13,390.82 703.13,390.82 " keyPoints="0;0;1;1" keySplines="0.762 0 0.401 1;0.762 0 0.401 1;0 0 0 0" calcMode="spline"/><animate repeatCount="indefinite" dur="4s" begin="0s" xlink:href="#_R_G_L_5_G_L_0_G_M" fill="freeze" attributeName="opacity" from="0" to="1" keyTimes="0;0.375;0.375001;1" values="0;0;1;1" keySplines="0 0 0 0;0 0 0 0;0 0 0 0" calcMode="spline"/><animateTransform repeatCount="indefinite" dur="4s" begin="0s" xlink:href="#_R_G_L_4_G_D_0_P_0_G_0_T_0" fill="freeze" attributeName="transform" from="0.23 0.23" to="1 1" type="scale" additive="sum" keyTimes="0;0.3854167;0.562502;1" values="0.23 0.23;0.23 0.23;1 1;1 1" keySplines="0.167 0.167 0 1;0.167 0.167 0 1;0 0 0 0" calcMode="spline"/><animate repeatCount="indefinite" dur="4s" begin="0s" xlink:href="#_R_G_L_4_G" fill="freeze" attributeName="opacity" from="0" to="0" keyTimes="0;0.3958333;0.4041667;0.5041771;0.562502;1" values="0;0;1;1;0;0" keySplines="0.167 0.167 0.833 0.833;0.167 0.167 0.833 0.833;0.167 0.167 0.833 0.833;0.167 0.167 0.833 0.833;0 0 0 0" calcMode="spline"/><animate repeatCount="indefinite" dur="4s" begin="0s" xlink:href="#_R_G_L_4_G_M" fill="freeze" attributeName="opacity" from="0" to="0" keyTimes="0;0.3583333;0.3583344;0.5583333;0.5583333;1" values="0;0;1;1;0;0" keySplines="0 0 0 0;0 0 0 0;0 0 0 0;0 0 0 0;0 0 0 0" calcMode="spline"/><animateTransform repeatCount="indefinite" dur="4s" begin="0s" xlink:href="#_R_G_L_3_G_D_0_P_0_G_0_T_0" fill="freeze" attributeName="transform" from="0.28 0.28" to="1 1" type="scale" additive="sum" keyTimes="0;0.3854167;0.5416687;1" values="0.28 0.28;0.28 0.28;1 1;1 1" keySplines="0.167 0.167 0 1;0.167 0.167 0 1;0 0 0 0" calcMode="spline"/><animate repeatCount="indefinite" dur="4s" begin="0s" xlink:href="#_R_G_L_3_G" fill="freeze" attributeName="opacity" from="0" to="0" keyTimes="0;0.375;0.3833333;0.4833333;0.5416687;1" values="0;0;1;1;0;0" keySplines="0.167 0.167 0.833 0.833;0.167 0.167 0.833 0.833;0.167 0.167 0.833 0.833;0.167 0.167 0.833 0.833;0 0 0 0" calcMode="spline"/><animate repeatCount="indefinite" dur="4s" begin="0s" xlink:href="#_R_G_L_3_G_M" fill="freeze" attributeName="opacity" from="0" to="0" keyTimes="0;0.3583333;0.3583344;0.5583333;0.5583333;1" values="0;0;1;1;0;0" keySplines="0 0 0 0;0 0 0 0;0 0 0 0;0 0 0 0;0 0 0 0" calcMode="spline"/><animateTransform repeatCount="indefinite" dur="4s" begin="0s" xlink:href="#_R_G_L_2_G_D_0_P_0_G_0_T_0" fill="freeze" attributeName="transform" from="0.23 0.23" to="1 1" type="scale" additive="sum" keyTimes="0;0.3645833;0.531252;1" values="0.23 0.23;0.23 0.23;1 1;1 1" keySplines="0.167 0.167 0 1;0.167 0.167 0 1;0 0 0 0" calcMode="spline"/><animate repeatCount="indefinite" dur="4s" begin="0s" xlink:href="#_R_G_L_2_G" fill="freeze" attributeName="opacity" from="0" to="0" keyTimes="0;0.3541667;0.3625104;0.4625104;0.5208354;1" values="0;0;1;1;0;0" keySplines="0.167 0.167 0.833 0.833;0.167 0.167 0.833 0.833;0.167 0.167 0.833 0.833;0.167 0.167 0.833 0.833;0 0 0 0" calcMode="spline"/><animate repeatCount="indefinite" dur="4s" begin="0s" xlink:href="#_R_G_L_2_G_M" fill="freeze" attributeName="opacity" from="0" to="0" keyTimes="0;0.3583333;0.3583344;0.5583333;0.5583333;1" values="0;0;1;1;0;0" keySplines="0 0 0 0;0 0 0 0;0 0 0 0;0 0 0 0;0 0 0 0" calcMode="spline"/><animateMotion repeatCount="indefinite" dur="4s" begin="0s" xlink:href="#_R_G_L_1_G_N_1_T_0" fill="freeze" keyTimes="0;0.09375;0.3229167;0.4895833;0.687502;1" path="M914.36 572.71 C914.36,572.71 914.36,572.71 914.36,572.71 C696.7,561.57 683.36,394.71 683.36,394.71 C683.36,394.71 683.36,394.71 683.36,394.71 C683.36,394.71 562,476 627.36,598.71 C627.36,598.71 627.36,598.71 627.36,598.71 " keyPoints="0;0;0.58;0.58;1;1" keySplines="0.337 0 0.112 1;0.337 0 0.112 1;0.765 0.765 0.667 0.667;0.765 0 0.667 1;0 0 0 0" calcMode="spline"/><animateTransform repeatCount="indefinite" dur="4s" begin="0s" xlink:href="#_R_G_L_1_G_N_1_T_0" fill="freeze" attributeName="transform" from="1 1" to="1 1" type="scale" additive="sum" keyTimes="0;0.3583438;0.375;0.4479167;0.4895854;1" values="1 1;1 1;0.9 0.9;0.9 0.9;1 1;1 1" keySplines="0.331 0 0.833 0.833;0.331 0 0.833 0.833;0.325 0 0.833 1;0.328 0 0.667 1;0 0 0 0" calcMode="spline"/><animateTransform repeatCount="indefinite" dur="4s" begin="0s" xlink:href="#_R_G_L_1_G_N_1_T_0" fill="freeze" attributeName="transform" from="-1562.36 -741.21" to="-1562.36 -741.21" type="translate" additive="sum" keyTimes="0;1" values="-1562.36 -741.21;-1562.36 -741.21" keySplines="0 0 1 1" calcMode="spline"/><animate repeatCount="indefinite" dur="4s" begin="0s" xlink:href="#_R_G_L_1_G_N_1_T_0_M" fill="freeze" attributeName="opacity" from="0" to="0" keyTimes="0;0.0833333;0.0833344;0.65625;0.65625;1" values="0;0;1;1;0;0" keySplines="0 0 0 0;0 0 0 0;0 0 0 0;0 0 0 0;0 0 0 0" calcMode="spline"/><animateMotion repeatCount="indefinite" dur="4s" begin="0s" xlink:href="#_R_G_L_0_G" fill="freeze" keyTimes="0;0.09375;0.3229167;0.4895833;0.687502;1" path="M914.36 572.71 C914.36,572.71 914.36,572.71 914.36,572.71 C696.7,561.57 683.36,394.71 683.36,394.71 C683.36,394.71 683.36,394.71 683.36,394.71 C683.36,394.71 562,476 627.36,598.71 C627.36,598.71 627.36,598.71 627.36,598.71 " keyPoints="0;0;0.58;0.58;1;1" keySplines="0.337 0 0.112 1;0.337 0 0.112 1;0.765 0.765 0.667 0.667;0.765 0 0.667 1;0 0 0 0" calcMode="spline"/><animateTransform repeatCount="indefinite" dur="4s" begin="0s" xlink:href="#_R_G_L_0_G" fill="freeze" attributeName="transform" from="1 1" to="1 1" type="scale" additive="sum" keyTimes="0;0.3583438;0.375;0.4479167;0.4895854;1" values="1 1;1 1;0.9 0.9;0.9 0.9;1 1;1 1" keySplines="0.331 0 0.833 0.833;0.331 0 0.833 0.833;0.325 0 0.833 1;0.328 0 0.667 1;0 0 0 0" calcMode="spline"/><animateTransform repeatCount="indefinite" dur="4s" begin="0s" xlink:href="#_R_G_L_0_G" fill="freeze" attributeName="transform" from="-1562.36 -741.21" to="-1562.36 -741.21" type="translate" additive="sum" keyTimes="0;1" values="-1562.36 -741.21;-1562.36 -741.21" keySplines="0 0 1 1" calcMode="spline"/><animate repeatCount="indefinite" dur="4s" begin="0s" xlink:href="#_R_G_L_0_G_M" fill="freeze" attributeName="opacity" from="0" to="0" keyTimes="0;0.0833333;0.0833344;0.65625;0.65625;1" values="0;0;1;1;0;0" keySplines="0 0 0 0;0 0 0 0;0 0 0 0;0 0 0 0;0 0 0 0" calcMode="spline"/><animate attributeType="XML" attributeName="opacity" dur="4s" from="0" to="1" xlink:href="#time_group"/></defs><g id="_R_G"><g id="_R_G_L_6_G" transform=" translate(512, 240) translate(0, 0)"><path id="_R_G_L_6_G_D_0_P_0" fill="#ffddd6" fill-opacity="1" fill-rule="nonzero" d=" M512 240 C512,240 -512,240 -512,240 C-512,240 -512,-240 -512,-240 C-512,-240 512,-240 512,-240 C512,-240 512,240 512,240z "/></g><g id="_R_G_L_5_G"><g id="_R_G_L_5_G_L_7_G"><path id="_R_G_L_5_G_L_7_G_D_0_P_0" fill="#f8f9fa" fill-opacity="1" fill-rule="nonzero" d=" M893.85 480 C893.85,480 130.15,480 130.15,480 C130.15,480 130.15,96.18 130.15,96.18 C130.15,89.87 135.26,84.75 141.58,84.75 C141.58,84.75 882.42,84.75 882.42,84.75 C888.74,84.75 893.85,89.87 893.85,96.18 C893.85,96.18 893.85,480 893.85,480z "/><path id="_R_G_L_5_G_L_7_G_D_1_P_0" fill="#ffffff" fill-opacity="1" fill-rule="nonzero" d=" M741.1 480.3 C741.1,480.3 271.97,480.3 271.97,480.3 C271.97,480.3 271.97,132.07 271.97,132.07 C271.97,132.07 741.1,132.07 741.1,132.07 C741.1,132.07 741.1,480.3 741.1,480.3z "/><path id="_R_G_L_5_G_L_7_G_D_2_P_0" fill="#b2b2b2" fill-opacity="1" fill-rule="nonzero" d=" M341.13 216.08 C341.13,216.08 303.38,216.08 303.38,216.08 C301.23,216.08 299.48,214.33 299.48,212.17 C299.48,212.17 299.48,212.17 299.48,212.17 C299.48,210.02 301.23,208.27 303.38,208.27 C303.38,208.27 341.13,208.27 341.13,208.27 C343.29,208.27 345.04,210.02 345.04,212.17 C345.04,212.17 345.04,212.17 345.04,212.17 C345.04,214.33 343.29,216.08 341.13,216.08z "/><path id="_R_G_L_5_G_L_7_G_D_3_P_0" fill="#d9d9d9" fill-opacity="1" fill-rule="nonzero" d=" M599.32 233.37 C599.32,233.37 303.38,233.37 303.38,233.37 C301.23,233.37 299.48,231.62 299.48,229.47 C299.48,229.47 299.48,229.47 299.48,229.47 C299.48,227.31 301.23,225.56 303.38,225.56 C303.38,225.56 599.32,225.56 599.32,225.56 C601.47,225.56 603.22,227.31 603.22,229.47 C603.22,229.47 603.22,229.47 603.22,229.47 C603.22,231.62 601.47,233.37 599.32,233.37z "/><path id="_R_G_L_5_G_L_7_G_D_4_P_0" fill="#b2b2b2" fill-opacity="1" fill-rule="nonzero" d=" M341.13 271.58 C341.13,271.58 303.38,271.58 303.38,271.58 C301.23,271.58 299.48,269.83 299.48,267.68 C299.48,267.68 299.48,267.68 299.48,267.68 C299.48,265.52 301.23,263.77 303.38,263.77 C303.38,263.77 341.13,263.77 341.13,263.77 C343.29,263.77 345.04,265.52 345.04,267.68 C345.04,267.68 345.04,267.68 345.04,267.68 C345.04,269.83 343.29,271.58 341.13,271.58z "/><path id="_R_G_L_5_G_L_7_G_D_5_P_0" fill="#d9d9d9" fill-opacity="1" fill-rule="nonzero" d=" M599.32 288.88 C599.32,288.88 303.38,288.88 303.38,288.88 C301.23,288.88 299.48,287.13 299.48,284.97 C299.48,284.97 299.48,284.97 299.48,284.97 C299.48,282.81 301.23,281.07 303.38,281.07 C303.38,281.07 599.32,281.07 599.32,281.07 C601.47,281.07 603.22,282.81 603.22,284.97 C603.22,284.97 603.22,284.97 603.22,284.97 C603.22,287.13 601.47,288.88 599.32,288.88z "/><path id="_R_G_L_5_G_L_7_G_D_6_P_0" fill="#b2b2b2" fill-opacity="1" fill-rule="nonzero" d=" M341.13 325.97 C341.13,325.97 303.38,325.97 303.38,325.97 C301.23,325.97 299.48,324.22 299.48,322.07 C299.48,322.07 299.48,322.07 299.48,322.07 C299.48,319.91 301.23,318.16 303.38,318.16 C303.38,318.16 341.13,318.16 341.13,318.16 C343.29,318.16 345.04,319.91 345.04,322.07 C345.04,322.07 345.04,322.07 345.04,322.07 C345.04,324.22 343.29,325.97 341.13,325.97z "/><path id="_R_G_L_5_G_L_7_G_D_7_P_0" fill="#d9d9d9" fill-opacity="1" fill-rule="nonzero" d=" M599.32 343.26 C599.32,343.26 303.38,343.26 303.38,343.26 C301.23,343.26 299.48,341.52 299.48,339.36 C299.48,339.36 299.48,339.36 299.48,339.36 C299.48,337.2 301.23,335.45 303.38,335.45 C303.38,335.45 599.32,335.45 599.32,335.45 C601.47,335.45 603.22,337.2 603.22,339.36 C603.22,339.36 603.22,339.36 603.22,339.36 C603.22,341.52 601.47,343.26 599.32,343.26z "/><path id="_R_G_L_5_G_L_7_G_D_8_P_0" fill="#b2b2b2" fill-opacity="1" fill-rule="nonzero" d=" M341.13 435.86 C341.13,435.86 303.38,435.86 303.38,435.86 C301.23,435.86 299.48,434.12 299.48,431.96 C299.48,431.96 299.48,431.96 299.48,431.96 C299.48,429.8 301.23,428.05 303.38,428.05 C303.38,428.05 341.13,428.05 341.13,428.05 C343.29,428.05 345.04,429.8 345.04,431.96 C345.04,431.96 345.04,431.96 345.04,431.96 C345.04,434.12 343.29,435.86 341.13,435.86z "/><path id="_R_G_L_5_G_L_7_G_D_9_P_0" fill="#d9d9d9" fill-opacity="1" fill-rule="nonzero" d=" M599.32 453.16 C599.32,453.16 303.38,453.16 303.38,453.16 C301.23,453.16 299.48,451.41 299.48,449.25 C299.48,449.25 299.48,449.25 299.48,449.25 C299.48,447.09 301.23,445.35 303.38,445.35 C303.38,445.35 599.32,445.35 599.32,445.35 C601.47,445.35 603.22,447.09 603.22,449.25 C603.22,449.25 603.22,449.25 603.22,449.25 C603.22,451.41 601.47,453.16 599.32,453.16z "/><path id="_R_G_L_5_G_L_7_G_D_10_P_0" fill="#5a5a5a" fill-opacity="1" fill-rule="nonzero" d=" M353.86 175.56 C353.86,175.56 352.96,178.33 352.96,178.33 C352.93,178.43 352.87,178.48 352.76,178.48 C352.76,178.48 350.58,178.48 350.58,178.48 C350.45,178.48 350.41,178.41 350.43,178.3 C350.43,178.3 354.18,167.49 354.18,167.49 C354.26,167.28 354.33,167.05 354.37,166.34 C354.37,166.27 354.43,166.21 354.48,166.21 C354.48,166.21 357.48,166.21 357.48,166.21 C357.57,166.21 357.61,166.23 357.63,166.32 C357.63,166.32 361.88,178.31 361.88,178.31 C361.92,178.41 361.9,178.48 361.79,178.48 C361.79,178.48 359.35,178.48 359.35,178.48 C359.24,178.48 359.18,178.45 359.15,178.35 C359.15,178.35 358.19,175.56 358.19,175.56 C358.19,175.56 353.86,175.56 353.86,175.56z  M357.5 173.22 C357.12,171.98 356.37,169.71 356.02,168.38 C356.02,168.38 356,168.38 356,168.38 C355.7,169.64 355.02,171.7 354.54,173.22 C354.54,173.22 357.5,173.22 357.5,173.22z "/><path id="_R_G_L_5_G_L_7_G_D_11_P_0" fill="#5a5a5a" fill-opacity="1" fill-rule="nonzero" d=" M362.44 173.91 C362.44,171.23 364.44,168.98 367.87,168.98 C368.02,168.98 368.21,169 368.49,169.02 C368.49,169.02 368.49,165.33 368.49,165.33 C368.49,165.24 368.55,165.2 368.62,165.2 C368.62,165.2 370.98,165.2 370.98,165.2 C371.08,165.2 371.1,165.24 371.1,165.31 C371.1,165.31 371.1,176.39 371.1,176.39 C371.1,176.82 371.11,177.38 371.17,177.75 C371.17,177.85 371.15,177.88 371.04,177.92 C369.74,178.47 368.51,178.67 367.35,178.67 C364.58,178.67 362.44,177.1 362.44,173.91z  M368.49 171.25 C368.3,171.18 368.06,171.16 367.8,171.16 C366.35,171.16 365.12,172.04 365.12,173.78 C365.12,175.64 366.18,176.44 367.61,176.44 C367.93,176.44 368.23,176.42 368.49,176.33 C368.49,176.33 368.49,171.25 368.49,171.25z "/><path id="_R_G_L_5_G_L_7_G_D_12_P_0" fill="#5a5a5a" fill-opacity="1" fill-rule="nonzero" d=" M382.01 173.78 C382.01,176.72 380.1,178.67 377.4,178.67 C374.2,178.67 372.78,176.25 372.78,173.84 C372.78,171.18 374.56,168.98 377.44,168.98 C380.46,168.98 382.01,171.25 382.01,173.78z  M375.42 173.8 C375.42,175.45 376.19,176.5 377.44,176.5 C378.53,176.5 379.35,175.56 379.35,173.84 C379.35,172.37 378.75,171.16 377.33,171.16 C376.24,171.16 375.42,172.13 375.42,173.8z "/><path id="_R_G_L_5_G_L_7_G_D_13_P_0" fill="#5a5a5a" fill-opacity="1" fill-rule="nonzero" d=" M386.11 165.2 C386.26,165.2 386.3,165.22 386.3,165.35 C386.3,165.35 386.3,169.19 386.3,169.19 C386.79,169.06 387.31,168.98 387.87,168.98 C390.63,168.98 392.37,170.93 392.37,173.44 C392.37,176.95 389.6,178.67 386.75,178.67 C385.76,178.67 384.76,178.54 383.81,178.24 C383.75,178.22 383.69,178.13 383.69,178.05 C383.69,178.05 383.69,165.33 383.69,165.33 C383.69,165.24 383.73,165.2 383.83,165.2 C383.83,165.2 386.11,165.2 386.11,165.2z  M387.4 171.2 C386.8,171.2 386.54,171.29 386.3,171.35 C386.3,171.35 386.3,176.42 386.3,176.42 C386.52,176.48 386.77,176.5 386.99,176.5 C388.42,176.5 389.71,175.64 389.71,173.69 C389.71,171.98 388.72,171.2 387.4,171.2z "/><path id="_R_G_L_5_G_L_7_G_D_14_P_0" fill="#5a5a5a" fill-opacity="1" fill-rule="nonzero" d=" M396.28 174.51 C396.37,175.58 397.12,176.46 398.96,176.46 C399.8,176.46 400.55,176.33 401.26,176.03 C401.32,175.99 401.38,176.01 401.38,176.12 C401.38,176.12 401.38,177.9 401.38,177.9 C401.38,178.03 401.34,178.09 401.25,178.13 C400.5,178.48 399.67,178.67 398.38,178.67 C394.86,178.67 393.62,176.25 393.62,173.93 C393.62,171.34 395.21,168.98 398.15,168.98 C400.98,168.98 402.11,171.18 402.11,173.03 C402.11,173.61 402.07,174.08 402.01,174.29 C402,174.38 401.96,174.42 401.86,174.44 C401.62,174.47 400.91,174.51 399.93,174.51 C399.93,174.51 396.28,174.51 396.28,174.51z  M398.72 172.69 C399.32,172.69 399.58,172.67 399.65,172.66 C399.65,172.62 399.65,172.54 399.65,172.53 C399.65,172.08 399.3,171.05 398.06,171.05 C396.88,171.05 396.37,171.93 396.26,172.69 C396.26,172.69 398.72,172.69 398.72,172.69z "/><path id="_R_G_L_5_G_L_7_G_D_15_P_0" fill="#5a5a5a" fill-opacity="1" fill-rule="nonzero" d=" M410.36 175.56 C410.36,175.56 409.46,178.33 409.46,178.33 C409.43,178.43 409.37,178.48 409.26,178.48 C409.26,178.48 407.09,178.48 407.09,178.48 C406.95,178.48 406.92,178.41 406.94,178.3 C406.94,178.3 410.68,167.49 410.68,167.49 C410.76,167.28 410.83,167.05 410.87,166.34 C410.87,166.27 410.93,166.21 410.98,166.21 C410.98,166.21 413.98,166.21 413.98,166.21 C414.08,166.21 414.11,166.23 414.13,166.32 C414.13,166.32 418.38,178.31 418.38,178.31 C418.42,178.41 418.4,178.48 418.29,178.48 C418.29,178.48 415.85,178.48 415.85,178.48 C415.74,178.48 415.69,178.45 415.65,178.35 C415.65,178.35 414.69,175.56 414.69,175.56 C414.69,175.56 410.36,175.56 410.36,175.56z  M414 173.22 C413.63,171.98 412.88,169.71 412.52,168.38 C412.52,168.38 412.5,168.38 412.5,168.38 C412.2,169.64 411.53,171.7 411.04,173.22 C411.04,173.22 414,173.22 414,173.22z "/><path id="_R_G_L_5_G_L_7_G_D_16_P_0" fill="#5a5a5a" fill-opacity="1" fill-rule="nonzero" d=" M426.08 178.22 C426.08,178.31 426.06,178.35 425.98,178.37 C425.38,178.61 424.62,178.67 423.89,178.67 C420.85,178.67 418.94,176.63 418.94,173.87 C418.94,171.06 421.06,168.98 424.24,168.98 C425.16,168.98 425.67,169.08 425.97,169.19 C426.06,169.23 426.08,169.28 426.08,169.4 C426.08,169.4 426.06,171.33 426.06,171.33 C426.06,171.46 425.98,171.48 425.91,171.46 C425.55,171.33 425.03,171.23 424.34,171.23 C422.76,171.23 421.62,172.09 421.62,173.78 C421.62,175.73 423.06,176.37 424.37,176.37 C425.03,176.37 425.61,176.29 425.93,176.2 C426.04,176.16 426.08,176.2 426.08,176.27 C426.08,176.27 426.08,178.22 426.08,178.22z "/><path id="_R_G_L_5_G_L_7_G_D_17_P_0" fill="#5a5a5a" fill-opacity="1" fill-rule="nonzero" d=" M429.73 169.17 C429.86,169.17 429.92,169.23 429.95,169.34 C430.05,169.58 430.14,169.98 430.16,170.39 C430.78,169.66 431.81,168.98 433.14,168.98 C433.25,168.98 433.29,169.02 433.29,169.13 C433.29,169.13 433.29,171.44 433.29,171.44 C433.29,171.53 433.25,171.57 433.12,171.57 C431.77,171.51 430.68,171.93 430.29,172.38 C430.29,172.38 430.27,178.33 430.27,178.33 C430.27,178.45 430.23,178.48 430.1,178.48 C430.1,178.48 427.85,178.48 427.85,178.48 C427.7,178.48 427.67,178.43 427.67,178.32 C427.67,178.32 427.67,171.85 427.67,171.85 C427.67,171.05 427.65,169.96 427.57,169.3 C427.57,169.21 427.59,169.17 427.69,169.17 C427.69,169.17 429.73,169.17 429.73,169.17z "/><path id="_R_G_L_5_G_L_7_G_D_18_P_0" fill="#5a5a5a" fill-opacity="1" fill-rule="nonzero" d=" M443.35 173.78 C443.35,176.72 441.44,178.67 438.74,178.67 C435.53,178.67 434.11,176.25 434.11,173.84 C434.11,171.18 435.89,168.98 438.78,168.98 C441.79,168.98 443.35,171.25 443.35,173.78z  M436.75 173.8 C436.75,175.45 437.52,176.5 438.78,176.5 C439.86,176.5 440.69,175.56 440.69,173.84 C440.69,172.37 440.09,171.16 438.66,171.16 C437.58,171.16 436.75,172.13 436.75,173.8z "/><path id="_R_G_L_5_G_L_7_G_D_19_P_0" fill="#5a5a5a" fill-opacity="1" fill-rule="nonzero" d=" M447.45 165.2 C447.6,165.2 447.63,165.22 447.63,165.35 C447.63,165.35 447.63,169.19 447.63,169.19 C448.12,169.06 448.65,168.98 449.21,168.98 C451.96,168.98 453.7,170.93 453.7,173.44 C453.7,176.95 450.93,178.67 448.08,178.67 C447.09,178.67 446.1,178.54 445.14,178.24 C445.09,178.22 445.03,178.13 445.03,178.05 C445.03,178.05 445.03,165.33 445.03,165.33 C445.03,165.24 445.07,165.2 445.16,165.2 C445.16,165.2 447.45,165.2 447.45,165.2z  M448.74 171.2 C448.14,171.2 447.88,171.29 447.63,171.35 C447.63,171.35 447.63,176.42 447.63,176.42 C447.86,176.48 448.1,176.5 448.33,176.5 C449.75,176.5 451.04,175.64 451.04,173.69 C451.04,171.98 450.05,171.2 448.74,171.2z "/><path id="_R_G_L_5_G_L_7_G_D_20_P_0" fill="#5a5a5a" fill-opacity="1" fill-rule="nonzero" d=" M462.69 176.4 C462.69,176.89 462.69,177.28 462.73,177.73 C462.73,177.77 462.73,177.81 462.69,177.83 C461.04,178.46 459.96,178.67 458.61,178.67 C456.53,178.67 454.82,177.71 454.82,175.54 C454.82,173.56 456.56,172.51 459.06,172.51 C459.56,172.51 459.99,172.51 460.16,172.54 C460.16,172.54 460.16,172.41 460.16,172.41 C460.16,172.06 459.94,171.23 458.36,171.23 C457.43,171.23 456.6,171.42 455.89,171.74 C455.81,171.78 455.72,171.74 455.72,171.64 C455.72,171.64 455.72,169.75 455.72,169.75 C455.72,169.66 455.74,169.6 455.85,169.57 C456.68,169.17 457.75,168.98 458.79,168.98 C461.49,168.98 462.69,170.65 462.69,172.79 C462.69,172.79 462.69,176.4 462.69,176.4z  M460.16 174.47 C459.86,174.44 459.6,174.42 459.23,174.42 C457.89,174.42 457.35,174.85 457.35,175.52 C457.35,176.14 457.82,176.65 459,176.65 C459.43,176.65 459.8,176.59 460.16,176.48 C460.16,176.48 460.16,174.47 460.16,174.47z "/><path id="_R_G_L_5_G_L_7_G_D_21_P_0" fill="#5a5a5a" fill-opacity="1" fill-rule="nonzero" d=" M469.43 178.16 C469.43,178.28 469.41,178.37 469.3,178.41 C468.78,178.6 468.29,178.67 467.63,178.67 C466,178.67 465.05,177.86 465.05,175.99 C465.05,175.99 465.05,171.34 465.05,171.34 C465.05,171.34 463.92,171.34 463.92,171.34 C463.81,171.33 463.77,171.29 463.77,171.18 C463.77,171.18 463.77,169.34 463.77,169.34 C463.77,169.21 463.81,169.17 463.94,169.17 C463.94,169.17 465.07,169.17 465.07,169.17 C465.08,168.53 465.16,167.43 465.25,166.91 C465.27,166.81 465.33,166.76 465.42,166.74 C465.42,166.74 467.61,166.46 467.61,166.46 C467.71,166.44 467.76,166.44 467.76,166.57 C467.71,167.15 467.67,168.25 467.67,169.17 C467.67,169.17 469.4,169.17 469.4,169.17 C469.51,169.17 469.55,169.21 469.55,169.32 C469.55,169.32 469.55,171.21 469.55,171.21 C469.55,171.31 469.51,171.33 469.41,171.34 C469.41,171.34 467.65,171.34 467.65,171.34 C467.65,171.34 467.65,175.35 467.65,175.35 C467.65,176.18 467.9,176.55 468.66,176.55 C468.89,176.55 469.08,176.52 469.3,176.48 C469.38,176.48 469.43,176.5 469.43,176.61 C469.43,176.61 469.43,178.16 469.43,178.16z "/><path id="_R_G_L_5_G_L_7_G_D_22_P_0" stroke="#707070" stroke-linecap="round" stroke-linejoin="round" fill="none" stroke-width="0.988" stroke-opacity="1" d=" M298.9 172.21 C298.9,172.21 288.67,172.21 288.67,172.21 "/><path id="_R_G_L_5_G_L_7_G_D_23_P_0" stroke="#707070" stroke-linecap="round" stroke-linejoin="round" fill="none" stroke-width="0.988" stroke-opacity="1" d=" M294.08 167.01 C294.08,167.01 288.67,172.21 288.67,172.21 C288.67,172.21 294.04,177.41 294.04,177.41 "/><path id="_R_G_L_5_G_L_7_G_D_24_P_0" fill="#4066cf" fill-opacity="1" fill-rule="nonzero" d=" M883.13 84.75 C883.13,84.75 140.87,84.75 140.87,84.75 C134.95,84.75 130.15,89.55 130.15,95.47 C130.15,95.47 130.15,132.07 130.15,132.07 C130.15,132.07 893.85,132.07 893.85,132.07 C893.85,132.07 893.85,95.47 893.85,95.47 C893.85,89.55 889.05,84.75 883.13,84.75z "/><path id="_R_G_L_5_G_L_7_G_D_25_P_0" fill="#9fb2e6" fill-opacity="1" fill-rule="nonzero" d=" M797.54 112.84 C797.54,112.84 761.22,112.84 761.22,112.84 C758.77,112.84 756.78,110.86 756.78,108.41 C756.78,108.41 756.78,108.41 756.78,108.41 C756.78,105.96 758.77,103.98 761.22,103.98 C761.22,103.98 797.54,103.98 797.54,103.98 C799.99,103.98 801.97,105.96 801.97,108.41 C801.97,108.41 801.97,108.41 801.97,108.41 C801.97,110.86 799.99,112.84 797.54,112.84z "/><path id="_R_G_L_5_G_L_7_G_D_26_P_0" fill="#9fb2e6" fill-opacity="1" fill-rule="nonzero" d=" M241.71 112.84 C241.71,112.84 205.39,112.84 205.39,112.84 C202.94,112.84 200.95,110.86 200.95,108.41 C200.95,108.41 200.95,108.41 200.95,108.41 C200.95,105.96 202.94,103.98 205.39,103.98 C205.39,103.98 241.71,103.98 241.71,103.98 C244.16,103.98 246.14,105.96 246.14,108.41 C246.14,108.41 246.14,108.41 246.14,108.41 C246.14,110.86 244.16,112.84 241.71,112.84z "/><path id="_R_G_L_5_G_L_7_G_D_27_P_0" fill="#81868b" fill-opacity="1" fill-rule="nonzero" d=" M861.84 116.01 C861.84,116.01 840.03,116.01 840.03,116.01 C835.84,116.01 832.44,112.61 832.44,108.41 C832.44,108.41 832.44,108.41 832.44,108.41 C832.44,104.21 835.84,100.81 840.03,100.81 C840.03,100.81 861.84,100.81 861.84,100.81 C866.04,100.81 869.44,104.21 869.44,108.41 C869.44,108.41 869.44,108.41 869.44,108.41 C869.44,112.61 866.04,116.01 861.84,116.01z "/><path id="_R_G_L_5_G_L_7_G_D_28_P_0" fill="#ffffff" fill-opacity="1" fill-rule="nonzero" d=" M830.02 108.41 C830.02,114.19 834.7,118.87 840.48,118.87 C846.25,118.87 850.94,114.19 850.94,108.41 C850.94,102.63 846.25,97.95 840.48,97.95 C834.7,97.95 830.02,102.63 830.02,108.41z "/><path id="_R_G_L_5_G_L_7_G_D_29_P_0" fill="#3250a2" fill-opacity="1" fill-rule="nonzero" d=" M741.1 124.77 C741.1,124.77 271.97,124.77 271.97,124.77 C271.97,124.77 271.97,94.55 271.97,94.55 C271.97,94.55 741.1,94.55 741.1,94.55 C741.1,94.55 741.1,124.77 741.1,124.77z "/><path id="_R_G_L_5_G_L_7_G_D_30_P_0" fill="#ffffff" fill-opacity="1" fill-rule="nonzero" d=" M180.09 100.69 C180.09,100.69 150.67,100.69 150.67,100.69 C150.67,100.69 150.67,96.44 150.67,96.44 C150.67,96.44 180.09,96.44 180.09,96.44 C180.09,96.44 180.09,100.69 180.09,100.69z "/><path id="_R_G_L_5_G_L_7_G_D_31_P_0" fill="#ffffff" fill-opacity="1" fill-rule="nonzero" d=" M180.09 110.53 C180.09,110.53 150.67,110.53 150.67,110.53 C150.67,110.53 150.67,106.29 150.67,106.29 C150.67,106.29 180.09,106.29 180.09,106.29 C180.09,106.29 180.09,110.53 180.09,110.53z "/><path id="_R_G_L_5_G_L_7_G_D_32_P_0" fill="#ffffff" fill-opacity="1" fill-rule="nonzero" d=" M180.09 120.38 C180.09,120.38 150.67,120.38 150.67,120.38 C150.67,120.38 150.67,116.13 150.67,116.13 C150.67,116.13 180.09,116.13 180.09,116.13 C180.09,116.13 180.09,120.38 180.09,120.38z "/></g><g id="_R_G_L_5_G_L_6_G_N_8_T_0"><g id="_R_G_L_5_G_L_6_G"><path id="_R_G_L_5_G_L_6_G_D_0_P_0" fill="#2f2f2f" fill-opacity="1" fill-rule="nonzero" d=" M301.82 392.6 C301.82,392.6 300.52,396.24 300.52,396.24 C300.5,396.31 300.46,396.35 300.37,396.35 C300.37,396.35 299.15,396.35 299.15,396.35 C299.06,396.35 299.02,396.29 299.04,396.2 C299.04,396.2 302.97,385.27 302.97,385.27 C303.02,385.13 303.08,385 303.09,384.54 C303.09,384.48 303.13,384.45 303.18,384.45 C303.18,384.45 304.95,384.45 304.95,384.45 C305.02,384.45 305.04,384.46 305.06,384.54 C305.06,384.54 309.29,396.22 309.29,396.22 C309.32,396.29 309.31,396.35 309.21,396.35 C309.21,396.35 307.85,396.35 307.85,396.35 C307.77,396.35 307.74,396.31 307.7,396.26 C307.7,396.26 306.39,392.6 306.39,392.6 C306.39,392.6 301.82,392.6 301.82,392.6z  M305.97 391.22 C305.58,390.05 304.44,386.9 304.1,385.67 C304.1,385.67 304.08,385.67 304.08,385.67 C303.78,386.82 302.91,389.24 302.23,391.22 C302.23,391.22 305.97,391.22 305.97,391.22z "/><path id="_R_G_L_5_G_L_6_G_D_1_P_0" fill="#2f2f2f" fill-opacity="1" fill-rule="nonzero" d=" M317.44 394.44 C317.44,395.39 317.49,395.84 317.55,396.24 C317.55,396.31 317.53,396.35 317.44,396.35 C317.44,396.35 316.29,396.35 316.29,396.35 C316.2,396.35 316.18,396.33 316.14,396.26 C316.09,396.06 316.05,395.73 316.04,395.48 C315.28,396.26 314.33,396.53 313.42,396.53 C311.89,396.53 310.45,395.75 310.45,393.14 C310.45,393.14 310.45,387.7 310.45,387.7 C310.45,387.61 310.49,387.6 310.58,387.6 C310.58,387.6 311.86,387.6 311.86,387.6 C311.93,387.6 311.95,387.63 311.95,387.7 C311.95,387.7 311.95,392.96 311.95,392.96 C311.95,394.35 312.6,395.19 313.86,395.19 C314.72,395.19 315.41,394.87 315.95,394.28 C315.95,394.28 315.95,387.7 315.95,387.7 C315.95,387.63 315.98,387.6 316.07,387.6 C316.07,387.6 317.33,387.6 317.33,387.6 C317.44,387.6 317.44,387.63 317.44,387.7 C317.44,387.7 317.44,394.44 317.44,394.44z "/><path id="_R_G_L_5_G_L_6_G_D_2_P_0" fill="#2f2f2f" fill-opacity="1" fill-rule="nonzero" d=" M323.92 396.1 C323.92,396.17 323.9,396.24 323.81,396.28 C323.4,396.46 322.95,396.53 322.46,396.53 C321.15,396.53 320.35,395.9 320.35,394.17 C320.35,394.17 320.35,388.89 320.35,388.89 C320.35,388.89 319.13,388.89 319.13,388.89 C319.02,388.87 319,388.84 319,388.75 C319,388.75 319,387.72 319,387.72 C319,387.63 319.04,387.6 319.13,387.6 C319.13,387.6 320.35,387.6 320.35,387.6 C320.37,386.93 320.45,385.69 320.52,385.29 C320.53,385.22 320.57,385.18 320.64,385.17 C320.64,385.17 321.87,384.97 321.87,384.97 C321.94,384.95 321.97,384.97 321.97,385.04 C321.92,385.67 321.87,386.71 321.87,387.6 C321.87,387.6 323.78,387.6 323.78,387.6 C323.85,387.6 323.88,387.63 323.88,387.72 C323.88,387.72 323.88,388.79 323.88,388.79 C323.88,388.86 323.85,388.89 323.78,388.89 C323.78,388.89 321.87,388.89 321.87,388.89 C321.87,388.89 321.87,393.95 321.87,393.95 C321.87,394.78 322.17,395.25 322.97,395.25 C323.24,395.25 323.51,395.21 323.81,395.1 C323.87,395.09 323.92,395.09 323.92,395.18 C323.92,395.18 323.92,396.1 323.92,396.1z "/><path id="_R_G_L_5_G_L_6_G_D_3_P_0" fill="#2f2f2f" fill-opacity="1" fill-rule="nonzero" d=" M333.05 391.95 C333.05,394.69 331.35,396.53 328.94,396.53 C326.04,396.53 324.8,394.19 324.8,391.97 C324.8,389.43 326.42,387.42 328.94,387.42 C331.48,387.42 333.05,389.36 333.05,391.95z  M326.31 391.94 C326.31,393.77 327.27,395.23 328.98,395.23 C330.26,395.23 331.52,394.22 331.52,391.99 C331.52,390.32 330.74,388.71 328.87,388.71 C327.36,388.71 326.31,390.01 326.31,391.94z "/><path id="_R_G_L_5_G_L_6_G_D_4_P_0" fill="#2f2f2f" fill-opacity="1" fill-rule="nonzero" d=" M336.07 387.6 C336.18,387.6 336.2,387.63 336.23,387.72 C336.3,387.94 336.36,388.57 336.38,388.96 C337.01,388.1 338.12,387.42 339.27,387.42 C339.36,387.42 339.4,387.43 339.4,387.54 C339.4,387.54 339.4,388.84 339.4,388.84 C339.4,388.93 339.38,388.95 339.27,388.95 C338.03,388.93 336.9,389.54 336.45,390.26 C336.45,390.26 336.43,396.24 336.43,396.24 C336.43,396.33 336.39,396.35 336.32,396.35 C336.32,396.35 335.04,396.35 335.04,396.35 C334.95,396.35 334.92,396.31 334.92,396.22 C334.92,396.22 334.92,390.01 334.92,390.01 C334.92,389.25 334.88,388.21 334.83,387.7 C334.83,387.63 334.84,387.6 334.92,387.6 C334.92,387.6 336.07,387.6 336.07,387.6z "/><path id="_R_G_L_5_G_L_6_G_D_5_P_0" fill="#2f2f2f" fill-opacity="1" fill-rule="nonzero" d=" M340.62 384.95 C340.62,384.41 341,384.03 341.54,384.03 C342.12,384.03 342.44,384.43 342.44,384.95 C342.44,385.49 342.08,385.87 341.52,385.87 C340.96,385.87 340.62,385.49 340.62,384.95z  M340.77 387.72 C340.77,387.63 340.8,387.6 340.89,387.6 C340.89,387.6 342.17,387.6 342.17,387.6 C342.24,387.6 342.28,387.61 342.28,387.7 C342.28,387.7 342.28,396.22 342.28,396.22 C342.28,396.31 342.26,396.35 342.15,396.35 C342.15,396.35 340.91,396.35 340.91,396.35 C340.82,396.35 340.77,396.31 340.77,396.2 C340.77,396.2 340.77,387.72 340.77,387.72z "/><path id="_R_G_L_5_G_L_6_G_D_6_P_0" fill="#2f2f2f" fill-opacity="1" fill-rule="nonzero" d=" M347.37 388.66 C346.18,388.66 345.79,389.23 345.79,389.78 C345.79,390.32 346.11,390.69 347.46,391.23 C349.28,391.94 350.02,392.67 350.02,393.95 C350.02,395.61 348.67,396.53 346.79,396.53 C345.8,396.53 344.91,396.31 344.38,396.01 C344.33,395.97 344.29,395.93 344.29,395.84 C344.29,395.84 344.29,394.64 344.29,394.64 C344.29,394.55 344.35,394.51 344.4,394.55 C345.12,395.05 346.04,395.27 346.83,395.27 C347.98,395.27 348.54,394.76 348.54,394.1 C348.54,393.43 348.15,393.03 346.9,392.55 C345.1,391.86 344.35,391.13 344.35,389.85 C344.35,388.55 345.44,387.42 347.41,387.42 C348.4,387.42 349.14,387.6 349.51,387.81 C349.6,387.85 349.6,387.92 349.6,387.99 C349.6,387.99 349.6,389.09 349.6,389.09 C349.6,389.18 349.55,389.23 349.46,389.18 C348.96,388.88 348.13,388.66 347.37,388.66z "/><path id="_R_G_L_5_G_L_6_G_D_7_P_0" fill="#2f2f2f" fill-opacity="1" fill-rule="nonzero" d=" M352.81 392.15 C352.79,393.86 353.78,395.21 355.81,395.21 C356.61,395.21 357.36,395.07 358.07,394.73 C358.12,394.69 358.16,394.73 358.16,394.8 C358.16,394.8 358.16,395.83 358.16,395.83 C358.16,395.93 358.12,395.97 358.07,396.01 C357.45,396.31 356.66,396.53 355.53,396.53 C352.41,396.53 351.3,394.24 351.3,392.04 C351.3,389.52 352.77,387.42 355.27,387.42 C357.85,387.42 358.79,389.51 358.79,391.04 C358.79,391.48 358.75,391.81 358.71,391.97 C358.71,392.03 358.66,392.08 358.59,392.08 C358.32,392.13 357.52,392.15 356.73,392.15 C356.73,392.15 352.81,392.15 352.81,392.15z  M356.17 391.04 C357.06,391.04 357.27,391.02 357.33,391 C357.35,390.95 357.35,390.86 357.35,390.8 C357.35,390.15 356.91,388.66 355.22,388.66 C353.73,388.66 352.99,389.83 352.83,391.04 C352.83,391.04 356.17,391.04 356.17,391.04z "/><path id="_R_G_L_5_G_L_6_G_D_8_P_0" fill="#2f2f2f" fill-opacity="1" fill-rule="nonzero" d=" M361.75 387.6 C361.86,387.6 361.88,387.63 361.92,387.72 C361.99,387.94 362.04,388.57 362.06,388.96 C362.69,388.1 363.81,387.42 364.96,387.42 C365.05,387.42 365.08,387.43 365.08,387.54 C365.08,387.54 365.08,388.84 365.08,388.84 C365.08,388.93 365.07,388.95 364.96,388.95 C363.72,388.93 362.58,389.54 362.13,390.26 C362.13,390.26 362.11,396.24 362.11,396.24 C362.11,396.33 362.08,396.35 362.01,396.35 C362.01,396.35 360.73,396.35 360.73,396.35 C360.64,396.35 360.6,396.31 360.6,396.22 C360.6,396.22 360.6,390.01 360.6,390.01 C360.6,389.25 360.56,388.21 360.51,387.7 C360.51,387.63 360.53,387.6 360.6,387.6 C360.6,387.6 361.75,387.6 361.75,387.6z "/><path id="_R_G_L_5_G_L_6_G_D_9_P_0" fill="#2f2f2f" fill-opacity="1" fill-rule="nonzero" d=" M370.48 383.54 C370.48,383.45 370.52,383.44 370.61,383.44 C370.61,383.44 371.87,383.44 371.87,383.44 C371.96,383.44 371.98,383.47 371.98,383.54 C371.98,383.54 371.98,394.4 371.98,394.4 C371.98,395.1 372.26,395.27 372.7,395.27 C372.82,395.27 372.89,395.25 373.06,395.21 C373.11,395.21 373.13,395.25 373.13,395.32 C373.13,395.32 373.13,396.26 373.13,396.26 C373.13,396.35 373.11,396.37 373.04,396.4 C372.88,396.47 372.59,396.53 372.21,396.53 C371.33,396.53 370.48,396.22 370.48,394.53 C370.48,394.53 370.48,383.54 370.48,383.54z "/><path id="_R_G_L_5_G_L_6_G_D_10_P_0" fill="#2f2f2f" fill-opacity="1" fill-rule="nonzero" d=" M374.41 387.98 C374.33,387.98 374.3,387.94 374.33,387.87 C374.78,386.68 375,385.74 375,384.68 C375,384.27 374.96,383.85 374.91,383.55 C374.91,383.47 374.93,383.44 374.98,383.44 C374.98,383.44 376.06,383.44 376.06,383.44 C376.13,383.44 376.19,383.47 376.21,383.55 C376.29,383.85 376.31,384.27 376.31,384.7 C376.31,385.71 376.08,386.8 375.56,387.9 C375.52,387.96 375.5,387.98 375.45,387.98 C375.45,387.98 374.41,387.98 374.41,387.98z "/><path id="_R_G_L_5_G_L_6_G_D_11_P_0" fill="#2f2f2f" fill-opacity="1" fill-rule="nonzero" d=" M383.46 394.82 C383.46,395.12 383.46,395.39 383.5,395.68 C383.5,395.72 383.5,395.73 383.46,395.75 C382.17,396.36 381.14,396.53 380.1,396.53 C378.19,396.53 376.75,395.59 376.75,393.7 C376.75,391.79 378.53,390.95 380.76,390.95 C381.43,390.95 381.81,390.96 382,390.98 C382,390.98 382,390.55 382,390.55 C382,389.99 381.73,388.75 379.97,388.75 C379.11,388.75 378.31,388.95 377.68,389.29 C377.63,389.31 377.56,389.29 377.56,389.2 C377.56,389.2 377.56,388.1 377.56,388.1 C377.56,388.03 377.59,387.99 377.65,387.96 C378.35,387.61 379.25,387.42 380.2,387.42 C382.51,387.42 383.46,388.93 383.46,390.8 C383.46,390.8 383.46,394.82 383.46,394.82z  M382 392.17 C381.75,392.13 381.36,392.1 380.82,392.1 C379.07,392.1 378.22,392.69 378.22,393.7 C378.22,394.51 378.78,395.3 380.37,395.3 C380.94,395.3 381.48,395.21 382,395 C382,395 382,392.17 382,392.17z "/><path id="_R_G_L_5_G_L_6_G_D_12_P_0" fill="#2f2f2f" fill-opacity="1" fill-rule="nonzero" d=" M391.76 396.11 C391.76,396.19 391.76,396.22 391.69,396.24 C391.09,396.47 390.39,396.53 389.73,396.53 C386.79,396.53 385.28,394.44 385.28,392.01 C385.28,389.38 387.15,387.42 389.98,387.42 C390.9,387.42 391.4,387.53 391.69,387.65 C391.76,387.69 391.76,387.72 391.76,387.81 C391.76,387.81 391.76,388.95 391.76,388.95 C391.76,389.04 391.71,389.04 391.63,389.02 C391.18,388.84 390.72,388.75 389.98,388.75 C388.12,388.75 386.81,389.99 386.81,391.95 C386.81,394.11 388.3,395.18 389.98,395.18 C390.64,395.18 391.2,395.1 391.65,394.92 C391.74,394.91 391.76,394.94 391.76,395 C391.76,395 391.76,396.11 391.76,396.11z "/><path id="_R_G_L_5_G_L_6_G_D_13_P_0" fill="#2f2f2f" fill-opacity="1" fill-rule="nonzero" d=" M399.32 396.11 C399.32,396.19 399.32,396.22 399.25,396.24 C398.65,396.47 397.95,396.53 397.29,396.53 C394.35,396.53 392.84,394.44 392.84,392.01 C392.84,389.38 394.71,387.42 397.54,387.42 C398.46,387.42 398.96,387.53 399.25,387.65 C399.32,387.69 399.32,387.72 399.32,387.81 C399.32,387.81 399.32,388.95 399.32,388.95 C399.32,389.04 399.27,389.04 399.19,389.02 C398.74,388.84 398.28,388.75 397.54,388.75 C395.68,388.75 394.37,389.99 394.37,391.95 C394.37,394.11 395.86,395.18 397.54,395.18 C398.2,395.18 398.76,395.1 399.21,394.92 C399.3,394.91 399.32,394.94 399.32,395 C399.32,395 399.32,396.11 399.32,396.11z "/><path id="_R_G_L_5_G_L_6_G_D_14_P_0" fill="#2f2f2f" fill-opacity="1" fill-rule="nonzero" d=" M401.91 392.15 C401.89,393.86 402.88,395.21 404.92,395.21 C405.71,395.21 406.47,395.07 407.17,394.73 C407.22,394.69 407.26,394.73 407.26,394.8 C407.26,394.8 407.26,395.83 407.26,395.83 C407.26,395.93 407.22,395.97 407.17,396.01 C406.56,396.31 405.76,396.53 404.63,396.53 C401.51,396.53 400.4,394.24 400.4,392.04 C400.4,389.52 401.87,387.42 404.38,387.42 C406.95,387.42 407.89,389.51 407.89,391.04 C407.89,391.48 407.85,391.81 407.82,391.97 C407.82,392.03 407.76,392.08 407.69,392.08 C407.42,392.13 406.63,392.15 405.84,392.15 C405.84,392.15 401.91,392.15 401.91,392.15z  M405.33 386.25 C405.37,386.3 405.33,386.35 405.26,386.35 C405.26,386.35 404.05,386.35 404.05,386.35 C403.98,386.35 403.93,386.3 403.91,386.26 C403.91,386.26 401.69,383.71 401.69,383.71 C401.66,383.64 401.69,383.58 401.75,383.58 C401.75,383.58 403.26,383.58 403.26,383.58 C403.33,383.58 403.37,383.6 403.41,383.65 C403.41,383.65 405.33,386.25 405.33,386.25z  M405.28 391.04 C406.16,391.04 406.38,391.02 406.43,391 C406.45,390.95 406.45,390.86 406.45,390.8 C406.45,390.15 406.02,388.66 404.32,388.66 C402.83,388.66 402.09,389.83 401.93,391.04 C401.93,391.04 405.28,391.04 405.28,391.04z "/><path id="_R_G_L_5_G_L_6_G_D_15_P_0" fill="#2f2f2f" fill-opacity="1" fill-rule="nonzero" d=" M412.39 388.66 C411.2,388.66 410.8,389.23 410.8,389.78 C410.8,390.32 411.13,390.69 412.48,391.23 C414.3,391.94 415.03,392.67 415.03,393.95 C415.03,395.61 413.68,396.53 411.81,396.53 C410.82,396.53 409.92,396.31 409.4,396.01 C409.34,395.97 409.31,395.93 409.31,395.84 C409.31,395.84 409.31,394.64 409.31,394.64 C409.31,394.55 409.36,394.51 409.42,394.55 C410.14,395.05 411.06,395.27 411.85,395.27 C413,395.27 413.56,394.76 413.56,394.1 C413.56,393.43 413.16,393.03 411.92,392.55 C410.12,391.86 409.36,391.13 409.36,389.85 C409.36,388.55 410.46,387.42 412.42,387.42 C413.41,387.42 414.15,387.6 414.53,387.81 C414.62,387.85 414.62,387.92 414.62,387.99 C414.62,387.99 414.62,389.09 414.62,389.09 C414.62,389.18 414.57,389.23 414.48,389.18 C413.97,388.88 413.14,388.66 412.39,388.66z "/><path id="_R_G_L_5_G_L_6_G_D_16_P_0" fill="#2f2f2f" fill-opacity="1" fill-rule="nonzero" d=" M427 394.82 C427,395.12 427,395.39 427.04,395.68 C427.04,395.72 427.04,395.73 427,395.75 C425.71,396.36 424.68,396.53 423.64,396.53 C421.73,396.53 420.29,395.59 420.29,393.7 C420.29,391.79 422.07,390.95 424.3,390.95 C424.97,390.95 425.35,390.96 425.55,390.98 C425.55,390.98 425.55,390.55 425.55,390.55 C425.55,389.99 425.28,388.75 423.51,388.75 C422.65,388.75 421.85,388.95 421.22,389.29 C421.17,389.31 421.1,389.29 421.1,389.2 C421.1,389.2 421.1,388.1 421.1,388.1 C421.1,388.03 421.13,387.99 421.19,387.96 C421.89,387.61 422.79,387.42 423.74,387.42 C426.05,387.42 427,388.93 427,390.8 C427,390.8 427,394.82 427,394.82z  M425.55 392.17 C425.29,392.13 424.9,392.1 424.36,392.1 C422.61,392.1 421.76,392.69 421.76,393.7 C421.76,394.51 422.32,395.3 423.91,395.3 C424.48,395.3 425.02,395.21 425.55,395 C425.55,395 425.55,392.17 425.55,392.17z "/><path id="_R_G_L_5_G_L_6_G_D_17_P_0" fill="#2f2f2f" fill-opacity="1" fill-rule="nonzero" d=" M436.35 394.44 C436.35,395.39 436.4,395.84 436.45,396.24 C436.45,396.31 436.44,396.35 436.35,396.35 C436.35,396.35 435.19,396.35 435.19,396.35 C435.1,396.35 435.09,396.33 435.05,396.26 C435,396.06 434.96,395.73 434.94,395.48 C434.19,396.26 433.23,396.53 432.33,396.53 C430.8,396.53 429.36,395.75 429.36,393.14 C429.36,393.14 429.36,387.7 429.36,387.7 C429.36,387.61 429.4,387.6 429.49,387.6 C429.49,387.6 430.76,387.6 430.76,387.6 C430.84,387.6 430.85,387.63 430.85,387.7 C430.85,387.7 430.85,392.96 430.85,392.96 C430.85,394.35 431.5,395.19 432.76,395.19 C433.63,395.19 434.31,394.87 434.85,394.28 C434.85,394.28 434.85,387.7 434.85,387.7 C434.85,387.63 434.89,387.6 434.98,387.6 C434.98,387.6 436.24,387.6 436.24,387.6 C436.35,387.6 436.35,387.63 436.35,387.7 C436.35,387.7 436.35,394.44 436.35,394.44z "/><path id="_R_G_L_5_G_L_6_G_D_18_P_0" fill="#2f2f2f" fill-opacity="1" fill-rule="nonzero" d=" M437.91 387.74 C437.86,387.67 437.89,387.6 437.96,387.6 C437.96,387.6 439.44,387.6 439.44,387.6 C439.55,387.6 439.58,387.63 439.62,387.7 C439.62,387.7 441.73,391.09 441.73,391.09 C441.73,391.09 441.74,391.09 441.74,391.09 C441.74,391.09 443.94,387.69 443.94,387.69 C443.98,387.61 444.01,387.6 444.09,387.6 C444.09,387.6 445.42,387.6 445.42,387.6 C445.49,387.6 445.53,387.65 445.47,387.72 C444.77,388.77 443.4,390.82 442.61,391.9 C443.33,392.98 444.97,395.36 445.6,396.22 C445.65,396.28 445.62,396.35 445.53,396.35 C445.53,396.35 444.01,396.35 444.01,396.35 C443.92,396.35 443.87,396.31 443.83,396.24 C443.83,396.24 441.62,392.78 441.62,392.78 C441.62,392.78 441.6,392.78 441.6,392.78 C441.6,392.78 439.37,396.26 439.37,396.26 C439.33,396.33 439.31,396.35 439.22,396.35 C439.22,396.35 437.89,396.35 437.89,396.35 C437.8,396.35 437.77,396.29 437.82,396.22 C438.65,395.03 439.87,393.14 440.7,391.97 C440.7,391.97 437.91,387.74 437.91,387.74z "/><path id="_R_G_L_5_G_L_6_G_D_19_P_0" fill="#2f2f2f" fill-opacity="1" fill-rule="nonzero" d=" M452.49 391.95 C452.49,393.93 453.57,395.18 455.53,395.18 C457.04,395.18 458.48,394.51 458.48,391.92 C458.48,391.92 458.48,384.57 458.48,384.57 C458.48,384.48 458.52,384.45 458.59,384.45 C458.59,384.45 459.87,384.45 459.87,384.45 C459.96,384.45 460,384.48 460,384.57 C460,384.57 460,391.94 460,391.94 C460,395.25 458.04,396.53 455.48,396.53 C452.76,396.53 451,395.05 451,392.04 C451,392.04 451,384.57 451,384.57 C451,384.5 451.01,384.45 451.1,384.45 C451.1,384.45 452.38,384.45 452.38,384.45 C452.45,384.45 452.49,384.48 452.49,384.55 C452.49,384.55 452.49,391.95 452.49,391.95z "/><path id="_R_G_L_5_G_L_6_G_D_20_P_0" fill="#2f2f2f" fill-opacity="1" fill-rule="nonzero" d=" M462.86 396.35 C462.78,396.35 462.75,396.33 462.75,396.24 C462.75,396.24 462.75,384.61 462.75,384.61 C462.75,384.52 462.77,384.46 462.86,384.46 C463.86,384.43 464.78,384.41 465.99,384.41 C468.64,384.41 470.4,385.54 470.4,387.85 C470.4,389.54 469.25,390.59 467.92,391.04 C468.53,391.88 470.94,395.43 471.41,396.2 C471.45,396.28 471.45,396.35 471.35,396.35 C471.35,396.35 469.84,396.35 469.84,396.35 C469.73,396.35 469.7,396.33 469.64,396.28 C469.09,395.43 467.59,393.12 466.69,391.74 C466.55,391.52 466.46,391.45 466.28,391.45 C466.28,391.45 464.23,391.45 464.23,391.45 C464.23,391.45 464.23,396.24 464.23,396.24 C464.23,396.31 464.19,396.35 464.12,396.35 C464.12,396.35 462.86,396.35 462.86,396.35z  M466.15 390.14 C467.86,390.14 468.91,389.25 468.91,387.92 C468.91,386.55 467.86,385.74 465.94,385.74 C465.25,385.74 464.59,385.76 464.23,385.78 C464.23,385.78 464.23,390.14 464.23,390.14 C464.23,390.14 466.15,390.14 466.15,390.14z "/><path id="_R_G_L_5_G_L_6_G_D_21_P_0" fill="#2f2f2f" fill-opacity="1" fill-rule="nonzero" d=" M473.04 396.35 C472.94,396.35 472.9,396.29 472.9,396.2 C472.9,396.2 472.9,384.57 472.9,384.57 C472.9,384.5 472.92,384.45 473.01,384.45 C473.01,384.45 474.3,384.45 474.3,384.45 C474.38,384.45 474.39,384.48 474.39,384.55 C474.39,384.55 474.39,394.98 474.39,394.98 C474.39,394.98 479.98,394.98 479.98,394.98 C480.07,394.98 480.08,395.03 480.07,395.09 C480.07,395.09 479.85,396.24 479.85,396.24 C479.83,396.33 479.78,396.35 479.71,396.35 C479.71,396.35 473.04,396.35 473.04,396.35z "/><path id="_R_G_L_5_G_L_6_G_D_22_P_0" fill="#2f2f2f" fill-opacity="1" fill-rule="nonzero" d=" M484.87 392.04 C484.87,389.4 486.83,387.42 489.77,387.42 C490.27,387.42 490.56,387.47 490.9,387.52 C490.9,387.52 490.9,383.54 490.9,383.54 C490.9,383.45 490.94,383.44 491.01,383.44 C491.01,383.44 492.31,383.44 492.31,383.44 C492.4,383.44 492.41,383.47 492.41,383.53 C492.41,383.53 492.41,394.87 492.41,394.87 C492.41,395.12 492.41,395.43 492.45,395.73 C492.45,395.81 492.43,395.83 492.36,395.86 C491.33,396.35 490.32,396.53 489.32,396.53 C486.81,396.53 484.87,395.02 484.87,392.04z  M490.9 388.89 C490.61,388.77 490.18,388.71 489.73,388.71 C487.68,388.71 486.4,390.1 486.4,391.97 C486.4,394.31 487.88,395.21 489.46,395.21 C489.93,395.21 490.49,395.16 490.9,394.98 C490.9,394.98 490.9,388.89 490.9,388.89z "/><path id="_R_G_L_5_G_L_6_G_D_23_P_0" fill="#2f2f2f" fill-opacity="1" fill-rule="nonzero" d=" M495.81 392.15 C495.8,393.86 496.79,395.21 498.82,395.21 C499.61,395.21 500.37,395.07 501.07,394.73 C501.13,394.69 501.16,394.73 501.16,394.8 C501.16,394.8 501.16,395.83 501.16,395.83 C501.16,395.93 501.13,395.97 501.07,396.01 C500.46,396.31 499.67,396.53 498.53,396.53 C495.42,396.53 494.3,394.24 494.3,392.04 C494.3,389.52 495.78,387.42 498.28,387.42 C500.86,387.42 501.79,389.51 501.79,391.04 C501.79,391.48 501.76,391.81 501.72,391.97 C501.72,392.03 501.67,392.08 501.59,392.08 C501.32,392.13 500.53,392.15 499.74,392.15 C499.74,392.15 495.81,392.15 495.81,392.15z  M499.18 391.04 C500.06,391.04 500.28,391.02 500.33,391 C500.35,390.95 500.35,390.86 500.35,390.8 C500.35,390.15 499.92,388.66 498.23,388.66 C496.73,388.66 495.99,389.83 495.83,391.04 C495.83,391.04 499.18,391.04 499.18,391.04z "/><path id="_R_G_L_5_G_L_6_G_D_24_P_0" fill="#2f2f2f" fill-opacity="1" fill-rule="nonzero" d=" M506.29 388.66 C505.1,388.66 504.71,389.23 504.71,389.78 C504.71,390.32 505.03,390.69 506.38,391.23 C508.2,391.94 508.94,392.67 508.94,393.95 C508.94,395.61 507.59,396.53 505.71,396.53 C504.72,396.53 503.82,396.31 503.3,396.01 C503.25,395.97 503.21,395.93 503.21,395.84 C503.21,395.84 503.21,394.64 503.21,394.64 C503.21,394.55 503.26,394.51 503.32,394.55 C504.04,395.05 504.96,395.27 505.75,395.27 C506.9,395.27 507.46,394.76 507.46,394.1 C507.46,393.43 507.06,393.03 505.82,392.55 C504.02,391.86 503.26,391.13 503.26,389.85 C503.26,388.55 504.36,387.42 506.33,387.42 C507.32,387.42 508.05,387.6 508.43,387.81 C508.52,387.85 508.52,387.92 508.52,387.99 C508.52,387.99 508.52,389.09 508.52,389.09 C508.52,389.18 508.47,389.23 508.38,389.18 C507.87,388.88 507.04,388.66 506.29,388.66z "/><path id="_R_G_L_5_G_L_6_G_D_25_P_0" fill="#2f2f2f" fill-opacity="1" fill-rule="nonzero" d=" M513.88 388.89 C513.81,388.89 513.79,388.86 513.79,388.77 C513.79,388.77 513.79,387.7 513.79,387.7 C513.79,387.63 513.83,387.6 513.88,387.6 C513.88,387.6 515.05,387.6 515.05,387.6 C515.05,387.6 515.05,386.8 515.05,386.8 C515.05,385.85 515.18,385.15 515.45,384.61 C515.92,383.71 516.69,383.26 517.77,383.26 C518.19,383.26 518.42,383.29 518.58,383.37 C518.65,383.4 518.67,383.46 518.67,383.51 C518.67,383.51 518.67,384.61 518.67,384.61 C518.67,384.68 518.64,384.72 518.56,384.7 C518.35,384.61 518.11,384.59 517.92,384.59 C517.11,384.59 516.55,384.99 516.55,386.71 C516.55,386.71 516.55,387.6 516.55,387.6 C516.55,387.6 518.28,387.6 518.28,387.6 C518.37,387.6 518.38,387.63 518.38,387.69 C518.38,387.69 518.38,388.77 518.38,388.77 C518.38,388.86 518.35,388.88 518.28,388.89 C518.28,388.89 516.55,388.89 516.55,388.89 C516.55,388.89 516.55,396.22 516.55,396.22 C516.55,396.29 516.53,396.35 516.44,396.35 C516.44,396.35 515.16,396.35 515.16,396.35 C515.09,396.35 515.05,396.31 515.05,396.22 C515.05,396.22 515.05,388.89 515.05,388.89 C515.05,388.89 513.88,388.89 513.88,388.89z  M519.54 384.97 C519.54,384.45 519.9,384.07 520.42,384.07 C520.98,384.07 521.3,384.45 521.3,384.97 C521.3,385.47 520.94,385.85 520.42,385.85 C519.88,385.85 519.54,385.49 519.54,384.97z  M519.66 387.72 C519.66,387.63 519.7,387.6 519.77,387.6 C519.77,387.6 521.05,387.6 521.05,387.6 C521.14,387.6 521.18,387.61 521.18,387.7 C521.18,387.7 521.18,396.22 521.18,396.22 C521.18,396.31 521.14,396.35 521.05,396.35 C521.05,396.35 519.81,396.35 519.81,396.35 C519.7,396.35 519.66,396.31 519.66,396.2 C519.66,396.2 519.66,387.72 519.66,387.72z "/><path id="_R_G_L_5_G_L_6_G_D_26_P_0" fill="#2f2f2f" fill-opacity="1" fill-rule="nonzero" d=" M529.53 396.11 C529.53,396.19 529.53,396.22 529.45,396.24 C528.86,396.47 528.16,396.53 527.49,396.53 C524.56,396.53 523.04,394.44 523.04,392.01 C523.04,389.38 524.92,387.42 527.74,387.42 C528.66,387.42 529.17,387.53 529.45,387.65 C529.53,387.69 529.53,387.72 529.53,387.81 C529.53,387.81 529.53,388.95 529.53,388.95 C529.53,389.04 529.47,389.04 529.4,389.02 C528.95,388.84 528.48,388.75 527.74,388.75 C525.89,388.75 524.57,389.99 524.57,391.95 C524.57,394.11 526.07,395.18 527.74,395.18 C528.41,395.18 528.97,395.1 529.42,394.92 C529.51,394.91 529.53,394.94 529.53,395 C529.53,395 529.53,396.11 529.53,396.11z "/><path id="_R_G_L_5_G_L_6_G_D_27_P_0" fill="#2f2f2f" fill-opacity="1" fill-rule="nonzero" d=" M532.84 396.24 C532.84,396.33 532.82,396.35 532.73,396.35 C532.73,396.35 531.47,396.35 531.47,396.35 C531.38,396.35 531.34,396.31 531.34,396.22 C531.34,396.22 531.34,383.55 531.34,383.55 C531.34,383.47 531.36,383.44 531.45,383.44 C531.45,383.44 532.75,383.44 532.75,383.44 C532.82,383.44 532.84,383.46 532.84,383.53 C532.84,383.53 532.86,388.46 532.86,388.46 C533.59,387.78 534.46,387.42 535.52,387.42 C536.8,387.42 538.46,388.05 538.46,390.89 C538.46,390.89 538.46,396.22 538.46,396.22 C538.46,396.31 538.42,396.35 538.33,396.35 C538.33,396.35 537.07,396.35 537.07,396.35 C536.98,396.35 536.94,396.31 536.94,396.2 C536.94,396.2 536.94,391.05 536.94,391.05 C536.94,389.67 536.35,388.75 535.09,388.75 C534.21,388.75 533.41,389.11 532.84,389.74 C532.84,389.74 532.84,396.24 532.84,396.24z "/><path id="_R_G_L_5_G_L_6_G_D_28_P_0" fill="#2f2f2f" fill-opacity="1" fill-rule="nonzero" d=" M540.85 384.95 C540.85,384.41 541.23,384.03 541.77,384.03 C542.34,384.03 542.67,384.43 542.67,384.95 C542.67,385.49 542.31,385.87 541.75,385.87 C541.19,385.87 540.85,385.49 540.85,384.95z  M540.99 387.72 C540.99,387.63 541.03,387.6 541.12,387.6 C541.12,387.6 542.4,387.6 542.4,387.6 C542.47,387.6 542.5,387.61 542.5,387.7 C542.5,387.7 542.5,396.22 542.5,396.22 C542.5,396.31 542.49,396.35 542.38,396.35 C542.38,396.35 541.13,396.35 541.13,396.35 C541.04,396.35 540.99,396.31 540.99,396.2 C540.99,396.2 540.99,387.72 540.99,387.72z "/><path id="_R_G_L_5_G_L_6_G_D_29_P_0" fill="#2f2f2f" fill-opacity="1" fill-rule="nonzero" d=" M545.92 392.15 C545.91,393.86 546.9,395.21 548.93,395.21 C549.72,395.21 550.48,395.07 551.18,394.73 C551.23,394.69 551.27,394.73 551.27,394.8 C551.27,394.8 551.27,395.83 551.27,395.83 C551.27,395.93 551.23,395.97 551.18,396.01 C550.57,396.31 549.78,396.53 548.64,396.53 C545.53,396.53 544.41,394.24 544.41,392.04 C544.41,389.52 545.89,387.42 548.39,387.42 C550.96,387.42 551.9,389.51 551.9,391.04 C551.9,391.48 551.86,391.81 551.83,391.97 C551.83,392.03 551.77,392.08 551.7,392.08 C551.43,392.13 550.64,392.15 549.85,392.15 C549.85,392.15 545.92,392.15 545.92,392.15z  M549.29 391.04 C550.17,391.04 550.39,391.02 550.44,391 C550.46,390.95 550.46,390.86 550.46,390.8 C550.46,390.15 550.03,388.66 548.34,388.66 C546.84,388.66 546.1,389.83 545.94,391.04 C545.94,391.04 549.29,391.04 549.29,391.04z "/><path id="_R_G_L_5_G_L_6_G_D_30_P_0" fill="#2f2f2f" fill-opacity="1" fill-rule="nonzero" d=" M554.87 387.6 C554.98,387.6 555,387.63 555.03,387.72 C555.1,387.94 555.16,388.57 555.17,388.96 C555.81,388.1 556.92,387.42 558.07,387.42 C558.17,387.42 558.2,387.43 558.2,387.54 C558.2,387.54 558.2,388.84 558.2,388.84 C558.2,388.93 558.18,388.95 558.07,388.95 C556.83,388.93 555.7,389.54 555.25,390.26 C555.25,390.26 555.23,396.24 555.23,396.24 C555.23,396.33 555.19,396.35 555.12,396.35 C555.12,396.35 553.84,396.35 553.84,396.35 C553.75,396.35 553.72,396.31 553.72,396.22 C553.72,396.22 553.72,390.01 553.72,390.01 C553.72,389.25 553.68,388.21 553.63,387.7 C553.63,387.63 553.65,387.6 553.72,387.6 C553.72,387.6 554.87,387.6 554.87,387.6z "/><path id="_R_G_L_5_G_L_6_G_D_31_P_0" fill="#2f2f2f" fill-opacity="1" fill-rule="nonzero" d=" M562.25 388.66 C561.06,388.66 560.67,389.23 560.67,389.78 C560.67,390.32 560.99,390.69 562.34,391.23 C564.16,391.94 564.9,392.67 564.9,393.95 C564.9,395.61 563.55,396.53 561.67,396.53 C560.68,396.53 559.78,396.31 559.26,396.01 C559.21,395.97 559.17,395.93 559.17,395.84 C559.17,395.84 559.17,394.64 559.17,394.64 C559.17,394.55 559.23,394.51 559.28,394.55 C560,395.05 560.92,395.27 561.71,395.27 C562.86,395.27 563.42,394.76 563.42,394.1 C563.42,393.43 563.02,393.03 561.78,392.55 C559.98,391.86 559.23,391.13 559.23,389.85 C559.23,388.55 560.32,387.42 562.29,387.42 C563.28,387.42 564.01,387.6 564.39,387.81 C564.48,387.85 564.48,387.92 564.48,387.99 C564.48,387.99 564.48,389.09 564.48,389.09 C564.48,389.18 564.43,389.23 564.34,389.18 C563.83,388.88 563.01,388.66 562.25,388.66z "/></g></g><g id="_R_G_L_5_G_L_5_G_N_8_T_0"><g id="_R_G_L_5_G_L_5_G" transform=" translate(327.159, 172.252) translate(0, 0)"><path id="_R_G_L_5_G_L_5_G_D_0_P_0" fill="#c30000" fill-opacity="1" fill-rule="nonzero" d=" M-7.94 -11.98 C-7.94,-11.98 7.94,-11.98 7.94,-11.98 C10.34,-11.98 12.29,-10.04 12.29,-7.64 C12.29,-7.63 12.29,-7.63 12.29,-7.63 C12.29,-7.63 12.29,7.63 12.29,7.63 C12.29,10.03 10.35,11.98 7.94,11.98 C7.94,11.98 7.94,11.98 7.94,11.98 C7.94,11.98 -7.94,11.98 -7.94,11.98 C-10.34,11.98 -12.29,10.04 -12.29,7.64 C-12.29,7.63 -12.29,7.63 -12.29,7.63 C-12.29,7.63 -12.29,-7.63 -12.29,-7.63 C-12.29,-10.03 -10.34,-11.98 -7.94,-11.98 C-7.94,-11.98 -7.94,-11.98 -7.94,-11.98z "/></g></g><g id="_R_G_L_5_G_L_4_G_N_8_T_0"><g id="_R_G_L_5_G_L_4_G" transform=" translate(327.332, 172.278) translate(0, 0)"><path id="_R_G_L_5_G_L_4_G_D_0_P_0" fill="#ffffff" fill-opacity="1" fill-rule="nonzero" d=" M7.3 1.87 C6.16,0.66 3.02,1.15 2.28,1.27 C1.46,0.45 0.76,-0.48 0.19,-1.49 C0.61,-2.65 0.85,-3.88 0.9,-5.11 C0.9,-6.22 0.46,-7.41 -0.77,-7.41 C-1.19,-7.4 -1.58,-7.17 -1.8,-6.8 C-2.33,-5.9 -2.12,-4.04 -1.28,-2.16 C-1.77,-0.77 -2.48,1.22 -3.41,2.84 C-4.67,3.34 -7.34,4.57 -7.6,5.93 C-7.68,6.34 -7.54,6.75 -7.23,7.02 C-6.93,7.28 -6.54,7.42 -6.14,7.41 C-4.54,7.41 -2.93,5.18 -1.84,3.26 C-0.59,2.83 0.69,2.5 1.99,2.26 C3.69,3.74 5.2,3.97 5.97,3.97 C7.02,3.97 7.4,3.52 7.55,3.14 C7.7,2.7 7.61,2.22 7.3,1.87z  M6.2 2.65 C6.15,2.94 5.77,3.24 5.06,3.09 C4.24,2.88 3.48,2.5 2.83,1.96 C3.38,1.87 4.67,1.75 5.58,1.92 C5.91,1.98 6.29,2.17 6.2,2.65z  M-1.14 -6.42 C-1.07,-6.55 -0.93,-6.64 -0.78,-6.64 C-0.39,-6.64 -0.31,-6.17 -0.31,-5.78 C-0.37,-4.85 -0.54,-3.93 -0.82,-3.05 C-1.47,-4.79 -1.38,-6 -1.14,-6.42z  M-1.23 2.09 C-0.85,1.3 -0.51,0.49 -0.21,-0.34 C0.19,0.31 0.66,0.92 1.18,1.48 C0.37,1.64 -0.44,1.85 -1.23,2.09z  M-3.8 3.86 C-4.83,5.51 -5.85,6.56 -6.44,6.56 C-6.54,6.56 -6.63,6.53 -6.71,6.47 C-6.82,6.38 -6.87,6.23 -6.84,6.09 C-6.73,5.49 -5.55,4.63 -3.8,3.86 C-3.8,3.86 -3.8,3.86 -3.8,3.86z "/></g></g><g id="_R_G_L_5_G_L_3_G_M"><g id="_R_G_L_5_G_L_3_G" transform=" translate(692.84, 390.818) translate(0, 0)"><path id="_R_G_L_5_G_L_3_G_D_0_P_0" fill="#9cb9f0" fill-opacity="1" fill-rule="nonzero" d=" M10.9 7.6 C10.9,7.6 -10.9,7.6 -10.9,7.6 C-15.1,7.6 -18.5,4.2 -18.5,0 C-18.5,0 -18.5,0 -18.5,0 C-18.5,-4.2 -15.1,-7.6 -10.9,-7.6 C-10.9,-7.6 10.9,-7.6 10.9,-7.6 C15.1,-7.6 18.5,-4.2 18.5,0 C18.5,0 18.5,0 18.5,0 C18.5,4.2 15.1,7.6 10.9,7.6z "/></g></g><g id="_R_G_L_5_G_L_2_G_N_8_T_0_M"><g id="_R_G_L_5_G_L_2_G_N_8_T_0"><g id="_R_G_L_5_G_L_2_G" transform=" translate(692.84, 390.818) translate(0, 0)"><path id="_R_G_L_5_G_L_2_G_D_0_P_0" fill="#bfc1c5" fill-opacity="1" fill-rule="nonzero" d=" M10.9 7.6 C10.9,7.6 -10.9,7.6 -10.9,7.6 C-15.1,7.6 -18.5,4.2 -18.5,0 C-18.5,0 -18.5,0 -18.5,0 C-18.5,-4.2 -15.1,-7.6 -10.9,-7.6 C-10.9,-7.6 10.9,-7.6 10.9,-7.6 C15.1,-7.6 18.5,-4.2 18.5,0 C18.5,0 18.5,0 18.5,0 C18.5,4.2 15.1,7.6 10.9,7.6z "/></g></g></g><g id="_R_G_L_5_G_L_1_G_N_8_T_0_M"><g id="_R_G_L_5_G_L_1_G_N_8_T_0"><g id="_R_G_L_5_G_L_1_G"><path id="_R_G_L_5_G_L_1_G_D_0_P_0" fill="#ffffff" fill-opacity="1" fill-rule="nonzero" d=" M-10.46 0 C-10.46,5.78 -5.78,10.46 0,10.46 C5.78,10.46 10.46,5.78 10.46,0 C10.46,-5.78 5.78,-10.46 0,-10.46 C-5.78,-10.46 -10.46,-5.78 -10.46,0z "/><path id="_R_G_L_5_G_L_1_G_D_1_P_0" stroke="#e6e6e6" stroke-linecap="round" stroke-linejoin="round" fill="none" stroke-width="1" stroke-opacity="1" d=" M-10.46 0 C-10.46,5.78 -5.78,10.46 0,10.46 C5.78,10.46 10.46,5.78 10.46,0 C10.46,-5.78 5.78,-10.46 0,-10.46 C-5.78,-10.46 -10.46,-5.78 -10.46,0z "/></g></g></g><g id="_R_G_L_5_G_L_0_G_M"><g id="_R_G_L_5_G_L_0_G"><path id="_R_G_L_5_G_L_0_G_D_0_P_0" fill="#3872e0" fill-opacity="1" fill-rule="nonzero" d=" M-10.46 0 C-10.46,5.78 -5.78,10.46 0,10.46 C5.78,10.46 10.46,5.78 10.46,0 C10.46,-5.78 5.78,-10.46 0,-10.46 C-5.78,-10.46 -10.46,-5.78 -10.46,0z "/></g></g></g><g id="_R_G_L_4_G_M"><g id="_R_G_L_4_G" transform=" translate(683.13, 395.892) scale(0.6, 0.6) translate(-1378.179, -739.009)"><g id="_R_G_L_4_G_D_0_P_0_G_0_T_0" transform=" translate(1378.179, 739.009)"><path id="_R_G_L_4_G_D_0_P_0" stroke="#ffa72f" stroke-linecap="round" stroke-linejoin="round" fill="none" stroke-width="13" stroke-opacity="1" d=" M61.7 0 C61.7,34.07 34.07,61.7 0,61.7 C-34.07,61.7 -61.7,34.07 -61.7,0 C-61.7,-34.07 -34.07,-61.7 0,-61.7 C34.07,-61.7 61.7,-34.07 61.7,0z "/></g></g></g><g id="_R_G_L_3_G_M"><g id="_R_G_L_3_G" transform=" translate(683.13, 395.892) scale(0.6, 0.6) translate(-1378.179, -739.009)"><g id="_R_G_L_3_G_D_0_P_0_G_0_T_0" transform=" translate(1378.179, 739.009)"><path id="_R_G_L_3_G_D_0_P_0" stroke="#ffa72f" stroke-linecap="round" stroke-linejoin="round" fill="none" stroke-width="7.5" stroke-opacity="1" d=" M82.12 0 C82.12,45.36 45.36,82.12 0,82.12 C-45.35,82.12 -82.12,45.36 -82.12,0 C-82.12,-45.35 -45.35,-82.12 0,-82.12 C45.36,-82.12 82.12,-45.35 82.12,0z "/></g></g></g><g id="_R_G_L_2_G_M"><g id="_R_G_L_2_G" transform=" translate(683.13, 395.892) scale(0.6, 0.6) translate(-1378.179, -739.009)"><g id="_R_G_L_2_G_D_0_P_0_G_0_T_0" transform=" translate(1378.179, 739.009)"><path id="_R_G_L_2_G_D_0_P_0" stroke="#ffa72f" stroke-linecap="round" stroke-linejoin="round" fill="none" stroke-width="2.5" stroke-opacity="1" d=" M99.12 0 C99.12,54.74 54.74,99.12 0,99.12 C-54.74,99.12 -99.12,54.74 -99.12,0 C-99.12,-54.74 -54.74,-99.12 0,-99.12 C54.74,-99.12 99.12,-54.74 99.12,0z "/></g></g></g><g id="_R_G_L_1_G_N_1_T_0_M"><g id="_R_G_L_1_G_N_1_T_0"><g id="_R_G_L_1_G" opacity="0.3" transform=" translate(1568.36, 743.988) translate(-1562.36, -741.21)"><path id="_R_G_L_1_G_D_0_P_0" fill="#1a1818" fill-opacity="1" fill-rule="nonzero" d=" M1576.33 783.55 C1576.33,783.55 1575.58,783.55 1575.58,783.55 C1575.58,783.55 1574.45,782.42 1574.45,782.42 C1574.45,782.42 1570.31,771.88 1570.31,771.88 C1570.31,771.88 1563.9,776.77 1563.9,776.77 C1563.9,776.77 1562.03,776.77 1562.03,776.77 C1561.41,776.51 1560.98,775.93 1560.9,775.27 C1560.9,775.27 1560.14,740.63 1560.14,740.63 C1560.08,739.82 1560.53,739.07 1561.27,738.75 C1561.27,738.75 1562.03,738.75 1562.03,738.75 C1562.03,738.75 1563.53,739.5 1563.53,739.5 C1563.53,739.5 1586.5,765.11 1586.5,765.11 C1587.14,765.93 1587,767.11 1586.18,767.75 C1585.94,767.94 1585.67,768.06 1585.37,768.12 C1585.37,768.12 1577.09,769.25 1577.09,769.25 C1577.09,769.25 1581.23,779.78 1581.23,779.78 C1581.49,780.71 1581,781.69 1580.1,782.04 C1580.1,782.04 1576.71,783.17 1576.71,783.17 C1576.71,783.17 1576.33,783.17 1576.33,783.17 "/><path id="_R_G_L_1_G_D_1_P_0" fill="#000000" fill-opacity="1" fill-rule="nonzero" d=" M1562.03 740.63 C1562.03,740.63 1585.36,766.6 1585.36,766.6 C1585.36,766.6 1574.82,767.74 1574.82,767.74 C1574.82,767.74 1580.1,780.54 1580.1,780.54 C1580.1,780.54 1576.71,781.67 1576.71,781.67 C1576.71,781.67 1571.07,768.87 1571.07,768.87 C1571.07,768.87 1562.77,775.27 1562.77,775.27 C1562.77,775.27 1562.03,740.63 1562.03,740.63  M1562.03 736.86 C1562.03,736.86 1560.52,736.86 1560.52,736.86 C1559.03,737.5 1558.12,739.02 1558.25,740.63 C1558.25,740.63 1559.01,775.27 1559.01,775.27 C1559.03,776.74 1559.92,778.07 1561.27,778.66 C1561.27,778.66 1562.76,778.66 1562.76,778.66 C1562.76,778.66 1565.02,777.91 1565.02,777.91 C1565.02,777.91 1569.54,774.89 1569.54,774.89 C1569.54,774.89 1572.95,783.17 1572.95,783.17 C1573.54,784.52 1574.86,785.4 1576.33,785.43 C1576.33,785.43 1577.84,785.43 1577.84,785.43 C1577.84,785.43 1581.23,784.3 1581.23,784.3 C1583.19,783.6 1584.22,781.45 1583.52,779.49 C1583.52,779.49 1583.52,779.49 1583.52,779.49 C1583.51,779.46 1583.5,779.43 1583.49,779.4 C1583.49,779.4 1579.72,770.74 1579.72,770.74 C1579.72,770.74 1585.75,770.74 1585.75,770.74 C1587.82,770.52 1589.31,768.67 1589.1,766.6 C1589.01,765.74 1588.62,764.94 1588.01,764.33 C1588.01,764.33 1564.67,737.98 1564.67,737.98 C1563.97,737.27 1563.02,736.87 1562.02,736.85 "/></g></g></g><g id="_R_G_L_0_G_M"><g id="_R_G_L_0_G"><path id="_R_G_L_0_G_D_0_P_0" fill="#1a1818" fill-opacity="1" fill-rule="nonzero" d=" M1576.33 783.55 C1576.33,783.55 1575.58,783.55 1575.58,783.55 C1575.58,783.55 1574.45,782.42 1574.45,782.42 C1574.45,782.42 1570.31,771.88 1570.31,771.88 C1570.31,771.88 1563.9,776.77 1563.9,776.77 C1563.9,776.77 1562.03,776.77 1562.03,776.77 C1561.41,776.51 1560.98,775.93 1560.9,775.27 C1560.9,775.27 1560.14,740.63 1560.14,740.63 C1560.08,739.82 1560.53,739.07 1561.27,738.75 C1561.27,738.75 1562.03,738.75 1562.03,738.75 C1562.03,738.75 1563.53,739.5 1563.53,739.5 C1563.53,739.5 1586.5,765.11 1586.5,765.11 C1587.14,765.93 1587,767.11 1586.18,767.75 C1585.94,767.94 1585.67,768.06 1585.37,768.12 C1585.37,768.12 1577.09,769.25 1577.09,769.25 C1577.09,769.25 1581.23,779.78 1581.23,779.78 C1581.49,780.71 1581,781.69 1580.1,782.04 C1580.1,782.04 1576.71,783.17 1576.71,783.17 C1576.71,783.17 1576.33,783.17 1576.33,783.17 "/><path id="_R_G_L_0_G_D_1_P_0" fill="#ffffff" fill-opacity="1" fill-rule="nonzero" d=" M1562.03 740.63 C1562.03,740.63 1585.36,766.6 1585.36,766.6 C1585.36,766.6 1574.82,767.74 1574.82,767.74 C1574.82,767.74 1580.1,780.54 1580.1,780.54 C1580.1,780.54 1576.71,781.67 1576.71,781.67 C1576.71,781.67 1571.07,768.87 1571.07,768.87 C1571.07,768.87 1562.77,775.27 1562.77,775.27 C1562.77,775.27 1562.03,740.63 1562.03,740.63  M1562.03 736.86 C1562.03,736.86 1560.52,736.86 1560.52,736.86 C1559.03,737.5 1558.12,739.02 1558.25,740.63 C1558.25,740.63 1559.01,775.27 1559.01,775.27 C1559.03,776.74 1559.92,778.07 1561.27,778.66 C1561.27,778.66 1562.76,778.66 1562.76,778.66 C1562.76,778.66 1565.02,777.91 1565.02,777.91 C1565.02,777.91 1569.54,774.89 1569.54,774.89 C1569.54,774.89 1572.95,783.17 1572.95,783.17 C1573.54,784.52 1574.86,785.4 1576.33,785.43 C1576.33,785.43 1577.84,785.43 1577.84,785.43 C1577.84,785.43 1581.23,784.3 1581.23,784.3 C1583.19,783.6 1584.22,781.45 1583.52,779.49 C1583.52,779.49 1583.52,779.49 1583.52,779.49 C1583.51,779.46 1583.5,779.43 1583.49,779.4 C1583.49,779.4 1579.72,770.74 1579.72,770.74 C1579.72,770.74 1585.75,770.74 1585.75,770.74 C1587.82,770.52 1589.31,768.67 1589.1,766.6 C1589.01,765.74 1588.62,764.94 1588.01,764.33 C1588.01,764.33 1564.67,737.98 1564.67,737.98 C1563.97,737.27 1563.02,736.87 1562.02,736.85 "/></g></g></g><g id="time_group"/></svg>