<svg xmlns="http://www.w3.org/2000/svg" xmlns:xlink="http://www.w3.org/1999/xlink" preserveAspectRatio="xMidYMid meet" width="1024" height="480" viewBox="0 0 1024 480" style="width:100%;height:100%"><defs><animateMotion repeatCount="indefinite" dur="4s" begin="0s" xlink:href="#_R_G_L_5_G_L_7_G" fill="freeze" keyTimes="0;0.2708333;1" path="M725.54 792.87 C725.54,792.87 725.54,392.87 725.54,392.87 C725.54,392.87 725.54,392.87 725.54,392.87 " keyPoints="0;1;1" keySplines="0.036 0 0 1;0 0 0 0" calcMode="spline"/><animateTransform repeatCount="indefinite" dur="4s" begin="0s" xlink:href="#_R_G_L_5_G_L_7_G" fill="freeze" attributeName="transform" from="-725.535 -392.869" to="-725.535 -392.869" type="translate" additive="sum" keyTimes="0;1" values="-725.535 -392.869;-725.535 -392.869" keySplines="0 0 1 1" calcMode="spline"/><animateMotion repeatCount="indefinite" dur="4s" begin="0s" xlink:href="#_R_G_L_5_G_L_6_G_N_8_T_0" fill="freeze" keyTimes="0;0.2708333;1" path="M725.54 792.87 C725.54,792.87 725.54,392.87 725.54,392.87 C725.54,392.87 725.54,392.87 725.54,392.87 " keyPoints="0;1;1" keySplines="0.036 0 0 1;0 0 0 0" calcMode="spline"/><animateTransform repeatCount="indefinite" dur="4s" begin="0s" xlink:href="#_R_G_L_5_G_L_6_G_N_8_T_0" fill="freeze" attributeName="transform" from="-725.535 -392.869" to="-725.535 -392.869" type="translate" additive="sum" keyTimes="0;1" values="-725.535 -392.869;-725.535 -392.869" keySplines="0 0 1 1" calcMode="spline"/><animateMotion repeatCount="indefinite" dur="4s" begin="0s" xlink:href="#_R_G_L_5_G_L_5_G_N_8_T_0" fill="freeze" keyTimes="0;0.2708333;1" path="M725.54 792.87 C725.54,792.87 725.54,392.87 725.54,392.87 C725.54,392.87 725.54,392.87 725.54,392.87 " keyPoints="0;1;1" keySplines="0.036 0 0 1;0 0 0 0" calcMode="spline"/><animateTransform repeatCount="indefinite" dur="4s" begin="0s" xlink:href="#_R_G_L_5_G_L_5_G_N_8_T_0" fill="freeze" attributeName="transform" from="-725.535 -392.869" to="-725.535 -392.869" type="translate" additive="sum" keyTimes="0;1" values="-725.535 -392.869;-725.535 -392.869" keySplines="0 0 1 1" calcMode="spline"/><animateMotion repeatCount="indefinite" dur="4s" begin="0s" xlink:href="#_R_G_L_5_G_L_4_G_N_8_T_0" fill="freeze" keyTimes="0;0.2708333;1" path="M725.54 792.87 C725.54,792.87 725.54,392.87 725.54,392.87 C725.54,392.87 725.54,392.87 725.54,392.87 " keyPoints="0;1;1" keySplines="0.036 0 0 1;0 0 0 0" calcMode="spline"/><animateTransform repeatCount="indefinite" dur="4s" begin="0s" xlink:href="#_R_G_L_5_G_L_4_G_N_8_T_0" fill="freeze" attributeName="transform" from="-725.535 -392.869" to="-725.535 -392.869" type="translate" additive="sum" keyTimes="0;1" values="-725.535 -392.869;-725.535 -392.869" keySplines="0 0 1 1" calcMode="spline"/><animate repeatCount="indefinite" dur="4s" begin="0s" xlink:href="#_R_G_L_5_G_L_3_G_M" fill="freeze" attributeName="opacity" from="0" to="1" keyTimes="0;0.375;0.375001;1" values="0;0;1;1" keySplines="0 0 0 0;0 0 0 0;0 0 0 0" calcMode="spline"/><animate repeatCount="indefinite" dur="4s" begin="0s" xlink:href="#_R_G_L_5_G_L_2_G" fill="freeze" attributeName="opacity" from="1" to="0" keyTimes="0;0.375;0.4583333;1" values="1;1;0;0" keySplines="0.167 0.167 0.833 0.833;0.167 0.167 0.833 0.833;0 0 0 0" calcMode="spline"/><animateMotion repeatCount="indefinite" dur="4s" begin="0s" xlink:href="#_R_G_L_5_G_L_2_G_N_8_T_0" fill="freeze" keyTimes="0;0.2708333;1" path="M725.54 792.87 C725.54,792.87 725.54,392.87 725.54,392.87 C725.54,392.87 725.54,392.87 725.54,392.87 " keyPoints="0;1;1" keySplines="0.036 0 0 1;0 0 0 0" calcMode="spline"/><animateTransform repeatCount="indefinite" dur="4s" begin="0s" xlink:href="#_R_G_L_5_G_L_2_G_N_8_T_0" fill="freeze" attributeName="transform" from="-725.535 -392.869" to="-725.535 -392.869" type="translate" additive="sum" keyTimes="0;1" values="-725.535 -392.869;-725.535 -392.869" keySplines="0 0 1 1" calcMode="spline"/><animate repeatCount="indefinite" dur="4s" begin="0s" xlink:href="#_R_G_L_5_G_L_2_G_N_8_T_0_M" fill="freeze" attributeName="opacity" from="1" to="0" keyTimes="0;0.46875;0.46875;1" values="1;1;0;0" keySplines="0 0 0 0;0 0 0 0;0 0 0 0" calcMode="spline"/><animate repeatCount="indefinite" dur="4s" begin="0s" xlink:href="#_R_G_L_5_G_L_1_G" fill="freeze" attributeName="opacity" from="1" to="0" keyTimes="0;0.375;0.4583333;1" values="1;1;0;0" keySplines="0.167 0.167 0.833 0.833;0.167 0.167 0.833 0.833;0 0 0 0" calcMode="spline"/><animateMotion repeatCount="indefinite" dur="4s" begin="0s" xlink:href="#_R_G_L_5_G_L_1_G" fill="freeze" keyTimes="0;0.375;0.4583333;1" path="M682.38 390.82 C682.38,390.82 682.38,390.82 682.38,390.82 C682.38,390.82 703.13,390.82 703.13,390.82 C703.13,390.82 703.13,390.82 703.13,390.82 " keyPoints="0;0;1;1" keySplines="0.762 0 0.401 1;0.762 0 0.401 1;0 0 0 0" calcMode="spline"/><animateMotion repeatCount="indefinite" dur="4s" begin="0s" xlink:href="#_R_G_L_5_G_L_1_G_N_8_T_0" fill="freeze" keyTimes="0;0.2708333;1" path="M725.54 792.87 C725.54,792.87 725.54,392.87 725.54,392.87 C725.54,392.87 725.54,392.87 725.54,392.87 " keyPoints="0;1;1" keySplines="0.036 0 0 1;0 0 0 0" calcMode="spline"/><animateTransform repeatCount="indefinite" dur="4s" begin="0s" xlink:href="#_R_G_L_5_G_L_1_G_N_8_T_0" fill="freeze" attributeName="transform" from="-725.535 -392.869" to="-725.535 -392.869" type="translate" additive="sum" keyTimes="0;1" values="-725.535 -392.869;-725.535 -392.869" keySplines="0 0 1 1" calcMode="spline"/><animate repeatCount="indefinite" dur="4s" begin="0s" xlink:href="#_R_G_L_5_G_L_1_G_N_8_T_0_M" fill="freeze" attributeName="opacity" from="1" to="0" keyTimes="0;0.46875;0.46875;1" values="1;1;0;0" keySplines="0 0 0 0;0 0 0 0;0 0 0 0" calcMode="spline"/><animate repeatCount="indefinite" dur="4s" begin="0s" xlink:href="#_R_G_L_5_G_L_0_G" fill="freeze" attributeName="opacity" from="0" to="1" keyTimes="0;0.375;0.4583333;1" values="0;0;1;1" keySplines="0.167 0.167 0.833 0.833;0.167 0.167 0.833 0.833;0 0 0 0" calcMode="spline"/><animateMotion repeatCount="indefinite" dur="4s" begin="0s" xlink:href="#_R_G_L_5_G_L_0_G" fill="freeze" keyTimes="0;0.375;0.4583333;1" path="M682.38 390.82 C682.38,390.82 682.38,390.82 682.38,390.82 C682.38,390.82 703.13,390.82 703.13,390.82 C703.13,390.82 703.13,390.82 703.13,390.82 " keyPoints="0;0;1;1" keySplines="0.762 0 0.401 1;0.762 0 0.401 1;0 0 0 0" calcMode="spline"/><animate repeatCount="indefinite" dur="4s" begin="0s" xlink:href="#_R_G_L_5_G_L_0_G_M" fill="freeze" attributeName="opacity" from="0" to="1" keyTimes="0;0.375;0.375001;1" values="0;0;1;1" keySplines="0 0 0 0;0 0 0 0;0 0 0 0" calcMode="spline"/><animateTransform repeatCount="indefinite" dur="4s" begin="0s" xlink:href="#_R_G_L_4_G_D_0_P_0_G_0_T_0" fill="freeze" attributeName="transform" from="0.23 0.23" to="1 1" type="scale" additive="sum" keyTimes="0;0.3854167;0.562502;1" values="0.23 0.23;0.23 0.23;1 1;1 1" keySplines="0.167 0.167 0 1;0.167 0.167 0 1;0 0 0 0" calcMode="spline"/><animate repeatCount="indefinite" dur="4s" begin="0s" xlink:href="#_R_G_L_4_G" fill="freeze" attributeName="opacity" from="0" to="0" keyTimes="0;0.3958333;0.4041667;0.5041771;0.562502;1" values="0;0;1;1;0;0" keySplines="0.167 0.167 0.833 0.833;0.167 0.167 0.833 0.833;0.167 0.167 0.833 0.833;0.167 0.167 0.833 0.833;0 0 0 0" calcMode="spline"/><animate repeatCount="indefinite" dur="4s" begin="0s" xlink:href="#_R_G_L_4_G_M" fill="freeze" attributeName="opacity" from="0" to="0" keyTimes="0;0.3583333;0.3583344;0.5583333;0.5583333;1" values="0;0;1;1;0;0" keySplines="0 0 0 0;0 0 0 0;0 0 0 0;0 0 0 0;0 0 0 0" calcMode="spline"/><animateTransform repeatCount="indefinite" dur="4s" begin="0s" xlink:href="#_R_G_L_3_G_D_0_P_0_G_0_T_0" fill="freeze" attributeName="transform" from="0.28 0.28" to="1 1" type="scale" additive="sum" keyTimes="0;0.3854167;0.5416687;1" values="0.28 0.28;0.28 0.28;1 1;1 1" keySplines="0.167 0.167 0 1;0.167 0.167 0 1;0 0 0 0" calcMode="spline"/><animate repeatCount="indefinite" dur="4s" begin="0s" xlink:href="#_R_G_L_3_G" fill="freeze" attributeName="opacity" from="0" to="0" keyTimes="0;0.375;0.3833333;0.4833333;0.5416687;1" values="0;0;1;1;0;0" keySplines="0.167 0.167 0.833 0.833;0.167 0.167 0.833 0.833;0.167 0.167 0.833 0.833;0.167 0.167 0.833 0.833;0 0 0 0" calcMode="spline"/><animate repeatCount="indefinite" dur="4s" begin="0s" xlink:href="#_R_G_L_3_G_M" fill="freeze" attributeName="opacity" from="0" to="0" keyTimes="0;0.3583333;0.3583344;0.5583333;0.5583333;1" values="0;0;1;1;0;0" keySplines="0 0 0 0;0 0 0 0;0 0 0 0;0 0 0 0;0 0 0 0" calcMode="spline"/><animateTransform repeatCount="indefinite" dur="4s" begin="0s" xlink:href="#_R_G_L_2_G_D_0_P_0_G_0_T_0" fill="freeze" attributeName="transform" from="0.23 0.23" to="1 1" type="scale" additive="sum" keyTimes="0;0.3645833;0.531252;1" values="0.23 0.23;0.23 0.23;1 1;1 1" keySplines="0.167 0.167 0 1;0.167 0.167 0 1;0 0 0 0" calcMode="spline"/><animate repeatCount="indefinite" dur="4s" begin="0s" xlink:href="#_R_G_L_2_G" fill="freeze" attributeName="opacity" from="0" to="0" keyTimes="0;0.3541667;0.3625104;0.4625104;0.5208354;1" values="0;0;1;1;0;0" keySplines="0.167 0.167 0.833 0.833;0.167 0.167 0.833 0.833;0.167 0.167 0.833 0.833;0.167 0.167 0.833 0.833;0 0 0 0" calcMode="spline"/><animate repeatCount="indefinite" dur="4s" begin="0s" xlink:href="#_R_G_L_2_G_M" fill="freeze" attributeName="opacity" from="0" to="0" keyTimes="0;0.3583333;0.3583344;0.5583333;0.5583333;1" values="0;0;1;1;0;0" keySplines="0 0 0 0;0 0 0 0;0 0 0 0;0 0 0 0;0 0 0 0" calcMode="spline"/><animateMotion repeatCount="indefinite" dur="4s" begin="0s" xlink:href="#_R_G_L_1_G_N_1_T_0" fill="freeze" keyTimes="0;0.09375;0.3229167;0.4895833;0.687502;1" path="M914.36 572.71 C914.36,572.71 914.36,572.71 914.36,572.71 C696.7,561.57 683.36,394.71 683.36,394.71 C683.36,394.71 683.36,394.71 683.36,394.71 C683.36,394.71 562,476 627.36,598.71 C627.36,598.71 627.36,598.71 627.36,598.71 " keyPoints="0;0;0.58;0.58;1;1" keySplines="0.337 0 0.112 1;0.337 0 0.112 1;0.765 0.765 0.667 0.667;0.765 0 0.667 1;0 0 0 0" calcMode="spline"/><animateTransform repeatCount="indefinite" dur="4s" begin="0s" xlink:href="#_R_G_L_1_G_N_1_T_0" fill="freeze" attributeName="transform" from="1 1" to="1 1" type="scale" additive="sum" keyTimes="0;0.3583438;0.375;0.4479167;0.4895854;1" values="1 1;1 1;0.9 0.9;0.9 0.9;1 1;1 1" keySplines="0.331 0 0.833 0.833;0.331 0 0.833 0.833;0.325 0 0.833 1;0.328 0 0.667 1;0 0 0 0" calcMode="spline"/><animateTransform repeatCount="indefinite" dur="4s" begin="0s" xlink:href="#_R_G_L_1_G_N_1_T_0" fill="freeze" attributeName="transform" from="-1562.36 -741.21" to="-1562.36 -741.21" type="translate" additive="sum" keyTimes="0;1" values="-1562.36 -741.21;-1562.36 -741.21" keySplines="0 0 1 1" calcMode="spline"/><animate repeatCount="indefinite" dur="4s" begin="0s" xlink:href="#_R_G_L_1_G_N_1_T_0_M" fill="freeze" attributeName="opacity" from="0" to="0" keyTimes="0;0.0833333;0.0833344;0.65625;0.65625;1" values="0;0;1;1;0;0" keySplines="0 0 0 0;0 0 0 0;0 0 0 0;0 0 0 0;0 0 0 0" calcMode="spline"/><animateMotion repeatCount="indefinite" dur="4s" begin="0s" xlink:href="#_R_G_L_0_G" fill="freeze" keyTimes="0;0.09375;0.3229167;0.4895833;0.687502;1" path="M914.36 572.71 C914.36,572.71 914.36,572.71 914.36,572.71 C696.7,561.57 683.36,394.71 683.36,394.71 C683.36,394.71 683.36,394.71 683.36,394.71 C683.36,394.71 562,476 627.36,598.71 C627.36,598.71 627.36,598.71 627.36,598.71 " keyPoints="0;0;0.58;0.58;1;1" keySplines="0.337 0 0.112 1;0.337 0 0.112 1;0.765 0.765 0.667 0.667;0.765 0 0.667 1;0 0 0 0" calcMode="spline"/><animateTransform repeatCount="indefinite" dur="4s" begin="0s" xlink:href="#_R_G_L_0_G" fill="freeze" attributeName="transform" from="1 1" to="1 1" type="scale" additive="sum" keyTimes="0;0.3583438;0.375;0.4479167;0.4895854;1" values="1 1;1 1;0.9 0.9;0.9 0.9;1 1;1 1" keySplines="0.331 0 0.833 0.833;0.331 0 0.833 0.833;0.325 0 0.833 1;0.328 0 0.667 1;0 0 0 0" calcMode="spline"/><animateTransform repeatCount="indefinite" dur="4s" begin="0s" xlink:href="#_R_G_L_0_G" fill="freeze" attributeName="transform" from="-1562.36 -741.21" to="-1562.36 -741.21" type="translate" additive="sum" keyTimes="0;1" values="-1562.36 -741.21;-1562.36 -741.21" keySplines="0 0 1 1" calcMode="spline"/><animate repeatCount="indefinite" dur="4s" begin="0s" xlink:href="#_R_G_L_0_G_M" fill="freeze" attributeName="opacity" from="0" to="0" keyTimes="0;0.0833333;0.0833344;0.65625;0.65625;1" values="0;0;1;1;0;0" keySplines="0 0 0 0;0 0 0 0;0 0 0 0;0 0 0 0;0 0 0 0" calcMode="spline"/><animate attributeType="XML" attributeName="opacity" dur="4s" from="0" to="1" xlink:href="#time_group"/></defs><g id="_R_G"><g id="_R_G_L_6_G" transform=" translate(512, 240) translate(0, 0)"><path id="_R_G_L_6_G_D_0_P_0" fill="#ffddd6" fill-opacity="1" fill-rule="nonzero" d=" M512 240 C512,240 -512,240 -512,240 C-512,240 -512,-240 -512,-240 C-512,-240 512,-240 512,-240 C512,-240 512,240 512,240z "/></g><g id="_R_G_L_5_G"><g id="_R_G_L_5_G_L_7_G"><path id="_R_G_L_5_G_L_7_G_D_0_P_0" fill="#f8f9fa" fill-opacity="1" fill-rule="nonzero" d=" M893.85 480 C893.85,480 130.15,480 130.15,480 C130.15,480 130.15,96.18 130.15,96.18 C130.15,89.87 135.26,84.75 141.58,84.75 C141.58,84.75 882.42,84.75 882.42,84.75 C888.74,84.75 893.85,89.87 893.85,96.18 C893.85,96.18 893.85,480 893.85,480z "/><path id="_R_G_L_5_G_L_7_G_D_1_P_0" fill="#ffffff" fill-opacity="1" fill-rule="nonzero" d=" M741.1 480.3 C741.1,480.3 271.97,480.3 271.97,480.3 C271.97,480.3 271.97,132.07 271.97,132.07 C271.97,132.07 741.1,132.07 741.1,132.07 C741.1,132.07 741.1,480.3 741.1,480.3z "/><path id="_R_G_L_5_G_L_7_G_D_2_P_0" fill="#b2b2b2" fill-opacity="1" fill-rule="nonzero" d=" M341.13 216.08 C341.13,216.08 303.38,216.08 303.38,216.08 C301.23,216.08 299.48,214.33 299.48,212.17 C299.48,212.17 299.48,212.17 299.48,212.17 C299.48,210.02 301.23,208.27 303.38,208.27 C303.38,208.27 341.13,208.27 341.13,208.27 C343.29,208.27 345.04,210.02 345.04,212.17 C345.04,212.17 345.04,212.17 345.04,212.17 C345.04,214.33 343.29,216.08 341.13,216.08z "/><path id="_R_G_L_5_G_L_7_G_D_3_P_0" fill="#d9d9d9" fill-opacity="1" fill-rule="nonzero" d=" M599.32 233.37 C599.32,233.37 303.38,233.37 303.38,233.37 C301.23,233.37 299.48,231.62 299.48,229.47 C299.48,229.47 299.48,229.47 299.48,229.47 C299.48,227.31 301.23,225.56 303.38,225.56 C303.38,225.56 599.32,225.56 599.32,225.56 C601.47,225.56 603.22,227.31 603.22,229.47 C603.22,229.47 603.22,229.47 603.22,229.47 C603.22,231.62 601.47,233.37 599.32,233.37z "/><path id="_R_G_L_5_G_L_7_G_D_4_P_0" fill="#b2b2b2" fill-opacity="1" fill-rule="nonzero" d=" M341.13 271.58 C341.13,271.58 303.38,271.58 303.38,271.58 C301.23,271.58 299.48,269.83 299.48,267.68 C299.48,267.68 299.48,267.68 299.48,267.68 C299.48,265.52 301.23,263.77 303.38,263.77 C303.38,263.77 341.13,263.77 341.13,263.77 C343.29,263.77 345.04,265.52 345.04,267.68 C345.04,267.68 345.04,267.68 345.04,267.68 C345.04,269.83 343.29,271.58 341.13,271.58z "/><path id="_R_G_L_5_G_L_7_G_D_5_P_0" fill="#d9d9d9" fill-opacity="1" fill-rule="nonzero" d=" M599.32 288.88 C599.32,288.88 303.38,288.88 303.38,288.88 C301.23,288.88 299.48,287.13 299.48,284.97 C299.48,284.97 299.48,284.97 299.48,284.97 C299.48,282.81 301.23,281.07 303.38,281.07 C303.38,281.07 599.32,281.07 599.32,281.07 C601.47,281.07 603.22,282.81 603.22,284.97 C603.22,284.97 603.22,284.97 603.22,284.97 C603.22,287.13 601.47,288.88 599.32,288.88z "/><path id="_R_G_L_5_G_L_7_G_D_6_P_0" fill="#b2b2b2" fill-opacity="1" fill-rule="nonzero" d=" M341.13 325.97 C341.13,325.97 303.38,325.97 303.38,325.97 C301.23,325.97 299.48,324.22 299.48,322.07 C299.48,322.07 299.48,322.07 299.48,322.07 C299.48,319.91 301.23,318.16 303.38,318.16 C303.38,318.16 341.13,318.16 341.13,318.16 C343.29,318.16 345.04,319.91 345.04,322.07 C345.04,322.07 345.04,322.07 345.04,322.07 C345.04,324.22 343.29,325.97 341.13,325.97z "/><path id="_R_G_L_5_G_L_7_G_D_7_P_0" fill="#d9d9d9" fill-opacity="1" fill-rule="nonzero" d=" M599.32 343.26 C599.32,343.26 303.38,343.26 303.38,343.26 C301.23,343.26 299.48,341.52 299.48,339.36 C299.48,339.36 299.48,339.36 299.48,339.36 C299.48,337.2 301.23,335.45 303.38,335.45 C303.38,335.45 599.32,335.45 599.32,335.45 C601.47,335.45 603.22,337.2 603.22,339.36 C603.22,339.36 603.22,339.36 603.22,339.36 C603.22,341.52 601.47,343.26 599.32,343.26z "/><path id="_R_G_L_5_G_L_7_G_D_8_P_0" fill="#b2b2b2" fill-opacity="1" fill-rule="nonzero" d=" M341.13 435.86 C341.13,435.86 303.38,435.86 303.38,435.86 C301.23,435.86 299.48,434.12 299.48,431.96 C299.48,431.96 299.48,431.96 299.48,431.96 C299.48,429.8 301.23,428.05 303.38,428.05 C303.38,428.05 341.13,428.05 341.13,428.05 C343.29,428.05 345.04,429.8 345.04,431.96 C345.04,431.96 345.04,431.96 345.04,431.96 C345.04,434.12 343.29,435.86 341.13,435.86z "/><path id="_R_G_L_5_G_L_7_G_D_9_P_0" fill="#d9d9d9" fill-opacity="1" fill-rule="nonzero" d=" M599.32 453.16 C599.32,453.16 303.38,453.16 303.38,453.16 C301.23,453.16 299.48,451.41 299.48,449.25 C299.48,449.25 299.48,449.25 299.48,449.25 C299.48,447.09 301.23,445.35 303.38,445.35 C303.38,445.35 599.32,445.35 599.32,445.35 C601.47,445.35 603.22,447.09 603.22,449.25 C603.22,449.25 603.22,449.25 603.22,449.25 C603.22,451.41 601.47,453.16 599.32,453.16z "/><path id="_R_G_L_5_G_L_7_G_D_10_P_0" fill="#5a5a5a" fill-opacity="1" fill-rule="nonzero" d=" M353.86 175.56 C353.86,175.56 352.96,178.33 352.96,178.33 C352.93,178.43 352.87,178.48 352.76,178.48 C352.76,178.48 350.58,178.48 350.58,178.48 C350.45,178.48 350.41,178.41 350.43,178.3 C350.43,178.3 354.18,167.49 354.18,167.49 C354.26,167.28 354.33,167.05 354.37,166.34 C354.37,166.27 354.43,166.21 354.48,166.21 C354.48,166.21 357.48,166.21 357.48,166.21 C357.57,166.21 357.61,166.23 357.63,166.32 C357.63,166.32 361.88,178.31 361.88,178.31 C361.92,178.41 361.9,178.48 361.79,178.48 C361.79,178.48 359.35,178.48 359.35,178.48 C359.24,178.48 359.18,178.45 359.15,178.35 C359.15,178.35 358.19,175.56 358.19,175.56 C358.19,175.56 353.86,175.56 353.86,175.56z  M357.5 173.22 C357.12,171.98 356.37,169.71 356.02,168.38 C356.02,168.38 356,168.38 356,168.38 C355.7,169.64 355.02,171.7 354.54,173.22 C354.54,173.22 357.5,173.22 357.5,173.22z "/><path id="_R_G_L_5_G_L_7_G_D_11_P_0" fill="#5a5a5a" fill-opacity="1" fill-rule="nonzero" d=" M362.44 173.91 C362.44,171.23 364.44,168.98 367.87,168.98 C368.02,168.98 368.21,169 368.49,169.02 C368.49,169.02 368.49,165.33 368.49,165.33 C368.49,165.24 368.55,165.2 368.62,165.2 C368.62,165.2 370.98,165.2 370.98,165.2 C371.08,165.2 371.1,165.24 371.1,165.31 C371.1,165.31 371.1,176.39 371.1,176.39 C371.1,176.82 371.11,177.38 371.17,177.75 C371.17,177.85 371.15,177.88 371.04,177.92 C369.74,178.47 368.51,178.67 367.35,178.67 C364.58,178.67 362.44,177.1 362.44,173.91z  M368.49 171.25 C368.3,171.18 368.06,171.16 367.8,171.16 C366.35,171.16 365.12,172.04 365.12,173.78 C365.12,175.64 366.18,176.44 367.61,176.44 C367.93,176.44 368.23,176.42 368.49,176.33 C368.49,176.33 368.49,171.25 368.49,171.25z "/><path id="_R_G_L_5_G_L_7_G_D_12_P_0" fill="#5a5a5a" fill-opacity="1" fill-rule="nonzero" d=" M382.01 173.78 C382.01,176.72 380.1,178.67 377.4,178.67 C374.2,178.67 372.78,176.25 372.78,173.84 C372.78,171.18 374.56,168.98 377.44,168.98 C380.46,168.98 382.01,171.25 382.01,173.78z  M375.42 173.8 C375.42,175.45 376.19,176.5 377.44,176.5 C378.53,176.5 379.35,175.56 379.35,173.84 C379.35,172.37 378.75,171.16 377.33,171.16 C376.24,171.16 375.42,172.13 375.42,173.8z "/><path id="_R_G_L_5_G_L_7_G_D_13_P_0" fill="#5a5a5a" fill-opacity="1" fill-rule="nonzero" d=" M386.11 165.2 C386.26,165.2 386.3,165.22 386.3,165.35 C386.3,165.35 386.3,169.19 386.3,169.19 C386.79,169.06 387.31,168.98 387.87,168.98 C390.63,168.98 392.37,170.93 392.37,173.44 C392.37,176.95 389.6,178.67 386.75,178.67 C385.76,178.67 384.76,178.54 383.81,178.24 C383.75,178.22 383.69,178.13 383.69,178.05 C383.69,178.05 383.69,165.33 383.69,165.33 C383.69,165.24 383.73,165.2 383.83,165.2 C383.83,165.2 386.11,165.2 386.11,165.2z  M387.4 171.2 C386.8,171.2 386.54,171.29 386.3,171.35 C386.3,171.35 386.3,176.42 386.3,176.42 C386.52,176.48 386.77,176.5 386.99,176.5 C388.42,176.5 389.71,175.64 389.71,173.69 C389.71,171.98 388.72,171.2 387.4,171.2z "/><path id="_R_G_L_5_G_L_7_G_D_14_P_0" fill="#5a5a5a" fill-opacity="1" fill-rule="nonzero" d=" M396.28 174.51 C396.37,175.58 397.12,176.46 398.96,176.46 C399.8,176.46 400.55,176.33 401.26,176.03 C401.32,175.99 401.38,176.01 401.38,176.12 C401.38,176.12 401.38,177.9 401.38,177.9 C401.38,178.03 401.34,178.09 401.25,178.13 C400.5,178.48 399.67,178.67 398.38,178.67 C394.86,178.67 393.62,176.25 393.62,173.93 C393.62,171.34 395.21,168.98 398.15,168.98 C400.98,168.98 402.11,171.18 402.11,173.03 C402.11,173.61 402.07,174.08 402.01,174.29 C402,174.38 401.96,174.42 401.86,174.44 C401.62,174.47 400.91,174.51 399.93,174.51 C399.93,174.51 396.28,174.51 396.28,174.51z  M398.72 172.69 C399.32,172.69 399.58,172.67 399.65,172.66 C399.65,172.62 399.65,172.54 399.65,172.53 C399.65,172.08 399.3,171.05 398.06,171.05 C396.88,171.05 396.37,171.93 396.26,172.69 C396.26,172.69 398.72,172.69 398.72,172.69z "/><path id="_R_G_L_5_G_L_7_G_D_15_P_0" fill="#5a5a5a" fill-opacity="1" fill-rule="nonzero" d=" M410.36 175.56 C410.36,175.56 409.46,178.33 409.46,178.33 C409.43,178.43 409.37,178.48 409.26,178.48 C409.26,178.48 407.09,178.48 407.09,178.48 C406.95,178.48 406.92,178.41 406.94,178.3 C406.94,178.3 410.68,167.49 410.68,167.49 C410.76,167.28 410.83,167.05 410.87,166.34 C410.87,166.27 410.93,166.21 410.98,166.21 C410.98,166.21 413.98,166.21 413.98,166.21 C414.08,166.21 414.11,166.23 414.13,166.32 C414.13,166.32 418.38,178.31 418.38,178.31 C418.42,178.41 418.4,178.48 418.29,178.48 C418.29,178.48 415.85,178.48 415.85,178.48 C415.74,178.48 415.69,178.45 415.65,178.35 C415.65,178.35 414.69,175.56 414.69,175.56 C414.69,175.56 410.36,175.56 410.36,175.56z  M414 173.22 C413.63,171.98 412.88,169.71 412.52,168.38 C412.52,168.38 412.5,168.38 412.5,168.38 C412.2,169.64 411.53,171.7 411.04,173.22 C411.04,173.22 414,173.22 414,173.22z "/><path id="_R_G_L_5_G_L_7_G_D_16_P_0" fill="#5a5a5a" fill-opacity="1" fill-rule="nonzero" d=" M426.08 178.22 C426.08,178.31 426.06,178.35 425.98,178.37 C425.38,178.61 424.62,178.67 423.89,178.67 C420.85,178.67 418.94,176.63 418.94,173.87 C418.94,171.06 421.06,168.98 424.24,168.98 C425.16,168.98 425.67,169.08 425.97,169.19 C426.06,169.23 426.08,169.28 426.08,169.4 C426.08,169.4 426.06,171.33 426.06,171.33 C426.06,171.46 425.98,171.48 425.91,171.46 C425.55,171.33 425.03,171.23 424.34,171.23 C422.76,171.23 421.62,172.09 421.62,173.78 C421.62,175.73 423.06,176.37 424.37,176.37 C425.03,176.37 425.61,176.29 425.93,176.2 C426.04,176.16 426.08,176.2 426.08,176.27 C426.08,176.27 426.08,178.22 426.08,178.22z "/><path id="_R_G_L_5_G_L_7_G_D_17_P_0" fill="#5a5a5a" fill-opacity="1" fill-rule="nonzero" d=" M429.73 169.17 C429.86,169.17 429.92,169.23 429.95,169.34 C430.05,169.58 430.14,169.98 430.16,170.39 C430.78,169.66 431.81,168.98 433.14,168.98 C433.25,168.98 433.29,169.02 433.29,169.13 C433.29,169.13 433.29,171.44 433.29,171.44 C433.29,171.53 433.25,171.57 433.12,171.57 C431.77,171.51 430.68,171.93 430.29,172.38 C430.29,172.38 430.27,178.33 430.27,178.33 C430.27,178.45 430.23,178.48 430.1,178.48 C430.1,178.48 427.85,178.48 427.85,178.48 C427.7,178.48 427.67,178.43 427.67,178.32 C427.67,178.32 427.67,171.85 427.67,171.85 C427.67,171.05 427.65,169.96 427.57,169.3 C427.57,169.21 427.59,169.17 427.69,169.17 C427.69,169.17 429.73,169.17 429.73,169.17z "/><path id="_R_G_L_5_G_L_7_G_D_18_P_0" fill="#5a5a5a" fill-opacity="1" fill-rule="nonzero" d=" M443.35 173.78 C443.35,176.72 441.44,178.67 438.74,178.67 C435.53,178.67 434.11,176.25 434.11,173.84 C434.11,171.18 435.89,168.98 438.78,168.98 C441.79,168.98 443.35,171.25 443.35,173.78z  M436.75 173.8 C436.75,175.45 437.52,176.5 438.78,176.5 C439.86,176.5 440.69,175.56 440.69,173.84 C440.69,172.37 440.09,171.16 438.66,171.16 C437.58,171.16 436.75,172.13 436.75,173.8z "/><path id="_R_G_L_5_G_L_7_G_D_19_P_0" fill="#5a5a5a" fill-opacity="1" fill-rule="nonzero" d=" M447.45 165.2 C447.6,165.2 447.63,165.22 447.63,165.35 C447.63,165.35 447.63,169.19 447.63,169.19 C448.12,169.06 448.65,168.98 449.21,168.98 C451.96,168.98 453.7,170.93 453.7,173.44 C453.7,176.95 450.93,178.67 448.08,178.67 C447.09,178.67 446.1,178.54 445.14,178.24 C445.09,178.22 445.03,178.13 445.03,178.05 C445.03,178.05 445.03,165.33 445.03,165.33 C445.03,165.24 445.07,165.2 445.16,165.2 C445.16,165.2 447.45,165.2 447.45,165.2z  M448.74 171.2 C448.14,171.2 447.88,171.29 447.63,171.35 C447.63,171.35 447.63,176.42 447.63,176.42 C447.86,176.48 448.1,176.5 448.33,176.5 C449.75,176.5 451.04,175.64 451.04,173.69 C451.04,171.98 450.05,171.2 448.74,171.2z "/><path id="_R_G_L_5_G_L_7_G_D_20_P_0" fill="#5a5a5a" fill-opacity="1" fill-rule="nonzero" d=" M462.69 176.4 C462.69,176.89 462.69,177.28 462.73,177.73 C462.73,177.77 462.73,177.81 462.69,177.83 C461.04,178.46 459.96,178.67 458.61,178.67 C456.53,178.67 454.82,177.71 454.82,175.54 C454.82,173.56 456.56,172.51 459.06,172.51 C459.56,172.51 459.99,172.51 460.16,172.54 C460.16,172.54 460.16,172.41 460.16,172.41 C460.16,172.06 459.94,171.23 458.36,171.23 C457.43,171.23 456.6,171.42 455.89,171.74 C455.81,171.78 455.72,171.74 455.72,171.64 C455.72,171.64 455.72,169.75 455.72,169.75 C455.72,169.66 455.74,169.6 455.85,169.57 C456.68,169.17 457.75,168.98 458.79,168.98 C461.49,168.98 462.69,170.65 462.69,172.79 C462.69,172.79 462.69,176.4 462.69,176.4z  M460.16 174.47 C459.86,174.44 459.6,174.42 459.23,174.42 C457.89,174.42 457.35,174.85 457.35,175.52 C457.35,176.14 457.82,176.65 459,176.65 C459.43,176.65 459.8,176.59 460.16,176.48 C460.16,176.48 460.16,174.47 460.16,174.47z "/><path id="_R_G_L_5_G_L_7_G_D_21_P_0" fill="#5a5a5a" fill-opacity="1" fill-rule="nonzero" d=" M469.43 178.16 C469.43,178.28 469.41,178.37 469.3,178.41 C468.78,178.6 468.29,178.67 467.63,178.67 C466,178.67 465.05,177.86 465.05,175.99 C465.05,175.99 465.05,171.34 465.05,171.34 C465.05,171.34 463.92,171.34 463.92,171.34 C463.81,171.33 463.77,171.29 463.77,171.18 C463.77,171.18 463.77,169.34 463.77,169.34 C463.77,169.21 463.81,169.17 463.94,169.17 C463.94,169.17 465.07,169.17 465.07,169.17 C465.08,168.53 465.16,167.43 465.25,166.91 C465.27,166.81 465.33,166.76 465.42,166.74 C465.42,166.74 467.61,166.46 467.61,166.46 C467.71,166.44 467.76,166.44 467.76,166.57 C467.71,167.15 467.67,168.25 467.67,169.17 C467.67,169.17 469.4,169.17 469.4,169.17 C469.51,169.17 469.55,169.21 469.55,169.32 C469.55,169.32 469.55,171.21 469.55,171.21 C469.55,171.31 469.51,171.33 469.41,171.34 C469.41,171.34 467.65,171.34 467.65,171.34 C467.65,171.34 467.65,175.35 467.65,175.35 C467.65,176.18 467.9,176.55 468.66,176.55 C468.89,176.55 469.08,176.52 469.3,176.48 C469.38,176.48 469.43,176.5 469.43,176.61 C469.43,176.61 469.43,178.16 469.43,178.16z "/><path id="_R_G_L_5_G_L_7_G_D_22_P_0" stroke="#707070" stroke-linecap="round" stroke-linejoin="round" fill="none" stroke-width="0.988" stroke-opacity="1" d=" M298.9 172.21 C298.9,172.21 288.67,172.21 288.67,172.21 "/><path id="_R_G_L_5_G_L_7_G_D_23_P_0" stroke="#707070" stroke-linecap="round" stroke-linejoin="round" fill="none" stroke-width="0.988" stroke-opacity="1" d=" M294.08 167.01 C294.08,167.01 288.67,172.21 288.67,172.21 C288.67,172.21 294.04,177.41 294.04,177.41 "/><path id="_R_G_L_5_G_L_7_G_D_24_P_0" fill="#4066cf" fill-opacity="1" fill-rule="nonzero" d=" M883.13 84.75 C883.13,84.75 140.87,84.75 140.87,84.75 C134.95,84.75 130.15,89.55 130.15,95.47 C130.15,95.47 130.15,132.07 130.15,132.07 C130.15,132.07 893.85,132.07 893.85,132.07 C893.85,132.07 893.85,95.47 893.85,95.47 C893.85,89.55 889.05,84.75 883.13,84.75z "/><path id="_R_G_L_5_G_L_7_G_D_25_P_0" fill="#9fb2e6" fill-opacity="1" fill-rule="nonzero" d=" M797.54 112.84 C797.54,112.84 761.22,112.84 761.22,112.84 C758.77,112.84 756.78,110.86 756.78,108.41 C756.78,108.41 756.78,108.41 756.78,108.41 C756.78,105.96 758.77,103.98 761.22,103.98 C761.22,103.98 797.54,103.98 797.54,103.98 C799.99,103.98 801.97,105.96 801.97,108.41 C801.97,108.41 801.97,108.41 801.97,108.41 C801.97,110.86 799.99,112.84 797.54,112.84z "/><path id="_R_G_L_5_G_L_7_G_D_26_P_0" fill="#9fb2e6" fill-opacity="1" fill-rule="nonzero" d=" M241.71 112.84 C241.71,112.84 205.39,112.84 205.39,112.84 C202.94,112.84 200.95,110.86 200.95,108.41 C200.95,108.41 200.95,108.41 200.95,108.41 C200.95,105.96 202.94,103.98 205.39,103.98 C205.39,103.98 241.71,103.98 241.71,103.98 C244.16,103.98 246.14,105.96 246.14,108.41 C246.14,108.41 246.14,108.41 246.14,108.41 C246.14,110.86 244.16,112.84 241.71,112.84z "/><path id="_R_G_L_5_G_L_7_G_D_27_P_0" fill="#81868b" fill-opacity="1" fill-rule="nonzero" d=" M861.84 116.01 C861.84,116.01 840.03,116.01 840.03,116.01 C835.84,116.01 832.44,112.61 832.44,108.41 C832.44,108.41 832.44,108.41 832.44,108.41 C832.44,104.21 835.84,100.81 840.03,100.81 C840.03,100.81 861.84,100.81 861.84,100.81 C866.04,100.81 869.44,104.21 869.44,108.41 C869.44,108.41 869.44,108.41 869.44,108.41 C869.44,112.61 866.04,116.01 861.84,116.01z "/><path id="_R_G_L_5_G_L_7_G_D_28_P_0" fill="#ffffff" fill-opacity="1" fill-rule="nonzero" d=" M830.02 108.41 C830.02,114.19 834.7,118.87 840.48,118.87 C846.25,118.87 850.94,114.19 850.94,108.41 C850.94,102.63 846.25,97.95 840.48,97.95 C834.7,97.95 830.02,102.63 830.02,108.41z "/><path id="_R_G_L_5_G_L_7_G_D_29_P_0" fill="#3250a2" fill-opacity="1" fill-rule="nonzero" d=" M741.1 124.77 C741.1,124.77 271.97,124.77 271.97,124.77 C271.97,124.77 271.97,94.55 271.97,94.55 C271.97,94.55 741.1,94.55 741.1,94.55 C741.1,94.55 741.1,124.77 741.1,124.77z "/><path id="_R_G_L_5_G_L_7_G_D_30_P_0" fill="#ffffff" fill-opacity="1" fill-rule="nonzero" d=" M180.09 100.69 C180.09,100.69 150.67,100.69 150.67,100.69 C150.67,100.69 150.67,96.44 150.67,96.44 C150.67,96.44 180.09,96.44 180.09,96.44 C180.09,96.44 180.09,100.69 180.09,100.69z "/><path id="_R_G_L_5_G_L_7_G_D_31_P_0" fill="#ffffff" fill-opacity="1" fill-rule="nonzero" d=" M180.09 110.53 C180.09,110.53 150.67,110.53 150.67,110.53 C150.67,110.53 150.67,106.29 150.67,106.29 C150.67,106.29 180.09,106.29 180.09,106.29 C180.09,106.29 180.09,110.53 180.09,110.53z "/><path id="_R_G_L_5_G_L_7_G_D_32_P_0" fill="#ffffff" fill-opacity="1" fill-rule="nonzero" d=" M180.09 120.38 C180.09,120.38 150.67,120.38 150.67,120.38 C150.67,120.38 150.67,116.13 150.67,116.13 C150.67,116.13 180.09,116.13 180.09,116.13 C180.09,116.13 180.09,120.38 180.09,120.38z "/></g><g id="_R_G_L_5_G_L_6_G_N_8_T_0"><g id="_R_G_L_5_G_L_6_G"><path id="_R_G_L_5_G_L_6_G_D_0_P_0" fill="#2f2f2f" fill-opacity="1" fill-rule="nonzero" d=" M311.59 384.09 C311.57,383.78 310.6,383.35 309.85,383.01 C309.65,382.93 309.52,382.84 309.52,382.77 C309.52,382.66 309.74,382.57 310.28,382.56 C311.05,382.68 311.77,382.86 312.35,383.04 C312.73,383.19 312.82,383.31 312.82,383.49 C312.82,383.64 312.76,383.8 312.76,384.07 C312.76,384.07 312.76,390.62 312.76,390.62 C312.76,390.62 313.66,390.62 313.66,390.62 C314.51,390.5 314.22,390.15 315.37,390.15 C315.72,390.15 316.47,390.15 316.47,390.71 C316.47,390.96 316.26,391.18 315.86,391.18 C315.86,391.18 312.74,391.18 312.74,391.18 C312.74,391.18 312.73,396.4 312.73,396.4 C312.71,397.57 312.58,398.31 312.28,399.07 C312.13,399.28 311.99,399.39 311.86,399.39 C311.7,399.39 311.59,399.16 311.59,398.56 C311.59,398.56 311.59,392.71 311.59,392.71 C309.14,393.57 306.17,394.22 303.58,394.64 C303.26,394.75 303.26,394.92 302.97,394.92 C302.68,394.92 302.09,394.73 300.52,393.99 C300.34,393.88 300.25,393.79 300.25,393.72 C300.25,393.65 300.34,393.59 300.5,393.59 C300.57,393.59 300.64,393.59 300.72,393.61 C301.47,393.72 302.19,393.77 302.91,393.77 C304.32,393.77 305.72,393.57 307.29,393.29 C307.54,392.24 307.92,390.19 308.01,388.91 C307.97,388.48 307.54,388.12 307.13,387.87 C306.93,387.78 306.82,387.69 306.82,387.61 C306.82,387.52 306.96,387.47 307.22,387.47 C307.9,387.47 309.05,388.05 309.05,388.05 C309.27,388.15 309.34,388.26 309.34,388.41 C309.34,388.42 308.32,391.83 307.83,393.21 C308.62,393.09 309.83,392.89 311.59,392.33 C311.59,392.33 311.59,384.09 311.59,384.09z  M307.4 385.98 C308.55,385.89 307.76,385.49 309.47,385.49 C309.77,385.49 310.58,385.49 310.58,385.98 C310.58,386.23 310.26,386.46 309.61,386.46 C307.45,386.48 305.4,386.57 303.71,386.7 C303.22,386.79 303.11,386.95 302.86,386.95 C302.54,386.95 301.11,386.28 301.11,385.99 C301.11,385.94 301.17,385.9 301.26,385.9 C301.35,385.9 301.46,385.92 301.6,385.96 C302.41,386.1 303.35,386.14 304.23,386.14 C305.24,386.14 306.19,386.08 306.82,386.05 C306.82,386.05 307.4,385.98 307.4,385.98z  M304.43 392.82 C304.25,392.82 304.07,392.57 304.01,392.12 C303.92,391.63 304.05,390.51 302.97,388.46 C302.82,388.25 302.77,388.08 302.77,387.99 C302.77,387.94 302.79,387.9 302.84,387.9 C302.93,387.9 303.08,387.99 303.29,388.21 C304.35,389.38 305.06,390.21 305.06,391.11 C305.06,392.15 304.75,392.82 304.43,392.82z "/><path id="_R_G_L_5_G_L_6_G_D_1_P_0" fill="#2f2f2f" fill-opacity="1" fill-rule="nonzero" d=" M322.1 384.75 C322.43,384.73 322.59,384.57 322.59,384.35 C322.59,384.28 322.57,384.18 322.52,384.09 C322.39,383.98 322.3,383.87 322.3,383.78 C322.3,383.73 322.35,383.67 322.52,383.67 C323,383.67 323.6,384.01 323.6,384.27 C323.6,384.46 323.36,384.63 323.29,384.79 C325.36,385.04 326.49,386.34 326.49,387.9 C326.49,389.65 325.02,390.96 322.68,390.96 C320.3,390.96 319,389.43 319,387.85 C319,386.48 319.96,385.11 321.98,384.79 C321.98,384.79 322.1,384.75 322.1,384.75z  M320.1 387.87 C320.1,389.07 320.95,390.26 322.66,390.26 C324.55,390.26 325.49,389.07 325.49,387.87 C325.49,386.68 324.55,385.47 322.66,385.47 C320.95,385.47 320.1,386.68 320.1,387.87z  M323.52 396.33 C323.49,396.13 323.15,396.01 322.57,395.86 C322.39,395.81 322.23,395.75 322.23,395.68 C322.23,395.64 322.43,395.45 323.04,395.45 C323.79,395.45 324.6,395.57 324.8,395.66 C326.46,395.66 327.47,395.66 329.18,395.59 C329.59,395.55 329.77,395.5 330.13,395.43 C330.17,395.14 330.24,394.15 330.29,393.25 C329.14,393.25 326.71,393.36 324.96,393.43 C324.44,393.54 324.35,393.74 324.05,393.74 C323.67,393.74 322.28,393.14 322.28,392.93 C322.28,392.87 322.37,392.84 322.57,392.84 C322.64,392.84 322.73,392.84 322.84,392.85 C323.45,392.91 324.32,392.94 325.31,392.94 C326.76,392.94 328.48,392.87 329.9,392.78 C330.24,392.73 330.2,392.66 330.58,392.66 C330.69,392.66 330.82,392.66 331,392.67 C331.54,392.71 331.7,392.8 331.7,392.94 C331.7,393.07 331.52,393.25 331.45,393.43 C331.21,393.97 330.94,394.73 330.82,395.34 C331.3,395.43 331.55,395.61 331.55,395.75 C331.55,395.9 331.34,396 330.94,396 C329.57,396.04 326.89,396.09 324.96,396.11 C324.78,396.22 324.64,396.19 324.64,396.4 C324.64,396.4 324.64,397.97 324.64,397.97 C324.66,398.31 324.82,398.38 325.09,398.38 C325.45,398.38 325.99,398.4 326.62,398.4 C327.54,398.4 328.64,398.38 329.72,398.36 C330.8,398.24 330.46,397.9 331.57,397.9 C332.06,397.9 332.96,397.9 332.96,398.42 C332.96,398.63 332.74,398.83 332.35,398.83 C332.35,398.83 325.13,398.83 325.13,398.83 C323.81,398.83 323.52,398.36 323.52,397.84 C323.52,397.84 323.52,396.33 323.52,396.33z  M330.33 384.27 C330.33,383.94 329.77,383.53 328.76,383.15 C328.46,383.04 328.3,382.93 328.3,382.84 C328.3,382.74 328.51,382.66 328.94,382.63 C329.03,382.63 331.54,382.95 331.54,383.51 C331.54,383.64 331.46,383.8 331.46,384.03 C331.46,384.03 331.46,389.18 331.46,389.18 C331.46,389.94 331.39,391.02 331.18,391.67 C331.01,392.08 330.82,392.29 330.65,392.29 C330.49,392.29 330.37,392.04 330.37,391.47 C330.37,391.47 330.33,384.27 330.33,384.27z "/><path id="_R_G_L_5_G_L_6_G_D_2_P_0" fill="#2f2f2f" fill-opacity="1" fill-rule="nonzero" d=" M350.08 392.33 C350.08,396.46 347.95,398.06 345.21,398.06 C342.66,398.06 340.62,396.56 340.62,392.42 C340.62,392.42 340.62,384.14 340.62,384.14 C340.62,384.14 342.12,384.14 342.12,384.14 C342.12,384.14 342.12,392.44 342.12,392.44 C342.12,395.56 343.49,396.82 345.29,396.82 C347.27,396.82 348.58,395.48 348.58,392.44 C348.58,392.44 348.58,384.14 348.58,384.14 C348.58,384.14 350.08,384.14 350.08,384.14 C350.08,384.14 350.08,392.33 350.08,392.33z "/><path id="_R_G_L_5_G_L_6_G_D_3_P_0" fill="#2f2f2f" fill-opacity="1" fill-rule="nonzero" d=" M358.48 391.27 C359.54,391.61 360.17,392.64 360.5,394.13 C360.93,396.11 361.23,397.32 361.5,397.84 C361.5,397.84 359.96,397.84 359.96,397.84 C359.74,397.45 359.43,396.24 359.07,394.53 C358.68,392.62 357.92,391.77 356.3,391.77 C356.3,391.77 354.63,391.77 354.63,391.77 C354.63,391.77 354.63,397.84 354.63,397.84 C354.63,397.84 353.13,397.84 353.13,397.84 C353.13,397.84 353.13,384.32 353.13,384.32 C353.98,384.14 355.17,384.03 356.25,384.03 C358.03,384.03 359.2,384.39 360.01,385.15 C360.66,385.74 361.04,386.68 361.04,387.7 C361.04,389.52 359.94,390.69 358.48,391.22 C358.48,391.22 358.48,391.27 358.48,391.27z  M356.39 390.62 C358.3,390.62 359.52,389.54 359.52,387.88 C359.52,385.85 357.99,385.22 356.32,385.22 C355.51,385.22 354.93,385.29 354.63,385.36 C354.63,385.36 354.63,390.62 354.63,390.62 C354.63,390.62 356.39,390.62 356.39,390.62z "/><path id="_R_G_L_5_G_L_6_G_D_4_P_0" fill="#2f2f2f" fill-opacity="1" fill-rule="nonzero" d=" M370.67 397.84 C370.67,397.84 363.5,397.84 363.5,397.84 C363.5,397.84 363.5,384.12 363.5,384.12 C363.5,384.12 364.99,384.12 364.99,384.12 C364.99,384.12 364.99,396.56 364.99,396.56 C364.99,396.56 370.67,396.56 370.67,396.56 C370.67,396.56 370.67,397.84 370.67,397.84z "/><path id="_R_G_L_5_G_L_6_G_D_5_P_0" fill="#2f2f2f" fill-opacity="1" fill-rule="nonzero" d=" M380.62 385.96 C380.87,385.96 381.12,385.81 381.12,385.58 C381.12,385.49 381.09,385.4 381.03,385.29 C380.93,385.17 380.87,385.08 380.87,385.02 C380.87,384.97 380.93,384.93 381.03,384.93 C381.43,384.93 382.02,385.2 382.02,385.45 C382.02,385.63 381.83,385.8 381.81,385.99 C383.63,386.39 384.44,387.56 384.44,388.71 C384.44,390.15 383.23,391.58 381.21,391.58 C379.03,391.58 377.79,390.17 377.79,388.68 C377.79,387.47 378.69,386.26 380.62,385.96z  M378.8 388.79 C378.8,389.83 379.59,390.87 381.14,390.87 C382.69,390.87 383.46,389.83 383.46,388.79 C383.46,387.74 382.69,386.68 381.14,386.68 C379.59,386.68 378.8,387.74 378.8,388.79z  M389.06 393.77 C387.97,393.83 385.07,393.94 382.83,394.01 C382.15,394.04 382.04,394.31 381.66,394.31 C381.18,394.31 379.83,393.63 379.83,393.43 C379.83,393.38 379.9,393.34 380.06,393.34 C380.13,393.34 380.21,393.34 380.31,393.36 C380.98,393.47 381.97,393.5 383.07,393.5 C384.83,393.5 386.87,393.41 388.33,393.34 C388.78,393.34 388.74,393.14 389.28,393.14 C389.35,393.14 389.44,393.14 389.55,393.16 C390.23,393.2 390.4,393.31 390.4,393.43 C390.4,393.58 390.22,393.77 390.22,394.01 C390.22,396.51 390.22,397.55 389.95,398.67 C389.8,399.17 389.55,399.48 389.35,399.48 C389.19,399.48 389.06,399.28 389.06,398.83 C389.06,398.83 389.06,393.77 389.06,393.77z  M386.08 384.93 C386.04,384.52 385.52,384.25 384.89,383.96 C384.71,383.87 384.49,383.76 384.49,383.67 C384.49,383.6 384.65,383.53 385.12,383.49 C386.94,383.8 387.21,383.96 387.21,384.21 C387.21,384.32 387.16,384.45 387.16,384.61 C387.16,384.61 387.16,388.73 387.16,388.73 C387.16,388.73 389.41,388.66 389.41,388.66 C389.41,388.66 389.41,384.25 389.41,384.25 C389.39,383.87 388.72,383.47 387.97,383.1 C387.79,383.04 387.62,382.95 387.62,382.86 C387.62,382.77 387.79,382.68 388.2,382.66 C390.23,383.06 390.56,383.31 390.56,383.6 C390.56,383.74 390.49,383.91 390.49,384.09 C390.49,384.09 390.38,390.15 390.38,390.15 C390.34,391.23 390.02,391.85 389.77,391.85 C389.6,391.85 389.44,391.56 389.42,390.93 C389.42,390.93 389.41,389.16 389.41,389.16 C389.41,389.16 387.16,389.22 387.16,389.22 C387.16,389.22 387.07,390.57 387.07,390.57 C386.98,391.47 386.67,392.01 386.42,392.01 C386.24,392.01 386.08,391.74 386.08,391.13 C386.08,391.13 386.08,384.93 386.08,384.93z "/><path id="_R_G_L_5_G_L_6_G_D_6_P_0" fill="#2f2f2f" fill-opacity="1" fill-rule="nonzero" d=" M399.46 387.04 C399.45,386.84 399.03,386.52 398.4,386.08 C398.06,385.9 397.97,385.69 398.67,385.69 C398.98,385.69 400.82,386.34 400.82,386.8 C400.82,387.07 399.45,389.65 399.34,389.83 C399.66,390.28 400.02,390.71 400.31,391.02 C400.94,391.77 401.54,391.54 401.82,393.32 C401.82,393.38 401.84,393.43 401.84,393.47 C401.84,393.81 401.66,394.04 401.45,394.04 C401.3,394.04 401.12,393.93 400.98,393.68 C400.56,392.98 399.95,391.63 399.03,390.21 C397.27,392.53 395.11,394.35 394.6,394.35 C394.57,394.35 394.53,394.33 394.53,394.29 C394.53,394.22 394.66,394.08 394.89,393.88 C396.53,392.37 398.31,390.26 399.41,387.16 C399.41,387.16 399.46,387.04 399.46,387.04z  M404.51 385.56 C404.51,385.13 403.8,384.77 403.1,384.43 C402.89,384.34 402.67,384.21 402.67,384.1 C402.67,384.01 402.81,383.94 403.26,383.92 C403.91,383.98 404.63,384.21 405.14,384.35 C405.53,384.5 405.62,384.68 405.62,384.86 C405.62,385 405.57,385.15 405.57,385.31 C405.57,385.31 405.53,395.03 405.53,395.03 C405.5,397.39 405.05,398.02 404.81,398.02 C404.61,398.02 404.51,397.59 404.51,396.71 C404.51,396.71 404.51,390.04 404.51,390.04 C404.51,390.04 402.83,390.12 402.83,390.12 C402.31,390.21 402.22,390.39 402,390.39 C401.73,390.39 400.65,389.92 400.65,389.69 C400.65,389.63 400.76,389.58 400.96,389.58 C401.09,389.58 401.7,389.61 401.84,389.61 C402.78,389.61 403.66,389.56 404.51,389.52 C404.51,389.52 404.51,385.56 404.51,385.56z  M407.41 384.27 C407.39,383.96 406.72,383.51 406,383.11 C405.73,383.01 405.59,382.9 405.59,382.81 C405.59,382.7 405.77,382.65 406.18,382.63 C407.04,382.79 407.75,383.06 408.18,383.19 C408.48,383.33 408.56,383.45 408.56,383.6 C408.56,383.73 408.48,383.87 408.48,384.07 C408.48,384.07 408.48,396.8 408.48,396.8 C408.41,398.47 408.09,399.35 407.75,399.46 C407.59,399.46 407.42,399.28 407.41,398.36 C407.41,398.36 407.41,384.27 407.41,384.27z "/><path id="_R_G_L_5_G_L_6_G_D_7_P_0" fill="#2f2f2f" fill-opacity="1" fill-rule="nonzero" d=" M424.78 396.24 C425.53,396.19 425.44,395.84 426.4,395.84 C426.83,395.84 428.27,395.9 428.27,396.47 C428.27,396.71 428.03,396.91 427.66,396.91 C427.66,396.91 427.58,396.91 427.58,396.91 C426.11,396.8 424.18,396.78 422.54,396.78 C420.24,396.78 417.92,396.87 415.59,397.01 C414.96,397.16 414.89,397.41 414.57,397.41 C414.22,397.41 412.17,396.58 412.17,396.24 C412.17,396.19 412.23,396.15 412.37,396.15 C412.48,396.15 412.6,396.17 412.77,396.2 C413.49,396.4 414.75,396.46 416.31,396.46 C418.47,396.46 421.23,396.35 424.06,396.29 C424.06,396.29 424.78,396.24 424.78,396.24z  M418.74 384.52 C418.6,384.43 418.46,384.32 418.46,384.23 C418.46,384.14 418.62,384.07 419.1,384.07 C419.86,384.27 420.45,384.48 421.41,385.06 C421.53,385.18 421.57,385.29 421.57,385.4 C421.57,385.72 420.4,387.25 420.18,387.6 C420.94,388.06 422.13,388.6 422.89,388.91 C424.15,389.42 423.71,388.5 426.52,390.37 C426.92,390.66 427.08,390.93 427.08,391.14 C427.08,391.34 426.94,391.47 426.68,391.47 C426.5,391.47 426.29,391.41 426.04,391.27 C424.7,390.6 421.72,389.16 419.82,387.97 C417,391.02 413.34,392.31 412.95,392.31 C412.87,392.31 412.82,392.3 412.82,392.26 C412.82,392.19 412.95,392.08 413.27,391.92 C415.88,390.78 418.92,387.88 419.97,385.72 C419.97,385.36 419.45,384.97 418.74,384.52z "/><path id="_R_G_L_5_G_L_6_G_D_8_P_0" fill="#2f2f2f" fill-opacity="1" fill-rule="nonzero" d=" M440.76 387.07 C442.23,386.98 441.41,386.59 443.37,386.53 C444.18,386.55 444.52,386.82 444.52,387.06 C444.52,387.09 444.52,387.45 443.82,387.45 C442.67,387.51 439.95,387.58 437.75,387.67 C437.16,387.8 437.03,388.01 436.67,388.01 C436.22,388.01 434.76,387.35 434.76,387.09 C434.76,387.04 434.83,387 435,387 C435.07,387 435.18,387 435.28,387.02 C436.18,387.11 437.1,387.15 437.95,387.15 C438.36,387.15 440.31,387.07 440.76,387.07z  M439.06 389.02 C439.33,388.98 439.64,388.95 439.64,388.64 C439.64,388.55 439.6,388.46 439.51,388.37 C439.39,388.26 439.32,388.17 439.32,388.12 C439.32,388.06 439.39,388.03 439.51,388.03 C440.04,388.03 440.54,388.37 440.54,388.59 C440.54,388.75 440.36,388.89 440.31,389.05 C442.25,389.36 443.17,390.6 443.17,391.83 C443.17,393.25 441.96,394.67 439.77,394.67 C437.46,394.67 436.24,393.25 436.24,391.81 C436.24,390.57 437.14,389.34 439.06,389.02z  M439.01 385.33 C438.47,385.33 437.16,384.34 437.16,384.16 C437.16,384.1 437.21,384.07 437.37,384.07 C437.44,384.07 437.55,384.09 437.7,384.1 C438.99,384.37 440.09,384.37 441.41,384.37 C441.85,384.39 442.13,384.61 442.13,384.82 C442.13,385.06 441.78,385.29 440.97,385.31 C440.97,385.31 439.01,385.33 439.01,385.33z  M437.3 391.74 C437.3,392.8 438.13,393.88 439.77,393.88 C441.33,393.88 442.11,392.8 442.11,391.74 C442.11,390.66 441.33,389.58 439.77,389.58 C438.13,389.58 437.3,390.66 437.3,391.74z  M446.95 384.28 C446.95,383.87 446.1,383.38 445.38,383.08 C445.17,382.99 444.84,382.84 444.84,382.72 C444.84,382.59 445.24,382.52 445.4,382.52 C446.03,382.52 447.2,382.88 447.56,383.02 C448.03,383.2 448.14,383.35 448.14,383.53 C448.14,383.67 448.07,383.83 448.07,384.05 C448.07,384.05 448.03,394.8 448.03,394.8 C448.03,397.97 447.89,398.83 447.51,399.37 C447.42,399.52 447.33,399.59 447.26,399.59 C447.1,399.59 446.95,399.3 446.95,398.56 C446.95,398.56 446.95,390.64 446.95,390.64 C446.95,390.64 445.15,390.73 445.15,390.73 C444.72,390.78 444.68,390.93 444.48,390.93 C444.27,390.93 443.03,390.51 443.03,390.23 C443.03,390.17 443.12,390.14 443.3,390.14 C443.49,390.14 444.47,390.17 444.68,390.17 C445.42,390.17 446.09,390.14 446.95,390.08 C446.95,390.08 446.95,384.28 446.95,384.28z "/><path id="_R_G_L_5_G_L_6_G_D_9_P_0" fill="#2f2f2f" fill-opacity="1" fill-rule="nonzero" d=" M460.9 383.6 C463.13,383.91 464.14,385.17 464.14,386.44 C464.14,387.31 463.6,388.05 462.92,388.5 C463.39,388.84 463.51,389.02 463.51,389.16 C463.51,389.33 463.37,389.43 463.31,389.63 C463.17,390.53 463.1,390.95 463.01,391.31 C463.12,391.31 463.24,391.32 463.37,391.32 C463.89,391.32 464.52,391.27 465.01,391.25 C466.16,391.22 465.87,390.82 466.84,390.82 C467.27,390.82 468.61,390.86 468.61,391.4 C468.61,391.61 468.39,391.81 468.07,391.81 C467.8,391.81 466.45,391.79 466.16,391.79 C462.63,391.79 456.65,391.94 455.91,392.04 C455.39,392.15 455.28,392.33 454.98,392.33 C454.6,392.33 452.6,391.59 452.6,391.27 C452.6,391.2 452.69,391.16 452.83,391.16 C452.91,391.16 453,391.16 453.09,391.18 C454.71,391.38 456.15,391.47 457.5,391.43 C457.48,391.09 457.44,390.73 457.41,390.08 C457.41,389.97 457.19,389.83 456.71,389.63 C456.51,389.56 456.4,389.49 456.4,389.42 C456.4,389.34 456.58,389.25 456.96,389.22 C458.27,389.33 458.45,389.45 458.45,389.67 C458.45,389.74 458.43,389.83 458.43,389.96 C458.43,389.97 458.47,391.2 458.47,391.41 C459.19,391.43 460.56,391.4 462.09,391.34 C462.14,391.09 462.21,389.92 462.25,389.13 C462.23,389.06 462.18,388.97 462.16,388.89 C461.69,389.09 461.13,389.2 460.5,389.2 C458.15,389.2 456.78,387.76 456.78,386.28 C456.78,385.08 457.71,383.91 459.68,383.6 C459.95,383.6 460.07,383.38 460.07,383.24 C460.07,383.13 460.04,383 459.93,382.9 C459.82,382.79 459.77,382.68 459.77,382.63 C459.77,382.56 459.84,382.52 459.96,382.52 C460.31,382.52 461.04,382.77 461.04,383.04 C461.04,383.19 460.9,383.33 460.9,383.53 C460.9,383.53 460.9,383.6 460.9,383.6z  M460.32 393 C460.32,392.85 460.25,392.67 460.11,392.53 C460,392.46 459.93,392.37 459.93,392.3 C459.93,392.22 460,392.17 460.16,392.17 C460.52,392.17 461.33,392.53 461.33,392.78 C461.33,392.94 461.13,393.09 461.08,393.31 C463.06,393.66 464,394.93 464,396.17 C464,397.66 462.72,399.1 460.47,399.1 C458.22,399.1 457.01,397.68 457.01,396.17 C457.01,394.89 458,393.57 460.07,393.29 C460.23,393.27 460.32,393.14 460.32,393z  M457.86 386.37 C457.86,387.43 458.74,388.48 460.49,388.48 C462.23,388.48 463.1,387.43 463.1,386.37 C463.08,385.31 462.2,384.25 460.45,384.25 C458.72,384.25 457.86,385.31 457.86,386.37z  M458 396.1 C458,397.18 458.85,398.27 460.52,398.27 C462.2,398.27 463.04,397.18 463.04,396.1 C463.04,394.98 462.2,393.88 460.52,393.88 C458.85,393.88 458,394.98 458,396.1z "/></g></g><g id="_R_G_L_5_G_L_5_G_N_8_T_0"><g id="_R_G_L_5_G_L_5_G" transform=" translate(327.159, 172.252) translate(0, 0)"><path id="_R_G_L_5_G_L_5_G_D_0_P_0" fill="#c30000" fill-opacity="1" fill-rule="nonzero" d=" M-7.94 -11.98 C-7.94,-11.98 7.94,-11.98 7.94,-11.98 C10.34,-11.98 12.29,-10.04 12.29,-7.64 C12.29,-7.63 12.29,-7.63 12.29,-7.63 C12.29,-7.63 12.29,7.63 12.29,7.63 C12.29,10.03 10.35,11.98 7.94,11.98 C7.94,11.98 7.94,11.98 7.94,11.98 C7.94,11.98 -7.94,11.98 -7.94,11.98 C-10.34,11.98 -12.29,10.04 -12.29,7.64 C-12.29,7.63 -12.29,7.63 -12.29,7.63 C-12.29,7.63 -12.29,-7.63 -12.29,-7.63 C-12.29,-10.03 -10.34,-11.98 -7.94,-11.98 C-7.94,-11.98 -7.94,-11.98 -7.94,-11.98z "/></g></g><g id="_R_G_L_5_G_L_4_G_N_8_T_0"><g id="_R_G_L_5_G_L_4_G" transform=" translate(327.332, 172.278) translate(0, 0)"><path id="_R_G_L_5_G_L_4_G_D_0_P_0" fill="#ffffff" fill-opacity="1" fill-rule="nonzero" d=" M7.3 1.87 C6.16,0.66 3.02,1.15 2.28,1.27 C1.46,0.45 0.76,-0.48 0.19,-1.49 C0.61,-2.65 0.85,-3.88 0.9,-5.11 C0.9,-6.22 0.46,-7.41 -0.77,-7.41 C-1.19,-7.4 -1.58,-7.17 -1.8,-6.8 C-2.33,-5.9 -2.12,-4.04 -1.28,-2.16 C-1.77,-0.77 -2.48,1.22 -3.41,2.84 C-4.67,3.34 -7.34,4.57 -7.6,5.93 C-7.68,6.34 -7.54,6.75 -7.23,7.02 C-6.93,7.28 -6.54,7.42 -6.14,7.41 C-4.54,7.41 -2.93,5.18 -1.84,3.26 C-0.59,2.83 0.69,2.5 1.99,2.26 C3.69,3.74 5.2,3.97 5.97,3.97 C7.02,3.97 7.4,3.52 7.55,3.14 C7.7,2.7 7.61,2.22 7.3,1.87z  M6.2 2.65 C6.15,2.94 5.77,3.24 5.06,3.09 C4.24,2.88 3.48,2.5 2.83,1.96 C3.38,1.87 4.67,1.75 5.58,1.92 C5.91,1.98 6.29,2.17 6.2,2.65z  M-1.14 -6.42 C-1.07,-6.55 -0.93,-6.64 -0.78,-6.64 C-0.39,-6.64 -0.31,-6.17 -0.31,-5.78 C-0.37,-4.85 -0.54,-3.93 -0.82,-3.05 C-1.47,-4.79 -1.38,-6 -1.14,-6.42z  M-1.23 2.09 C-0.85,1.3 -0.51,0.49 -0.21,-0.34 C0.19,0.31 0.66,0.92 1.18,1.48 C0.37,1.64 -0.44,1.85 -1.23,2.09z  M-3.8 3.86 C-4.83,5.51 -5.85,6.56 -6.44,6.56 C-6.54,6.56 -6.63,6.53 -6.71,6.47 C-6.82,6.38 -6.87,6.23 -6.84,6.09 C-6.73,5.49 -5.55,4.63 -3.8,3.86 C-3.8,3.86 -3.8,3.86 -3.8,3.86z "/></g></g><g id="_R_G_L_5_G_L_3_G_M"><g id="_R_G_L_5_G_L_3_G" transform=" translate(692.84, 390.818) translate(0, 0)"><path id="_R_G_L_5_G_L_3_G_D_0_P_0" fill="#9cb9f0" fill-opacity="1" fill-rule="nonzero" d=" M10.9 7.6 C10.9,7.6 -10.9,7.6 -10.9,7.6 C-15.1,7.6 -18.5,4.2 -18.5,0 C-18.5,0 -18.5,0 -18.5,0 C-18.5,-4.2 -15.1,-7.6 -10.9,-7.6 C-10.9,-7.6 10.9,-7.6 10.9,-7.6 C15.1,-7.6 18.5,-4.2 18.5,0 C18.5,0 18.5,0 18.5,0 C18.5,4.2 15.1,7.6 10.9,7.6z "/></g></g><g id="_R_G_L_5_G_L_2_G_N_8_T_0_M"><g id="_R_G_L_5_G_L_2_G_N_8_T_0"><g id="_R_G_L_5_G_L_2_G" transform=" translate(692.84, 390.818) translate(0, 0)"><path id="_R_G_L_5_G_L_2_G_D_0_P_0" fill="#bfc1c5" fill-opacity="1" fill-rule="nonzero" d=" M10.9 7.6 C10.9,7.6 -10.9,7.6 -10.9,7.6 C-15.1,7.6 -18.5,4.2 -18.5,0 C-18.5,0 -18.5,0 -18.5,0 C-18.5,-4.2 -15.1,-7.6 -10.9,-7.6 C-10.9,-7.6 10.9,-7.6 10.9,-7.6 C15.1,-7.6 18.5,-4.2 18.5,0 C18.5,0 18.5,0 18.5,0 C18.5,4.2 15.1,7.6 10.9,7.6z "/></g></g></g><g id="_R_G_L_5_G_L_1_G_N_8_T_0_M"><g id="_R_G_L_5_G_L_1_G_N_8_T_0"><g id="_R_G_L_5_G_L_1_G"><path id="_R_G_L_5_G_L_1_G_D_0_P_0" fill="#ffffff" fill-opacity="1" fill-rule="nonzero" d=" M-10.46 0 C-10.46,5.78 -5.78,10.46 0,10.46 C5.78,10.46 10.46,5.78 10.46,0 C10.46,-5.78 5.78,-10.46 0,-10.46 C-5.78,-10.46 -10.46,-5.78 -10.46,0z "/><path id="_R_G_L_5_G_L_1_G_D_1_P_0" stroke="#e6e6e6" stroke-linecap="round" stroke-linejoin="round" fill="none" stroke-width="1" stroke-opacity="1" d=" M-10.46 0 C-10.46,5.78 -5.78,10.46 0,10.46 C5.78,10.46 10.46,5.78 10.46,0 C10.46,-5.78 5.78,-10.46 0,-10.46 C-5.78,-10.46 -10.46,-5.78 -10.46,0z "/></g></g></g><g id="_R_G_L_5_G_L_0_G_M"><g id="_R_G_L_5_G_L_0_G"><path id="_R_G_L_5_G_L_0_G_D_0_P_0" fill="#3872e0" fill-opacity="1" fill-rule="nonzero" d=" M-10.46 0 C-10.46,5.78 -5.78,10.46 0,10.46 C5.78,10.46 10.46,5.78 10.46,0 C10.46,-5.78 5.78,-10.46 0,-10.46 C-5.78,-10.46 -10.46,-5.78 -10.46,0z "/></g></g></g><g id="_R_G_L_4_G_M"><g id="_R_G_L_4_G" transform=" translate(683.13, 395.892) scale(0.6, 0.6) translate(-1378.179, -739.009)"><g id="_R_G_L_4_G_D_0_P_0_G_0_T_0" transform=" translate(1378.179, 739.009)"><path id="_R_G_L_4_G_D_0_P_0" stroke="#ffa72f" stroke-linecap="round" stroke-linejoin="round" fill="none" stroke-width="13" stroke-opacity="1" d=" M61.7 0 C61.7,34.07 34.07,61.7 0,61.7 C-34.07,61.7 -61.7,34.07 -61.7,0 C-61.7,-34.07 -34.07,-61.7 0,-61.7 C34.07,-61.7 61.7,-34.07 61.7,0z "/></g></g></g><g id="_R_G_L_3_G_M"><g id="_R_G_L_3_G" transform=" translate(683.13, 395.892) scale(0.6, 0.6) translate(-1378.179, -739.009)"><g id="_R_G_L_3_G_D_0_P_0_G_0_T_0" transform=" translate(1378.179, 739.009)"><path id="_R_G_L_3_G_D_0_P_0" stroke="#ffa72f" stroke-linecap="round" stroke-linejoin="round" fill="none" stroke-width="7.5" stroke-opacity="1" d=" M82.12 0 C82.12,45.36 45.36,82.12 0,82.12 C-45.35,82.12 -82.12,45.36 -82.12,0 C-82.12,-45.35 -45.35,-82.12 0,-82.12 C45.36,-82.12 82.12,-45.35 82.12,0z "/></g></g></g><g id="_R_G_L_2_G_M"><g id="_R_G_L_2_G" transform=" translate(683.13, 395.892) scale(0.6, 0.6) translate(-1378.179, -739.009)"><g id="_R_G_L_2_G_D_0_P_0_G_0_T_0" transform=" translate(1378.179, 739.009)"><path id="_R_G_L_2_G_D_0_P_0" stroke="#ffa72f" stroke-linecap="round" stroke-linejoin="round" fill="none" stroke-width="2.5" stroke-opacity="1" d=" M99.12 0 C99.12,54.74 54.74,99.12 0,99.12 C-54.74,99.12 -99.12,54.74 -99.12,0 C-99.12,-54.74 -54.74,-99.12 0,-99.12 C54.74,-99.12 99.12,-54.74 99.12,0z "/></g></g></g><g id="_R_G_L_1_G_N_1_T_0_M"><g id="_R_G_L_1_G_N_1_T_0"><g id="_R_G_L_1_G" opacity="0.3" transform=" translate(1568.36, 743.988) translate(-1562.36, -741.21)"><path id="_R_G_L_1_G_D_0_P_0" fill="#1a1818" fill-opacity="1" fill-rule="nonzero" d=" M1576.33 783.55 C1576.33,783.55 1575.58,783.55 1575.58,783.55 C1575.58,783.55 1574.45,782.42 1574.45,782.42 C1574.45,782.42 1570.31,771.88 1570.31,771.88 C1570.31,771.88 1563.9,776.77 1563.9,776.77 C1563.9,776.77 1562.03,776.77 1562.03,776.77 C1561.41,776.51 1560.98,775.93 1560.9,775.27 C1560.9,775.27 1560.14,740.63 1560.14,740.63 C1560.08,739.82 1560.53,739.07 1561.27,738.75 C1561.27,738.75 1562.03,738.75 1562.03,738.75 C1562.03,738.75 1563.53,739.5 1563.53,739.5 C1563.53,739.5 1586.5,765.11 1586.5,765.11 C1587.14,765.93 1587,767.11 1586.18,767.75 C1585.94,767.94 1585.67,768.06 1585.37,768.12 C1585.37,768.12 1577.09,769.25 1577.09,769.25 C1577.09,769.25 1581.23,779.78 1581.23,779.78 C1581.49,780.71 1581,781.69 1580.1,782.04 C1580.1,782.04 1576.71,783.17 1576.71,783.17 C1576.71,783.17 1576.33,783.17 1576.33,783.17 "/><path id="_R_G_L_1_G_D_1_P_0" fill="#000000" fill-opacity="1" fill-rule="nonzero" d=" M1562.03 740.63 C1562.03,740.63 1585.36,766.6 1585.36,766.6 C1585.36,766.6 1574.82,767.74 1574.82,767.74 C1574.82,767.74 1580.1,780.54 1580.1,780.54 C1580.1,780.54 1576.71,781.67 1576.71,781.67 C1576.71,781.67 1571.07,768.87 1571.07,768.87 C1571.07,768.87 1562.77,775.27 1562.77,775.27 C1562.77,775.27 1562.03,740.63 1562.03,740.63  M1562.03 736.86 C1562.03,736.86 1560.52,736.86 1560.52,736.86 C1559.03,737.5 1558.12,739.02 1558.25,740.63 C1558.25,740.63 1559.01,775.27 1559.01,775.27 C1559.03,776.74 1559.92,778.07 1561.27,778.66 C1561.27,778.66 1562.76,778.66 1562.76,778.66 C1562.76,778.66 1565.02,777.91 1565.02,777.91 C1565.02,777.91 1569.54,774.89 1569.54,774.89 C1569.54,774.89 1572.95,783.17 1572.95,783.17 C1573.54,784.52 1574.86,785.4 1576.33,785.43 C1576.33,785.43 1577.84,785.43 1577.84,785.43 C1577.84,785.43 1581.23,784.3 1581.23,784.3 C1583.19,783.6 1584.22,781.45 1583.52,779.49 C1583.52,779.49 1583.52,779.49 1583.52,779.49 C1583.51,779.46 1583.5,779.43 1583.49,779.4 C1583.49,779.4 1579.72,770.74 1579.72,770.74 C1579.72,770.74 1585.75,770.74 1585.75,770.74 C1587.82,770.52 1589.31,768.67 1589.1,766.6 C1589.01,765.74 1588.62,764.94 1588.01,764.33 C1588.01,764.33 1564.67,737.98 1564.67,737.98 C1563.97,737.27 1563.02,736.87 1562.02,736.85 "/></g></g></g><g id="_R_G_L_0_G_M"><g id="_R_G_L_0_G"><path id="_R_G_L_0_G_D_0_P_0" fill="#1a1818" fill-opacity="1" fill-rule="nonzero" d=" M1576.33 783.55 C1576.33,783.55 1575.58,783.55 1575.58,783.55 C1575.58,783.55 1574.45,782.42 1574.45,782.42 C1574.45,782.42 1570.31,771.88 1570.31,771.88 C1570.31,771.88 1563.9,776.77 1563.9,776.77 C1563.9,776.77 1562.03,776.77 1562.03,776.77 C1561.41,776.51 1560.98,775.93 1560.9,775.27 C1560.9,775.27 1560.14,740.63 1560.14,740.63 C1560.08,739.82 1560.53,739.07 1561.27,738.75 C1561.27,738.75 1562.03,738.75 1562.03,738.75 C1562.03,738.75 1563.53,739.5 1563.53,739.5 C1563.53,739.5 1586.5,765.11 1586.5,765.11 C1587.14,765.93 1587,767.11 1586.18,767.75 C1585.94,767.94 1585.67,768.06 1585.37,768.12 C1585.37,768.12 1577.09,769.25 1577.09,769.25 C1577.09,769.25 1581.23,779.78 1581.23,779.78 C1581.49,780.71 1581,781.69 1580.1,782.04 C1580.1,782.04 1576.71,783.17 1576.71,783.17 C1576.71,783.17 1576.33,783.17 1576.33,783.17 "/><path id="_R_G_L_0_G_D_1_P_0" fill="#ffffff" fill-opacity="1" fill-rule="nonzero" d=" M1562.03 740.63 C1562.03,740.63 1585.36,766.6 1585.36,766.6 C1585.36,766.6 1574.82,767.74 1574.82,767.74 C1574.82,767.74 1580.1,780.54 1580.1,780.54 C1580.1,780.54 1576.71,781.67 1576.71,781.67 C1576.71,781.67 1571.07,768.87 1571.07,768.87 C1571.07,768.87 1562.77,775.27 1562.77,775.27 C1562.77,775.27 1562.03,740.63 1562.03,740.63  M1562.03 736.86 C1562.03,736.86 1560.52,736.86 1560.52,736.86 C1559.03,737.5 1558.12,739.02 1558.25,740.63 C1558.25,740.63 1559.01,775.27 1559.01,775.27 C1559.03,776.74 1559.92,778.07 1561.27,778.66 C1561.27,778.66 1562.76,778.66 1562.76,778.66 C1562.76,778.66 1565.02,777.91 1565.02,777.91 C1565.02,777.91 1569.54,774.89 1569.54,774.89 C1569.54,774.89 1572.95,783.17 1572.95,783.17 C1573.54,784.52 1574.86,785.4 1576.33,785.43 C1576.33,785.43 1577.84,785.43 1577.84,785.43 C1577.84,785.43 1581.23,784.3 1581.23,784.3 C1583.19,783.6 1584.22,781.45 1583.52,779.49 C1583.52,779.49 1583.52,779.49 1583.52,779.49 C1583.51,779.46 1583.5,779.43 1583.49,779.4 C1583.49,779.4 1579.72,770.74 1579.72,770.74 C1579.72,770.74 1585.75,770.74 1585.75,770.74 C1587.82,770.52 1589.31,768.67 1589.1,766.6 C1589.01,765.74 1588.62,764.94 1588.01,764.33 C1588.01,764.33 1564.67,737.98 1564.67,737.98 C1563.97,737.27 1563.02,736.87 1562.02,736.85 "/></g></g></g><g id="time_group"/></svg>