<svg xmlns="http://www.w3.org/2000/svg" xmlns:xlink="http://www.w3.org/1999/xlink" preserveAspectRatio="xMidYMid meet" width="1024" height="480" viewBox="0 0 1024 480" style="width:100%;height:100%"><defs><animateMotion repeatCount="indefinite" dur="4s" begin="0s" xlink:href="#_R_G_L_5_G_L_7_G" fill="freeze" keyTimes="0;0.2708333;1" path="M725.54 792.87 C725.54,792.87 725.54,392.87 725.54,392.87 C725.54,392.87 725.54,392.87 725.54,392.87 " keyPoints="0;1;1" keySplines="0.036 0 0 1;0 0 0 0" calcMode="spline"/><animateTransform repeatCount="indefinite" dur="4s" begin="0s" xlink:href="#_R_G_L_5_G_L_7_G" fill="freeze" attributeName="transform" from="-725.535 -392.869" to="-725.535 -392.869" type="translate" additive="sum" keyTimes="0;1" values="-725.535 -392.869;-725.535 -392.869" keySplines="0 0 1 1" calcMode="spline"/><animateMotion repeatCount="indefinite" dur="4s" begin="0s" xlink:href="#_R_G_L_5_G_L_6_G_N_8_T_0" fill="freeze" keyTimes="0;0.2708333;1" path="M725.54 792.87 C725.54,792.87 725.54,392.87 725.54,392.87 C725.54,392.87 725.54,392.87 725.54,392.87 " keyPoints="0;1;1" keySplines="0.036 0 0 1;0 0 0 0" calcMode="spline"/><animateTransform repeatCount="indefinite" dur="4s" begin="0s" xlink:href="#_R_G_L_5_G_L_6_G_N_8_T_0" fill="freeze" attributeName="transform" from="-725.535 -392.869" to="-725.535 -392.869" type="translate" additive="sum" keyTimes="0;1" values="-725.535 -392.869;-725.535 -392.869" keySplines="0 0 1 1" calcMode="spline"/><animateMotion repeatCount="indefinite" dur="4s" begin="0s" xlink:href="#_R_G_L_5_G_L_5_G_N_8_T_0" fill="freeze" keyTimes="0;0.2708333;1" path="M725.54 792.87 C725.54,792.87 725.54,392.87 725.54,392.87 C725.54,392.87 725.54,392.87 725.54,392.87 " keyPoints="0;1;1" keySplines="0.036 0 0 1;0 0 0 0" calcMode="spline"/><animateTransform repeatCount="indefinite" dur="4s" begin="0s" xlink:href="#_R_G_L_5_G_L_5_G_N_8_T_0" fill="freeze" attributeName="transform" from="-725.535 -392.869" to="-725.535 -392.869" type="translate" additive="sum" keyTimes="0;1" values="-725.535 -392.869;-725.535 -392.869" keySplines="0 0 1 1" calcMode="spline"/><animateMotion repeatCount="indefinite" dur="4s" begin="0s" xlink:href="#_R_G_L_5_G_L_4_G_N_8_T_0" fill="freeze" keyTimes="0;0.2708333;1" path="M725.54 792.87 C725.54,792.87 725.54,392.87 725.54,392.87 C725.54,392.87 725.54,392.87 725.54,392.87 " keyPoints="0;1;1" keySplines="0.036 0 0 1;0 0 0 0" calcMode="spline"/><animateTransform repeatCount="indefinite" dur="4s" begin="0s" xlink:href="#_R_G_L_5_G_L_4_G_N_8_T_0" fill="freeze" attributeName="transform" from="-725.535 -392.869" to="-725.535 -392.869" type="translate" additive="sum" keyTimes="0;1" values="-725.535 -392.869;-725.535 -392.869" keySplines="0 0 1 1" calcMode="spline"/><animate repeatCount="indefinite" dur="4s" begin="0s" xlink:href="#_R_G_L_5_G_L_3_G_M" fill="freeze" attributeName="opacity" from="0" to="1" keyTimes="0;0.375;0.375001;1" values="0;0;1;1" keySplines="0 0 0 0;0 0 0 0;0 0 0 0" calcMode="spline"/><animate repeatCount="indefinite" dur="4s" begin="0s" xlink:href="#_R_G_L_5_G_L_2_G" fill="freeze" attributeName="opacity" from="1" to="0" keyTimes="0;0.375;0.4583333;1" values="1;1;0;0" keySplines="0.167 0.167 0.833 0.833;0.167 0.167 0.833 0.833;0 0 0 0" calcMode="spline"/><animateMotion repeatCount="indefinite" dur="4s" begin="0s" xlink:href="#_R_G_L_5_G_L_2_G_N_8_T_0" fill="freeze" keyTimes="0;0.2708333;1" path="M725.54 792.87 C725.54,792.87 725.54,392.87 725.54,392.87 C725.54,392.87 725.54,392.87 725.54,392.87 " keyPoints="0;1;1" keySplines="0.036 0 0 1;0 0 0 0" calcMode="spline"/><animateTransform repeatCount="indefinite" dur="4s" begin="0s" xlink:href="#_R_G_L_5_G_L_2_G_N_8_T_0" fill="freeze" attributeName="transform" from="-725.535 -392.869" to="-725.535 -392.869" type="translate" additive="sum" keyTimes="0;1" values="-725.535 -392.869;-725.535 -392.869" keySplines="0 0 1 1" calcMode="spline"/><animate repeatCount="indefinite" dur="4s" begin="0s" xlink:href="#_R_G_L_5_G_L_2_G_N_8_T_0_M" fill="freeze" attributeName="opacity" from="1" to="0" keyTimes="0;0.46875;0.46875;1" values="1;1;0;0" keySplines="0 0 0 0;0 0 0 0;0 0 0 0" calcMode="spline"/><animate repeatCount="indefinite" dur="4s" begin="0s" xlink:href="#_R_G_L_5_G_L_1_G" fill="freeze" attributeName="opacity" from="1" to="0" keyTimes="0;0.375;0.4583333;1" values="1;1;0;0" keySplines="0.167 0.167 0.833 0.833;0.167 0.167 0.833 0.833;0 0 0 0" calcMode="spline"/><animateMotion repeatCount="indefinite" dur="4s" begin="0s" xlink:href="#_R_G_L_5_G_L_1_G" fill="freeze" keyTimes="0;0.375;0.4583333;1" path="M682.38 390.82 C682.38,390.82 682.38,390.82 682.38,390.82 C682.38,390.82 703.13,390.82 703.13,390.82 C703.13,390.82 703.13,390.82 703.13,390.82 " keyPoints="0;0;1;1" keySplines="0.762 0 0.401 1;0.762 0 0.401 1;0 0 0 0" calcMode="spline"/><animateMotion repeatCount="indefinite" dur="4s" begin="0s" xlink:href="#_R_G_L_5_G_L_1_G_N_8_T_0" fill="freeze" keyTimes="0;0.2708333;1" path="M725.54 792.87 C725.54,792.87 725.54,392.87 725.54,392.87 C725.54,392.87 725.54,392.87 725.54,392.87 " keyPoints="0;1;1" keySplines="0.036 0 0 1;0 0 0 0" calcMode="spline"/><animateTransform repeatCount="indefinite" dur="4s" begin="0s" xlink:href="#_R_G_L_5_G_L_1_G_N_8_T_0" fill="freeze" attributeName="transform" from="-725.535 -392.869" to="-725.535 -392.869" type="translate" additive="sum" keyTimes="0;1" values="-725.535 -392.869;-725.535 -392.869" keySplines="0 0 1 1" calcMode="spline"/><animate repeatCount="indefinite" dur="4s" begin="0s" xlink:href="#_R_G_L_5_G_L_1_G_N_8_T_0_M" fill="freeze" attributeName="opacity" from="1" to="0" keyTimes="0;0.46875;0.46875;1" values="1;1;0;0" keySplines="0 0 0 0;0 0 0 0;0 0 0 0" calcMode="spline"/><animate repeatCount="indefinite" dur="4s" begin="0s" xlink:href="#_R_G_L_5_G_L_0_G" fill="freeze" attributeName="opacity" from="0" to="1" keyTimes="0;0.375;0.4583333;1" values="0;0;1;1" keySplines="0.167 0.167 0.833 0.833;0.167 0.167 0.833 0.833;0 0 0 0" calcMode="spline"/><animateMotion repeatCount="indefinite" dur="4s" begin="0s" xlink:href="#_R_G_L_5_G_L_0_G" fill="freeze" keyTimes="0;0.375;0.4583333;1" path="M682.38 390.82 C682.38,390.82 682.38,390.82 682.38,390.82 C682.38,390.82 703.13,390.82 703.13,390.82 C703.13,390.82 703.13,390.82 703.13,390.82 " keyPoints="0;0;1;1" keySplines="0.762 0 0.401 1;0.762 0 0.401 1;0 0 0 0" calcMode="spline"/><animate repeatCount="indefinite" dur="4s" begin="0s" xlink:href="#_R_G_L_5_G_L_0_G_M" fill="freeze" attributeName="opacity" from="0" to="1" keyTimes="0;0.375;0.375001;1" values="0;0;1;1" keySplines="0 0 0 0;0 0 0 0;0 0 0 0" calcMode="spline"/><animateTransform repeatCount="indefinite" dur="4s" begin="0s" xlink:href="#_R_G_L_4_G_D_0_P_0_G_0_T_0" fill="freeze" attributeName="transform" from="0.23 0.23" to="1 1" type="scale" additive="sum" keyTimes="0;0.3854167;0.562502;1" values="0.23 0.23;0.23 0.23;1 1;1 1" keySplines="0.167 0.167 0 1;0.167 0.167 0 1;0 0 0 0" calcMode="spline"/><animate repeatCount="indefinite" dur="4s" begin="0s" xlink:href="#_R_G_L_4_G" fill="freeze" attributeName="opacity" from="0" to="0" keyTimes="0;0.3958333;0.4041667;0.5041771;0.562502;1" values="0;0;1;1;0;0" keySplines="0.167 0.167 0.833 0.833;0.167 0.167 0.833 0.833;0.167 0.167 0.833 0.833;0.167 0.167 0.833 0.833;0 0 0 0" calcMode="spline"/><animate repeatCount="indefinite" dur="4s" begin="0s" xlink:href="#_R_G_L_4_G_M" fill="freeze" attributeName="opacity" from="0" to="0" keyTimes="0;0.3583333;0.3583344;0.5583333;0.5583333;1" values="0;0;1;1;0;0" keySplines="0 0 0 0;0 0 0 0;0 0 0 0;0 0 0 0;0 0 0 0" calcMode="spline"/><animateTransform repeatCount="indefinite" dur="4s" begin="0s" xlink:href="#_R_G_L_3_G_D_0_P_0_G_0_T_0" fill="freeze" attributeName="transform" from="0.28 0.28" to="1 1" type="scale" additive="sum" keyTimes="0;0.3854167;0.5416687;1" values="0.28 0.28;0.28 0.28;1 1;1 1" keySplines="0.167 0.167 0 1;0.167 0.167 0 1;0 0 0 0" calcMode="spline"/><animate repeatCount="indefinite" dur="4s" begin="0s" xlink:href="#_R_G_L_3_G" fill="freeze" attributeName="opacity" from="0" to="0" keyTimes="0;0.375;0.3833333;0.4833333;0.5416687;1" values="0;0;1;1;0;0" keySplines="0.167 0.167 0.833 0.833;0.167 0.167 0.833 0.833;0.167 0.167 0.833 0.833;0.167 0.167 0.833 0.833;0 0 0 0" calcMode="spline"/><animate repeatCount="indefinite" dur="4s" begin="0s" xlink:href="#_R_G_L_3_G_M" fill="freeze" attributeName="opacity" from="0" to="0" keyTimes="0;0.3583333;0.3583344;0.5583333;0.5583333;1" values="0;0;1;1;0;0" keySplines="0 0 0 0;0 0 0 0;0 0 0 0;0 0 0 0;0 0 0 0" calcMode="spline"/><animateTransform repeatCount="indefinite" dur="4s" begin="0s" xlink:href="#_R_G_L_2_G_D_0_P_0_G_0_T_0" fill="freeze" attributeName="transform" from="0.23 0.23" to="1 1" type="scale" additive="sum" keyTimes="0;0.3645833;0.531252;1" values="0.23 0.23;0.23 0.23;1 1;1 1" keySplines="0.167 0.167 0 1;0.167 0.167 0 1;0 0 0 0" calcMode="spline"/><animate repeatCount="indefinite" dur="4s" begin="0s" xlink:href="#_R_G_L_2_G" fill="freeze" attributeName="opacity" from="0" to="0" keyTimes="0;0.3541667;0.3625104;0.4625104;0.5208354;1" values="0;0;1;1;0;0" keySplines="0.167 0.167 0.833 0.833;0.167 0.167 0.833 0.833;0.167 0.167 0.833 0.833;0.167 0.167 0.833 0.833;0 0 0 0" calcMode="spline"/><animate repeatCount="indefinite" dur="4s" begin="0s" xlink:href="#_R_G_L_2_G_M" fill="freeze" attributeName="opacity" from="0" to="0" keyTimes="0;0.3583333;0.3583344;0.5583333;0.5583333;1" values="0;0;1;1;0;0" keySplines="0 0 0 0;0 0 0 0;0 0 0 0;0 0 0 0;0 0 0 0" calcMode="spline"/><animateMotion repeatCount="indefinite" dur="4s" begin="0s" xlink:href="#_R_G_L_1_G_N_1_T_0" fill="freeze" keyTimes="0;0.09375;0.3229167;0.4895833;0.687502;1" path="M914.36 572.71 C914.36,572.71 914.36,572.71 914.36,572.71 C696.7,561.57 683.36,394.71 683.36,394.71 C683.36,394.71 683.36,394.71 683.36,394.71 C683.36,394.71 562,476 627.36,598.71 C627.36,598.71 627.36,598.71 627.36,598.71 " keyPoints="0;0;0.58;0.58;1;1" keySplines="0.337 0 0.112 1;0.337 0 0.112 1;0.765 0.765 0.667 0.667;0.765 0 0.667 1;0 0 0 0" calcMode="spline"/><animateTransform repeatCount="indefinite" dur="4s" begin="0s" xlink:href="#_R_G_L_1_G_N_1_T_0" fill="freeze" attributeName="transform" from="1 1" to="1 1" type="scale" additive="sum" keyTimes="0;0.3583438;0.375;0.4479167;0.4895854;1" values="1 1;1 1;0.9 0.9;0.9 0.9;1 1;1 1" keySplines="0.331 0 0.833 0.833;0.331 0 0.833 0.833;0.325 0 0.833 1;0.328 0 0.667 1;0 0 0 0" calcMode="spline"/><animateTransform repeatCount="indefinite" dur="4s" begin="0s" xlink:href="#_R_G_L_1_G_N_1_T_0" fill="freeze" attributeName="transform" from="-1562.36 -741.21" to="-1562.36 -741.21" type="translate" additive="sum" keyTimes="0;1" values="-1562.36 -741.21;-1562.36 -741.21" keySplines="0 0 1 1" calcMode="spline"/><animate repeatCount="indefinite" dur="4s" begin="0s" xlink:href="#_R_G_L_1_G_N_1_T_0_M" fill="freeze" attributeName="opacity" from="0" to="0" keyTimes="0;0.0833333;0.0833344;0.65625;0.65625;1" values="0;0;1;1;0;0" keySplines="0 0 0 0;0 0 0 0;0 0 0 0;0 0 0 0;0 0 0 0" calcMode="spline"/><animateMotion repeatCount="indefinite" dur="4s" begin="0s" xlink:href="#_R_G_L_0_G" fill="freeze" keyTimes="0;0.09375;0.3229167;0.4895833;0.687502;1" path="M914.36 572.71 C914.36,572.71 914.36,572.71 914.36,572.71 C696.7,561.57 683.36,394.71 683.36,394.71 C683.36,394.71 683.36,394.71 683.36,394.71 C683.36,394.71 562,476 627.36,598.71 C627.36,598.71 627.36,598.71 627.36,598.71 " keyPoints="0;0;0.58;0.58;1;1" keySplines="0.337 0 0.112 1;0.337 0 0.112 1;0.765 0.765 0.667 0.667;0.765 0 0.667 1;0 0 0 0" calcMode="spline"/><animateTransform repeatCount="indefinite" dur="4s" begin="0s" xlink:href="#_R_G_L_0_G" fill="freeze" attributeName="transform" from="1 1" to="1 1" type="scale" additive="sum" keyTimes="0;0.3583438;0.375;0.4479167;0.4895854;1" values="1 1;1 1;0.9 0.9;0.9 0.9;1 1;1 1" keySplines="0.331 0 0.833 0.833;0.331 0 0.833 0.833;0.325 0 0.833 1;0.328 0 0.667 1;0 0 0 0" calcMode="spline"/><animateTransform repeatCount="indefinite" dur="4s" begin="0s" xlink:href="#_R_G_L_0_G" fill="freeze" attributeName="transform" from="-1562.36 -741.21" to="-1562.36 -741.21" type="translate" additive="sum" keyTimes="0;1" values="-1562.36 -741.21;-1562.36 -741.21" keySplines="0 0 1 1" calcMode="spline"/><animate repeatCount="indefinite" dur="4s" begin="0s" xlink:href="#_R_G_L_0_G_M" fill="freeze" attributeName="opacity" from="0" to="0" keyTimes="0;0.0833333;0.0833344;0.65625;0.65625;1" values="0;0;1;1;0;0" keySplines="0 0 0 0;0 0 0 0;0 0 0 0;0 0 0 0;0 0 0 0" calcMode="spline"/><animate attributeType="XML" attributeName="opacity" dur="4s" from="0" to="1" xlink:href="#time_group"/></defs><g id="_R_G"><g id="_R_G_L_6_G" transform=" translate(512, 240) translate(0, 0)"><path id="_R_G_L_6_G_D_0_P_0" fill="#ffddd6" fill-opacity="1" fill-rule="nonzero" d=" M512 240 C512,240 -512,240 -512,240 C-512,240 -512,-240 -512,-240 C-512,-240 512,-240 512,-240 C512,-240 512,240 512,240z "/></g><g id="_R_G_L_5_G"><g id="_R_G_L_5_G_L_7_G"><path id="_R_G_L_5_G_L_7_G_D_0_P_0" fill="#f8f9fa" fill-opacity="1" fill-rule="nonzero" d=" M893.85 480 C893.85,480 130.15,480 130.15,480 C130.15,480 130.15,96.18 130.15,96.18 C130.15,89.87 135.26,84.75 141.58,84.75 C141.58,84.75 882.42,84.75 882.42,84.75 C888.74,84.75 893.85,89.87 893.85,96.18 C893.85,96.18 893.85,480 893.85,480z "/><path id="_R_G_L_5_G_L_7_G_D_1_P_0" fill="#ffffff" fill-opacity="1" fill-rule="nonzero" d=" M741.1 480.3 C741.1,480.3 271.97,480.3 271.97,480.3 C271.97,480.3 271.97,132.07 271.97,132.07 C271.97,132.07 741.1,132.07 741.1,132.07 C741.1,132.07 741.1,480.3 741.1,480.3z "/><path id="_R_G_L_5_G_L_7_G_D_2_P_0" fill="#b2b2b2" fill-opacity="1" fill-rule="nonzero" d=" M341.13 216.08 C341.13,216.08 303.38,216.08 303.38,216.08 C301.23,216.08 299.48,214.33 299.48,212.17 C299.48,212.17 299.48,212.17 299.48,212.17 C299.48,210.02 301.23,208.27 303.38,208.27 C303.38,208.27 341.13,208.27 341.13,208.27 C343.29,208.27 345.04,210.02 345.04,212.17 C345.04,212.17 345.04,212.17 345.04,212.17 C345.04,214.33 343.29,216.08 341.13,216.08z "/><path id="_R_G_L_5_G_L_7_G_D_3_P_0" fill="#d9d9d9" fill-opacity="1" fill-rule="nonzero" d=" M599.32 233.37 C599.32,233.37 303.38,233.37 303.38,233.37 C301.23,233.37 299.48,231.62 299.48,229.47 C299.48,229.47 299.48,229.47 299.48,229.47 C299.48,227.31 301.23,225.56 303.38,225.56 C303.38,225.56 599.32,225.56 599.32,225.56 C601.47,225.56 603.22,227.31 603.22,229.47 C603.22,229.47 603.22,229.47 603.22,229.47 C603.22,231.62 601.47,233.37 599.32,233.37z "/><path id="_R_G_L_5_G_L_7_G_D_4_P_0" fill="#b2b2b2" fill-opacity="1" fill-rule="nonzero" d=" M341.13 271.58 C341.13,271.58 303.38,271.58 303.38,271.58 C301.23,271.58 299.48,269.83 299.48,267.68 C299.48,267.68 299.48,267.68 299.48,267.68 C299.48,265.52 301.23,263.77 303.38,263.77 C303.38,263.77 341.13,263.77 341.13,263.77 C343.29,263.77 345.04,265.52 345.04,267.68 C345.04,267.68 345.04,267.68 345.04,267.68 C345.04,269.83 343.29,271.58 341.13,271.58z "/><path id="_R_G_L_5_G_L_7_G_D_5_P_0" fill="#d9d9d9" fill-opacity="1" fill-rule="nonzero" d=" M599.32 288.88 C599.32,288.88 303.38,288.88 303.38,288.88 C301.23,288.88 299.48,287.13 299.48,284.97 C299.48,284.97 299.48,284.97 299.48,284.97 C299.48,282.81 301.23,281.07 303.38,281.07 C303.38,281.07 599.32,281.07 599.32,281.07 C601.47,281.07 603.22,282.81 603.22,284.97 C603.22,284.97 603.22,284.97 603.22,284.97 C603.22,287.13 601.47,288.88 599.32,288.88z "/><path id="_R_G_L_5_G_L_7_G_D_6_P_0" fill="#b2b2b2" fill-opacity="1" fill-rule="nonzero" d=" M341.13 325.97 C341.13,325.97 303.38,325.97 303.38,325.97 C301.23,325.97 299.48,324.22 299.48,322.07 C299.48,322.07 299.48,322.07 299.48,322.07 C299.48,319.91 301.23,318.16 303.38,318.16 C303.38,318.16 341.13,318.16 341.13,318.16 C343.29,318.16 345.04,319.91 345.04,322.07 C345.04,322.07 345.04,322.07 345.04,322.07 C345.04,324.22 343.29,325.97 341.13,325.97z "/><path id="_R_G_L_5_G_L_7_G_D_7_P_0" fill="#d9d9d9" fill-opacity="1" fill-rule="nonzero" d=" M599.32 343.26 C599.32,343.26 303.38,343.26 303.38,343.26 C301.23,343.26 299.48,341.52 299.48,339.36 C299.48,339.36 299.48,339.36 299.48,339.36 C299.48,337.2 301.23,335.45 303.38,335.45 C303.38,335.45 599.32,335.45 599.32,335.45 C601.47,335.45 603.22,337.2 603.22,339.36 C603.22,339.36 603.22,339.36 603.22,339.36 C603.22,341.52 601.47,343.26 599.32,343.26z "/><path id="_R_G_L_5_G_L_7_G_D_8_P_0" fill="#b2b2b2" fill-opacity="1" fill-rule="nonzero" d=" M341.13 435.86 C341.13,435.86 303.38,435.86 303.38,435.86 C301.23,435.86 299.48,434.12 299.48,431.96 C299.48,431.96 299.48,431.96 299.48,431.96 C299.48,429.8 301.23,428.05 303.38,428.05 C303.38,428.05 341.13,428.05 341.13,428.05 C343.29,428.05 345.04,429.8 345.04,431.96 C345.04,431.96 345.04,431.96 345.04,431.96 C345.04,434.12 343.29,435.86 341.13,435.86z "/><path id="_R_G_L_5_G_L_7_G_D_9_P_0" fill="#d9d9d9" fill-opacity="1" fill-rule="nonzero" d=" M599.32 453.16 C599.32,453.16 303.38,453.16 303.38,453.16 C301.23,453.16 299.48,451.41 299.48,449.25 C299.48,449.25 299.48,449.25 299.48,449.25 C299.48,447.09 301.23,445.35 303.38,445.35 C303.38,445.35 599.32,445.35 599.32,445.35 C601.47,445.35 603.22,447.09 603.22,449.25 C603.22,449.25 603.22,449.25 603.22,449.25 C603.22,451.41 601.47,453.16 599.32,453.16z "/><path id="_R_G_L_5_G_L_7_G_D_10_P_0" fill="#5a5a5a" fill-opacity="1" fill-rule="nonzero" d=" M353.86 175.56 C353.86,175.56 352.96,178.33 352.96,178.33 C352.93,178.43 352.87,178.48 352.76,178.48 C352.76,178.48 350.58,178.48 350.58,178.48 C350.45,178.48 350.41,178.41 350.43,178.3 C350.43,178.3 354.18,167.49 354.18,167.49 C354.26,167.28 354.33,167.05 354.37,166.34 C354.37,166.27 354.43,166.21 354.48,166.21 C354.48,166.21 357.48,166.21 357.48,166.21 C357.57,166.21 357.61,166.23 357.63,166.32 C357.63,166.32 361.88,178.31 361.88,178.31 C361.92,178.41 361.9,178.48 361.79,178.48 C361.79,178.48 359.35,178.48 359.35,178.48 C359.24,178.48 359.18,178.45 359.15,178.35 C359.15,178.35 358.19,175.56 358.19,175.56 C358.19,175.56 353.86,175.56 353.86,175.56z  M357.5 173.22 C357.12,171.98 356.37,169.71 356.02,168.38 C356.02,168.38 356,168.38 356,168.38 C355.7,169.64 355.02,171.7 354.54,173.22 C354.54,173.22 357.5,173.22 357.5,173.22z "/><path id="_R_G_L_5_G_L_7_G_D_11_P_0" fill="#5a5a5a" fill-opacity="1" fill-rule="nonzero" d=" M362.44 173.91 C362.44,171.23 364.44,168.98 367.87,168.98 C368.02,168.98 368.21,169 368.49,169.02 C368.49,169.02 368.49,165.33 368.49,165.33 C368.49,165.24 368.55,165.2 368.62,165.2 C368.62,165.2 370.98,165.2 370.98,165.2 C371.08,165.2 371.1,165.24 371.1,165.31 C371.1,165.31 371.1,176.39 371.1,176.39 C371.1,176.82 371.11,177.38 371.17,177.75 C371.17,177.85 371.15,177.88 371.04,177.92 C369.74,178.47 368.51,178.67 367.35,178.67 C364.58,178.67 362.44,177.1 362.44,173.91z  M368.49 171.25 C368.3,171.18 368.06,171.16 367.8,171.16 C366.35,171.16 365.12,172.04 365.12,173.78 C365.12,175.64 366.18,176.44 367.61,176.44 C367.93,176.44 368.23,176.42 368.49,176.33 C368.49,176.33 368.49,171.25 368.49,171.25z "/><path id="_R_G_L_5_G_L_7_G_D_12_P_0" fill="#5a5a5a" fill-opacity="1" fill-rule="nonzero" d=" M382.01 173.78 C382.01,176.72 380.1,178.67 377.4,178.67 C374.2,178.67 372.78,176.25 372.78,173.84 C372.78,171.18 374.56,168.98 377.44,168.98 C380.46,168.98 382.01,171.25 382.01,173.78z  M375.42 173.8 C375.42,175.45 376.19,176.5 377.44,176.5 C378.53,176.5 379.35,175.56 379.35,173.84 C379.35,172.37 378.75,171.16 377.33,171.16 C376.24,171.16 375.42,172.13 375.42,173.8z "/><path id="_R_G_L_5_G_L_7_G_D_13_P_0" fill="#5a5a5a" fill-opacity="1" fill-rule="nonzero" d=" M386.11 165.2 C386.26,165.2 386.3,165.22 386.3,165.35 C386.3,165.35 386.3,169.19 386.3,169.19 C386.79,169.06 387.31,168.98 387.87,168.98 C390.63,168.98 392.37,170.93 392.37,173.44 C392.37,176.95 389.6,178.67 386.75,178.67 C385.76,178.67 384.76,178.54 383.81,178.24 C383.75,178.22 383.69,178.13 383.69,178.05 C383.69,178.05 383.69,165.33 383.69,165.33 C383.69,165.24 383.73,165.2 383.83,165.2 C383.83,165.2 386.11,165.2 386.11,165.2z  M387.4 171.2 C386.8,171.2 386.54,171.29 386.3,171.35 C386.3,171.35 386.3,176.42 386.3,176.42 C386.52,176.48 386.77,176.5 386.99,176.5 C388.42,176.5 389.71,175.64 389.71,173.69 C389.71,171.98 388.72,171.2 387.4,171.2z "/><path id="_R_G_L_5_G_L_7_G_D_14_P_0" fill="#5a5a5a" fill-opacity="1" fill-rule="nonzero" d=" M396.28 174.51 C396.37,175.58 397.12,176.46 398.96,176.46 C399.8,176.46 400.55,176.33 401.26,176.03 C401.32,175.99 401.38,176.01 401.38,176.12 C401.38,176.12 401.38,177.9 401.38,177.9 C401.38,178.03 401.34,178.09 401.25,178.13 C400.5,178.48 399.67,178.67 398.38,178.67 C394.86,178.67 393.62,176.25 393.62,173.93 C393.62,171.34 395.21,168.98 398.15,168.98 C400.98,168.98 402.11,171.18 402.11,173.03 C402.11,173.61 402.07,174.08 402.01,174.29 C402,174.38 401.96,174.42 401.86,174.44 C401.62,174.47 400.91,174.51 399.93,174.51 C399.93,174.51 396.28,174.51 396.28,174.51z  M398.72 172.69 C399.32,172.69 399.58,172.67 399.65,172.66 C399.65,172.62 399.65,172.54 399.65,172.53 C399.65,172.08 399.3,171.05 398.06,171.05 C396.88,171.05 396.37,171.93 396.26,172.69 C396.26,172.69 398.72,172.69 398.72,172.69z "/><path id="_R_G_L_5_G_L_7_G_D_15_P_0" fill="#5a5a5a" fill-opacity="1" fill-rule="nonzero" d=" M410.36 175.56 C410.36,175.56 409.46,178.33 409.46,178.33 C409.43,178.43 409.37,178.48 409.26,178.48 C409.26,178.48 407.09,178.48 407.09,178.48 C406.95,178.48 406.92,178.41 406.94,178.3 C406.94,178.3 410.68,167.49 410.68,167.49 C410.76,167.28 410.83,167.05 410.87,166.34 C410.87,166.27 410.93,166.21 410.98,166.21 C410.98,166.21 413.98,166.21 413.98,166.21 C414.08,166.21 414.11,166.23 414.13,166.32 C414.13,166.32 418.38,178.31 418.38,178.31 C418.42,178.41 418.4,178.48 418.29,178.48 C418.29,178.48 415.85,178.48 415.85,178.48 C415.74,178.48 415.69,178.45 415.65,178.35 C415.65,178.35 414.69,175.56 414.69,175.56 C414.69,175.56 410.36,175.56 410.36,175.56z  M414 173.22 C413.63,171.98 412.88,169.71 412.52,168.38 C412.52,168.38 412.5,168.38 412.5,168.38 C412.2,169.64 411.53,171.7 411.04,173.22 C411.04,173.22 414,173.22 414,173.22z "/><path id="_R_G_L_5_G_L_7_G_D_16_P_0" fill="#5a5a5a" fill-opacity="1" fill-rule="nonzero" d=" M426.08 178.22 C426.08,178.31 426.06,178.35 425.98,178.37 C425.38,178.61 424.62,178.67 423.89,178.67 C420.85,178.67 418.94,176.63 418.94,173.87 C418.94,171.06 421.06,168.98 424.24,168.98 C425.16,168.98 425.67,169.08 425.97,169.19 C426.06,169.23 426.08,169.28 426.08,169.4 C426.08,169.4 426.06,171.33 426.06,171.33 C426.06,171.46 425.98,171.48 425.91,171.46 C425.55,171.33 425.03,171.23 424.34,171.23 C422.76,171.23 421.62,172.09 421.62,173.78 C421.62,175.73 423.06,176.37 424.37,176.37 C425.03,176.37 425.61,176.29 425.93,176.2 C426.04,176.16 426.08,176.2 426.08,176.27 C426.08,176.27 426.08,178.22 426.08,178.22z "/><path id="_R_G_L_5_G_L_7_G_D_17_P_0" fill="#5a5a5a" fill-opacity="1" fill-rule="nonzero" d=" M429.73 169.17 C429.86,169.17 429.92,169.23 429.95,169.34 C430.05,169.58 430.14,169.98 430.16,170.39 C430.78,169.66 431.81,168.98 433.14,168.98 C433.25,168.98 433.29,169.02 433.29,169.13 C433.29,169.13 433.29,171.44 433.29,171.44 C433.29,171.53 433.25,171.57 433.12,171.57 C431.77,171.51 430.68,171.93 430.29,172.38 C430.29,172.38 430.27,178.33 430.27,178.33 C430.27,178.45 430.23,178.48 430.1,178.48 C430.1,178.48 427.85,178.48 427.85,178.48 C427.7,178.48 427.67,178.43 427.67,178.32 C427.67,178.32 427.67,171.85 427.67,171.85 C427.67,171.05 427.65,169.96 427.57,169.3 C427.57,169.21 427.59,169.17 427.69,169.17 C427.69,169.17 429.73,169.17 429.73,169.17z "/><path id="_R_G_L_5_G_L_7_G_D_18_P_0" fill="#5a5a5a" fill-opacity="1" fill-rule="nonzero" d=" M443.35 173.78 C443.35,176.72 441.44,178.67 438.74,178.67 C435.53,178.67 434.11,176.25 434.11,173.84 C434.11,171.18 435.89,168.98 438.78,168.98 C441.79,168.98 443.35,171.25 443.35,173.78z  M436.75 173.8 C436.75,175.45 437.52,176.5 438.78,176.5 C439.86,176.5 440.69,175.56 440.69,173.84 C440.69,172.37 440.09,171.16 438.66,171.16 C437.58,171.16 436.75,172.13 436.75,173.8z "/><path id="_R_G_L_5_G_L_7_G_D_19_P_0" fill="#5a5a5a" fill-opacity="1" fill-rule="nonzero" d=" M447.45 165.2 C447.6,165.2 447.63,165.22 447.63,165.35 C447.63,165.35 447.63,169.19 447.63,169.19 C448.12,169.06 448.65,168.98 449.21,168.98 C451.96,168.98 453.7,170.93 453.7,173.44 C453.7,176.95 450.93,178.67 448.08,178.67 C447.09,178.67 446.1,178.54 445.14,178.24 C445.09,178.22 445.03,178.13 445.03,178.05 C445.03,178.05 445.03,165.33 445.03,165.33 C445.03,165.24 445.07,165.2 445.16,165.2 C445.16,165.2 447.45,165.2 447.45,165.2z  M448.74 171.2 C448.14,171.2 447.88,171.29 447.63,171.35 C447.63,171.35 447.63,176.42 447.63,176.42 C447.86,176.48 448.1,176.5 448.33,176.5 C449.75,176.5 451.04,175.64 451.04,173.69 C451.04,171.98 450.05,171.2 448.74,171.2z "/><path id="_R_G_L_5_G_L_7_G_D_20_P_0" fill="#5a5a5a" fill-opacity="1" fill-rule="nonzero" d=" M462.69 176.4 C462.69,176.89 462.69,177.28 462.73,177.73 C462.73,177.77 462.73,177.81 462.69,177.83 C461.04,178.46 459.96,178.67 458.61,178.67 C456.53,178.67 454.82,177.71 454.82,175.54 C454.82,173.56 456.56,172.51 459.06,172.51 C459.56,172.51 459.99,172.51 460.16,172.54 C460.16,172.54 460.16,172.41 460.16,172.41 C460.16,172.06 459.94,171.23 458.36,171.23 C457.43,171.23 456.6,171.42 455.89,171.74 C455.81,171.78 455.72,171.74 455.72,171.64 C455.72,171.64 455.72,169.75 455.72,169.75 C455.72,169.66 455.74,169.6 455.85,169.57 C456.68,169.17 457.75,168.98 458.79,168.98 C461.49,168.98 462.69,170.65 462.69,172.79 C462.69,172.79 462.69,176.4 462.69,176.4z  M460.16 174.47 C459.86,174.44 459.6,174.42 459.23,174.42 C457.89,174.42 457.35,174.85 457.35,175.52 C457.35,176.14 457.82,176.65 459,176.65 C459.43,176.65 459.8,176.59 460.16,176.48 C460.16,176.48 460.16,174.47 460.16,174.47z "/><path id="_R_G_L_5_G_L_7_G_D_21_P_0" fill="#5a5a5a" fill-opacity="1" fill-rule="nonzero" d=" M469.43 178.16 C469.43,178.28 469.41,178.37 469.3,178.41 C468.78,178.6 468.29,178.67 467.63,178.67 C466,178.67 465.05,177.86 465.05,175.99 C465.05,175.99 465.05,171.34 465.05,171.34 C465.05,171.34 463.92,171.34 463.92,171.34 C463.81,171.33 463.77,171.29 463.77,171.18 C463.77,171.18 463.77,169.34 463.77,169.34 C463.77,169.21 463.81,169.17 463.94,169.17 C463.94,169.17 465.07,169.17 465.07,169.17 C465.08,168.53 465.16,167.43 465.25,166.91 C465.27,166.81 465.33,166.76 465.42,166.74 C465.42,166.74 467.61,166.46 467.61,166.46 C467.71,166.44 467.76,166.44 467.76,166.57 C467.71,167.15 467.67,168.25 467.67,169.17 C467.67,169.17 469.4,169.17 469.4,169.17 C469.51,169.17 469.55,169.21 469.55,169.32 C469.55,169.32 469.55,171.21 469.55,171.21 C469.55,171.31 469.51,171.33 469.41,171.34 C469.41,171.34 467.65,171.34 467.65,171.34 C467.65,171.34 467.65,175.35 467.65,175.35 C467.65,176.18 467.9,176.55 468.66,176.55 C468.89,176.55 469.08,176.52 469.3,176.48 C469.38,176.48 469.43,176.5 469.43,176.61 C469.43,176.61 469.43,178.16 469.43,178.16z "/><path id="_R_G_L_5_G_L_7_G_D_22_P_0" stroke="#707070" stroke-linecap="round" stroke-linejoin="round" fill="none" stroke-width="0.988" stroke-opacity="1" d=" M298.9 172.21 C298.9,172.21 288.67,172.21 288.67,172.21 "/><path id="_R_G_L_5_G_L_7_G_D_23_P_0" stroke="#707070" stroke-linecap="round" stroke-linejoin="round" fill="none" stroke-width="0.988" stroke-opacity="1" d=" M294.08 167.01 C294.08,167.01 288.67,172.21 288.67,172.21 C288.67,172.21 294.04,177.41 294.04,177.41 "/><path id="_R_G_L_5_G_L_7_G_D_24_P_0" fill="#4066cf" fill-opacity="1" fill-rule="nonzero" d=" M883.13 84.75 C883.13,84.75 140.87,84.75 140.87,84.75 C134.95,84.75 130.15,89.55 130.15,95.47 C130.15,95.47 130.15,132.07 130.15,132.07 C130.15,132.07 893.85,132.07 893.85,132.07 C893.85,132.07 893.85,95.47 893.85,95.47 C893.85,89.55 889.05,84.75 883.13,84.75z "/><path id="_R_G_L_5_G_L_7_G_D_25_P_0" fill="#9fb2e6" fill-opacity="1" fill-rule="nonzero" d=" M797.54 112.84 C797.54,112.84 761.22,112.84 761.22,112.84 C758.77,112.84 756.78,110.86 756.78,108.41 C756.78,108.41 756.78,108.41 756.78,108.41 C756.78,105.96 758.77,103.98 761.22,103.98 C761.22,103.98 797.54,103.98 797.54,103.98 C799.99,103.98 801.97,105.96 801.97,108.41 C801.97,108.41 801.97,108.41 801.97,108.41 C801.97,110.86 799.99,112.84 797.54,112.84z "/><path id="_R_G_L_5_G_L_7_G_D_26_P_0" fill="#9fb2e6" fill-opacity="1" fill-rule="nonzero" d=" M241.71 112.84 C241.71,112.84 205.39,112.84 205.39,112.84 C202.94,112.84 200.95,110.86 200.95,108.41 C200.95,108.41 200.95,108.41 200.95,108.41 C200.95,105.96 202.94,103.98 205.39,103.98 C205.39,103.98 241.71,103.98 241.71,103.98 C244.16,103.98 246.14,105.96 246.14,108.41 C246.14,108.41 246.14,108.41 246.14,108.41 C246.14,110.86 244.16,112.84 241.71,112.84z "/><path id="_R_G_L_5_G_L_7_G_D_27_P_0" fill="#81868b" fill-opacity="1" fill-rule="nonzero" d=" M861.84 116.01 C861.84,116.01 840.03,116.01 840.03,116.01 C835.84,116.01 832.44,112.61 832.44,108.41 C832.44,108.41 832.44,108.41 832.44,108.41 C832.44,104.21 835.84,100.81 840.03,100.81 C840.03,100.81 861.84,100.81 861.84,100.81 C866.04,100.81 869.44,104.21 869.44,108.41 C869.44,108.41 869.44,108.41 869.44,108.41 C869.44,112.61 866.04,116.01 861.84,116.01z "/><path id="_R_G_L_5_G_L_7_G_D_28_P_0" fill="#ffffff" fill-opacity="1" fill-rule="nonzero" d=" M830.02 108.41 C830.02,114.19 834.7,118.87 840.48,118.87 C846.25,118.87 850.94,114.19 850.94,108.41 C850.94,102.63 846.25,97.95 840.48,97.95 C834.7,97.95 830.02,102.63 830.02,108.41z "/><path id="_R_G_L_5_G_L_7_G_D_29_P_0" fill="#3250a2" fill-opacity="1" fill-rule="nonzero" d=" M741.1 124.77 C741.1,124.77 271.97,124.77 271.97,124.77 C271.97,124.77 271.97,94.55 271.97,94.55 C271.97,94.55 741.1,94.55 741.1,94.55 C741.1,94.55 741.1,124.77 741.1,124.77z "/><path id="_R_G_L_5_G_L_7_G_D_30_P_0" fill="#ffffff" fill-opacity="1" fill-rule="nonzero" d=" M180.09 100.69 C180.09,100.69 150.67,100.69 150.67,100.69 C150.67,100.69 150.67,96.44 150.67,96.44 C150.67,96.44 180.09,96.44 180.09,96.44 C180.09,96.44 180.09,100.69 180.09,100.69z "/><path id="_R_G_L_5_G_L_7_G_D_31_P_0" fill="#ffffff" fill-opacity="1" fill-rule="nonzero" d=" M180.09 110.53 C180.09,110.53 150.67,110.53 150.67,110.53 C150.67,110.53 150.67,106.29 150.67,106.29 C150.67,106.29 180.09,106.29 180.09,106.29 C180.09,106.29 180.09,110.53 180.09,110.53z "/><path id="_R_G_L_5_G_L_7_G_D_32_P_0" fill="#ffffff" fill-opacity="1" fill-rule="nonzero" d=" M180.09 120.38 C180.09,120.38 150.67,120.38 150.67,120.38 C150.67,120.38 150.67,116.13 150.67,116.13 C150.67,116.13 180.09,116.13 180.09,116.13 C180.09,116.13 180.09,120.38 180.09,120.38z "/></g><g id="_R_G_L_5_G_L_6_G_N_8_T_0"><g id="_R_G_L_5_G_L_6_G"><path id="_R_G_L_5_G_L_6_G_D_0_P_0" fill="#2f2f2f" fill-opacity="1" fill-rule="nonzero" d=" M300.34 384.59 C300.34,384.52 300.36,384.46 300.43,384.46 C301.01,384.45 302.19,384.41 303.4,384.41 C306.59,384.41 307.99,386.21 307.99,388.23 C307.99,390.96 305.83,392.24 303.22,392.24 C302.46,392.24 302.23,392.23 301.83,392.23 C301.83,392.23 301.83,396.22 301.83,396.22 C301.83,396.31 301.82,396.35 301.73,396.35 C301.73,396.35 300.45,396.35 300.45,396.35 C300.38,396.35 300.34,396.31 300.34,396.24 C300.34,396.24 300.34,384.59 300.34,384.59z  M301.83 390.87 C302.14,390.89 302.45,390.89 303.2,390.89 C304.97,390.89 306.5,390.23 306.5,388.26 C306.5,386.63 305.24,385.74 303.42,385.74 C302.68,385.74 302.12,385.76 301.83,385.78 C301.83,385.78 301.83,390.87 301.83,390.87z "/><path id="_R_G_L_5_G_L_6_G_D_1_P_0" fill="#2f2f2f" fill-opacity="1" fill-rule="nonzero" d=" M310.62 392.15 C310.6,393.86 311.59,395.21 313.62,395.21 C314.42,395.21 315.17,395.07 315.88,394.73 C315.93,394.69 315.97,394.73 315.97,394.8 C315.97,394.8 315.97,395.83 315.97,395.83 C315.97,395.93 315.93,395.97 315.88,396.01 C315.26,396.31 314.47,396.53 313.34,396.53 C310.22,396.53 309.11,394.24 309.11,392.04 C309.11,389.52 310.58,387.42 313.08,387.42 C315.66,387.42 316.6,389.51 316.6,391.04 C316.6,391.49 316.56,391.81 316.52,391.97 C316.52,392.03 316.47,392.08 316.4,392.08 C316.13,392.13 315.33,392.15 314.54,392.15 C314.54,392.15 310.62,392.15 310.62,392.15z  M313.98 391.04 C314.87,391.04 315.08,391.02 315.14,391 C315.16,390.95 315.16,390.86 315.16,390.8 C315.16,390.15 314.72,388.66 313.03,388.66 C311.54,388.66 310.8,389.83 310.64,391.04 C310.64,391.04 313.98,391.04 313.98,391.04z "/><path id="_R_G_L_5_G_L_6_G_D_2_P_0" fill="#2f2f2f" fill-opacity="1" fill-rule="nonzero" d=" M319.56 387.6 C319.67,387.6 319.69,387.63 319.73,387.72 C319.8,387.94 319.85,388.57 319.87,388.97 C320.5,388.1 321.62,387.42 322.77,387.42 C322.86,387.42 322.89,387.44 322.89,387.54 C322.89,387.54 322.89,388.84 322.89,388.84 C322.89,388.93 322.88,388.95 322.77,388.95 C321.53,388.93 320.39,389.54 319.94,390.26 C319.94,390.26 319.92,396.24 319.92,396.24 C319.92,396.33 319.89,396.35 319.82,396.35 C319.82,396.35 318.54,396.35 318.54,396.35 C318.45,396.35 318.41,396.31 318.41,396.22 C318.41,396.22 318.41,390.01 318.41,390.01 C318.41,389.25 318.37,388.21 318.32,387.71 C318.32,387.63 318.34,387.6 318.41,387.6 C318.41,387.6 319.56,387.6 319.56,387.6z "/><path id="_R_G_L_5_G_L_6_G_D_3_P_0" fill="#2f2f2f" fill-opacity="1" fill-rule="nonzero" d=" M324.37 396.35 C324.28,396.35 324.26,396.31 324.26,396.22 C324.26,396.22 324.26,389.49 324.26,389.49 C324.26,388.7 324.22,388.05 324.19,387.71 C324.19,387.63 324.21,387.6 324.3,387.6 C324.3,387.6 325.43,387.6 325.43,387.6 C325.5,387.6 325.54,387.63 325.57,387.69 C325.63,387.87 325.66,388.26 325.68,388.55 C326.51,387.78 327.39,387.42 328.38,387.42 C329.46,387.42 330.27,387.83 330.78,388.73 C331.53,387.99 332.47,387.42 333.79,387.42 C335.12,387.42 336.7,388.12 336.7,390.86 C336.7,390.86 336.7,396.24 336.7,396.24 C336.7,396.31 336.67,396.35 336.58,396.35 C336.58,396.35 335.33,396.35 335.33,396.35 C335.24,396.35 335.21,396.31 335.21,396.22 C335.21,396.22 335.21,390.96 335.21,390.96 C335.21,389.74 334.65,388.75 333.37,388.75 C332.47,388.75 331.73,389.15 331.16,389.79 C331.21,390.01 331.25,390.51 331.25,390.95 C331.25,390.95 331.25,396.22 331.25,396.22 C331.25,396.31 331.21,396.35 331.12,396.35 C331.12,396.35 329.86,396.35 329.86,396.35 C329.77,396.35 329.73,396.31 329.73,396.22 C329.73,396.22 329.73,390.91 329.73,390.91 C329.73,389.54 329.1,388.75 327.93,388.75 C327.09,388.75 326.44,389.07 325.76,389.76 C325.76,389.76 325.76,396.24 325.76,396.24 C325.76,396.31 325.74,396.35 325.65,396.35 C325.65,396.35 324.37,396.35 324.37,396.35z "/><path id="_R_G_L_5_G_L_6_G_D_4_P_0" fill="#2f2f2f" fill-opacity="1" fill-rule="nonzero" d=" M339.09 384.95 C339.09,384.41 339.47,384.03 340.01,384.03 C340.59,384.03 340.91,384.43 340.91,384.95 C340.91,385.49 340.55,385.87 339.99,385.87 C339.43,385.87 339.09,385.49 339.09,384.95z  M339.24 387.72 C339.24,387.63 339.27,387.6 339.36,387.6 C339.36,387.6 340.64,387.6 340.64,387.6 C340.71,387.6 340.75,387.62 340.75,387.71 C340.75,387.71 340.75,396.22 340.75,396.22 C340.75,396.31 340.73,396.35 340.62,396.35 C340.62,396.35 339.38,396.35 339.38,396.35 C339.29,396.35 339.24,396.31 339.24,396.2 C339.24,396.2 339.24,387.72 339.24,387.72z "/><path id="_R_G_L_5_G_L_6_G_D_5_P_0" fill="#2f2f2f" fill-opacity="1" fill-rule="nonzero" d=" M347.19 396.1 C347.19,396.17 347.18,396.24 347.09,396.28 C346.67,396.46 346.22,396.53 345.73,396.53 C344.42,396.53 343.63,395.9 343.63,394.17 C343.63,394.17 343.63,388.89 343.63,388.89 C343.63,388.89 342.4,388.89 342.4,388.89 C342.3,388.87 342.28,388.84 342.28,388.75 C342.28,388.75 342.28,387.72 342.28,387.72 C342.28,387.63 342.31,387.6 342.4,387.6 C342.4,387.6 343.63,387.6 343.63,387.6 C343.65,386.93 343.72,385.69 343.79,385.29 C343.81,385.22 343.84,385.19 343.92,385.17 C343.92,385.17 345.14,384.97 345.14,384.97 C345.21,384.95 345.25,384.97 345.25,385.04 C345.19,385.67 345.14,386.71 345.14,387.6 C345.14,387.6 347.05,387.6 347.05,387.6 C347.12,387.6 347.16,387.63 347.16,387.72 C347.16,387.72 347.16,388.79 347.16,388.79 C347.16,388.86 347.12,388.89 347.05,388.89 C347.05,388.89 345.14,388.89 345.14,388.89 C345.14,388.89 345.14,393.95 345.14,393.95 C345.14,394.78 345.45,395.25 346.24,395.25 C346.51,395.25 346.78,395.21 347.09,395.11 C347.14,395.09 347.19,395.09 347.19,395.18 C347.19,395.18 347.19,396.1 347.19,396.1z "/><path id="_R_G_L_5_G_L_6_G_D_6_P_0" fill="#2f2f2f" fill-opacity="1" fill-rule="nonzero" d=" M348.69 384.95 C348.69,384.41 349.06,384.03 349.6,384.03 C350.18,384.03 350.5,384.43 350.5,384.95 C350.5,385.49 350.14,385.87 349.59,385.87 C349.03,385.87 348.69,385.49 348.69,384.95z  M348.83 387.72 C348.83,387.63 348.87,387.6 348.96,387.6 C348.96,387.6 350.23,387.6 350.23,387.6 C350.31,387.6 350.34,387.62 350.34,387.71 C350.34,387.71 350.34,396.22 350.34,396.22 C350.34,396.31 350.32,396.35 350.22,396.35 C350.22,396.35 348.97,396.35 348.97,396.35 C348.88,396.35 348.83,396.31 348.83,396.2 C348.83,396.2 348.83,387.72 348.83,387.72z "/><path id="_R_G_L_5_G_L_6_G_D_7_P_0" fill="#2f2f2f" fill-opacity="1" fill-rule="nonzero" d=" M354.03 387.6 C354.14,387.6 354.16,387.63 354.19,387.72 C354.27,387.94 354.32,388.57 354.34,388.97 C354.97,388.1 356.09,387.42 357.24,387.42 C357.33,387.42 357.36,387.44 357.36,387.54 C357.36,387.54 357.36,388.84 357.36,388.84 C357.36,388.93 357.35,388.95 357.24,388.95 C356,388.93 354.86,389.54 354.41,390.26 C354.41,390.26 354.39,396.24 354.39,396.24 C354.39,396.33 354.36,396.35 354.28,396.35 C354.28,396.35 353.01,396.35 353.01,396.35 C352.92,396.35 352.88,396.31 352.88,396.22 C352.88,396.22 352.88,390.01 352.88,390.01 C352.88,389.25 352.84,388.21 352.79,387.71 C352.79,387.63 352.81,387.6 352.88,387.6 C352.88,387.6 354.03,387.6 354.03,387.6z "/><path id="_R_G_L_5_G_L_6_G_D_8_P_0" fill="#2f2f2f" fill-opacity="1" fill-rule="nonzero" d=" M368.78 394.82 C368.78,395.12 368.78,395.39 368.81,395.68 C368.81,395.72 368.81,395.73 368.78,395.75 C367.48,396.36 366.45,396.53 365.41,396.53 C363.5,396.53 362.06,395.59 362.06,393.7 C362.06,391.79 363.84,390.95 366.07,390.95 C366.74,390.95 367.12,390.96 367.32,390.98 C367.32,390.98 367.32,390.55 367.32,390.55 C367.32,389.99 367.05,388.75 365.28,388.75 C364.42,388.75 363.63,388.95 363,389.29 C362.94,389.31 362.87,389.29 362.87,389.2 C362.87,389.2 362.87,388.1 362.87,388.1 C362.87,388.03 362.91,387.99 362.96,387.96 C363.66,387.62 364.56,387.42 365.52,387.42 C367.82,387.42 368.78,388.93 368.78,390.8 C368.78,390.8 368.78,394.82 368.78,394.82z  M367.32 392.17 C367.07,392.13 366.67,392.1 366.13,392.1 C364.38,392.1 363.54,392.69 363.54,393.7 C363.54,394.51 364.09,395.3 365.68,395.3 C366.25,395.3 366.8,395.21 367.32,395 C367.32,395 367.32,392.17 367.32,392.17z "/><path id="_R_G_L_5_G_L_6_G_D_9_P_0" fill="#2f2f2f" fill-opacity="1" fill-rule="nonzero" d=" M377.07 396.11 C377.07,396.19 377.07,396.22 377,396.24 C376.41,396.47 375.7,396.53 375.04,396.53 C372.1,396.53 370.59,394.44 370.59,392.01 C370.59,389.38 372.46,387.42 375.29,387.42 C376.21,387.42 376.71,387.52 377,387.65 C377.07,387.69 377.07,387.72 377.07,387.81 C377.07,387.81 377.07,388.95 377.07,388.95 C377.07,389.04 377.02,389.04 376.95,389.02 C376.5,388.84 376.03,388.75 375.29,388.75 C373.44,388.75 372.12,389.99 372.12,391.95 C372.12,394.11 373.62,395.18 375.29,395.18 C375.96,395.18 376.51,395.11 376.96,394.92 C377.05,394.91 377.07,394.94 377.07,395 C377.07,395 377.07,396.11 377.07,396.11z "/><path id="_R_G_L_5_G_L_6_G_D_10_P_0" fill="#2f2f2f" fill-opacity="1" fill-rule="nonzero" d=" M379.66 392.15 C379.65,393.86 380.64,395.21 382.67,395.21 C383.46,395.21 384.22,395.07 384.92,394.73 C384.98,394.69 385.01,394.73 385.01,394.8 C385.01,394.8 385.01,395.83 385.01,395.83 C385.01,395.93 384.98,395.97 384.92,396.01 C384.31,396.31 383.52,396.53 382.38,396.53 C379.27,396.53 378.15,394.24 378.15,392.04 C378.15,389.52 379.63,387.42 382.13,387.42 C384.71,387.42 385.64,389.51 385.64,391.04 C385.64,391.49 385.61,391.81 385.57,391.97 C385.57,392.03 385.52,392.08 385.44,392.08 C385.17,392.13 384.38,392.15 383.59,392.15 C383.59,392.15 379.66,392.15 379.66,392.15z  M383.03 391.04 C383.91,391.04 384.13,391.02 384.18,391 C384.2,390.95 384.2,390.86 384.2,390.8 C384.2,390.15 383.77,388.66 382.08,388.66 C380.58,388.66 379.84,389.83 379.68,391.04 C379.68,391.04 383.03,391.04 383.03,391.04z "/><path id="_R_G_L_5_G_L_6_G_D_11_P_0" fill="#2f2f2f" fill-opacity="1" fill-rule="nonzero" d=" M390.14 388.66 C388.95,388.66 388.56,389.23 388.56,389.78 C388.56,390.32 388.88,390.69 390.23,391.23 C392.05,391.94 392.79,392.67 392.79,393.95 C392.79,395.61 391.44,396.53 389.56,396.53 C388.57,396.53 387.67,396.31 387.15,396.01 C387.1,395.97 387.06,395.93 387.06,395.84 C387.06,395.84 387.06,394.64 387.06,394.64 C387.06,394.55 387.12,394.51 387.17,394.55 C387.89,395.05 388.81,395.27 389.6,395.27 C390.75,395.27 391.31,394.76 391.31,394.1 C391.31,393.43 390.91,393.03 389.67,392.55 C387.87,391.86 387.11,391.13 387.11,389.85 C387.11,388.55 388.21,387.42 390.18,387.42 C391.17,387.42 391.9,387.6 392.28,387.81 C392.37,387.85 392.37,387.92 392.37,387.99 C392.37,387.99 392.37,389.09 392.37,389.09 C392.37,389.18 392.32,389.23 392.23,389.18 C391.72,388.87 390.9,388.66 390.14,388.66z "/><path id="_R_G_L_5_G_L_6_G_D_12_P_0" fill="#2f2f2f" fill-opacity="1" fill-rule="nonzero" d=" M397.23 388.66 C396.04,388.66 395.65,389.23 395.65,389.78 C395.65,390.32 395.97,390.69 397.32,391.23 C399.14,391.94 399.88,392.67 399.88,393.95 C399.88,395.61 398.53,396.53 396.65,396.53 C395.66,396.53 394.76,396.31 394.24,396.01 C394.19,395.97 394.15,395.93 394.15,395.84 C394.15,395.84 394.15,394.64 394.15,394.64 C394.15,394.55 394.21,394.51 394.26,394.55 C394.98,395.05 395.9,395.27 396.69,395.27 C397.84,395.27 398.4,394.76 398.4,394.1 C398.4,393.43 398,393.03 396.76,392.55 C394.96,391.86 394.21,391.13 394.21,389.85 C394.21,388.55 395.3,387.42 397.27,387.42 C398.26,387.42 399,387.6 399.37,387.81 C399.46,387.85 399.46,387.92 399.46,387.99 C399.46,387.99 399.46,389.09 399.46,389.09 C399.46,389.18 399.41,389.23 399.32,389.18 C398.81,388.87 397.99,388.66 397.23,388.66z "/><path id="_R_G_L_5_G_L_6_G_D_13_P_0" fill="#2f2f2f" fill-opacity="1" fill-rule="nonzero" d=" M409.4 391.95 C409.4,394.69 407.71,396.53 405.29,396.53 C402.4,396.53 401.15,394.19 401.15,391.97 C401.15,389.43 402.77,387.42 405.29,387.42 C407.83,387.42 409.4,389.36 409.4,391.95z  M402.67 391.94 C402.67,393.77 403.62,395.23 405.33,395.23 C406.61,395.23 407.87,394.22 407.87,391.99 C407.87,390.32 407.1,388.71 405.22,388.71 C403.71,388.71 402.67,390.01 402.67,391.94z "/><path id="_R_G_L_5_G_L_6_G_D_14_P_0" fill="#2f2f2f" fill-opacity="1" fill-rule="nonzero" d=" M421.44 394.82 C421.44,395.12 421.44,395.39 421.48,395.68 C421.48,395.72 421.48,395.73 421.44,395.75 C420.14,396.36 419.12,396.53 418.07,396.53 C416.17,396.53 414.73,395.59 414.73,393.7 C414.73,391.79 416.51,390.95 418.74,390.95 C419.41,390.95 419.79,390.96 419.98,390.98 C419.98,390.98 419.98,390.55 419.98,390.55 C419.98,389.99 419.71,388.75 417.95,388.75 C417.08,388.75 416.29,388.95 415.66,389.29 C415.61,389.31 415.54,389.29 415.54,389.2 C415.54,389.2 415.54,388.1 415.54,388.1 C415.54,388.03 415.57,387.99 415.63,387.96 C416.33,387.62 417.23,387.42 418.18,387.42 C420.49,387.42 421.44,388.93 421.44,390.8 C421.44,390.8 421.44,394.82 421.44,394.82z  M419.98 392.17 C419.73,392.13 419.33,392.1 418.79,392.1 C417.05,392.1 416.2,392.69 416.2,393.7 C416.2,394.51 416.76,395.3 418.34,395.3 C418.92,395.3 419.46,395.21 419.98,395 C419.98,395 419.98,392.17 419.98,392.17z "/><path id="_R_G_L_5_G_L_6_G_D_15_P_0" fill="#2f2f2f" fill-opacity="1" fill-rule="nonzero" d=" M429.63 391.95 C429.63,393.93 430.71,395.18 432.67,395.18 C434.18,395.18 435.63,394.51 435.63,391.92 C435.63,391.92 435.63,384.57 435.63,384.57 C435.63,384.48 435.66,384.45 435.73,384.45 C435.73,384.45 437.01,384.45 437.01,384.45 C437.1,384.45 437.14,384.48 437.14,384.57 C437.14,384.57 437.14,391.94 437.14,391.94 C437.14,395.25 435.18,396.53 432.62,396.53 C429.9,396.53 428.14,395.05 428.14,392.04 C428.14,392.04 428.14,384.57 428.14,384.57 C428.14,384.5 428.15,384.45 428.24,384.45 C428.24,384.45 429.52,384.45 429.52,384.45 C429.59,384.45 429.63,384.48 429.63,384.55 C429.63,384.55 429.63,391.95 429.63,391.95z "/><path id="_R_G_L_5_G_L_6_G_D_16_P_0" fill="#2f2f2f" fill-opacity="1" fill-rule="nonzero" d=" M440 396.35 C439.92,396.35 439.89,396.33 439.89,396.24 C439.89,396.24 439.89,384.61 439.89,384.61 C439.89,384.52 439.91,384.46 440,384.46 C441,384.43 441.92,384.41 443.13,384.41 C445.78,384.41 447.54,385.54 447.54,387.85 C447.54,389.54 446.39,390.59 445.06,391.04 C445.67,391.88 448.08,395.43 448.55,396.2 C448.58,396.28 448.58,396.35 448.49,396.35 C448.49,396.35 446.98,396.35 446.98,396.35 C446.87,396.35 446.84,396.33 446.78,396.28 C446.23,395.43 444.73,393.12 443.83,391.74 C443.69,391.52 443.6,391.45 443.42,391.45 C443.42,391.45 441.36,391.45 441.36,391.45 C441.36,391.45 441.36,396.24 441.36,396.24 C441.36,396.31 441.33,396.35 441.26,396.35 C441.26,396.35 440,396.35 440,396.35z  M443.29 390.14 C445,390.14 446.04,389.25 446.04,387.92 C446.04,386.55 445,385.74 443.07,385.74 C442.39,385.74 441.72,385.76 441.36,385.78 C441.36,385.78 441.36,390.14 441.36,390.14 C441.36,390.14 443.29,390.14 443.29,390.14z "/><path id="_R_G_L_5_G_L_6_G_D_17_P_0" fill="#2f2f2f" fill-opacity="1" fill-rule="nonzero" d=" M450.18 396.35 C450.08,396.35 450.04,396.29 450.04,396.2 C450.04,396.2 450.04,384.57 450.04,384.57 C450.04,384.5 450.06,384.45 450.15,384.45 C450.15,384.45 451.44,384.45 451.44,384.45 C451.52,384.45 451.53,384.48 451.53,384.55 C451.53,384.55 451.53,394.98 451.53,394.98 C451.53,394.98 457.12,394.98 457.12,394.98 C457.21,394.98 457.22,395.03 457.21,395.09 C457.21,395.09 456.99,396.24 456.99,396.24 C456.97,396.33 456.92,396.35 456.85,396.35 C456.85,396.35 450.18,396.35 450.18,396.35z "/><path id="_R_G_L_5_G_L_6_G_D_18_P_0" fill="#2f2f2f" fill-opacity="1" fill-rule="nonzero" d=" M461.42 388.66 C460.23,388.66 459.83,389.23 459.83,389.78 C459.83,390.32 460.16,390.69 461.51,391.23 C463.33,391.94 464.06,392.67 464.06,393.95 C464.06,395.61 462.71,396.53 460.84,396.53 C459.85,396.53 458.95,396.31 458.43,396.01 C458.37,395.97 458.34,395.93 458.34,395.84 C458.34,395.84 458.34,394.64 458.34,394.64 C458.34,394.55 458.39,394.51 458.45,394.55 C459.17,395.05 460.08,395.27 460.88,395.27 C462.03,395.27 462.59,394.76 462.59,394.1 C462.59,393.43 462.19,393.03 460.95,392.55 C459.15,391.86 458.39,391.13 458.39,389.85 C458.39,388.55 459.49,387.42 461.45,387.42 C462.44,387.42 463.18,387.6 463.56,387.81 C463.65,387.85 463.65,387.92 463.65,387.99 C463.65,387.99 463.65,389.09 463.65,389.09 C463.65,389.18 463.59,389.23 463.5,389.18 C463,388.87 462.17,388.66 461.42,388.66z "/><path id="_R_G_L_5_G_L_6_G_D_19_P_0" fill="#2f2f2f" fill-opacity="1" fill-rule="nonzero" d=" M469.39 392.04 C469.39,389.4 471.35,387.42 474.29,387.42 C474.79,387.42 475.08,387.47 475.42,387.52 C475.42,387.52 475.42,383.55 475.42,383.55 C475.42,383.46 475.46,383.44 475.53,383.44 C475.53,383.44 476.83,383.44 476.83,383.44 C476.92,383.44 476.93,383.47 476.93,383.53 C476.93,383.53 476.93,394.87 476.93,394.87 C476.93,395.12 476.93,395.43 476.97,395.74 C476.97,395.81 476.95,395.83 476.88,395.86 C475.85,396.35 474.84,396.53 473.84,396.53 C471.33,396.53 469.39,395.02 469.39,392.04z  M475.42 388.89 C475.13,388.77 474.7,388.71 474.25,388.71 C472.2,388.71 470.92,390.1 470.92,391.97 C470.92,394.31 472.4,395.21 473.98,395.21 C474.45,395.21 475.01,395.16 475.42,394.98 C475.42,394.98 475.42,388.89 475.42,388.89z "/><path id="_R_G_L_5_G_L_6_G_D_20_P_0" fill="#2f2f2f" fill-opacity="1" fill-rule="nonzero" d=" M487.07 391.95 C487.07,394.69 485.37,396.53 482.96,396.53 C480.06,396.53 478.82,394.19 478.82,391.97 C478.82,389.43 480.44,387.42 482.96,387.42 C485.5,387.42 487.07,389.36 487.07,391.95z  M480.33 391.94 C480.33,393.77 481.29,395.23 483,395.23 C484.28,395.23 485.54,394.22 485.54,391.99 C485.54,390.32 484.76,388.71 482.89,388.71 C481.38,388.71 480.33,390.01 480.33,391.94z "/><path id="_R_G_L_5_G_L_6_G_D_21_P_0" fill="#2f2f2f" fill-opacity="1" fill-rule="nonzero" d=" M499.11 394.82 C499.11,395.12 499.11,395.39 499.14,395.68 C499.14,395.72 499.14,395.73 499.11,395.75 C497.81,396.36 496.79,396.53 495.74,396.53 C493.83,396.53 492.39,395.59 492.39,393.7 C492.39,391.79 494.17,390.95 496.41,390.95 C497.07,390.95 497.45,390.96 497.65,390.98 C497.65,390.98 497.65,390.55 497.65,390.55 C497.65,389.99 497.38,388.75 495.61,388.75 C494.75,388.75 493.96,388.95 493.33,389.29 C493.28,389.31 493.2,389.29 493.2,389.2 C493.2,389.2 493.2,388.1 493.2,388.1 C493.2,388.03 493.24,387.99 493.29,387.96 C493.99,387.62 494.9,387.42 495.85,387.42 C498.15,387.42 499.11,388.93 499.11,390.8 C499.11,390.8 499.11,394.82 499.11,394.82z  M497.65 392.17 C497.4,392.13 497,392.1 496.46,392.1 C494.71,392.1 493.87,392.69 493.87,393.7 C493.87,394.51 494.43,395.3 496.01,395.3 C496.59,395.3 497.13,395.21 497.65,395 C497.65,395 497.65,392.17 497.65,392.17z "/><path id="_R_G_L_5_G_L_6_G_D_22_P_0" fill="#2f2f2f" fill-opacity="1" fill-rule="nonzero" d=" M502.78 387.6 C502.89,387.6 502.9,387.63 502.94,387.72 C503.01,387.94 503.07,388.57 503.08,388.97 C503.71,388.1 504.83,387.42 505.98,387.42 C506.07,387.42 506.11,387.44 506.11,387.54 C506.11,387.54 506.11,388.84 506.11,388.84 C506.11,388.93 506.09,388.95 505.98,388.95 C504.74,388.93 503.61,389.54 503.16,390.26 C503.16,390.26 503.14,396.24 503.14,396.24 C503.14,396.33 503.1,396.35 503.03,396.35 C503.03,396.35 501.75,396.35 501.75,396.35 C501.66,396.35 501.63,396.31 501.63,396.22 C501.63,396.22 501.63,390.01 501.63,390.01 C501.63,389.25 501.59,388.21 501.54,387.71 C501.54,387.63 501.55,387.6 501.63,387.6 C501.63,387.6 502.78,387.6 502.78,387.6z "/><path id="_R_G_L_5_G_L_6_G_D_23_P_0" fill="#2f2f2f" fill-opacity="1" fill-rule="nonzero" d=" M506.86 392.08 C506.86,389.4 508.79,387.42 511.76,387.42 C512.93,387.42 513.85,387.65 514.42,387.9 C514.48,387.92 514.48,387.94 514.48,387.99 C514.44,388.3 514.42,388.69 514.42,388.84 C514.42,388.84 514.42,400.07 514.42,400.07 C514.42,400.15 514.39,400.16 514.32,400.18 C513.87,400.24 513.07,400.33 513,400.33 C512.95,400.33 512.91,400.29 512.91,400.22 C512.91,400.22 512.91,396.24 512.91,396.24 C512.34,396.44 511.76,396.53 511.18,396.53 C508.84,396.53 506.86,394.96 506.86,392.08z  M512.91 388.89 C512.54,388.77 512.1,388.71 511.62,388.71 C509.62,388.71 508.39,390.05 508.39,391.99 C508.39,394.19 509.92,395.2 511.4,395.2 C512.01,395.2 512.48,395.12 512.91,394.94 C512.91,394.94 512.91,388.89 512.91,388.89z "/><path id="_R_G_L_5_G_L_6_G_D_24_P_0" fill="#2f2f2f" fill-opacity="1" fill-rule="nonzero" d=" M523.93 394.44 C523.93,395.39 523.98,395.84 524.04,396.24 C524.04,396.31 524.02,396.35 523.93,396.35 C523.93,396.35 522.78,396.35 522.78,396.35 C522.69,396.35 522.67,396.33 522.63,396.26 C522.58,396.06 522.54,395.74 522.53,395.48 C521.77,396.26 520.81,396.53 519.91,396.53 C518.38,396.53 516.94,395.75 516.94,393.14 C516.94,393.14 516.94,387.71 516.94,387.71 C516.94,387.62 516.98,387.6 517.07,387.6 C517.07,387.6 518.35,387.6 518.35,387.6 C518.42,387.6 518.44,387.63 518.44,387.71 C518.44,387.71 518.44,392.96 518.44,392.96 C518.44,394.35 519.09,395.2 520.35,395.2 C521.21,395.2 521.9,394.87 522.44,394.28 C522.44,394.28 522.44,387.71 522.44,387.71 C522.44,387.63 522.47,387.6 522.56,387.6 C522.56,387.6 523.82,387.6 523.82,387.6 C523.93,387.6 523.93,387.63 523.93,387.71 C523.93,387.71 523.93,394.44 523.93,394.44z "/><path id="_R_G_L_5_G_L_6_G_D_25_P_0" fill="#2f2f2f" fill-opacity="1" fill-rule="nonzero" d=" M526.32 384.95 C526.32,384.41 526.7,384.03 527.24,384.03 C527.82,384.03 528.14,384.43 528.14,384.95 C528.14,385.49 527.78,385.87 527.22,385.87 C526.66,385.87 526.32,385.49 526.32,384.95z  M526.47 387.72 C526.47,387.63 526.5,387.6 526.59,387.6 C526.59,387.6 527.87,387.6 527.87,387.6 C527.94,387.6 527.98,387.62 527.98,387.71 C527.98,387.71 527.98,396.22 527.98,396.22 C527.98,396.31 527.96,396.35 527.85,396.35 C527.85,396.35 526.61,396.35 526.61,396.35 C526.52,396.35 526.47,396.31 526.47,396.2 C526.47,396.2 526.47,387.72 526.47,387.72z "/><path id="_R_G_L_5_G_L_6_G_D_26_P_0" fill="#2f2f2f" fill-opacity="1" fill-rule="nonzero" d=" M532.73 396.35 C532.62,396.35 532.6,396.31 532.57,396.26 C532.19,395.16 529.97,388.93 529.54,387.72 C529.52,387.65 529.52,387.6 529.61,387.6 C529.61,387.6 531,387.6 531,387.6 C531.09,387.6 531.11,387.63 531.15,387.71 C532.66,392.26 533.31,394.22 533.5,394.96 C533.5,394.96 533.54,394.96 533.54,394.96 C533.76,394.22 534.42,392.29 536.01,387.69 C536.04,387.62 536.08,387.6 536.15,387.6 C536.15,387.6 537.39,387.6 537.39,387.6 C537.45,387.6 537.5,387.63 537.46,387.72 C536.94,389.13 534.75,395.16 534.35,396.24 C534.31,396.31 534.28,396.35 534.19,396.35 C534.19,396.35 532.73,396.35 532.73,396.35z "/><path id="_R_G_L_5_G_L_6_G_D_27_P_0" fill="#2f2f2f" fill-opacity="1" fill-rule="nonzero" d=" M546.61 391.95 C546.61,394.69 544.92,396.53 542.5,396.53 C539.6,396.53 538.36,394.19 538.36,391.97 C538.36,389.43 539.98,387.42 542.5,387.42 C545.04,387.42 546.61,389.36 546.61,391.95z  M539.87 391.94 C539.87,393.77 540.83,395.23 542.54,395.23 C543.82,395.23 545.08,394.22 545.08,391.99 C545.08,390.32 544.3,388.71 542.43,388.71 C540.92,388.71 539.87,390.01 539.87,391.94z "/></g></g><g id="_R_G_L_5_G_L_5_G_N_8_T_0"><g id="_R_G_L_5_G_L_5_G" transform=" translate(327.159, 172.252) translate(0, 0)"><path id="_R_G_L_5_G_L_5_G_D_0_P_0" fill="#c30000" fill-opacity="1" fill-rule="nonzero" d=" M-7.94 -11.98 C-7.94,-11.98 7.94,-11.98 7.94,-11.98 C10.34,-11.98 12.29,-10.04 12.29,-7.64 C12.29,-7.63 12.29,-7.63 12.29,-7.63 C12.29,-7.63 12.29,7.63 12.29,7.63 C12.29,10.03 10.35,11.98 7.94,11.98 C7.94,11.98 7.94,11.98 7.94,11.98 C7.94,11.98 -7.94,11.98 -7.94,11.98 C-10.34,11.98 -12.29,10.04 -12.29,7.64 C-12.29,7.63 -12.29,7.63 -12.29,7.63 C-12.29,7.63 -12.29,-7.63 -12.29,-7.63 C-12.29,-10.03 -10.34,-11.98 -7.94,-11.98 C-7.94,-11.98 -7.94,-11.98 -7.94,-11.98z "/></g></g><g id="_R_G_L_5_G_L_4_G_N_8_T_0"><g id="_R_G_L_5_G_L_4_G" transform=" translate(327.332, 172.278) translate(0, 0)"><path id="_R_G_L_5_G_L_4_G_D_0_P_0" fill="#ffffff" fill-opacity="1" fill-rule="nonzero" d=" M7.3 1.87 C6.16,0.66 3.02,1.15 2.28,1.27 C1.46,0.45 0.76,-0.48 0.19,-1.49 C0.61,-2.65 0.85,-3.88 0.9,-5.11 C0.9,-6.22 0.46,-7.41 -0.77,-7.41 C-1.19,-7.4 -1.58,-7.17 -1.8,-6.8 C-2.33,-5.9 -2.12,-4.04 -1.28,-2.16 C-1.77,-0.77 -2.48,1.22 -3.41,2.84 C-4.67,3.34 -7.34,4.57 -7.6,5.93 C-7.68,6.34 -7.54,6.75 -7.23,7.02 C-6.93,7.28 -6.54,7.42 -6.14,7.41 C-4.54,7.41 -2.93,5.18 -1.84,3.26 C-0.59,2.83 0.69,2.5 1.99,2.26 C3.69,3.74 5.2,3.97 5.97,3.97 C7.02,3.97 7.4,3.52 7.55,3.14 C7.7,2.7 7.61,2.22 7.3,1.87z  M6.2 2.65 C6.15,2.94 5.77,3.24 5.06,3.09 C4.24,2.88 3.48,2.5 2.83,1.96 C3.38,1.87 4.67,1.75 5.58,1.92 C5.91,1.98 6.29,2.17 6.2,2.65z  M-1.14 -6.42 C-1.07,-6.55 -0.93,-6.64 -0.78,-6.64 C-0.39,-6.64 -0.31,-6.17 -0.31,-5.78 C-0.37,-4.85 -0.54,-3.93 -0.82,-3.05 C-1.47,-4.79 -1.38,-6 -1.14,-6.42z  M-1.23 2.09 C-0.85,1.3 -0.51,0.49 -0.21,-0.34 C0.19,0.31 0.66,0.92 1.18,1.48 C0.37,1.64 -0.44,1.85 -1.23,2.09z  M-3.8 3.86 C-4.83,5.51 -5.85,6.56 -6.44,6.56 C-6.54,6.56 -6.63,6.53 -6.71,6.47 C-6.82,6.38 -6.87,6.23 -6.84,6.09 C-6.73,5.49 -5.55,4.63 -3.8,3.86 C-3.8,3.86 -3.8,3.86 -3.8,3.86z "/></g></g><g id="_R_G_L_5_G_L_3_G_M"><g id="_R_G_L_5_G_L_3_G" transform=" translate(692.84, 390.818) translate(0, 0)"><path id="_R_G_L_5_G_L_3_G_D_0_P_0" fill="#9cb9f0" fill-opacity="1" fill-rule="nonzero" d=" M10.9 7.6 C10.9,7.6 -10.9,7.6 -10.9,7.6 C-15.1,7.6 -18.5,4.2 -18.5,0 C-18.5,0 -18.5,0 -18.5,0 C-18.5,-4.2 -15.1,-7.6 -10.9,-7.6 C-10.9,-7.6 10.9,-7.6 10.9,-7.6 C15.1,-7.6 18.5,-4.2 18.5,0 C18.5,0 18.5,0 18.5,0 C18.5,4.2 15.1,7.6 10.9,7.6z "/></g></g><g id="_R_G_L_5_G_L_2_G_N_8_T_0_M"><g id="_R_G_L_5_G_L_2_G_N_8_T_0"><g id="_R_G_L_5_G_L_2_G" transform=" translate(692.84, 390.818) translate(0, 0)"><path id="_R_G_L_5_G_L_2_G_D_0_P_0" fill="#bfc1c5" fill-opacity="1" fill-rule="nonzero" d=" M10.9 7.6 C10.9,7.6 -10.9,7.6 -10.9,7.6 C-15.1,7.6 -18.5,4.2 -18.5,0 C-18.5,0 -18.5,0 -18.5,0 C-18.5,-4.2 -15.1,-7.6 -10.9,-7.6 C-10.9,-7.6 10.9,-7.6 10.9,-7.6 C15.1,-7.6 18.5,-4.2 18.5,0 C18.5,0 18.5,0 18.5,0 C18.5,4.2 15.1,7.6 10.9,7.6z "/></g></g></g><g id="_R_G_L_5_G_L_1_G_N_8_T_0_M"><g id="_R_G_L_5_G_L_1_G_N_8_T_0"><g id="_R_G_L_5_G_L_1_G"><path id="_R_G_L_5_G_L_1_G_D_0_P_0" fill="#ffffff" fill-opacity="1" fill-rule="nonzero" d=" M-10.46 0 C-10.46,5.78 -5.78,10.46 0,10.46 C5.78,10.46 10.46,5.78 10.46,0 C10.46,-5.78 5.78,-10.46 0,-10.46 C-5.78,-10.46 -10.46,-5.78 -10.46,0z "/><path id="_R_G_L_5_G_L_1_G_D_1_P_0" stroke="#e6e6e6" stroke-linecap="round" stroke-linejoin="round" fill="none" stroke-width="1" stroke-opacity="1" d=" M-10.46 0 C-10.46,5.78 -5.78,10.46 0,10.46 C5.78,10.46 10.46,5.78 10.46,0 C10.46,-5.78 5.78,-10.46 0,-10.46 C-5.78,-10.46 -10.46,-5.78 -10.46,0z "/></g></g></g><g id="_R_G_L_5_G_L_0_G_M"><g id="_R_G_L_5_G_L_0_G"><path id="_R_G_L_5_G_L_0_G_D_0_P_0" fill="#3872e0" fill-opacity="1" fill-rule="nonzero" d=" M-10.46 0 C-10.46,5.78 -5.78,10.46 0,10.46 C5.78,10.46 10.46,5.78 10.46,0 C10.46,-5.78 5.78,-10.46 0,-10.46 C-5.78,-10.46 -10.46,-5.78 -10.46,0z "/></g></g></g><g id="_R_G_L_4_G_M"><g id="_R_G_L_4_G" transform=" translate(683.13, 395.892) scale(0.6, 0.6) translate(-1378.179, -739.009)"><g id="_R_G_L_4_G_D_0_P_0_G_0_T_0" transform=" translate(1378.179, 739.009)"><path id="_R_G_L_4_G_D_0_P_0" stroke="#ffa72f" stroke-linecap="round" stroke-linejoin="round" fill="none" stroke-width="13" stroke-opacity="1" d=" M61.7 0 C61.7,34.07 34.07,61.7 0,61.7 C-34.07,61.7 -61.7,34.07 -61.7,0 C-61.7,-34.07 -34.07,-61.7 0,-61.7 C34.07,-61.7 61.7,-34.07 61.7,0z "/></g></g></g><g id="_R_G_L_3_G_M"><g id="_R_G_L_3_G" transform=" translate(683.13, 395.892) scale(0.6, 0.6) translate(-1378.179, -739.009)"><g id="_R_G_L_3_G_D_0_P_0_G_0_T_0" transform=" translate(1378.179, 739.009)"><path id="_R_G_L_3_G_D_0_P_0" stroke="#ffa72f" stroke-linecap="round" stroke-linejoin="round" fill="none" stroke-width="7.5" stroke-opacity="1" d=" M82.12 0 C82.12,45.36 45.36,82.12 0,82.12 C-45.35,82.12 -82.12,45.36 -82.12,0 C-82.12,-45.35 -45.35,-82.12 0,-82.12 C45.36,-82.12 82.12,-45.35 82.12,0z "/></g></g></g><g id="_R_G_L_2_G_M"><g id="_R_G_L_2_G" transform=" translate(683.13, 395.892) scale(0.6, 0.6) translate(-1378.179, -739.009)"><g id="_R_G_L_2_G_D_0_P_0_G_0_T_0" transform=" translate(1378.179, 739.009)"><path id="_R_G_L_2_G_D_0_P_0" stroke="#ffa72f" stroke-linecap="round" stroke-linejoin="round" fill="none" stroke-width="2.5" stroke-opacity="1" d=" M99.12 0 C99.12,54.74 54.74,99.12 0,99.12 C-54.74,99.12 -99.12,54.74 -99.12,0 C-99.12,-54.74 -54.74,-99.12 0,-99.12 C54.74,-99.12 99.12,-54.74 99.12,0z "/></g></g></g><g id="_R_G_L_1_G_N_1_T_0_M"><g id="_R_G_L_1_G_N_1_T_0"><g id="_R_G_L_1_G" opacity="0.3" transform=" translate(1568.36, 743.988) translate(-1562.36, -741.21)"><path id="_R_G_L_1_G_D_0_P_0" fill="#1a1818" fill-opacity="1" fill-rule="nonzero" d=" M1576.33 783.55 C1576.33,783.55 1575.58,783.55 1575.58,783.55 C1575.58,783.55 1574.45,782.42 1574.45,782.42 C1574.45,782.42 1570.31,771.88 1570.31,771.88 C1570.31,771.88 1563.9,776.77 1563.9,776.77 C1563.9,776.77 1562.03,776.77 1562.03,776.77 C1561.41,776.51 1560.98,775.93 1560.9,775.27 C1560.9,775.27 1560.14,740.63 1560.14,740.63 C1560.08,739.82 1560.53,739.07 1561.27,738.75 C1561.27,738.75 1562.03,738.75 1562.03,738.75 C1562.03,738.75 1563.53,739.5 1563.53,739.5 C1563.53,739.5 1586.5,765.11 1586.5,765.11 C1587.14,765.93 1587,767.11 1586.18,767.75 C1585.94,767.94 1585.67,768.06 1585.37,768.12 C1585.37,768.12 1577.09,769.25 1577.09,769.25 C1577.09,769.25 1581.23,779.78 1581.23,779.78 C1581.49,780.71 1581,781.69 1580.1,782.04 C1580.1,782.04 1576.71,783.17 1576.71,783.17 C1576.71,783.17 1576.33,783.17 1576.33,783.17 "/><path id="_R_G_L_1_G_D_1_P_0" fill="#000000" fill-opacity="1" fill-rule="nonzero" d=" M1562.03 740.63 C1562.03,740.63 1585.36,766.6 1585.36,766.6 C1585.36,766.6 1574.82,767.74 1574.82,767.74 C1574.82,767.74 1580.1,780.54 1580.1,780.54 C1580.1,780.54 1576.71,781.67 1576.71,781.67 C1576.71,781.67 1571.07,768.87 1571.07,768.87 C1571.07,768.87 1562.77,775.27 1562.77,775.27 C1562.77,775.27 1562.03,740.63 1562.03,740.63  M1562.03 736.86 C1562.03,736.86 1560.52,736.86 1560.52,736.86 C1559.03,737.5 1558.12,739.02 1558.25,740.63 C1558.25,740.63 1559.01,775.27 1559.01,775.27 C1559.03,776.74 1559.92,778.07 1561.27,778.66 C1561.27,778.66 1562.76,778.66 1562.76,778.66 C1562.76,778.66 1565.02,777.91 1565.02,777.91 C1565.02,777.91 1569.54,774.89 1569.54,774.89 C1569.54,774.89 1572.95,783.17 1572.95,783.17 C1573.54,784.52 1574.86,785.4 1576.33,785.43 C1576.33,785.43 1577.84,785.43 1577.84,785.43 C1577.84,785.43 1581.23,784.3 1581.23,784.3 C1583.19,783.6 1584.22,781.45 1583.52,779.49 C1583.52,779.49 1583.52,779.49 1583.52,779.49 C1583.51,779.46 1583.5,779.43 1583.49,779.4 C1583.49,779.4 1579.72,770.74 1579.72,770.74 C1579.72,770.74 1585.75,770.74 1585.75,770.74 C1587.82,770.52 1589.31,768.67 1589.1,766.6 C1589.01,765.74 1588.62,764.94 1588.01,764.33 C1588.01,764.33 1564.67,737.98 1564.67,737.98 C1563.97,737.27 1563.02,736.87 1562.02,736.85 "/></g></g></g><g id="_R_G_L_0_G_M"><g id="_R_G_L_0_G"><path id="_R_G_L_0_G_D_0_P_0" fill="#1a1818" fill-opacity="1" fill-rule="nonzero" d=" M1576.33 783.55 C1576.33,783.55 1575.58,783.55 1575.58,783.55 C1575.58,783.55 1574.45,782.42 1574.45,782.42 C1574.45,782.42 1570.31,771.88 1570.31,771.88 C1570.31,771.88 1563.9,776.77 1563.9,776.77 C1563.9,776.77 1562.03,776.77 1562.03,776.77 C1561.41,776.51 1560.98,775.93 1560.9,775.27 C1560.9,775.27 1560.14,740.63 1560.14,740.63 C1560.08,739.82 1560.53,739.07 1561.27,738.75 C1561.27,738.75 1562.03,738.75 1562.03,738.75 C1562.03,738.75 1563.53,739.5 1563.53,739.5 C1563.53,739.5 1586.5,765.11 1586.5,765.11 C1587.14,765.93 1587,767.11 1586.18,767.75 C1585.94,767.94 1585.67,768.06 1585.37,768.12 C1585.37,768.12 1577.09,769.25 1577.09,769.25 C1577.09,769.25 1581.23,779.78 1581.23,779.78 C1581.49,780.71 1581,781.69 1580.1,782.04 C1580.1,782.04 1576.71,783.17 1576.71,783.17 C1576.71,783.17 1576.33,783.17 1576.33,783.17 "/><path id="_R_G_L_0_G_D_1_P_0" fill="#ffffff" fill-opacity="1" fill-rule="nonzero" d=" M1562.03 740.63 C1562.03,740.63 1585.36,766.6 1585.36,766.6 C1585.36,766.6 1574.82,767.74 1574.82,767.74 C1574.82,767.74 1580.1,780.54 1580.1,780.54 C1580.1,780.54 1576.71,781.67 1576.71,781.67 C1576.71,781.67 1571.07,768.87 1571.07,768.87 C1571.07,768.87 1562.77,775.27 1562.77,775.27 C1562.77,775.27 1562.03,740.63 1562.03,740.63  M1562.03 736.86 C1562.03,736.86 1560.52,736.86 1560.52,736.86 C1559.03,737.5 1558.12,739.02 1558.25,740.63 C1558.25,740.63 1559.01,775.27 1559.01,775.27 C1559.03,776.74 1559.92,778.07 1561.27,778.66 C1561.27,778.66 1562.76,778.66 1562.76,778.66 C1562.76,778.66 1565.02,777.91 1565.02,777.91 C1565.02,777.91 1569.54,774.89 1569.54,774.89 C1569.54,774.89 1572.95,783.17 1572.95,783.17 C1573.54,784.52 1574.86,785.4 1576.33,785.43 C1576.33,785.43 1577.84,785.43 1577.84,785.43 C1577.84,785.43 1581.23,784.3 1581.23,784.3 C1583.19,783.6 1584.22,781.45 1583.52,779.49 C1583.52,779.49 1583.52,779.49 1583.52,779.49 C1583.51,779.46 1583.5,779.43 1583.49,779.4 C1583.49,779.4 1579.72,770.74 1579.72,770.74 C1579.72,770.74 1585.75,770.74 1585.75,770.74 C1587.82,770.52 1589.31,768.67 1589.1,766.6 C1589.01,765.74 1588.62,764.94 1588.01,764.33 C1588.01,764.33 1564.67,737.98 1564.67,737.98 C1563.97,737.27 1563.02,736.87 1562.02,736.85 "/></g></g></g><g id="time_group"/></svg>