<svg xmlns="http://www.w3.org/2000/svg" width="96" height="96" viewBox="0 0 96 96">
  <path d="M93.99724,58.44216c-7.1599-7.61189-26.96361-4.51493-31.60755-3.74094A80.60665,80.60665,0,0,1,49.16088,37.28447a77.59855,77.59855,0,0,0,4.51494-22.83468C53.67682,7.48289,50.89786,0,43.162,0a7.84687,7.84687,0,0,0-6.5149,3.806c-3.29,5.67591-2,17.41675,3.28995,29.28557A197.93149,197.93149,0,0,1,26.51921,64.56608C18.58532,67.731,1.74957,75.47192.13659,84.0508a7.24488,7.24488,0,0,0,2.322,6.8379,9.81785,9.81785,0,0,0,6.8399,2.451c10.12785,0,20.25471-14.0618,27.09261-26.12462a172.02846,172.02846,0,0,1,24.12466-6.32191A38.4504,38.4504,0,0,0,85.60636,71.666c6.57991,0,9.03087-2.838,9.93386-5.22492A8.05787,8.05787,0,0,0,93.99724,58.44216Zm-6.9669,4.89993c-.323,1.871-2.709,3.74095-7.15989,2.774a35.82653,35.82653,0,0,1-14.0618-7.0999,58.46827,58.46827,0,0,1,17.34675-.25c2.064.385,4.45094,1.547,3.87094,4.57893ZM40.84,6.25691a2.592,2.592,0,0,1,2.258-1.419c2.451,0,2.967,2.967,2.967,5.41892A75.33223,75.33223,0,0,1,42.84,27.47961C38.711,16.51376,39.292,8.90187,40.84,6.25691Zm-.581,53.59923a162.04431,162.04431,0,0,0,6.38591-15.35278A81.299,81.299,0,0,0,55.41779,55.9912,145.12008,145.12008,0,0,0,40.259,59.86114ZM24.06825,70.956C17.55334,81.40583,11.16843,87.98574,7.42648,87.98574a2.64992,2.64992,0,0,1-1.677-.581,2.4,2.4,0,0,1-.839-2.387C5.61951,81.27683,13.0374,75.85891,24.06825,70.956Z" fill="var(--iconFill, #464646)" opacity="0.11"/>
</svg>
