<svg width="20" height="20" viewBox="0 0 20 20" fill="none" xmlns="http://www.w3.org/2000/svg">
<mask id="mask0_5115_4576" style="mask-type:alpha" maskUnits="userSpaceOnUse" x="0" y="0" width="20" height="20">
<g clip-path="url(#clip0_5115_4576)">
<path fill-rule="evenodd" clip-rule="evenodd" d="M9.82698 9.7129C9.69416 10.0763 9.54934 10.4484 9.39529 10.8205C9.27841 11.102 9.14416 11.3982 8.99805 11.6971C9.27299 11.6135 9.54812 11.5349 9.81913 11.4633C10.1962 11.364 10.5683 11.2761 10.9283 11.2002L10.9578 11.1937C10.6833 10.8926 10.4263 10.5759 10.1882 10.2455C10.0647 10.0741 9.94429 9.89624 9.82698 9.7129Z" fill="#292929"/>
<path fill-rule="evenodd" clip-rule="evenodd" d="M9.74448 5.29227C9.74448 4.97224 9.67525 4.58984 9.35795 4.58984C9.23482 4.59581 9.12443 4.6674 9.06823 4.77698C8.80848 5.68987 8.90144 6.66729 9.32867 7.51455C9.56238 6.79477 9.7021 6.04785 9.74448 5.29227Z" fill="#292929"/>
<path fill-rule="evenodd" clip-rule="evenodd" d="M4.42837 14.9475C4.40458 15.0625 4.44722 15.1813 4.53882 15.2556C4.59768 15.3082 4.6749 15.3359 4.75389 15.3326C5.23609 15.3326 6.06111 14.4794 6.89941 13.1299C5.47517 13.7661 4.52025 14.4637 4.42837 14.9475Z" fill="#292929"/>
<path fill-rule="evenodd" clip-rule="evenodd" d="M14.5334 11.5549C14.2373 11.5039 13.9371 11.4811 13.6368 11.486C13.1862 11.4865 12.7364 11.5213 12.291 11.5896C12.8222 12.0268 13.4431 12.3408 14.1097 12.5101C14.2036 12.5334 14.3 12.5459 14.3967 12.5464C14.7367 12.5464 14.9851 12.3907 15.0316 12.1499C15.1074 11.7594 14.8031 11.6107 14.5334 11.5549Z" fill="#292929"/>
<path fill-rule="evenodd" clip-rule="evenodd" d="M16.3889 0H3.60665C1.61477 0 0 1.61476 0 3.60651V16.3891C0 18.3808 1.61477 19.9956 3.60665 19.9956H16.3889C18.3808 19.9956 19.9956 18.3808 19.9956 16.3891V3.60651C19.9956 1.61476 18.3808 0 16.3889 0ZM16.4146 12.6567C16.1507 13.2675 15.5101 13.6255 14.8519 13.53C13.616 13.4812 12.4376 12.9946 11.5274 12.1571C11.0746 12.2417 10.5913 12.3519 10.0885 12.4847C9.6229 12.6079 9.15609 12.7478 8.69904 12.9008C7.40111 15.1746 6.15688 16.3272 4.99984 16.3272C4.59825 16.337 4.20778 16.1949 3.90694 15.9285C3.58691 15.6378 3.44086 15.2022 3.52128 14.7775C3.74339 13.5913 5.75712 12.5927 7.00927 12.0796C7.32516 11.4981 7.61067 10.9009 7.86479 10.2901C8.15953 9.58228 8.40544 8.93518 8.63428 8.26205C7.96603 7.0541 7.83388 5.62212 8.26998 4.31219C8.49881 3.92057 8.91532 3.67648 9.36898 3.6678C10.3777 3.6678 11.0294 4.5183 11.0294 5.83421C10.9833 6.82629 10.7951 7.80643 10.4704 8.74535C10.6456 9.04477 10.8384 9.34038 11.0453 9.62678C11.3198 10.0114 11.6244 10.3731 11.9564 10.7094C14.0244 10.4057 15.5005 10.6064 16.1553 11.3094C16.4844 11.676 16.5842 12.194 16.4146 12.6567Z" fill="#292929"/>
</g>
</mask>
<g mask="url(#mask0_5115_4576)">
<rect width="19.998" height="19.998" fill="#131313"/>
</g>
<defs>
<clipPath id="clip0_5115_4576">
<rect width="19.9956" height="19.9956" fill="white"/>
</clipPath>
</defs>
</svg>
