<svg id="Layer_1" data-name="Layer 1" xmlns="http://www.w3.org/2000/svg" viewBox="0 0 24 24">
    <defs>
        <style>.cls-1{fill:#fff;}</style>
    </defs>
    <title>Artboard 1</title>
    <g id="Layer_3" data-name="Layer 3">
        <g id="Layer_86" data-name="Layer 86">
            <path id="_64" data-name=" 64" class="cls-1"
                  d="M23.49809,14.94243c-1.78991-1.90278-6.74037-1.12877-7.90139-.93526A20.15014,20.15014,0,0,1,12.291,9.65334,19.39849,19.39849,0,0,0,13.41978,3.945c0-1.74153-.69339-3.61206-2.62842-3.61206a1.96156,1.96156,0,0,0-1.62866.95139c-.82239,1.419-.49988,4.35383.82239,7.32088A49.47947,49.47947,0,0,1,6.631,16.47434C4.64762,17.26448.43892,19.19951.03579,21.34418A1.81116,1.81116,0,0,0,.6163,23.05346a2.45433,2.45433,0,0,0,1.70928.61276c2.53167,0,5.06334-3.51532,6.77262-6.53074a43.00478,43.00478,0,0,1,6.03086-1.58028,9.61193,9.61193,0,0,0,6.27274,2.69292c1.64478,0,2.25754-.70951,2.4833-1.30615A2.01437,2.01437,0,0,0,23.49809,14.94243ZM21.75656,16.168c-.08063.46763-.67726.93526-1.78991.69339a8.956,8.956,0,0,1-3.51531-1.77379,14.61614,14.61614,0,0,1,4.3377-.0645C21.30505,15.11981,21.90169,15.41007,21.75656,16.168ZM10.21085,1.89707a.648.648,0,0,1,.56438-.35476c.61277,0,.74177.74177.74177,1.35453a18.83162,18.83162,0,0,1-.80627,4.30545C9.67871,4.461,9.82384,2.55821,10.21085,1.89707Zm-.14513,13.40012a40.508,40.508,0,0,0,1.59641-3.83782,20.323,20.323,0,0,0,2.193,2.8703A36.27533,36.27533,0,0,0,10.06572,15.29719ZM6.01827,18.07074C4.38962,20.683,2.79321,22.32782,1.858,22.32782a.66254.66254,0,0,1-.41926-.14513.601.601,0,0,1-.20963-.59664C1.40644,20.65079,3.26085,19.29626,6.01827,18.07074Z"/>
        </g>
    </g>
</svg>