<svg width="274" height="138" viewBox="0 0 274 138" fill="none" xmlns="http://www.w3.org/2000/svg">
<g filter="url(#filter0_d_5906_5332)">
<path d="M183.69 13.17H22.93C17.9981 13.17 14 17.1681 14 22.1V114.21C14 119.142 17.9981 123.14 22.93 123.14H183.69C188.622 123.14 192.62 119.142 192.62 114.21V22.1C192.62 17.1681 188.622 13.17 183.69 13.17Z" fill="white"/>
</g>
<path d="M192.62 27.94V114.21C192.62 119.14 188.62 123.14 183.69 123.14H22.9202C17.9902 123.14 13.9902 119.14 13.9902 114.21V27.94H192.61H192.62Z" fill="#F2F2F2"/>
<path d="M167.421 23.52C168.636 23.52 169.621 22.535 169.621 21.32C169.621 20.105 168.636 19.12 167.421 19.12C166.206 19.12 165.221 20.105 165.221 21.32C165.221 22.535 166.206 23.52 167.421 23.52Z" fill="#DBDBDB"/>
<path d="M175.38 23.52C176.595 23.52 177.58 22.535 177.58 21.32C177.58 20.105 176.595 19.12 175.38 19.12C174.165 19.12 173.18 20.105 173.18 21.32C173.18 22.535 174.165 23.52 175.38 23.52Z" fill="#DBDBDB"/>
<path d="M183.341 23.52C184.556 23.52 185.541 22.535 185.541 21.32C185.541 20.105 184.556 19.12 183.341 19.12C182.126 19.12 181.141 20.105 181.141 21.32C181.141 22.535 182.126 23.52 183.341 23.52Z" fill="#DBDBDB"/>
<path d="M90.7395 36.6H75.4095C74.7357 36.6 74.1895 37.1439 74.1895 37.815C74.1895 38.486 74.7357 39.03 75.4095 39.03H90.7395C91.4132 39.03 91.9595 38.486 91.9595 37.815C91.9595 37.1439 91.4132 36.6 90.7395 36.6Z" fill="#ADADAD"/>
<path d="M172.229 86.66H75.7895C74.9058 86.66 74.1895 87.3763 74.1895 88.26V88.27C74.1895 89.1536 74.9058 89.87 75.7895 89.87H172.229C173.113 89.87 173.829 89.1536 173.829 88.27V88.26C173.829 87.3763 173.113 86.66 172.229 86.66Z" fill="#D3D3D3"/>
<path d="M169.069 93.1H75.7895C74.9058 93.1 74.1895 93.8163 74.1895 94.7V94.71C74.1895 95.5936 74.9058 96.31 75.7895 96.31H169.069C169.953 96.31 170.669 95.5936 170.669 94.71V94.7C170.669 93.8163 169.953 93.1 169.069 93.1Z" fill="#D3D3D3"/>
<path d="M175.419 99.52H75.7895C74.9058 99.52 74.1895 100.236 74.1895 101.12V101.13C74.1895 102.014 74.9058 102.73 75.7895 102.73H175.419C176.303 102.73 177.019 102.014 177.019 101.13V101.12C177.019 100.236 176.303 99.52 175.419 99.52Z" fill="#D3D3D3"/>
<path d="M159.679 105.87H75.7895C74.9058 105.87 74.1895 106.586 74.1895 107.47V107.48C74.1895 108.364 74.9058 109.08 75.7895 109.08H159.679C160.563 109.08 161.279 108.364 161.279 107.48V107.47C161.279 106.586 160.563 105.87 159.679 105.87Z" fill="#D3D3D3"/>
<path d="M175.419 67.38H75.7895C74.9058 67.38 74.1895 68.0964 74.1895 68.98V68.99C74.1895 69.8737 74.9058 70.59 75.7895 70.59H175.419C176.303 70.59 177.019 69.8737 177.019 68.99V68.98C177.019 68.0964 176.303 67.38 175.419 67.38Z" fill="#D3D3D3"/>
<path d="M175.419 60.96H75.7895C74.9058 60.96 74.1895 61.6763 74.1895 62.56V62.57C74.1895 63.4536 74.9058 64.17 75.7895 64.17H175.419C176.303 64.17 177.019 63.4536 177.019 62.57V62.56C177.019 61.6763 176.303 60.96 175.419 60.96Z" fill="#D3D3D3"/>
<path d="M115.691 45.06H75.7406C74.857 45.06 74.1406 45.7763 74.1406 46.66V46.67C74.1406 47.5536 74.857 48.27 75.7406 48.27H115.691C116.574 48.27 117.291 47.5536 117.291 46.67V46.66C117.291 45.7763 116.574 45.06 115.691 45.06Z" fill="#ADADAD"/>
<path d="M172.291 51.56H75.7406C74.857 51.56 74.1406 52.2763 74.1406 53.16V53.17C74.1406 54.0536 74.857 54.77 75.7406 54.77H172.291C173.174 54.77 173.891 54.0536 173.891 53.17V53.16C173.891 52.2763 173.174 51.56 172.291 51.56Z" fill="#ADADAD"/>
<path d="M152.071 45.06H122.801C121.918 45.06 121.201 45.7763 121.201 46.66V46.67C121.201 47.5536 121.918 48.27 122.801 48.27H152.071C152.955 48.27 153.671 47.5536 153.671 46.67V46.66C153.671 45.7763 152.955 45.06 152.071 45.06Z" fill="#ADADAD"/>
<path d="M159.679 80.22H75.7895C74.9058 80.22 74.1895 80.9363 74.1895 81.82V81.83C74.1895 82.7136 74.9058 83.43 75.7895 83.43H159.679C160.563 83.43 161.279 82.7136 161.279 81.83V81.82C161.279 80.9363 160.563 80.22 159.679 80.22Z" fill="#D3D3D3"/>
<path d="M159.679 73.8H75.7895C74.9058 73.8 74.1895 74.5163 74.1895 75.4V75.41C74.1895 76.2936 74.9058 77.01 75.7895 77.01H159.679C160.563 77.01 161.279 76.2936 161.279 75.41V75.4C161.279 74.5163 160.563 73.8 159.679 73.8Z" fill="#D3D3D3"/>
<g filter="url(#filter1_d_5906_5332)">
<path d="M171.2 79.31C177.9 79.31 183.33 84.74 183.33 91.44C183.33 98.14 177.9 103.57 171.2 103.57C164.5 103.57 159.07 98.14 159.07 91.44C159.07 84.74 164.5 79.31 171.2 79.31Z" fill="white"/>
<path d="M171.2 79.31C177.9 79.31 183.33 84.74 183.33 91.44C183.33 98.14 177.9 103.57 171.2 103.57C164.5 103.57 159.07 98.14 159.07 91.44C159.07 84.74 164.5 79.31 171.2 79.31Z" stroke="url(#paint0_linear_5906_5332)"/>
</g>
<path d="M177.401 93.03C176.431 92.03 173.791 92.44 173.161 92.51C172.231 91.62 171.601 90.55 171.371 90.18C171.701 89.18 171.931 88.18 171.971 87.1C171.971 86.17 171.601 85.17 170.561 85.17C170.191 85.17 169.851 85.39 169.671 85.69C169.221 86.47 169.411 88.02 170.121 89.62C169.711 90.77 169.341 91.88 168.301 93.84C167.221 94.28 164.951 95.32 164.761 96.43C164.691 96.76 164.801 97.1 165.061 97.36C165.321 97.58 165.661 97.69 165.991 97.69C167.371 97.69 168.711 95.8 169.641 94.21C170.421 93.95 171.651 93.58 172.881 93.36C174.331 94.62 175.601 94.81 176.271 94.81C177.161 94.81 177.501 94.44 177.611 94.11C177.801 93.74 177.681 93.33 177.421 93.04L177.401 93.03ZM176.471 93.66C176.431 93.92 176.101 94.18 175.501 94.03C174.791 93.84 174.161 93.51 173.601 93.07C174.081 93 175.161 92.88 175.941 93.03C176.241 93.1 176.541 93.29 176.461 93.66H176.471ZM170.261 86.03C170.331 85.92 170.451 85.84 170.561 85.84C170.901 85.84 170.971 86.25 170.971 86.58C170.931 87.36 170.781 88.14 170.521 88.88C169.961 87.4 170.071 86.36 170.261 86.03ZM170.181 93.22C170.481 92.63 170.891 91.59 171.041 91.15C171.381 91.71 171.931 92.37 172.231 92.67C172.231 92.71 171.081 92.93 170.181 93.23V93.22ZM167.991 94.7C167.131 96.11 166.241 97 165.761 97C165.691 97 165.611 96.96 165.541 96.93C165.431 96.86 165.391 96.74 165.431 96.6C165.541 96.08 166.511 95.38 168.001 94.71L167.991 94.7Z" fill="#B40000"/>
<g style="mix-blend-mode:multiply" opacity="0.1">
<path d="M198.971 119.69L180.521 109.62C180.041 109.36 179.491 109.22 178.951 109.22C177.961 109.22 176.991 109.69 176.371 110.48C175.751 111.27 175.531 112.29 175.771 113.27L180.741 133.55C181.101 135.02 182.411 136.04 183.921 136.04C185.081 136.04 186.131 135.44 186.731 134.44L186.781 134.36L186.821 134.28L190.441 126.55L197.741 125.81C199.171 125.67 200.331 124.62 200.621 123.21C200.911 121.8 200.251 120.38 198.981 119.69H198.971Z" fill="#464646"/>
</g>
<path d="M186.959 128.88L181.989 108.6C181.689 107.38 182.979 106.39 184.079 106.99L202.529 117.06C203.769 117.74 203.389 119.62 201.979 119.76L194.459 120.52C193.999 120.57 193.599 120.82 193.359 121.22L189.589 129.28C188.929 130.39 187.259 130.14 186.949 128.89L186.959 128.88Z" fill="black"/>
<path d="M183.401 106.81C183.631 106.81 183.861 106.87 184.091 106.99L202.541 117.06C203.781 117.74 203.401 119.62 201.991 119.76L194.471 120.52C194.011 120.57 193.611 120.82 193.371 121.22L189.601 129.28C189.321 129.76 188.841 129.99 188.371 129.99C187.751 129.99 187.141 129.6 186.961 128.89L181.991 108.61C181.751 107.65 182.521 106.82 183.391 106.82M183.401 104.68C182.311 104.68 181.261 105.2 180.581 106.06C179.901 106.92 179.661 108.04 179.931 109.11L184.901 129.39C185.291 131 186.721 132.12 188.381 132.12C189.651 132.12 190.801 131.46 191.451 130.37L191.501 130.28L191.541 130.19L195.091 122.62L202.211 121.9C203.781 121.74 205.041 120.6 205.361 119.05C205.671 117.5 204.951 115.96 203.571 115.2L185.121 105.13C184.591 104.84 184.001 104.69 183.411 104.69L183.401 104.68Z" fill="white"/>
<g filter="url(#filter2_d_5906_5332)">
<path d="M262.56 42.49C264.94 42.49 266.86 44.42 266.86 46.79V69.54C266.86 71.92 264.93 73.84 262.56 73.84H163.37C160.99 73.84 159.07 71.91 159.07 69.54V46.79C159.07 44.41 161 42.49 163.37 42.49H262.56Z" fill="white"/>
<path d="M262.56 42.49C264.94 42.49 266.86 44.42 266.86 46.79V69.54C266.86 71.92 264.93 73.84 262.56 73.84H163.37C160.99 73.84 159.07 71.91 159.07 69.54V46.79C159.07 44.41 161 42.49 163.37 42.49H262.56Z" stroke="url(#paint1_linear_5906_5332)"/>
</g>
<path d="M258.351 52.12H244.651C244.411 52.12 244.221 52.31 244.221 52.55C244.221 52.67 244.271 52.79 244.371 52.87L249.701 57.54L251.081 64.49C251.131 64.72 251.351 64.87 251.581 64.82C251.701 64.8 251.801 64.72 251.871 64.62L258.721 52.75C258.841 52.55 258.771 52.29 258.561 52.17C258.501 52.13 258.421 52.11 258.351 52.11M246.911 53.4H255.601L250.361 56.42L246.911 53.4ZM251.001 57.53L256.241 54.51L251.901 62.03L251.001 57.53Z" fill="#4B4B4B"/>
<path d="M232.591 50.91H168.691C167.272 50.91 166.121 52.0606 166.121 53.48C166.121 54.8993 167.272 56.05 168.691 56.05H232.591C234.01 56.05 235.161 54.8993 235.161 53.48C235.161 52.0606 234.01 50.91 232.591 50.91Z" fill="#B3B3B3"/>
<path d="M215.491 60.64H168.691C167.272 60.64 166.121 61.7906 166.121 63.21C166.121 64.6294 167.272 65.78 168.691 65.78H215.491C216.91 65.78 218.061 64.6294 218.061 63.21C218.061 61.7906 216.91 60.64 215.491 60.64Z" fill="#B3B3B3"/>
<path d="M44.1906 62.61H28.8606C28.1868 62.61 27.6406 63.154 27.6406 63.825C27.6406 64.496 28.1868 65.04 28.8606 65.04H44.1906C44.8644 65.04 45.4106 64.496 45.4106 63.825C45.4106 63.154 44.8644 62.61 44.1906 62.61Z" fill="#ADADAD"/>
<path d="M61.8706 36.55H27.6406V60.24H61.8706V36.55Z" fill="#DDDDDD"/>
<path d="M44.1906 98.99H28.8606C28.1868 98.99 27.6406 99.534 27.6406 100.205C27.6406 100.876 28.1868 101.42 28.8606 101.42H44.1906C44.8644 101.42 45.4106 100.876 45.4106 100.205C45.4106 99.534 44.8644 98.99 44.1906 98.99Z" fill="#ADADAD"/>
<path d="M61.8706 72.93H27.6406V96.62H61.8706V72.93Z" fill="#DDDDDD"/>
<defs>
<filter id="filter0_d_5906_5332" x="0" y="-0.830017" width="206.619" height="137.97" filterUnits="userSpaceOnUse" color-interpolation-filters="sRGB">
<feFlood flood-opacity="0" result="BackgroundImageFix"/>
<feColorMatrix in="SourceAlpha" type="matrix" values="0 0 0 0 0 0 0 0 0 0 0 0 0 0 0 0 0 0 127 0" result="hardAlpha"/>
<feOffset/>
<feGaussianBlur stdDeviation="7"/>
<feColorMatrix type="matrix" values="0 0 0 0 0 0 0 0 0 0 0 0 0 0 0 0 0 0 0.2 0"/>
<feBlend mode="normal" in2="BackgroundImageFix" result="effect1_dropShadow_5906_5332"/>
<feBlend mode="normal" in="SourceGraphic" in2="effect1_dropShadow_5906_5332" result="shape"/>
</filter>
<filter id="filter1_d_5906_5332" x="152.57" y="72.81" width="37.2598" height="37.26" filterUnits="userSpaceOnUse" color-interpolation-filters="sRGB">
<feFlood flood-opacity="0" result="BackgroundImageFix"/>
<feColorMatrix in="SourceAlpha" type="matrix" values="0 0 0 0 0 0 0 0 0 0 0 0 0 0 0 0 0 0 127 0" result="hardAlpha"/>
<feOffset/>
<feGaussianBlur stdDeviation="3"/>
<feColorMatrix type="matrix" values="0 0 0 0 0 0 0 0 0 0 0 0 0 0 0 0 0 0 0.3 0"/>
<feBlend mode="normal" in2="BackgroundImageFix" result="effect1_dropShadow_5906_5332"/>
<feBlend mode="normal" in="SourceGraphic" in2="effect1_dropShadow_5906_5332" result="shape"/>
</filter>
<filter id="filter2_d_5906_5332" x="152.57" y="35.99" width="120.789" height="44.35" filterUnits="userSpaceOnUse" color-interpolation-filters="sRGB">
<feFlood flood-opacity="0" result="BackgroundImageFix"/>
<feColorMatrix in="SourceAlpha" type="matrix" values="0 0 0 0 0 0 0 0 0 0 0 0 0 0 0 0 0 0 127 0" result="hardAlpha"/>
<feOffset/>
<feGaussianBlur stdDeviation="3"/>
<feColorMatrix type="matrix" values="0 0 0 0 0 0 0 0 0 0 0 0 0 0 0 0 0 0 0.3 0"/>
<feBlend mode="normal" in2="BackgroundImageFix" result="effect1_dropShadow_5906_5332"/>
<feBlend mode="normal" in="SourceGraphic" in2="effect1_dropShadow_5906_5332" result="shape"/>
</filter>
<linearGradient id="paint0_linear_5906_5332" x1="157.42" y1="90.03" x2="184.99" y2="92.85" gradientUnits="userSpaceOnUse">
<stop stop-color="#D73220"/>
<stop offset="0.33" stop-color="#D92361"/>
<stop offset="1" stop-color="#7155FA"/>
</linearGradient>
<linearGradient id="paint1_linear_5906_5332" x1="159.23" y1="58.17" x2="266.71" y2="58.17" gradientUnits="userSpaceOnUse">
<stop stop-color="#E11E36"/>
<stop offset="1" stop-color="#5E4BDB"/>
</linearGradient>
</defs>
</svg>
