<?xml version="1.0" encoding="UTF-8"?><svg xmlns="http://www.w3.org/2000/svg" width="152" height="152" xmlns:xlink="http://www.w3.org/1999/xlink" viewBox="0 0 152 152"><defs><radialGradient id="b" cx="5.7" cy="151.06" fx="5.7" fy="151.06" r="50.5" gradientTransform="translate(68.15 -137.05) scale(1.65 1.41)" gradientUnits="userSpaceOnUse"><stop offset="0" stop-color="#8ac8fe"/><stop offset=".06" stop-color="#8ac7fe" stop-opacity=".9"/><stop offset=".21" stop-color="#8ac7fe" stop-opacity=".66"/><stop offset=".35" stop-color="#8bc6fe" stop-opacity=".46"/><stop offset=".5" stop-color="#8bc6fe" stop-opacity=".29"/><stop offset=".64" stop-color="#8bc6fe" stop-opacity=".17"/><stop offset=".77" stop-color="#8bc6fe" stop-opacity=".07"/><stop offset=".89" stop-color="#8bc6fe" stop-opacity=".02"/><stop offset="1" stop-color="#8cc6ff" stop-opacity="0"/></radialGradient><clipPath id="c"><rect x="37.82" y="21.22" width="76.36" height="109.56" rx="8.61" ry="8.61" transform="translate(0 152) rotate(-90)" fill="none"/></clipPath><linearGradient id="d" x1="76" y1="118.68" x2="76" y2="41.87" gradientUnits="userSpaceOnUse"><stop offset="0" stop-color="#8ac8fe"/><stop offset="1" stop-color="#cee2fc"/></linearGradient><clipPath id="e"><rect x="109.36" y="71.51" width="21.42" height="27.13" fill="none"/></clipPath><clipPath id="f"><rect x="21.26" y="69.28" width="18.86" height="31.59" transform="translate(61.37 170.16) rotate(180)" fill="none"/></clipPath></defs><g isolation="isolate"><g id="a"><rect x="1" y="1" width="150" height="150" rx="9.66" ry="9.66" fill="#f3f3f3"/><ellipse cx="77.57" cy="75.97" rx="89.84" ry="76.51" fill="url(#b)"/><g clip-path="url(#c)"><rect x="37.82" y="21.22" width="76.36" height="109.56" rx="8.61" ry="8.61" transform="translate(0 152) rotate(-90)" fill="#fff"/><path d="M57.82,114.18h-30.59V46.95c0-1.89,1.53-3.42,3.42-3.42h27.17v70.65ZM91.29,43.53h-30.59v70.65h30.59V43.53ZM124.76,114.18V46.95c0-1.89-1.53-3.42-3.42-3.42h-27.17v70.65h30.59Z" fill="url(#d)"/></g><g clip-path="url(#e)"><rect x="124.96" y="70.73" width="19.4" height="19.4" rx="2.66" ry="2.66" transform="translate(-17.43 118.77) rotate(-45)" fill="#464646" mix-blend-mode="multiply" opacity=".1"/></g><g clip-path="url(#f)"><rect x="5.01" y="71.73" width="19.4" height="19.4" rx="2.66" ry="2.66" transform="translate(82.68 128.6) rotate(135)" fill="#464646" mix-blend-mode="multiply" opacity=".1"/></g><path d="M134.48,87.05c-.71,0-1.37-.28-1.87-.77l-8.5-8.5c-.5-.5-.77-1.16-.77-1.87s.28-1.37.78-1.87l8.31-8.31c.5-.5,1.16-.77,1.87-.77s1.37.28,1.87.77c.5.5.77,1.16.77,1.87s-.28,1.37-.78,1.87l-6.44,6.44,6.63,6.63c.5.5.77,1.16.77,1.87s-.28,1.37-.78,1.87c-.5.5-1.16.77-1.87.77Z" fill="#4f80ff"/><path d="M134.28,65.55c.52,0,1.05.2,1.44.6.8.8.8,2.09,0,2.89l-6.86,6.86,7.06,7.06c.8.8.8,2.09,0,2.89-.4.4-.92.6-1.44.6s-1.05-.2-1.44-.6l-8.5-8.5c-.8-.8-.8-2.09,0-2.89l8.31-8.31c.4-.4.92-.6,1.44-.6M134.28,64.35c-.87,0-1.68.34-2.29.95l-8.31,8.31c-.61.61-.95,1.43-.95,2.29s.34,1.68.95,2.29l8.5,8.5c.61.61,1.43.95,2.29.95s1.68-.34,2.29-.95c.61-.61.95-1.43.95-2.29s-.34-1.68-.95-2.29l-6.21-6.21,6.01-6.01c.61-.61.95-1.43.95-2.29s-.34-1.68-.95-2.29c-.61-.61-1.43-.95-2.29-.95h0Z" fill="#fff"/><path d="M17.94,87.05c-.71,0-1.37-.28-1.87-.78-.5-.5-.77-1.16-.77-1.87s.27-1.37.77-1.87l6.44-6.44-6.63-6.63c-.5-.5-.77-1.16-.77-1.87s.27-1.37.77-1.87c.5-.5,1.16-.77,1.87-.77s1.37.28,1.87.77l8.5,8.5c1.03,1.03,1.03,2.71,0,3.74l-8.31,8.31c-.5.5-1.16.77-1.87.77Z" fill="#4f80ff"/><path d="M17.75,65.55c.52,0,1.05.2,1.44.6l8.5,8.5c.8.8.8,2.09,0,2.89l-8.31,8.31c-.4.4-.92.6-1.44.6s-1.05-.2-1.44-.6c-.8-.8-.8-2.09,0-2.89l6.86-6.86-7.06-7.06c-.8-.8-.8-2.09,0-2.89.4-.4.92-.6,1.44-.6M17.75,64.35c-.87,0-1.68.34-2.29.95-.61.61-.95,1.43-.95,2.29s.34,1.68.95,2.29l6.21,6.21-6.01,6.01c-.61.61-.95,1.43-.95,2.29s.34,1.68.95,2.29c.61.61,1.43.95,2.29.95s1.68-.34,2.29-.95l8.31-8.31c.61-.61.95-1.43.95-2.29s-.34-1.68-.95-2.29l-8.5-8.5c-.61-.61-1.43-.95-2.29-.95h0Z" fill="#fff"/></g></g></svg>