<?xml version="1.0" encoding="UTF-8"?><svg xmlns="http://www.w3.org/2000/svg" width="152" height="152" xmlns:xlink="http://www.w3.org/1999/xlink" viewBox="0 0 152 152"><defs><radialGradient id="b" cx="207.92" cy="-5.76" fx="207.92" fy="-5.76" r="50.5" gradientTransform="translate(85.22 420.63) rotate(-90) scale(1.65 1.41)" gradientUnits="userSpaceOnUse"><stop offset="0" stop-color="#8ac8fe"/><stop offset=".06" stop-color="#8ac7fe" stop-opacity=".9"/><stop offset=".21" stop-color="#8ac7fe" stop-opacity=".66"/><stop offset=".35" stop-color="#8bc6fe" stop-opacity=".46"/><stop offset=".5" stop-color="#8bc6fe" stop-opacity=".29"/><stop offset=".64" stop-color="#8bc6fe" stop-opacity=".17"/><stop offset=".77" stop-color="#8bc6fe" stop-opacity=".07"/><stop offset=".89" stop-color="#8bc6fe" stop-opacity=".02"/><stop offset="1" stop-color="#8cc6ff" stop-opacity="0"/></radialGradient><clipPath id="c"><rect x="37.82" y="21.22" width="76.36" height="109.56" rx="8.61" ry="8.61" fill="none"/></clipPath><linearGradient id="d" x1="76.3" y1="144.84" x2="75.92" y2="24.37" gradientUnits="userSpaceOnUse"><stop offset="0" stop-color="#8ac8fe"/><stop offset="1" stop-color="#cee2fc"/></linearGradient><clipPath id="e"><rect x="92.76" y="71.51" width="21.42" height="27.13" fill="none"/></clipPath><clipPath id="f"><rect x="37.82" y="69.28" width="18.86" height="31.59" transform="translate(94.51 170.16) rotate(180)" fill="none"/></clipPath></defs><g isolation="isolate"><g id="a"><rect x="1" y="1" width="150" height="150" rx="9.66" ry="9.66" fill="#f3f3f3"/><ellipse cx="77.1" cy="77.1" rx="76.51" ry="89.84" fill="url(#b)"/><g clip-path="url(#c)"><rect x="37.82" y="21.22" width="76.36" height="109.56" rx="8.61" ry="8.61" fill="#fff"/><path d="M64.4,130.78h-19.68V30.9c0-1.89,1.53-3.42,3.42-3.42h16.26v103.3ZM85.94,27.48h-19.68v103.3h19.68V27.48ZM107.48,130.78V30.9c0-1.89-1.53-3.42-3.42-3.42h-16.26v103.3h19.68Z" fill="url(#d)"/></g><g clip-path="url(#e)"><rect x="108.36" y="71.73" width="19.4" height="19.4" rx="2.66" ry="2.66" transform="translate(-23 107.33) rotate(-45)" fill="#464646" mix-blend-mode="multiply" opacity=".1"/></g><g clip-path="url(#f)"><rect x="23.58" y="72.73" width="19.4" height="19.4" rx="2.66" ry="2.66" transform="translate(115.08 117.18) rotate(135)" fill="#464646" mix-blend-mode="multiply" opacity=".1"/></g><path d="M117.88,87.05c-.71,0-1.37-.28-1.87-.77l-8.5-8.5c-.5-.5-.77-1.16-.77-1.87s.28-1.37.77-1.87l8.31-8.31c.5-.5,1.17-.77,1.87-.77s1.37.28,1.87.77c1.03,1.03,1.03,2.71,0,3.74l-6.44,6.44,6.63,6.63c1.03,1.03,1.03,2.71,0,3.74-.5.5-1.16.78-1.87.78Z" fill="#4f80ff"/><path d="M117.68,65.55c.52,0,1.05.2,1.44.6.8.8.8,2.09,0,2.89l-6.86,6.86,7.06,7.06c.8.8.8,2.09,0,2.89-.4.4-.92.6-1.44.6s-1.05-.2-1.44-.6l-8.5-8.5c-.8-.8-.8-2.09,0-2.89l8.31-8.31c.4-.4.92-.6,1.44-.6M117.68,64.35c-.87,0-1.68.34-2.29.95l-8.31,8.31c-.61.61-.95,1.43-.95,2.29s.34,1.68.95,2.29l8.5,8.5c.61.61,1.43.95,2.29.95s1.68-.34,2.29-.95c.61-.61.95-1.43.95-2.29s-.34-1.68-.95-2.29l-6.21-6.21,6.01-6.01c.61-.61.95-1.43.95-2.29s-.34-1.68-.95-2.29c-.61-.61-1.43-.95-2.29-.95h0Z" fill="#fff"/><path d="M34.51,87.05c-.71,0-1.37-.28-1.87-.77-1.03-1.03-1.03-2.71,0-3.74l6.44-6.44-6.63-6.63c-1.03-1.03-1.03-2.71,0-3.74.5-.5,1.16-.77,1.87-.77s1.37.28,1.87.77l8.5,8.5c.5.5.77,1.16.77,1.87s-.27,1.37-.77,1.87l-8.31,8.31c-.5.5-1.16.77-1.87.77Z" fill="#4f80ff"/><path d="M34.32,65.55c.52,0,1.05.2,1.44.6l8.5,8.5c.8.8.8,2.09,0,2.89l-8.31,8.31c-.4.4-.92.6-1.44.6s-1.05-.2-1.44-.6c-.8-.8-.8-2.09,0-2.89l6.86-6.86-7.06-7.06c-.8-.8-.8-2.09,0-2.89.4-.4.92-.6,1.44-.6M34.32,64.35c-.87,0-1.68.34-2.29.95-.61.61-.95,1.43-.95,2.29s.34,1.68.95,2.29l6.21,6.21-6.01,6.01c-.61.61-.95,1.43-.95,2.29s.34,1.68.95,2.29c.61.61,1.43.95,2.29.95s1.68-.34,2.29-.95l8.31-8.31c.61-.61.95-1.43.95-2.29s-.34-1.68-.95-2.29l-8.5-8.5c-.61-.61-1.43-.95-2.29-.95h0Z" fill="#fff"/></g></g></svg>