<?xml version="1.0" encoding="UTF-8"?><svg xmlns="http://www.w3.org/2000/svg" width="152" height="152" xmlns:xlink="http://www.w3.org/1999/xlink" viewBox="0 0 152 152"><defs><radialGradient id="b" cx="-64" cy="151.06" fx="-64" fy="151.06" r="50.5" gradientTransform="translate(183.31 -137.05) scale(1.65 1.41)" gradientUnits="userSpaceOnUse"><stop offset="0" stop-color="#8ac8fe"/><stop offset=".06" stop-color="#8ac7fe" stop-opacity=".9"/><stop offset=".21" stop-color="#8ac7fe" stop-opacity=".66"/><stop offset=".35" stop-color="#8bc6fe" stop-opacity=".46"/><stop offset=".5" stop-color="#8bc6fe" stop-opacity=".29"/><stop offset=".64" stop-color="#8bc6fe" stop-opacity=".17"/><stop offset=".77" stop-color="#8bc6fe" stop-opacity=".07"/><stop offset=".89" stop-color="#8bc6fe" stop-opacity=".02"/><stop offset="1" stop-color="#8cc6ff" stop-opacity="0"/></radialGradient><clipPath id="c"><rect x="37.72" y="21.12" width="76.36" height="109.56" rx="8.61" ry="8.61" transform="translate(151.79) rotate(90)" fill="none"/></clipPath><linearGradient id="d" x1="134.87" y1="76" x2="18.53" y2="76" gradientUnits="userSpaceOnUse"><stop offset="0" stop-color="#8ac8fe"/><stop offset="1" stop-color="#cee2fc"/></linearGradient><clipPath id="e"><rect x="67.92" y="23.49" width="21.42" height="49.82" transform="translate(30.23 127.03) rotate(-90)" fill="none"/></clipPath><clipPath id="f"><rect x="66.56" y="74.91" width="18.88" height="59.45" transform="translate(180.63 28.63) rotate(90)" fill="none"/></clipPath></defs><g isolation="isolate"><g id="a"><rect x="1" y="1" width="150" height="150" rx="9.66" ry="9.66" fill="#f3f3f3"/><ellipse cx="77.57" cy="75.97" rx="89.84" ry="76.51" fill="url(#b)"/><rect x="37.72" y="21.12" width="76.36" height="109.56" rx="8.61" ry="8.61" transform="translate(151.79) rotate(90)" fill="#fff"/><g clip-path="url(#c)"><path d="M27.29,76.5v15.36s103.63,0,103.63,0v-15.36s-103.63,0-103.63,0ZM27.29,59.86v15.36s103.63,0,103.63,0v-15.36s-103.63,0-103.63,0ZM130.92,44.1H30.71c-1.89,0-3.42,1.53-3.42,3.42v10.79s103.63,0,103.63,0v-14.21ZM130.92,93.34H27.29s0,11.35,0,11.35c0,1.77,1.44,3.21,3.21,3.21h100.42s0-14.56,0-14.56Z" fill="url(#d)"/></g><g clip-path="url(#e)"><rect x="72.92" y="26.09" width="19.4" height="19.4" rx="2.99" ry="2.99" transform="translate(115.73 119.51) rotate(-135)" fill="#464646" mix-blend-mode="multiply" opacity=".1"/></g><g clip-path="url(#f)"><path d="M79.14,110.87h12.91c1.58,0,2.86,1.28,2.86,2.86v13.67c0,1.58-1.28,2.86-2.86,2.86h-13.67c-1.58,0-2.86-1.28-2.86-2.86v-12.91c0-2,1.63-3.63,3.63-3.63Z" transform="translate(110.21 -24.94) rotate(45)" fill="#464646" mix-blend-mode="multiply" opacity=".1"/></g><path d="M75.9,45.14c-.71,0-1.37-.27-1.87-.77l-8.31-8.31c-.5-.5-.77-1.16-.77-1.87s.28-1.37.77-1.87c.5-.5,1.16-.78,1.87-.78s1.37.28,1.87.77l6.44,6.44,6.63-6.63c.5-.5,1.16-.77,1.87-.77s1.37.28,1.87.77c1.03,1.03,1.03,2.71,0,3.74l-8.5,8.5c-.5.5-1.16.77-1.87.77Z" fill="#4f80ff"/><path d="M84.4,31.95c.52,0,1.05.2,1.44.6.8.8.8,2.09,0,2.89l-8.5,8.5c-.4.4-.92.6-1.44.6s-1.05-.2-1.44-.6l-8.31-8.31c-.4-.4-.6-.92-.6-1.44s.2-1.05.6-1.44c.4-.4.92-.6,1.44-.6s1.05.2,1.44.6l6.86,6.86,7.06-7.06c.4-.4.92-.6,1.44-.6M84.4,30.75c-.87,0-1.68.34-2.29.95l-6.21,6.21-6.01-6.01c-.61-.61-1.43-.95-2.29-.95s-1.68.34-2.29.95c-.61.61-.95,1.43-.95,2.29s.34,1.68.95,2.29l8.31,8.31c.61.61,1.43.95,2.29.95s1.68-.34,2.29-.95l8.5-8.5c1.26-1.26,1.26-3.32,0-4.59-.61-.61-1.43-.95-2.29-.95h0Z" fill="#fff"/><path d="M67.6,120.2c-.71,0-1.37-.27-1.87-.77-1.03-1.03-1.03-2.71,0-3.74l8.5-8.5c.5-.5,1.16-.77,1.87-.77s1.37.28,1.87.78l8.31,8.31c.5.5.77,1.16.77,1.87s-.28,1.37-.77,1.87c-.5.5-1.16.77-1.87.77s-1.37-.28-1.87-.78l-6.44-6.44-6.63,6.63c-.5.5-1.16.77-1.87.77Z" fill="#4f80ff"/><path d="M76.1,107.01c.52,0,1.05.2,1.44.6l8.31,8.31c.4.4.6.92.6,1.44s-.2,1.05-.6,1.44c-.4.4-.92.6-1.44.6s-1.05-.2-1.44-.6l-6.86-6.86-7.06,7.06c-.4.4-.92.6-1.44.6s-1.05-.2-1.44-.6c-.8-.8-.8-2.09,0-2.89l8.5-8.5c.4-.4.92-.6,1.44-.6M76.1,105.81c-.87,0-1.68.34-2.29.95l-8.5,8.5c-.61.61-.95,1.43-.95,2.29s.34,1.68.95,2.29c.61.61,1.43.95,2.29.95s1.68-.34,2.29-.95l6.21-6.21,6.01,6.01c.61.61,1.43.95,2.29.95s1.68-.34,2.29-.95c.61-.61.95-1.43.95-2.29s-.34-1.68-.95-2.29l-8.31-8.31c-.61-.61-1.43-.95-2.29-.95h0Z" fill="#fff"/></g></g></svg>