<?xml version="1.0" encoding="UTF-8"?><svg xmlns="http://www.w3.org/2000/svg" width="152" height="152" xmlns:xlink="http://www.w3.org/1999/xlink" viewBox="0 0 152 152"><defs><radialGradient id="b" cx="31.36" cy="99.68" fx="31.36" fy="99.68" r="50.5" gradientTransform="translate(-65.83 128.91) rotate(-90) scale(1.65 1.41)" gradientUnits="userSpaceOnUse"><stop offset="0" stop-color="#8ac8fe"/><stop offset=".06" stop-color="#8ac7fe" stop-opacity=".9"/><stop offset=".21" stop-color="#8ac7fe" stop-opacity=".66"/><stop offset=".35" stop-color="#8bc6fe" stop-opacity=".46"/><stop offset=".5" stop-color="#8bc6fe" stop-opacity=".29"/><stop offset=".64" stop-color="#8bc6fe" stop-opacity=".17"/><stop offset=".77" stop-color="#8bc6fe" stop-opacity=".07"/><stop offset=".89" stop-color="#8bc6fe" stop-opacity=".02"/><stop offset="1" stop-color="#8cc6ff" stop-opacity="0"/></radialGradient><clipPath id="c"><rect x="37.82" y="21.22" width="76.36" height="109.56" rx="8.61" ry="8.61" fill="none"/></clipPath><linearGradient id="d" x1="138.04" y1="77.91" x2="39.5" y2="73.11" gradientUnits="userSpaceOnUse"><stop offset="0" stop-color="#8ac8fe"/><stop offset="1" stop-color="#cee2fc"/></linearGradient><clipPath id="e"><rect x="65.9" y="7.03" width="21.42" height="49.82" transform="translate(44.68 108.55) rotate(-90)" fill="none"/></clipPath><clipPath id="f"><rect x="64.55" y="91.62" width="18.88" height="59.45" transform="translate(195.32 47.35) rotate(90)" fill="none"/></clipPath></defs><g isolation="isolate"><g id="a"><rect x="1" y="1" width="150" height="150" rx="9.66" ry="9.66" fill="#f3f3f3"/><ellipse cx="74.74" cy="77.1" rx="76.51" ry="89.84" fill="url(#b)"/><rect x="37.82" y="21.22" width="76.36" height="109.56" rx="8.61" ry="8.61" fill="#fff"/><g clip-path="url(#c)"><path d="M44.26,91.98v14.84s69.92,0,69.92,0v-14.84s-69.92,0-69.92,0ZM44.26,75.36v14.84s69.92,0,69.92,0v-14.84s-69.92,0-69.92,0ZM44.26,58.99v14.84s69.92,0,69.92,0v-14.84s-69.92,0-69.92,0ZM44.26,42.91v14.84s69.92,0,69.92,0v-14.84s-69.92,0-69.92,0ZM114.18,27.68H47.69c-1.89,0-3.42,1.53-3.42,3.42v10.31s69.92,0,69.92,0v-13.73ZM114.18,108.5H44.26v10.85c0,1.77,1.44,3.21,3.21,3.21h66.7v-14.06Z" fill="url(#d)"/></g><g clip-path="url(#e)"><rect x="70.91" y="9.62" width="19.4" height="19.4" rx="2.99" ry="2.99" transform="translate(123.94 89.97) rotate(-135)" fill="#464646" mix-blend-mode="multiply" opacity=".1"/></g><g clip-path="url(#f)"><path d="M77.12,127.58h12.91c1.58,0,2.86,1.28,2.86,2.86v13.67c0,1.58-1.28,2.86-2.86,2.86h-13.67c-1.58,0-2.86-1.28-2.86-2.86v-12.91c0-2,1.63-3.63,3.63-3.63Z" transform="translate(121.44 -18.62) rotate(45)" fill="#464646" mix-blend-mode="multiply" opacity=".1"/></g><path d="M75.9,28.67c-.71,0-1.37-.28-1.87-.77l-8.31-8.31c-.5-.5-.77-1.16-.77-1.87s.28-1.37.77-1.87c.5-.5,1.16-.78,1.87-.78s1.37.28,1.87.77l6.44,6.44,6.63-6.63c.5-.5,1.16-.77,1.87-.77s1.37.28,1.87.77c.5.5.77,1.16.77,1.87s-.28,1.37-.77,1.87l-8.5,8.5c-.5.5-1.16.77-1.87.77Z" fill="#4f80ff"/><path d="M84.4,15.48c.52,0,1.05.2,1.44.6.8.8.8,2.09,0,2.89l-8.5,8.5c-.4.4-.92.6-1.44.6s-1.05-.2-1.44-.6l-8.31-8.31c-.4-.4-.6-.92-.6-1.44s.2-1.05.6-1.44c.4-.4.92-.6,1.44-.6s1.05.2,1.44.6l6.86,6.86,7.06-7.06c.4-.4.92-.6,1.44-.6M84.4,14.28c-.87,0-1.68.34-2.29.95l-6.21,6.21-6.01-6.01c-.61-.61-1.43-.95-2.29-.95s-1.68.34-2.29.95c-.61.61-.95,1.43-.95,2.29s.34,1.68.95,2.29l8.31,8.31c.61.61,1.43.95,2.29.95s1.68-.34,2.29-.95l8.5-8.5c1.26-1.26,1.26-3.32,0-4.59-.61-.61-1.43-.95-2.29-.95h0Z" fill="#fff"/><path d="M67.6,136.91c-.71,0-1.37-.28-1.87-.77-1.03-1.03-1.03-2.71,0-3.74l8.5-8.5c.5-.5,1.16-.77,1.87-.77s1.37.28,1.87.78l8.31,8.31c.5.5.77,1.16.77,1.87s-.28,1.37-.77,1.87c-.5.5-1.16.77-1.87.77s-1.37-.28-1.87-.78l-6.44-6.44-6.63,6.63c-.5.5-1.16.77-1.87.77Z" fill="#4f80ff"/><path d="M76.1,123.72c.52,0,1.05.2,1.44.6l8.31,8.31c.4.4.6.92.6,1.44s-.2,1.05-.6,1.44c-.4.4-.92.6-1.44.6s-1.05-.2-1.44-.6l-6.86-6.86-7.06,7.06c-.4.4-.92.6-1.44.6s-1.05-.2-1.44-.6c-.8-.8-.8-2.09,0-2.89l8.5-8.5c.4-.4.92-.6,1.44-.6M76.1,122.52c-.87,0-1.68.34-2.29.95l-8.5,8.5c-.61.61-.95,1.43-.95,2.29s.34,1.68.95,2.29c.61.61,1.43.95,2.29.95s1.68-.34,2.29-.95l6.21-6.21,6.01,6.01c.61.61,1.43.95,2.29.95s1.68-.34,2.29-.95c.61-.61.95-1.43.95-2.29s-.34-1.68-.95-2.29l-8.31-8.31c-.61-.61-1.43-.95-2.29-.95h0Z" fill="#fff"/></g></g></svg>