<svg width="24" height="32" viewBox="0 0 24 32" fill="none" xmlns="http://www.w3.org/2000/svg">
<mask id="mask0_4596_3122" style="mask-type:alpha" maskUnits="userSpaceOnUse" x="0" y="6" width="20" height="20">
<g clip-path="url(#clip0_4596_3122)">
<path fill-rule="evenodd" clip-rule="evenodd" d="M10.9975 9.91981C11.5912 9.89637 12.0199 9.43055 11.9975 8.87879C11.9819 8.495 11.8949 8.12488 11.7397 7.77625C11.5151 7.27234 10.9233 7.04285 10.4194 7.27039C9.91448 7.495 9.68791 8.08582 9.9135 8.5907C9.96526 8.70691 9.99358 8.83093 9.99944 8.96082C10.0209 9.49891 10.4643 9.91981 10.9975 9.91981Z" fill="#292929"/>
<path fill-rule="evenodd" clip-rule="evenodd" d="M7.91358 8C8.51417 8 9.00001 7.55273 9.00001 7C9.00001 6.44727 8.51417 6 7.91358 6H7.08643C6.48584 6 6 6.44727 6 7C6 7.55273 6.48584 8 7.08643 8H7.91358Z" fill="#292929"/>
<path fill-rule="evenodd" clip-rule="evenodd" d="M1 11C1.55273 11 2 10.5161 2 9.91797V9.06934C2 8.4712 1.55273 8 1 8C0.44727 8 0 8.49561 0 9.09375V9.91797C0 10.5161 0.44727 11 1 11Z" fill="#292929"/>
<path fill-rule="evenodd" clip-rule="evenodd" d="M3.08643 8H3.91358C4.51417 8 5.00001 7.55273 5.00001 7C5.00001 6.44727 4.51417 6 3.91358 6H3.08643C2.48584 6 2 6.44727 2 7C2 7.55273 2.48584 8 3.08643 8Z" fill="#292929"/>
<path fill-rule="evenodd" clip-rule="evenodd" d="M13 12H11.9839C11.9417 11.4421 11.5244 11 11 11C10.4473 11 10 11.4858 10 12.0862V12.9136C10 13.5142 10.4473 14 11 14H13C14.6543 14 16 15.3457 16 17V19C16 20.6543 14.6543 22 13 22H11C10.1619 22 9.40504 21.6528 8.86012 21.0967L11.4126 18.4661C11.4297 18.4485 11.4465 18.4304 11.4629 18.4121C12.1863 17.6094 12.1853 16.3994 11.4609 15.5979C11.4461 15.5813 11.4309 15.5649 11.4153 15.5491L8.61891 12.6548C8.18068 12.2209 7.64552 12 7.07936 12C6.50197 12.0002 5.93996 12.2363 5.53688 12.6482C5.16286 13.0359 4.95094 13.5273 4.92555 14.0505C4.87965 14.0537 4.83449 14.0559 4.79005 14.0571L4.70021 14.0586C4.48024 14.0586 4.28102 14.0317 4.09083 13.9763C3.85255 13.9074 3.60304 13.7876 3.344 13.6179C2.99122 13.3859 2.58204 13.2631 2.16016 13.2631C2.1062 13.2631 2.05371 13.2754 2 13.2795V13C2 12.4472 1.55273 12 1 12C0.44727 12 0 12.4472 0 13C0 13 0.00586 15.3437 0.00806 15.3632C-0.00415 15.791 0.10401 16.2238 0.3523 16.6062C0.63428 17.0398 0.94947 17.4377 1.28956 17.7898C1.44703 17.9526 1.61305 18.1096 1.78834 18.259C2.35011 18.7424 3.0088 19.1484 3.73902 19.4599C4.13526 19.6308 4.53516 19.7661 4.92359 19.8769C4.93238 20.4267 5.146 20.9453 5.52759 21.3408C5.92163 21.7468 6.46167 21.978 7.02051 21.9939C7.93384 23.2045 9.37012 24 11 24H13C15.7568 24 18 21.7568 18 19V17C18 14.2431 15.7568 12 13 12ZM7.18116 19.9558C7.1482 19.9883 7.1128 20 7.08033 20C7.03053 20 6.98707 19.9729 6.96705 19.9524C6.94044 19.9248 6.92335 19.8867 6.92335 19.8413L6.92311 18.2908C6.16164 18.1345 5.32082 17.9644 4.5237 17.6204C4.00173 17.3977 3.5071 17.0996 3.08596 16.7373C2.95998 16.6299 2.84084 16.5168 2.72781 16.3999C2.46145 16.1243 2.23025 15.8254 2.02957 15.5168C1.99246 15.4597 1.98978 15.3718 2.0491 15.3105C2.07889 15.2798 2.11917 15.2632 2.16018 15.2632C2.18923 15.2632 2.21853 15.2715 2.2449 15.2888C2.65847 15.5596 3.09451 15.7705 3.53152 15.8965C3.92092 16.01 4.31131 16.0586 4.70022 16.0586C4.74807 16.0586 4.79592 16.0579 4.84377 16.0564C5.5176 16.0383 6.18313 15.8826 6.92287 15.7136V14.1577C6.92287 14.1125 6.93996 14.0745 6.96657 14.0469C6.9861 14.0269 7.02956 14 7.07936 14C7.11207 14 7.14748 14.0117 7.18068 14.0444L9.97707 16.9387C10.0252 16.9919 9.99489 17.0537 9.97707 17.0735L7.18116 19.9558Z" fill="#292929"/>
</g>
</mask>
<g mask="url(#mask0_4596_3122)">
<rect y="6" width="18" height="18" fill="#131313"/>
</g>
<defs>
<clipPath id="clip0_4596_3122">
<rect width="18" height="18" fill="white" transform="translate(0 6)"/>
</clipPath>
</defs>
</svg>
