<svg width="10" height="10" viewBox="0 0 10 10" fill="none" xmlns="http://www.w3.org/2000/svg">
<g clip-path="url(#clip0_962_641)">
<path fill-rule="evenodd" clip-rule="evenodd" d="M6.28927 5L9.21193 2.07715C9.29657 1.99251 9.36371 1.89203 9.40952 1.78144C9.45533 1.67085 9.4789 1.55232 9.4789 1.43262C9.4789 1.31292 9.45533 1.19439 9.40952 1.0838C9.36371 0.973215 9.29657 0.872732 9.21193 0.788091C9.12729 0.70345 9.02681 0.63631 8.91622 0.590502C8.80563 0.544695 8.6871 0.521118 8.5674 0.521118C8.4477 0.521118 8.32917 0.544695 8.21859 0.590502C8.108 0.63631 8.00751 0.70345 7.92287 0.788091L5.00026 3.71088L2.07766 0.788091C1.90656 0.617921 1.67496 0.522543 1.43365 0.522872C1.19233 0.5232 0.960991 0.619208 0.790354 0.789844C0.619717 0.960479 0.523708 1.19182 0.523377 1.43313C0.523047 1.67445 0.618423 1.90605 0.788592 2.07715L3.71126 5L0.788592 7.92285C0.618423 8.09395 0.523047 8.32555 0.523377 8.56687C0.523708 8.80818 0.619717 9.03952 0.790354 9.21016C0.960991 9.38079 1.19233 9.4768 1.43365 9.47713C1.67496 9.47746 1.90656 9.38208 2.07766 9.21191L5.00026 6.28912L7.92287 9.21191C8.09381 9.38285 8.32566 9.47888 8.5674 9.47888C8.80915 9.47888 9.04099 9.38285 9.21193 9.21191C9.38287 9.04097 9.4789 8.80913 9.4789 8.56738C9.4789 8.32564 9.38287 8.09379 9.21193 7.92285L6.28927 5Z" fill="#222222"/>
</g>
<defs>
<clipPath id="clip0_962_641">
<rect width="10" height="10" fill="white"/>
</clipPath>
</defs>
</svg>
