<svg width="160" height="160" viewBox="0 0 160 160" xmlns="http://www.w3.org/2000/svg">
<path d="M93.297 29.0381C94.7916 26.4626 98.0962 25.5901 100.669 27.083L100.668 27.084C101.397 27.5048 101.998 28.0818 102.452 28.7656L102.638 29.0654L102.675 29.1387L127.684 72.7139L127.686 72.7168C129.16 75.3012 128.275 78.5911 125.696 80.0713L125.695 80.0703C124.867 80.5477 123.944 80.7861 123.012 80.7861H123.009L72.6993 80.6768C69.7241 80.6755 67.3103 78.2432 67.3262 75.2695C67.3275 74.3296 67.5824 73.3931 68.0606 72.5801L93.297 29.0381ZM99.4141 29.2461C98.0329 28.4446 96.2593 28.9139 95.4591 30.292L70.2188 73.8408L70.2149 73.8477C69.9621 74.2774 69.8263 74.7786 69.8263 75.2764V75.2832C69.8177 76.8734 71.1129 78.1765 72.7013 78.1768H72.7042L123.012 78.2852C123.518 78.2851 124.009 78.158 124.449 77.9043L124.452 77.9033C125.828 77.1133 126.309 75.3495 125.514 73.9551L100.458 30.2998C100.45 30.2864 100.444 30.2724 100.437 30.2588C100.178 29.832 99.8341 29.4877 99.4171 29.2471L99.4141 29.2461Z" fill="#FA0F00"/>
<path d="M97.922 43.2524C99.5788 43.2552 100.92 44.6005 100.917 46.2573L100.893 60.8423C100.89 62.4991 99.5446 63.8401 97.8878 63.8374C96.2309 63.8346 94.8899 62.4894 94.8927 60.8325L94.9171 46.2476C94.9198 44.5908 96.2652 43.2497 97.922 43.2524Z" fill="#FA0F00"/>
<path d="M94.5372 69.5038C94.5372 67.6242 96.075 66.0986 97.9546 66.0986C99.8342 66.0986 101.36 67.6364 101.36 69.516C101.36 71.3956 99.822 72.9213 97.9424 72.9213C96.0628 72.9213 94.5372 71.3834 94.5372 69.5038Z" fill="#FA0F00"/>
<path fill-rule="evenodd" d="M32.3115 84.9505C41.2526 82.5558 53.0409 83.3637 64.7559 87.3958C73.5795 90.4328 82.429 95.3264 90.0547 102.137C90.0628 102.127 90.4551 102.488 90.4551 102.488L91.9189 103.821L92.2156 104.161C103.912 115.396 111.995 131.097 112.19 152.133C112.197 152.823 111.642 153.388 110.952 153.395C110.262 153.401 109.697 152.847 109.69 152.157C109.503 131.988 101.506 116.608 90.3086 105.783C80.5543 117.036 66.7094 122.251 53.751 123.031C44.2723 123.601 35.1762 121.812 28.4023 118.213C21.6412 114.622 16.9922 109.094 16.9922 102.177C16.9922 97.7037 18.5493 93.9701 21.2881 91.0599C24.0074 88.1705 27.8348 86.1495 32.3115 84.9505ZM63.9424 89.7591C52.5637 85.8427 41.2977 85.1322 32.959 87.3655C28.7961 88.4805 25.4265 90.3108 23.1094 92.7728C20.8119 95.2139 19.4922 98.3328 19.4922 102.177C19.4922 107.819 23.2665 112.654 29.5752 116.005C35.8712 119.35 44.4924 121.083 53.6006 120.535C66.0408 119.787 79.2156 114.803 88.4746 104.075C81.1031 97.4658 72.525 92.7132 63.9424 89.7591Z" fill="var(--spectrum-global-color-gray-800, #222222)"/>
<path d="M98.3506 85.347C98.5388 84.683 99.2296 84.2969 99.8936 84.4847C100.558 84.6729 100.944 85.3644 100.756 86.0286L100.411 87.1995C98.6233 93.0474 96.0785 98.0847 92.9902 102.383C92.3605 101.786 91.7403 101.21 91.1387 100.663C94.1902 96.3545 96.6709 91.2752 98.3506 85.347Z" fill="var(--spectrum-global-color-gray-800, #222222)"/>
<path d="M140.485 101.323L140.509 33.1499C140.519 31.2738 139.784 29.4807 138.468 28.1538L138.465 28.1509L121.722 11.1646L121.472 10.9243C120.195 9.75831 118.532 9.10506 116.8 9.10498H68.3987L67.9553 9.12158C63.4069 9.41267 59.8225 13.2111 59.843 17.8208V80.146C59.843 80.8364 59.2834 81.396 58.593 81.396C57.9027 81.3959 57.343 80.8363 57.343 80.146V17.8267C57.3185 11.7008 62.2361 6.68763 68.3645 6.60498H116.8C119.164 6.60506 121.426 7.49637 123.157 9.07764L123.496 9.40381L123.499 9.40674L140.242 26.3931L140.568 26.7378C142.145 28.4936 143.021 30.776 143.009 33.1567L142.985 101.323L142.971 101.882C142.679 107.635 137.916 112.203 132.105 112.203L106.559 112.178L106.431 112.171C105.8 112.107 105.309 111.574 105.31 110.926C105.311 110.236 105.871 109.678 106.561 109.678L132.105 109.702C136.725 109.702 140.484 105.953 140.485 101.323Z" fill="var(--spectrum-global-color-gray-800, #222222)"/>
</svg>
