<?xml version="1.0" encoding="UTF-8"?><svg xmlns="http://www.w3.org/2000/svg" width="152" height="152" xmlns:xlink="http://www.w3.org/1999/xlink" viewBox="0 0 152 152"><defs><radialGradient id="b" cx="-138.79" cy="151.4" fx="-138.79" fy="151.4" r="50.5" gradientTransform="translate(301.42 -136.97) scale(1.65 1.41)" gradientUnits="userSpaceOnUse"><stop offset="0" stop-color="#8ac8fe"/><stop offset=".06" stop-color="#8ac7fe" stop-opacity=".9"/><stop offset=".21" stop-color="#8ac7fe" stop-opacity=".66"/><stop offset=".35" stop-color="#8bc6fe" stop-opacity=".46"/><stop offset=".5" stop-color="#8bc6fe" stop-opacity=".29"/><stop offset=".64" stop-color="#8bc6fe" stop-opacity=".17"/><stop offset=".77" stop-color="#8bc6fe" stop-opacity=".07"/><stop offset=".89" stop-color="#8bc6fe" stop-opacity=".02"/><stop offset="1" stop-color="#8cc6ff" stop-opacity="0"/></radialGradient><linearGradient id="c" x1="18.28" y1="38.01" x2="130.66" y2="111.98" gradientUnits="userSpaceOnUse"><stop offset="0" stop-color="#8ac8fe"/><stop offset="1" stop-color="#cee2fc"/></linearGradient><clipPath id="d"><rect x="38.98" y="23.97" width="73.08" height="104.86" rx="8.61" ry="8.61" transform="translate(-.88 151.91) rotate(-90)" fill="none"/></clipPath></defs><g isolation="isolate"><g id="a"><rect x="1" y="1" width="150" height="150" rx="9.66" ry="9.66" fill="#f3f3f3"/><ellipse cx="72.11" cy="76.53" rx="89.84" ry="76.51" fill="url(#b)"/><rect x="38.98" y="23.97" width="73.08" height="104.86" rx="8.61" ry="8.61" transform="translate(-.88 151.91) rotate(-90)" fill="#fff"/><path d="M57.82,108.47h-27.17c-1.89,0-3.42-1.53-3.42-3.42v-58.1c0-1.89,1.53-3.42,3.42-3.42h27.17v64.94ZM91.29,43.53h-30.59v64.94h30.59V43.53ZM124.76,105.05v-58.1c0-1.89-1.53-3.42-3.42-3.42h-27.17v64.94h27.17c1.89,0,3.42-1.53,3.42-3.42Z" fill="url(#c)"/><g clip-path="url(#d)"><path d="M34.77,51.48c.59-.59.91-1.37.91-2.19v-11.51c0-1.71-1.39-3.1-3.1-3.1-.83,0-1.61.32-2.19.91-.59.59-.91,1.37-.91,2.19v8.4s-8.14,0-8.14,0c-.83,0-1.61.32-2.19.91-.59.59-.91,1.37-.91,2.19s.32,1.61.91,2.2c.59.59,1.37.91,2.2.91h11.24c.83,0,1.61-.32,2.19-.91Z" fill="#464646" mix-blend-mode="multiply" opacity=".1"/><path d="M34.52,101.19c-.59-.59-1.37-.91-2.19-.91h-11.51c-1.71,0-3.1,1.39-3.1,3.1,0,.83.32,1.61.91,2.19.59.59,1.37.91,2.19.91h8.4s0,8.14,0,8.14c0,.83.32,1.61.91,2.19.59.59,1.37.91,2.19.91s1.61-.32,2.2-.91c.59-.59.91-1.37.91-2.2v-11.24c0-.83-.32-1.61-.91-2.19Z" fill="#464646" mix-blend-mode="multiply" opacity=".1"/><path d="M116.82,51.35c.59.59,1.37.91,2.19.91h11.51c1.71,0,3.1-1.39,3.1-3.1,0-.83-.32-1.61-.91-2.19-.59-.59-1.37-.91-2.19-.91h-8.4v-8.14c0-.83-.32-1.61-.91-2.19-.59-.59-1.37-.91-2.19-.91s-1.61.32-2.2.91c-.59.59-.91,1.37-.91,2.2v11.24c0,.83.32,1.61.91,2.19Z" fill="#464646" mix-blend-mode="multiply" opacity=".1"/><path d="M116.48,101.2c-.59.59-.91,1.37-.91,2.19v11.51c0,1.71,1.39,3.1,3.1,3.1.83,0,1.61-.32,2.19-.91.59-.59.91-1.37.91-2.19v-8.4s8.14,0,8.14,0c.83,0,1.61-.32,2.19-.91.59-.59.91-1.37.91-2.19s-.32-1.61-.91-2.2c-.59-.59-1.37-.91-2.2-.91h-11.24c-.83,0-1.61.32-2.19.91Z" fill="#464646" mix-blend-mode="multiply" opacity=".1"/></g><path d="M17.12,47.93c-.68,0-1.33-.27-1.81-.75-.48-.48-.75-1.13-.75-1.81,0-1.41,1.15-2.56,2.56-2.56h8.69v-8.95c0-1.41,1.15-2.56,2.56-2.56s2.56,1.15,2.56,2.56v11.51c0,1.41-1.15,2.56-2.56,2.56h-11.24Z" fill="#4f80ff"/><path d="M28.37,31.91c1.08,0,1.96.88,1.96,1.96v11.51c0,1.08-.88,1.96-1.95,1.95h-11.24c-.54,0-1.03-.22-1.38-.57-.35-.35-.57-.84-.57-1.38,0-1.08.88-1.96,1.95-1.95h9.29v-9.55c0-1.08.88-1.96,1.95-1.95M28.37,30.71c-.84,0-1.64.33-2.23.92-.6.6-.92,1.39-.92,2.23v8.35s-8.09,0-8.09,0h0c-.84,0-1.63.33-2.23.92s-.92,1.39-.92,2.23c0,.84.33,1.64.92,2.23.6.6,1.39.92,2.23.92h11.24c.84,0,1.63-.33,2.23-.92.6-.6.92-1.39.92-2.23v-11.51c0-1.74-1.42-3.16-3.16-3.16h0Z" fill="#fff"/><path d="M28.37,121.22c-1.41,0-2.56-1.15-2.56-2.56v-8.95h-8.69c-1.41,0-2.56-1.15-2.56-2.56,0-.68.27-1.32.75-1.81s1.12-.75,1.81-.75h11.24c1.41,0,2.56,1.15,2.56,2.56v11.51c0,1.41-1.15,2.56-2.56,2.56Z" fill="#4f80ff"/><path d="M28.37,105.21c1.08,0,1.95.88,1.95,1.95v11.51c0,1.08-.88,1.96-1.96,1.96h0c-1.08,0-1.95-.88-1.95-1.95v-9.55h-9.29c-1.08,0-1.95-.88-1.95-1.95,0-.54.22-1.03.57-1.38.35-.35.84-.57,1.38-.57h11.24M28.37,104.01h-11.24c-.84,0-1.64.33-2.23.92s-.92,1.39-.92,2.23c0,.84.33,1.64.92,2.23.6.6,1.39.92,2.23.92h8.09v8.35c0,.84.33,1.64.92,2.23.6.6,1.39.92,2.23.92,1.74,0,3.16-1.42,3.16-3.16v-11.51c0-.84-.33-1.64-.92-2.23-.6-.6-1.39-.92-2.23-.92h0Z" fill="#fff"/><path d="M122.65,121.22c-1.41,0-2.56-1.15-2.56-2.56v-11.51c0-1.41,1.15-2.56,2.56-2.56h11.24c.68,0,1.33.27,1.81.75.48.48.75,1.13.75,1.81,0,1.41-1.15,2.56-2.56,2.56h-8.69v8.95c0,1.41-1.15,2.56-2.56,2.56Z" fill="#4f80ff"/><path d="M122.64,105.21h11.24c.54,0,1.03.22,1.38.57.35.35.57.84.57,1.38,0,1.08-.88,1.95-1.95,1.95h-9.29v9.55c0,1.08-.88,1.96-1.95,1.95-1.08,0-1.96-.88-1.96-1.96v-11.51c0-1.08.88-1.95,1.95-1.95M133.89,104.01h-11.24c-.84,0-1.64.33-2.23.92s-.92,1.39-.92,2.23v11.51c0,1.74,1.42,3.16,3.16,3.16.84,0,1.64-.33,2.23-.92.6-.6.92-1.39.92-2.23v-8.35h8.09c.84,0,1.64-.33,2.23-.92s.92-1.39.92-2.23c0-.84-.33-1.64-.92-2.23-.6-.6-1.39-.92-2.23-.92h0Z" fill="#fff"/><path d="M122.65,47.93c-1.41,0-2.56-1.15-2.56-2.56v-11.51c0-1.41,1.15-2.56,2.56-2.56s2.56,1.15,2.56,2.56v8.95h8.69c1.41,0,2.56,1.15,2.56,2.56,0,.68-.27,1.32-.75,1.81s-1.12.75-1.81.75h-11.24Z" fill="#4f80ff"/><path d="M122.65,31.91c1.08,0,1.95.88,1.95,1.95v9.55h9.29c1.08,0,1.95.88,1.95,1.95,0,.54-.22,1.03-.57,1.38-.35.35-.84.57-1.38.57h-11.24c-1.08,0-1.95-.88-1.95-1.95v-11.51c0-1.08.88-1.96,1.96-1.96h0M122.65,30.71c-1.74,0-3.16,1.42-3.16,3.16v11.51c0,.84.33,1.64.92,2.23.6.6,1.39.92,2.23.92h11.24c.84,0,1.64-.33,2.23-.92.6-.6.92-1.39.92-2.23,0-.84-.33-1.64-.92-2.23-.6-.6-1.39-.92-2.23-.92h-8.09v-8.35c0-.84-.33-1.64-.92-2.23-.6-.6-1.39-.92-2.23-.92h0Z" fill="#fff"/></g></g></svg>