<?xml version="1.0" encoding="UTF-8"?><svg xmlns="http://www.w3.org/2000/svg" width="152" height="152" xmlns:xlink="http://www.w3.org/1999/xlink" viewBox="0 0 152 152"><defs><radialGradient id="b" cx="-149.73" cy="209.05" fx="-149.73" fy="209.05" r="50.5" gradientTransform="translate(-220.43 -170.29) rotate(-90) scale(1.65 1.41)" gradientUnits="userSpaceOnUse"><stop offset="0" stop-color="#8ac8fe"/><stop offset=".06" stop-color="#8ac7fe" stop-opacity=".9"/><stop offset=".21" stop-color="#8ac7fe" stop-opacity=".66"/><stop offset=".35" stop-color="#8bc6fe" stop-opacity=".46"/><stop offset=".5" stop-color="#8bc6fe" stop-opacity=".29"/><stop offset=".64" stop-color="#8bc6fe" stop-opacity=".17"/><stop offset=".77" stop-color="#8bc6fe" stop-opacity=".07"/><stop offset=".89" stop-color="#8bc6fe" stop-opacity=".02"/><stop offset="1" stop-color="#8cc6ff" stop-opacity="0"/></radialGradient><linearGradient id="c" x1="41.25" y1="34.76" x2="113.53" y2="120.03" gradientUnits="userSpaceOnUse"><stop offset="0" stop-color="#8ac8fe"/><stop offset="1" stop-color="#cee2fc"/></linearGradient><clipPath id="d"><rect x="39.46" y="23.59" width="73.08" height="104.86" rx="8.61" ry="8.61" fill="none"/></clipPath></defs><g isolation="isolate"><g id="a"><rect x="1" y="1" width="150" height="150" rx="9.66" ry="9.66" fill="#f3f3f3"/><ellipse cx="74.37" cy="77.1" rx="76.51" ry="89.84" fill="url(#b)"/><rect x="39.46" y="23.59" width="73.08" height="104.86" rx="8.61" ry="8.61" fill="#fff"/><path d="M64.89,122.15h-15.42c-1.89,0-3.42-1.53-3.42-3.42V33c0-1.89,1.53-3.42,3.42-3.42h15.42v92.57ZM85.51,29.58h-18.84v92.57h18.84V29.58ZM106.12,118.73V33c0-1.89-1.53-3.42-3.42-3.42h-15.42v92.57h15.42c1.89,0,3.42-1.53,3.42-3.42Z" fill="url(#c)"/><g clip-path="url(#d)"><path d="M100.6,34.9c.59.59,1.37.91,2.19.91h11.51c1.71,0,3.1-1.39,3.1-3.1,0-.83-.32-1.61-.91-2.19-.59-.59-1.37-.91-2.19-.91h-8.4v-8.14c0-.83-.32-1.61-.91-2.19-.59-.59-1.37-.91-2.19-.91s-1.61.32-2.2.91c-.59.59-.91,1.37-.91,2.2v11.24c0,.83.32,1.61.91,2.19Z" fill="#464646" mix-blend-mode="multiply" opacity=".1"/><path d="M51.84,34.67c.59-.59.91-1.37.91-2.19v-11.51c0-1.71-1.39-3.1-3.1-3.1-.83,0-1.61.32-2.19.91-.59.59-.91,1.37-.91,2.19v8.4s-8.14,0-8.14,0c-.83,0-1.61.32-2.19.91-.59.59-.91,1.37-.91,2.19s.32,1.61.91,2.2c.59.59,1.37.91,2.2.91h11.24c.83,0,1.61-.32,2.19-.91Z" fill="#464646" mix-blend-mode="multiply" opacity=".1"/><path d="M100.58,115.77c-.59.59-.91,1.37-.91,2.19v11.51c0,1.71,1.39,3.1,3.1,3.1.83,0,1.61-.32,2.19-.91.59-.59.91-1.37.91-2.19v-8.4h8.14c.83,0,1.61-.32,2.19-.91.59-.59.91-1.37.91-2.19s-.32-1.61-.91-2.2c-.59-.59-1.37-.91-2.2-.91h-11.24c-.83,0-1.61.32-2.19.91Z" fill="#464646" mix-blend-mode="multiply" opacity=".1"/><path d="M51.57,115.9c-.59-.59-1.37-.91-2.19-.91h-11.51c-1.71,0-3.1,1.39-3.1,3.1,0,.83.32,1.61.91,2.19.59.59,1.37.91,2.19.91h8.4s0,8.14,0,8.14c0,.83.32,1.61.91,2.19.59.59,1.37.91,2.19.91s1.61-.32,2.2-.91c.59-.59.91-1.37.91-2.2v-11.24c0-.83-.32-1.61-.91-2.19Z" fill="#464646" mix-blend-mode="multiply" opacity=".1"/></g><path d="M106.52,31.18c-.68,0-1.32-.27-1.81-.75-.48-.48-.75-1.12-.75-1.81v-11.24c0-.68.27-1.32.75-1.81s1.12-.75,1.81-.75,1.32.27,1.81.75c.48.48.75,1.12.75,1.81v8.69h8.95c.68,0,1.32.27,1.81.75.48.48.75,1.12.75,1.81,0,1.41-1.15,2.56-2.56,2.56h-11.51Z" fill="#4f80ff"/><path d="M106.52,15.42c1.08,0,1.95.88,1.95,1.95v9.29h9.55c1.08,0,1.95.88,1.95,1.95,0,1.08-.88,1.96-1.96,1.96h-11.51c-1.08,0-1.95-.88-1.95-1.95v-11.24c0-.54.22-1.03.57-1.38.35-.35.84-.57,1.38-.57h0M106.52,14.22c-.84,0-1.64.33-2.23.92-.6.6-.92,1.39-.92,2.23v11.24c0,.84.33,1.64.92,2.23.6.6,1.39.92,2.23.92h11.51c1.74,0,3.16-1.42,3.16-3.16,0-.84-.33-1.64-.92-2.23-.6-.6-1.39-.92-2.23-.92h-8.35v-8.09c0-.84-.33-1.64-.92-2.23s-1.39-.92-2.23-.92h0Z" fill="#fff"/><path d="M33.72,31.18c-1.41,0-2.56-1.15-2.56-2.56s1.15-2.55,2.55-2.55h8.95v-8.69c0-1.41,1.15-2.56,2.56-2.56.68,0,1.32.27,1.81.75.48.48.75,1.12.75,1.81v11.24c0,.68-.27,1.32-.75,1.81-.48.48-1.12.75-1.81.75h-11.51Z" fill="#4f80ff"/><path d="M45.23,15.42c.54,0,1.03.22,1.38.57.35.35.57.84.57,1.38v11.24c0,1.08-.88,1.96-1.95,1.95h-11.51c-1.08,0-1.96-.88-1.96-1.96,0-1.08.88-1.95,1.95-1.95h9.55v-9.29c0-1.08.88-1.96,1.95-1.95M45.23,14.22h0c-.84,0-1.64.33-2.23.92-.6.6-.92,1.39-.92,2.23v8.09h-8.35c-.84,0-1.64.33-2.23.92s-.92,1.39-.92,2.23c0,1.74,1.42,3.16,3.16,3.16h11.51c.84,0,1.63-.33,2.23-.92.6-.6.92-1.39.92-2.23v-11.24c0-.84-.33-1.64-.92-2.23-.6-.6-1.39-.92-2.23-.92h0Z" fill="#fff"/><path d="M45.23,135.95c-1.41,0-2.55-1.15-2.55-2.55v-8.69h-8.95c-1.41,0-2.55-1.15-2.55-2.56s1.15-2.56,2.56-2.56h11.51c1.41,0,2.56,1.15,2.56,2.56v11.24c0,.68-.27,1.33-.75,1.81-.48.48-1.12.75-1.81.75h0Z" fill="#4f80ff"/><path d="M45.23,120.19c1.08,0,1.95.88,1.95,1.95v11.24c0,.54-.22,1.03-.57,1.38-.35.35-.84.57-1.38.57h0c-1.08,0-1.95-.88-1.95-1.95v-9.29h-9.55c-1.08,0-1.95-.88-1.95-1.95,0-1.08.88-1.96,1.96-1.96h11.51M45.23,118.99h-11.51c-1.74,0-3.16,1.42-3.16,3.16,0,.84.33,1.64.92,2.23s1.39.92,2.23.92h8.35v8.09c0,.84.33,1.64.92,2.23s1.39.92,2.23.92,1.64-.33,2.23-.92c.6-.6.92-1.39.92-2.23v-11.24c0-.84-.33-1.64-.92-2.23-.6-.6-1.39-.92-2.23-.92h0Z" fill="#fff"/><path d="M106.52,135.95c-.69,0-1.33-.27-1.81-.75-.48-.48-.75-1.12-.75-1.81v-11.24c0-.68.27-1.32.75-1.81.48-.48,1.12-.75,1.81-.75h11.51c1.41,0,2.56,1.15,2.56,2.56s-1.15,2.56-2.56,2.56h-8.95v8.69c0,.68-.26,1.32-.75,1.81-.48.48-1.12.75-1.81.75h0Z" fill="#4f80ff"/><path d="M118.03,120.19c1.08,0,1.96.88,1.96,1.96,0,1.08-.88,1.95-1.95,1.95h-9.55v9.29c0,1.08-.88,1.96-1.95,1.95-.54,0-1.03-.22-1.38-.57-.35-.35-.57-.84-.57-1.38v-11.24c0-1.08.88-1.96,1.95-1.95h11.51M118.03,118.99h-11.51c-.84,0-1.64.33-2.23.92s-.92,1.39-.92,2.23v11.24c0,.84.33,1.64.92,2.23.6.6,1.39.92,2.23.92.84,0,1.64-.33,2.23-.92s.92-1.39.92-2.23v-8.09h8.35c.84,0,1.64-.33,2.23-.92s.92-1.39.92-2.23c0-1.74-1.42-3.16-3.16-3.16h0Z" fill="#fff"/></g></g></svg>