<svg width="19" height="19" viewBox="0 0 19 19" fill="none" xmlns="http://www.w3.org/2000/svg">
<g clip-path="url(#clip0_12767_4402)">
<path fill-rule="evenodd" clip-rule="evenodd" d="M16.1455 5.59342C15.7227 5.23404 15.0899 5.28971 14.7363 5.71158L12.423 8.45035L11.2167 6.06091C10.9987 5.62928 10.5564 5.35708 10.0729 5.35708H7.7063C7.83569 4.67593 8.00916 3.93765 8.31543 3.35708C8.5918 2.83071 9.40625 2.78677 9.87207 2.92349C10.4023 3.07876 10.9579 2.77505 11.1133 2.24527C11.2687 1.71451 10.9648 1.15884 10.4346 1.00357C9.08203 0.60904 7.3125 0.96939 6.5459 2.42349C6.04614 3.37271 5.83496 4.44937 5.67383 5.35708H4.5C3.94727 5.35708 3.5 5.80435 3.5 6.35708C3.5 6.90981 3.94727 7.35708 4.5 7.35708H5.30969L3.61291 16.7321C3.5144 17.277 3.87829 17.7975 4.42395 17.8932C4.96533 17.9879 5.48169 17.6276 5.57959 17.0871L7.34253 7.35708H9.63086L11.0208 10.11L7.93066 13.7682C7.57421 14.1901 7.62695 14.8209 8.04882 15.1774C8.23632 15.3366 8.46581 15.4137 8.69335 15.4137C8.97851 15.4137 9.26073 15.2936 9.458 15.0592L12 12.0499L13.4209 14.8649C13.5967 15.2126 13.9492 15.4137 14.3144 15.4137C14.4658 15.4137 14.6201 15.3795 14.7646 15.3063C15.2568 15.0573 15.4551 14.4557 15.206 13.9626L13.4023 10.3898L16.2637 7.00259C16.6201 6.58071 16.5674 5.94987 16.1455 5.59342Z" fill="#292929"/>
</g>
<defs>
<clipPath id="clip0_12767_4402">
<rect width="18" height="18" fill="white" transform="translate(0.5 0.356934)"/>
</clipPath>
</defs>
</svg>
