<svg width="19" height="19" viewBox="0 0 19 19" fill="none" xmlns="http://www.w3.org/2000/svg">
<g clip-path="url(#clip0_12767_4386)">
<path fill-rule="evenodd" clip-rule="evenodd" d="M17.5 13.3569H6.5C5.94873 13.3569 5.5 12.9087 5.5 12.3569V1.35693C5.5 0.804194 5.05225 0.356934 4.5 0.356934C3.94775 0.356934 3.5 0.804204 3.5 1.35693V3.35693H1.5C0.94775 3.35693 0.5 3.8042 0.5 4.35693C0.5 4.90966 0.94775 5.35693 1.5 5.35693H3.5V12.3569C3.5 14.0112 4.8457 15.3569 6.5 15.3569H13.5V17.3569C13.5 17.9097 13.9478 18.3569 14.5 18.3569C15.0522 18.3569 15.5 17.9097 15.5 17.3569V15.3569H17.5C18.0522 15.3569 18.5 14.9097 18.5 14.3569C18.5 13.8042 18.0522 13.3569 17.5 13.3569Z" fill="#292929"/>
<path fill-rule="evenodd" clip-rule="evenodd" d="M7.50586 5.35693H12.5C13.0513 5.35693 13.5 5.80517 13.5 6.35693V11.3569C13.5 11.9097 13.9477 12.3569 14.5 12.3569C15.0522 12.3569 15.5 11.9097 15.5 11.3569V6.35693C15.5 4.70263 14.1543 3.35693 12.5 3.35693H7.50586C6.95361 3.35693 6.50586 3.8042 6.50586 4.35693C6.50586 4.90966 6.95361 5.35693 7.50586 5.35693Z" fill="#292929"/>
</g>
<defs>
<clipPath id="clip0_12767_4386">
<rect width="18" height="18" fill="white" transform="translate(0.5 0.356934)"/>
</clipPath>
</defs>
</svg>
