<svg width="19" height="19" viewBox="0 0 19 19" fill="none" xmlns="http://www.w3.org/2000/svg">
<g clip-path="url(#clip0_12767_4416)">
<path fill-rule="evenodd" clip-rule="evenodd" d="M10.0479 11.6458L8.98201 10.6156L9.08553 9.13609C9.09969 8.94273 9.02742 8.75425 8.88778 8.61851C8.6285 8.36656 8.21346 8.37339 7.96053 8.63511L6.9327 9.70249L5.45028 9.598C5.25692 9.5814 5.06844 9.65855 4.9371 9.79624C4.81552 9.92124 4.75009 10.0873 4.75302 10.2621C4.75546 10.4369 4.82626 10.5999 4.95224 10.722L6.01816 11.7542L5.91318 13.2357C5.90097 13.4232 5.9708 13.6087 6.108 13.7455C6.23495 13.8705 6.40048 13.933 6.56698 13.933C6.73739 13.933 6.90829 13.8675 7.03866 13.7347L8.06893 12.6712L9.54842 12.7709C9.74178 12.7884 9.92977 12.7103 10.0572 12.5775C10.1808 12.4525 10.2481 12.2865 10.2467 12.1107C10.2452 11.9349 10.1754 11.7699 10.0479 11.6458Z" fill="#292929"/>
<path fill-rule="evenodd" clip-rule="evenodd" d="M11.1919 18.3569H5.80811C2.88135 18.3569 0.5 15.9761 0.5 13.0493V7.66454C0.50001 4.73779 2.88136 2.35693 5.80812 2.35693H7.48781C8.04006 2.35693 8.48781 2.8042 8.48781 3.35693C8.48781 3.90966 8.04006 4.35693 7.48781 4.35693H5.80812C3.9839 4.35693 2.50001 5.84033 2.50001 7.66455V13.0493C2.50001 14.8735 3.9839 16.3569 5.80812 16.3569H11.1919C13.0161 16.3569 14.5 14.8735 14.5 13.0493V10.8569C14.5 10.3042 14.9478 9.85694 15.5 9.85694C16.0523 9.85694 16.5 10.3042 16.5 10.8569V13.0493C16.5 15.9761 14.1187 18.3569 11.1919 18.3569Z" fill="#292929"/>
<path fill-rule="evenodd" clip-rule="evenodd" d="M12.9499 8.78951C12.63 8.78951 12.3288 8.66744 12.0988 8.44381C11.8405 8.19576 11.7047 7.84225 11.7321 7.47799L11.8703 5.4985L10.4406 4.11862C10.2047 3.89108 10.0729 3.58542 10.0675 3.25827C10.0626 2.9321 10.1852 2.62253 10.4132 2.38815C10.6608 2.13327 11.007 1.99362 11.3639 2.01999L13.3576 2.15964L14.7374 0.729954C15.2057 0.245574 15.9791 0.230934 16.464 0.697724C16.7282 0.955534 16.861 1.30612 16.8356 1.66452L16.6959 3.64597L18.1271 5.02781C18.3624 5.25535 18.4943 5.56101 18.4996 5.88816C18.5045 6.21433 18.382 6.5239 18.1539 6.75828C17.9069 7.01316 17.567 7.16258 17.2033 7.12644L15.2091 6.98679L13.8297 8.41648C13.6017 8.65183 13.2965 8.78464 12.9694 8.78953L12.9499 8.78951ZM13.3693 4.16549L13.5207 4.31197C13.7819 4.56783 13.9152 4.91646 13.8908 5.27486L13.8761 5.48775L14.0226 5.33541C14.2765 5.07369 14.633 4.92916 14.9914 4.96627L15.1989 4.98092L15.046 4.83346C14.7882 4.58834 14.651 4.2358 14.6754 3.87155L14.6901 3.65964L14.5451 3.81003C14.2946 4.07077 13.9411 4.22312 13.5753 4.18015L13.3693 4.16549Z" fill="#292929"/>
</g>
<defs>
<clipPath id="clip0_12767_4416">
<rect width="18" height="18" fill="white" transform="translate(0.5 0.356934)"/>
</clipPath>
</defs>
</svg>
