<svg width="19" height="19" viewBox="0 0 19 19" fill="none" xmlns="http://www.w3.org/2000/svg">
<g clip-path="url(#clip0_12767_4365)">
<path d="M13 7.35693C13.8284 7.35693 14.5 6.68536 14.5 5.85693C14.5 5.02851 13.8284 4.35693 13 4.35693C12.1716 4.35693 11.5 5.02851 11.5 5.85693C11.5 6.68536 12.1716 7.35693 13 7.35693Z" fill="#292929"/>
<path opacity="0.3" fill-rule="evenodd" clip-rule="evenodd" d="M13.5 9.39428C13.9282 9.4768 14.3391 9.68212 14.6709 10.0142L16.5 11.6809V7.35693H13.5V9.39428Z" fill="#292929"/>
<path opacity="0.3" fill-rule="evenodd" clip-rule="evenodd" d="M7.27612 8.01415L9.49975 10.2385V7.35693H5.68945C6.26342 7.35864 6.83862 7.57762 7.27612 8.01415Z" fill="#292929"/>
<path opacity="0.3" fill-rule="evenodd" clip-rule="evenodd" d="M5.5 7.3744C5.56348 7.36915 5.62598 7.3567 5.6897 7.35694C5.6897 7.35694 5.5 7.35694 5.5 7.3744Z" fill="#292929"/>
<path opacity="0.3" fill-rule="evenodd" clip-rule="evenodd" d="M5.5 7.35693V3.35693C3.8457 3.35693 2.5 4.70263 2.5 6.35693V7.35693H5.5Z" fill="#292929"/>
<path fill-rule="evenodd" clip-rule="evenodd" d="M13.5 1.35693H5.5C2.74316 1.35693 0.5 3.60009 0.5 6.35693V12.3569C0.5 15.1138 2.74316 17.3569 5.5 17.3569H13.5C16.2568 17.3569 18.5 15.1138 18.5 12.3569V6.35693C18.5 3.60009 16.2568 1.35693 13.5 1.35693ZM5.5 3.35693H13.5C15.1543 3.35693 16.5 4.70263 16.5 6.35693V11.6809L14.6709 10.0142C13.7959 9.13817 12.3691 9.13622 11.5322 9.97606L10.3213 11.06L7.27637 8.01414C6.40137 7.14109 4.97559 7.13816 4.11035 8.0034L2.5 9.56175V6.35692C2.5 4.70262 3.8457 3.35693 5.5 3.35693ZM13.5 15.3569H5.5C3.8457 15.3569 2.5 14.0112 2.5 12.3569C2.5 12.3449 5.51172 9.43017 5.51172 9.43017C5.60938 9.33251 5.76758 9.33349 5.86328 9.42919L9.57617 13.1431C9.95117 13.5181 10.5537 13.5337 10.9502 13.1812L12.9062 11.4282C13.0293 11.3081 13.1045 11.2788 13.29 11.4605L16.0283 13.9573C15.4956 14.7957 14.5647 15.3569 13.5 15.3569Z" fill="#292929"/>
<path opacity="0.3" fill-rule="evenodd" clip-rule="evenodd" d="M11.5 5.85693C11.5 5.02856 12.1716 4.35693 13 4.35693C13.1763 4.35693 13.3428 4.39282 13.5 4.44873V3.35693H9.5V7.35693H13C12.1716 7.35693 11.5 6.6853 11.5 5.85693Z" fill="#292929"/>
<path opacity="0.3" fill-rule="evenodd" clip-rule="evenodd" d="M13 7.35694H13.5V7.26514C13.3428 7.32105 13.1763 7.35694 13 7.35694Z" fill="#292929"/>
</g>
<defs>
<clipPath id="clip0_12767_4365">
<rect width="18" height="18" fill="white" transform="translate(0.5 0.356934)"/>
</clipPath>
</defs>
</svg>
