<svg width="19" height="19" viewBox="0 0 19 19" fill="none" xmlns="http://www.w3.org/2000/svg">
<g clip-path="url(#clip0_12767_4432)">
<path fill-rule="evenodd" clip-rule="evenodd" d="M13.7789 16.359C13.546 16.359 13.3131 16.275 13.1324 16.1061C12.9244 15.9078 12.819 15.6363 12.8385 15.3561L12.9625 13.6129L11.6798 12.4C11.4938 12.2223 11.3903 11.986 11.3868 11.732C11.3829 11.4791 11.4791 11.2399 11.6573 11.0602C11.8512 10.8629 12.1227 10.7545 12.3946 10.7809L14.1886 10.9039L15.4327 9.6383C15.7965 9.27404 16.3907 9.26427 16.7594 9.61876C16.962 9.81114 17.0675 10.0826 17.048 10.3629L16.923 12.1041L18.2067 13.319C18.3898 13.4928 18.4962 13.7359 18.5001 13.9869C18.5035 14.2369 18.4044 14.483 18.2277 14.6608C18.0397 14.8512 17.7721 14.9527 17.505 14.9391L15.6988 14.8141L14.4537 16.0797C14.2701 16.2652 14.0245 16.359 13.7789 16.359ZM13.8458 12.3834L14.1871 12.7066C14.3917 12.902 14.4972 13.1734 14.4777 13.4537L14.442 13.9527L14.8087 13.5797C15.007 13.3824 15.2784 13.274 15.5475 13.3004L16.0411 13.3346L15.6998 13.0113C15.4952 12.818 15.3878 12.5455 15.4078 12.2643L15.4435 11.7672L15.0778 12.1393C14.8761 12.3414 14.6022 12.4459 14.3258 12.4166L13.8458 12.3834ZM16.7296 11.9205L16.732 11.9225C16.7311 11.9215 16.7301 11.9205 16.7296 11.9205ZM14.4244 10.9205L14.441 10.9215C14.4357 10.9205 14.4298 10.9205 14.4244 10.9205Z" fill="#292929"/>
<path fill-rule="evenodd" clip-rule="evenodd" d="M13.5 5.88623C13.502 5.03076 13.166 4.229 12.5542 3.62842L10.2695 1.38526C9.05176 0.189941 7.06934 0.189941 5.85156 1.38525L1.4458 5.70849C0.835941 6.30615 0.500491 7.10498 0.500001 7.95849C0.499511 8.812 0.835451 9.61083 1.4458 10.2104L4.07568 12.7895L4.41455 13.0972C4.46234 13.1406 4.51996 13.1619 4.573 13.1943C4.62103 13.2241 4.6629 13.2607 4.71594 13.282C4.8352 13.3298 4.96032 13.3569 5.08642 13.3569H11.059L10.9063 13.2124C10.5029 12.8257 10.2695 12.2915 10.2617 11.7427C10.2598 11.6118 10.2722 11.4832 10.294 11.3569H9.23621L12.5435 8.13916C13.1582 7.5415 13.4981 6.74072 13.5 5.88623ZM2.84668 8.78271C2.62305 8.56396 2.5 8.27099 2.5 7.95849C2.5 7.64697 2.62305 7.35497 2.84619 7.13622L3.31695 6.67431L7.23162 10.5168L6.36822 11.3569H5.4923L2.84668 8.78271ZM11.1489 6.70556L8.66584 9.12158L4.74512 5.27295L7.25196 2.81299C7.4712 2.59815 7.76612 2.49072 8.06055 2.49072C8.35498 2.49072 8.64942 2.59814 8.86817 2.81299L11.1533 5.05615C11.3775 5.27588 11.5005 5.56885 11.5 5.88135C11.499 6.19385 11.3745 6.48583 11.1489 6.70556Z" fill="#292929"/>
<path fill-rule="evenodd" clip-rule="evenodd" d="M11.0632 14.5083L10.9508 15.8015L11.8755 16.7125C12.152 16.9849 11.9356 17.4538 11.549 17.4202L10.2558 17.3077L9.34477 18.2325C9.07241 18.5089 8.60352 18.2926 8.63714 17.9059L8.74959 16.6127L7.82484 15.7017C7.54837 15.4293 7.76474 14.9605 8.15137 14.9941L9.4446 15.1065L10.3556 14.1818C10.628 13.9053 11.0969 14.1217 11.0632 14.5083Z" fill="#292929"/>
</g>
<defs>
<clipPath id="clip0_12767_4432">
<rect width="18" height="18" fill="white" transform="translate(0.5 0.356934)"/>
</clipPath>
</defs>
</svg>
