<svg width="19" height="19" viewBox="0 0 19 19" fill="none" xmlns="http://www.w3.org/2000/svg">
<g clip-path="url(#clip0_12767_4351)">
<path fill-rule="evenodd" clip-rule="evenodd" d="M14.3728 0.356934C13.3159 0.356934 12.259 0.758644 11.4545 1.56326L2.09383 10.9297C1.72171 11.3018 1.50781 11.8166 1.50781 12.3402L1.5 16.346C1.5 16.8988 1.94598 17.3472 2.49818 17.3481L6.51337 17.3569C7.0486 17.3569 7.56332 17.143 7.93348 16.7709L17.3166 7.38589C18.1059 6.58388 18.5 5.53472 18.5 4.48593C18.5 3.42582 18.0973 2.36608 17.2931 1.56229C16.4881 0.759124 15.4304 0.356934 14.3728 0.356934ZM14.3736 2.35592C14.9587 2.35592 16.5006 2.81443 16.5006 4.4809C16.5006 5.02555 16.294 5.57249 15.8789 5.99397L15.781 6.09214L12.7695 3.07802L12.8687 2.97863C13.2828 2.5635 13.8281 2.35592 14.3736 2.35592ZM5.1836 10.6677L11.3554 4.49265L14.3667 7.50653L8.19182 13.6832C7.68907 12.2796 6.58601 11.1734 5.1836 10.6677ZM3.5 12.3569C5.15086 12.3613 6.5 13.7049 6.5 15.3569H3.5V12.3569Z" fill="#292929"/>
</g>
<defs>
<clipPath id="clip0_12767_4351">
<rect width="18" height="18" fill="white" transform="translate(0.5 0.356934)"/>
</clipPath>
</defs>
</svg>
