<svg width="213" height="148" viewBox="0 0 213 148" fill="none" xmlns="http://www.w3.org/2000/svg">
<g clip-path="url(#clip0_16882_79647)">
<rect width="183.43" height="119.835" transform="translate(14.5173 13.6526) scale(1.00174)" fill="#CAE8FF"/>
<mask id="mask0_16882_79647" style="mask-type:alpha" maskUnits="userSpaceOnUse" x="-61" y="-66" width="271" height="226">
<path d="M-60.1257 110.46C-57.5509 150.709 -7.95338 159.443 40.1258 159.516C58.4695 159.543 88.1835 160.118 133.505 138.136C213.048 99.5564 233.999 9.21114 179.751 -43.9215C142.154 -80.7465 95.5095 -62.2283 80.2137 -46.2754C110.271 -34.6249 138.12 8.9981 110.479 37.038C83.6971 64.206 51.7651 64.4636 12.4937 62.0172C-26.2347 59.6046 -62.5721 72.2188 -60.1257 110.46Z" fill="#E0F2FF"/>
</mask>
<g mask="url(#mask0_16882_79647)">
<mask id="mask1_16882_79647" style="mask-type:alpha" maskUnits="userSpaceOnUse" x="-117" y="-150" width="462" height="462">
<path d="M114.303 -149.514C241.694 -149.514 344.965 -46.243 344.965 81.148C344.965 208.539 241.694 311.81 114.303 311.81C-13.0881 311.81 -116.359 208.539 -116.359 81.148C-116.359 -46.243 -13.0881 -149.514 114.303 -149.514Z" fill="white"/>
</mask>
<g mask="url(#mask1_16882_79647)">
<path d="M186.921 -64.5468C240.671 -48.7051 271.401 7.70996 255.56 61.4597C239.718 115.209 183.303 145.94 129.553 130.098C75.8034 114.256 45.0729 57.8413 60.9147 4.09158C76.7565 -49.6581 133.171 -80.3886 186.921 -64.5468Z" fill="#FF9B88"/>
<path d="M66.5016 21.1016C120.251 36.9434 150.982 93.3584 135.14 147.108C119.298 200.858 62.8832 231.588 9.13348 215.747C-44.6162 199.905 -75.3467 143.49 -59.5049 89.74C-43.6632 35.9903 12.7519 5.25983 66.5016 21.1016Z" fill="#C1C4FF"/>
</g>
</g>
<mask id="mask2_16882_79647" style="mask-type:alpha" maskUnits="userSpaceOnUse" x="44" y="-69" width="243" height="278">
<path d="M282.109 182.905C265.664 222.241 215.669 209.815 169.445 192.047C151.809 185.267 123.044 174.793 87.6831 136.938C25.6215 70.4985 30.9585 -36.48 102.104 -62.8954C154.123 -82.2091 191.462 -43.9249 200.218 -22.9802C166.998 -22.9802 126.053 6.63421 137.126 45.5193C148.2 84.4043 189.667 108.431 228.802 116.594C270.778 125.35 298.203 144.406 282.109 182.905Z" fill="#B5DEFF"/>
</mask>
<g mask="url(#mask2_16882_79647)">
<mask id="mask3_16882_79647" style="mask-type:alpha" maskUnits="userSpaceOnUse" x="-202" y="-113" width="689" height="689">
<path d="M142.854 -112.244C332.853 -112.244 486.877 41.7806 486.877 231.779C486.877 421.778 332.853 575.803 142.854 575.803C-47.1446 575.803 -201.169 421.778 -201.169 231.779C-201.169 41.7806 -47.1446 -112.244 142.854 -112.244Z" fill="black"/>
</mask>
<g mask="url(#mask3_16882_79647)">
<path d="M209.615 -142.37C391.863 -88.6559 496.06 102.629 442.346 284.877C388.632 467.125 197.347 571.322 15.0986 517.608C-167.149 463.894 -271.346 272.608 -217.632 90.3605C-163.918 -91.8874 27.3673 -196.084 209.615 -142.37Z" fill="#FFB7A9"/>
</g>
</g>
<mask id="mask4_16882_79647" style="mask-type:alpha" maskUnits="userSpaceOnUse" x="44" y="-69" width="166" height="194">
<ellipse cx="127.171" cy="28.0359" rx="82.5043" ry="96.2185" transform="rotate(-180 127.171 28.0359)" fill="#96CEFD"/>
</mask>
<g mask="url(#mask4_16882_79647)">
<mask id="mask5_16882_79647" style="mask-type:alpha" maskUnits="userSpaceOnUse" x="-66" y="-269" width="462" height="462">
<path d="M165.176 -268.642C292.567 -268.642 395.838 -165.371 395.838 -37.9803C395.838 89.4108 292.567 192.682 165.176 192.682C37.7852 192.682 -65.4856 89.4108 -65.4856 -37.9803C-65.4856 -165.371 37.7852 -268.642 165.176 -268.642Z" fill="url(#paint0_radial_16882_79647)"/>
</mask>
<g mask="url(#mask5_16882_79647)">
<path d="M209.938 -288.844C332.133 -252.83 401.995 -124.576 365.981 -2.38182C329.966 119.812 201.712 189.675 79.5183 153.66C-42.676 117.646 -112.538 -10.6078 -76.5238 -132.802C-40.5093 -254.996 87.7443 -324.859 209.938 -288.844Z" fill="#CAE8FF"/>
</g>
<mask id="mask6_16882_79647" style="mask-type:alpha" maskUnits="userSpaceOnUse" x="69" y="-150" width="355" height="355">
<path d="M246.696 -149.079C344.409 -149.079 423.621 -69.8678 423.621 27.8447C423.621 125.557 344.409 204.769 246.696 204.769C148.984 204.769 69.7723 125.557 69.7723 27.8447C69.7723 -69.8678 148.984 -149.079 246.696 -149.079Z" fill="url(#paint1_radial_16882_79647)"/>
</mask>
<g mask="url(#mask6_16882_79647)">
<path d="M281.031 -164.574C374.757 -136.949 428.344 -38.5754 400.72 55.1511C373.095 148.878 274.721 202.464 180.995 174.84C87.2684 147.216 33.6819 48.8415 61.3061 -44.8849C88.9303 -138.611 187.304 -192.198 281.031 -164.574Z" fill="#FA77AA"/>
</g>
</g>
<g style="mix-blend-mode:overlay">
<mask id="mask7_16882_79647" style="mask-type:alpha" maskUnits="userSpaceOnUse" x="52" y="-40" width="228" height="227">
<path d="M165.654 -39.8687C228.302 -39.8687 279.088 10.9175 279.088 73.5656C279.088 136.214 228.302 187 165.654 187C103.006 187 52.2194 136.214 52.2194 73.5656C52.2194 10.9175 103.006 -39.8687 165.654 -39.8687Z" fill="url(#paint2_radial_16882_79647)"/>
</mask>
<g mask="url(#mask7_16882_79647)">
<path d="M195.479 -62.6208C255.571 -44.9097 289.928 18.1625 272.217 78.2549C254.506 138.347 191.433 172.704 131.341 154.993C71.2486 137.282 36.8919 74.2095 54.603 14.1171C72.3142 -45.9752 135.386 -80.332 195.479 -62.6208Z" fill="#F75C46"/>
</g>
</g>
<g style="mix-blend-mode:overlay">
<mask id="mask8_16882_79647" style="mask-type:alpha" maskUnits="userSpaceOnUse" x="59" y="-44" width="228" height="228">
<path d="M173.239 -43.1205C235.887 -43.1205 286.673 7.66579 286.673 70.3138C286.673 132.962 235.887 183.748 173.239 183.748C110.591 183.748 59.8048 132.962 59.8048 70.3138C59.8048 7.66579 110.591 -43.1205 173.239 -43.1205Z" fill="url(#paint3_radial_16882_79647)"/>
</mask>
<g mask="url(#mask8_16882_79647)">
<path d="M203.063 -65.8726C263.156 -48.1614 297.512 14.9108 279.801 75.0031C262.09 135.095 199.018 169.452 138.925 151.741C78.8331 134.03 44.4763 70.9578 62.1875 10.8654C79.8986 -49.227 142.971 -83.5837 203.063 -65.8726Z" fill="#00719F"/>
</g>
</g>
<g style="mix-blend-mode:hard-light">
<mask id="mask9_16882_79647" style="mask-type:alpha" maskUnits="userSpaceOnUse" x="-97" y="-47" width="314" height="314">
<path d="M59.695 -46.8033C146.158 -46.8033 216.249 23.2884 216.249 109.751C216.249 196.214 146.158 266.305 59.695 266.305C-26.7676 266.305 -96.8593 196.214 -96.8593 109.751C-96.8593 23.2884 -26.7676 -46.8033 59.695 -46.8033Z" fill="url(#paint4_radial_16882_79647)"/>
</mask>
<g mask="url(#mask9_16882_79647)">
<path d="M159.781 -69.815C249.029 -43.5105 300.056 50.1639 273.751 139.413C247.447 228.662 153.773 279.688 64.5238 253.383C-24.725 227.079 -75.7515 133.405 -49.447 44.1558C-23.1425 -45.093 70.5319 -96.1195 159.781 -69.815Z" fill="#B5DEFF"/>
</g>
</g>
</g>
<defs>
<radialGradient id="paint0_radial_16882_79647" cx="0" cy="0" r="1" gradientUnits="userSpaceOnUse" gradientTransform="translate(145.174 -76.4491) rotate(-139.699) scale(174.555)">
<stop/>
<stop offset="0.17"/>
<stop offset="1" stop-opacity="0"/>
</radialGradient>
<radialGradient id="paint1_radial_16882_79647" cx="0" cy="0" r="1" gradientUnits="userSpaceOnUse" gradientTransform="translate(231.354 -1.66193) rotate(-139.699) scale(133.889)">
<stop/>
<stop offset="0.17"/>
<stop offset="1" stop-opacity="0"/>
</radialGradient>
<radialGradient id="paint2_radial_16882_79647" cx="0" cy="0" r="1" gradientUnits="userSpaceOnUse" gradientTransform="translate(155.817 54.6475) rotate(-139.699) scale(85.8423)">
<stop/>
<stop offset="0.17"/>
<stop offset="1" stop-opacity="0"/>
</radialGradient>
<radialGradient id="paint3_radial_16882_79647" cx="0" cy="0" r="1" gradientUnits="userSpaceOnUse" gradientTransform="translate(163.402 51.3957) rotate(-139.699) scale(85.8423)">
<stop/>
<stop offset="0.17"/>
<stop offset="1" stop-opacity="0"/>
</radialGradient>
<radialGradient id="paint4_radial_16882_79647" cx="0" cy="0" r="1" gradientUnits="userSpaceOnUse" gradientTransform="translate(46.1188 83.6415) rotate(-139.699) scale(118.474)">
<stop/>
<stop offset="0.17"/>
<stop offset="1" stop-opacity="0"/>
</radialGradient>
<clipPath id="clip0_16882_79647">
<rect width="183.43" height="119.835" fill="white" transform="translate(14.5173 13.6526) scale(1.00174)"/>
</clipPath>
</defs>
</svg>
