<svg width="16" height="16" viewBox="0 0 16 16" fill="none" xmlns="http://www.w3.org/2000/svg">
<mask id="mask0_43658_8893" style="mask-type:alpha" maskUnits="userSpaceOnUse" x="2" y="2" width="12" height="12">
<path d="M12.6689 3.02197C12.7514 3.02197 12.8305 3.05475 12.8888 3.11309C12.9472 3.17144 12.98 3.25057 12.98 3.33308V12.6664C12.98 12.7489 12.9472 12.8281 12.8888 12.8864C12.8305 12.9448 12.7514 12.9775 12.6689 12.9775H8.3133C8.23079 12.9775 8.15166 12.9448 8.09331 12.8864C8.03497 12.8281 8.00219 12.7489 8.00219 12.6664V12.3553C8.00219 12.2728 8.03497 12.1937 8.09331 12.1353C8.15166 12.077 8.23079 12.0442 8.3133 12.0442H12.0466V3.95531H3.95775V7.68864C3.95775 7.77115 3.92497 7.85028 3.86663 7.90863C3.80828 7.96697 3.72915 7.99975 3.64664 7.99975H3.33553C3.25301 7.99975 3.17388 7.96697 3.11554 7.90863C3.05719 7.85028 3.02441 7.77115 3.02441 7.68864V3.33308C3.02441 3.25057 3.05719 3.17144 3.11554 3.11309C3.17388 3.05475 3.25301 3.02197 3.33553 3.02197H12.6689Z" fill="#292929"/>
<path d="M5.40601 7.8221L5.41735 8.133C5.42036 8.21546 5.456 8.29334 5.51644 8.34952C5.57687 8.4057 5.65714 8.43557 5.7396 8.43257L7.21167 8.37805L4.08526 11.5041C4.05637 11.533 4.03346 11.5673 4.01782 11.6051C4.00219 11.6428 3.99414 11.6833 3.99414 11.7241C3.99414 11.765 4.00219 11.8054 4.01782 11.8432C4.03346 11.8809 4.05637 11.9152 4.08526 11.9441L4.30518 12.164C4.36353 12.2224 4.44266 12.2551 4.52517 12.2551C4.60767 12.2551 4.68681 12.2224 4.74515 12.164L7.87165 9.0378L7.81728 10.5094C7.81424 10.5918 7.84406 10.6721 7.9002 10.7326C7.95633 10.793 8.03419 10.8287 8.11663 10.8318L8.42701 10.8433C8.50946 10.8464 8.58976 10.8166 8.65023 10.7604C8.7107 10.7043 8.74639 10.6264 8.74945 10.544L8.85432 7.71766C8.85738 7.63521 8.82755 7.55492 8.77141 7.49445C8.71527 7.43398 8.63741 7.39829 8.55495 7.39523C8.54728 7.39495 8.5396 7.39495 8.53193 7.39523L5.70542 7.49985C5.62299 7.5029 5.54515 7.53856 5.489 7.59899C5.43285 7.65942 5.403 7.73967 5.40601 7.8221Z" fill="#222222"/>
</mask>
<g mask="url(#mask0_43658_8893)">
<path d="M2.40137 2.3999H13.6014V13.5999H2.40137V2.3999Z" fill="#505050"/>
</g>
</svg>
