<svg width="14" height="15" viewBox="0 0 14 15" fill="none" xmlns="http://www.w3.org/2000/svg">
    <path d="M4.60039 13.0699C5.26313 13.0699 5.80039 12.5327 5.80039 11.8699C5.80039 11.2072 5.26313 10.6699 4.60039 10.6699C3.93765 10.6699 3.40039 11.2072 3.40039 11.8699C3.40039 12.5327 3.93765 13.0699 4.60039 13.0699Z" fill="#8F8F8F"/>
    <path d="M4.60039 8.27109C5.26313 8.27109 5.80039 7.73384 5.80039 7.07109C5.80039 6.40835 5.26313 5.87109 4.60039 5.87109C3.93765 5.87109 3.40039 6.40835 3.40039 7.07109C3.40039 7.73384 3.93765 8.27109 4.60039 8.27109Z" fill="#8F8F8F"/>
    <path d="M4.60039 3.47031C5.26313 3.47031 5.80039 2.93305 5.80039 2.27031C5.80039 1.60757 5.26313 1.07031 4.60039 1.07031C3.93765 1.07031 3.40039 1.60757 3.40039 2.27031C3.40039 2.93305 3.93765 3.47031 4.60039 3.47031Z" fill="#8F8F8F"/>
    <path d="M9.4002 13.0699C10.0629 13.0699 10.6002 12.5327 10.6002 11.8699C10.6002 11.2072 10.0629 10.6699 9.4002 10.6699C8.73745 10.6699 8.2002 11.2072 8.2002 11.8699C8.2002 12.5327 8.73745 13.0699 9.4002 13.0699Z" fill="#8F8F8F"/>
    <path d="M9.4002 8.27109C10.0629 8.27109 10.6002 7.73384 10.6002 7.07109C10.6002 6.40835 10.0629 5.87109 9.4002 5.87109C8.73745 5.87109 8.2002 6.40835 8.2002 7.07109C8.2002 7.73384 8.73745 8.27109 9.4002 8.27109Z" fill="#8F8F8F"/>
    <path d="M9.4002 3.47031C10.0629 3.47031 10.6002 2.93305 10.6002 2.27031C10.6002 1.60757 10.0629 1.07031 9.4002 1.07031C8.73745 1.07031 8.2002 1.60757 8.2002 2.27031C8.2002 2.93305 8.73745 3.47031 9.4002 3.47031Z" fill="#8F8F8F"/>
</svg>
