<svg width="20" height="20" viewBox="0 0 20 20" fill="none" xmlns="http://www.w3.org/2000/svg">
<mask id="mask0_5115_2702" style="mask-type:alpha" maskUnits="userSpaceOnUse" x="0" y="0" width="20" height="20">
<g clip-path="url(#clip0_5115_2702)">
<path d="M13.8859 10.2754H11.6511C11.3444 10.2754 11.0957 10.5241 11.0957 10.8308V11.3863C11.0957 11.693 11.3444 11.9417 11.6511 11.9417H13.8859C14.1926 11.9417 14.4413 11.693 14.4413 11.3863V10.8308C14.4413 10.5241 14.1926 10.2754 13.8859 10.2754Z" fill="#222222"/>
<path d="M5.55348 9.4422H6.10891C6.44216 9.4422 6.66435 9.21981 6.66435 8.88677V8.33134H7.21978V10.5531C7.01549 10.5531 6.86131 10.6435 6.76611 10.7849C7.67907 11.045 8.50218 11.5121 9.18664 12.1323C9.34197 12.0396 9.44151 11.8789 9.44151 11.6639V11.1085C9.44151 10.7749 9.21932 10.5531 8.88608 10.5531V8.33134H9.44151V8.88677C9.44151 9.21981 9.66369 9.4422 9.99694 9.4422H10.5524C10.8856 9.4422 11.1078 9.21981 11.1078 8.88677V7.22047C11.1078 6.88689 10.8856 6.66504 10.5524 6.66504H5.55348C5.22023 6.66504 4.99805 6.88689 4.99805 7.22047V8.88677C4.99805 9.21981 5.22023 9.4422 5.55348 9.4422Z" fill="#222222"/>
<path d="M17.1413 3.48089L14.3402 0.642976C13.9323 0.229656 13.365 -0.00683594 12.7824 -0.00683594H4.67766C3.31621 0.0148593 2.2151 1.13766 2.2227 2.49261V11.2632C2.73867 10.9881 3.2981 10.7843 3.88899 10.6663V2.48719C3.88683 2.03807 4.25132 1.66597 4.69068 1.65946H11.1107V5.84039C11.1107 6.30036 11.4839 6.67354 11.9439 6.67354H16.1172V16.3839C16.1194 16.8341 15.7549 17.2061 15.3155 17.2116H11.1742C11.1215 17.7951 10.9845 18.3532 10.7793 18.8779H15.3264C16.6889 18.8594 17.7911 17.7366 17.7835 16.3784V5.05389C17.7867 4.47025 17.5524 3.89747 17.1413 3.48089ZM12.777 5.00724V1.65946H12.7824C12.9224 1.65946 13.058 1.71587 13.1545 1.81351L15.9555 4.65142C16.0487 4.74661 16.0998 4.87408 16.1092 5.00724H12.777Z" fill="#222222"/>
<path d="M9.08917 16.249L6.3491 13.705C6.12434 13.4963 5.77298 13.5094 5.56423 13.7341L5.18562 14.1416C4.97679 14.3664 4.98981 14.718 5.2147 14.9268L6.18027 15.8229H1.03004C0.72331 15.8229 0.474609 16.0715 0.474609 16.3783V16.9338C0.474609 17.2405 0.72331 17.4892 1.03004 17.4892H6.18101L5.15924 18.4383C4.93441 18.6471 4.92153 18.9987 5.13049 19.2234L5.50883 19.6304C5.71766 19.8549 6.06887 19.8678 6.29357 19.6592L9.08917 17.063C9.32579 16.8433 9.32579 16.4688 9.08917 16.249Z" fill="#222222"/>
<path d="M13.8855 13.6084H10.3809C10.6774 14.1217 10.9006 14.6812 11.0381 15.2747H13.8855C14.1923 15.2747 14.441 15.026 14.441 14.7193V14.1638C14.441 13.857 14.1923 13.6084 13.8855 13.6084Z" fill="#222222"/>
</g>
</mask>
<g mask="url(#mask0_5115_2702)">
<rect x="0.5555" y="0.5555" width="18.887" height="18.887" fill="#292929" stroke="#292929" stroke-width="1.111"/>
</g>
<defs>
<clipPath id="clip0_5115_2702">
<rect width="19.9956" height="19.9956" fill="white"/>
</clipPath>
</defs>
</svg>
