<?xml version="1.0" encoding="UTF-8"?>
<svg id="e" data-name="Icon Strokes" xmlns="http://www.w3.org/2000/svg" width="24" height="24" xmlns:xlink="http://www.w3.org/1999/xlink" viewBox="0 0 24 24">
  <defs>
    <linearGradient id="f" x1="-565.09153" y1="-6788.65943" x2="-538.9085" y2="-6791.34057" gradientTransform="translate(564 -6778) scale(1 -1)" gradientUnits="userSpaceOnUse">
      <stop offset="0" stop-color="#d73220"/>
      <stop offset=".33" stop-color="#d92361"/>
      <stop offset="1" stop-color="#7155fa"/>
    </linearGradient>
  </defs>
  <path d="M12,0h0c6.62742,0,12,5.37258,12,12h0c0,6.62742-5.37258,12-12,12h0C5.37258,24,0,18.62742,0,12h0C0,5.37258,5.37258,0,12,0Z" fill="url(#f)"/>
  <path d="M8.6256,15.50663c-.91275,1.51087-1.81113,2.4657-2.33625,2.4657-.09689,0-.17646-.02985-.23434-.08625-.10561-.10118-.14462-.21128-.12003-.34508.09979-.54135,1.13988-1.3221,2.69063-2.03437ZM13.01325,13.34588c-.39202.08467-.7971.18293-1.20795.29437-.29513.08032-.59453.168-.894.26175.15915-.3345.30518-.66622.43245-.98152.16785-.41633.32558-.8328.47025-1.24013.12727.20512.25897.40447.39338.59625.26625.3792.5529.74183.8379,1.06155l-.03202.00772ZM10.98652,6.1556c.07372-.13085.19238-.20966.31537-.20966.34575,0,.4209.42828.4209.7867.00293.57107-.16493,1.48129-.45277,2.48794-.58013-1.57935-.49905-2.68575-.2835-3.06497ZM17.48182,14.40907c-.0507.26918-.32115.4431-.6915.4431-.10132,0-.20685-.01328-.31245-.04005-.67988-.1665-1.33095-.50423-1.98045-1.03057.609-.09525,1.12252-.11595,1.4655-.11595.39053,0,.74783.02827.97635.07732.2937.06247.62498.22897.54255.66615ZM18.46553,13.6968c-.4326-.4773-1.26-.71977-2.45925-.71977-.59025,0-1.25707.05955-1.9863.177-.39488-.39105-.7797-.85208-1.1442-1.37258-.2604-.37028-.50055-.75397-.71603-1.14368.42233-1.36657.63645-2.47598.63645-3.29844,0-1.0097-.3891-2.08935-1.48125-2.08935-.35888,0-.7263.2231-.91432.55475-.46583.82233-.27923,2.51464.4644,4.23672-.25897.79117-.54113,1.56157-.88687,2.415-.2907.72127-.63645,1.4589-1.00238,2.14005-1.1139.4611-3.4821,1.57935-3.70773,2.81512-.06659.37035.04772.7197.32408.98445.08528.08325.4108.35393.96487.35393,1.42631,0,2.84831-2.02995,3.80606-3.7773.5439-.19035,1.09943-.36277,1.65202-.51308.60615-.16492,1.19205-.3003,1.74458-.40147,1.51027,1.3548,2.85277,1.56,3.52537,1.56.92445,0,1.27013-.41197,1.39605-.75847.16635-.45195.00427-.92048-.21555-1.16288Z" fill="#fff"/>
  <path d="M8.6256,15.50663c-.91275,1.51087-1.81113,2.4657-2.33625,2.4657-.09689,0-.17646-.02985-.23434-.08625-.10561-.10118-.14462-.21128-.12003-.34508.09979-.54135,1.13988-1.3221,2.69063-2.03437ZM13.01325,13.34588c-.39202.08467-.7971.18293-1.20795.29437-.29513.08032-.59453.168-.894.26175.15915-.3345.30518-.66622.43245-.98152.16785-.41633.32558-.8328.47025-1.24013.12727.20512.25897.40447.39338.59625.26625.3792.5529.74183.8379,1.06155l-.03202.00772ZM10.98652,6.1556c.07372-.13085.19238-.20966.31537-.20966.34575,0,.4209.42828.4209.7867.00293.57107-.16493,1.48129-.45277,2.48794-.58013-1.57935-.49905-2.68575-.2835-3.06497ZM17.48182,14.40907c-.0507.26918-.32115.4431-.6915.4431-.10132,0-.20685-.01328-.31245-.04005-.67988-.1665-1.33095-.50423-1.98045-1.03057.609-.09525,1.12252-.11595,1.4655-.11595.39053,0,.74783.02827.97635.07732.2937.06247.62498.22897.54255.66615ZM18.46553,13.6968c-.4326-.4773-1.26-.71977-2.45925-.71977-.59025,0-1.25707.05955-1.9863.177-.39488-.39105-.7797-.85208-1.1442-1.37258-.2604-.37028-.50055-.75397-.71603-1.14368.42233-1.36657.63645-2.47598.63645-3.29844,0-1.0097-.3891-2.08935-1.48125-2.08935-.35888,0-.7263.2231-.91432.55475-.46583.82233-.27923,2.51464.4644,4.23672-.25897.79117-.54113,1.56157-.88687,2.415-.2907.72127-.63645,1.4589-1.00238,2.14005-1.1139.4611-3.4821,1.57935-3.70773,2.81512-.06659.37035.04772.7197.32408.98445.08528.08325.4108.35393.96487.35393,1.42631,0,2.84831-2.02995,3.80606-3.7773.5439-.19035,1.09943-.36277,1.65202-.51308.60615-.16492,1.19205-.3003,1.74458-.40147,1.51027,1.3548,2.85277,1.56,3.52537,1.56.92445,0,1.27013-.41197,1.39605-.75847.16635-.45195.00427-.92048-.21555-1.16288Z" fill="#fff"/>
</svg>