<svg width="18" height="18" viewBox="0 0 18 18" fill="none" xmlns="http://www.w3.org/2000/svg">
<g clip-path="url(#clip0_686_415)">
<path fill-rule="evenodd" clip-rule="evenodd" d="M4.60912 13.4184C3.42673 15.3118 2.29448 16.4729 1.62012 16.4729C1.51414 16.4771 1.41052 16.441 1.33017 16.3718C1.26968 16.3224 1.22384 16.2575 1.19763 16.1839C1.17141 16.1104 1.16581 16.0311 1.18143 15.9546C1.30843 15.2783 2.61118 14.3178 4.60912 13.4184ZM7.87503 1.82103C7.91569 1.75052 7.97368 1.69157 8.04351 1.64974C8.11333 1.60792 8.19268 1.58461 8.27403 1.58203C8.71303 1.58203 8.80741 2.08053 8.80913 2.49803C8.75006 3.48756 8.55453 4.46418 8.22809 5.40018C7.5654 3.73169 7.53982 2.35177 7.87503 1.82103ZM10.6964 10.6386C10.0904 10.7569 9.4583 10.9018 8.81619 11.0698C8.31005 11.2014 7.79468 11.3495 7.28183 11.5093C7.55546 10.9771 7.80727 10.4391 8.01627 9.94255C8.28067 9.31271 8.52493 8.68455 8.74484 8.07291C8.96643 8.43045 9.19894 8.77475 9.43648 9.09918C9.82723 9.63772 10.2555 10.148 10.7182 10.6262L10.6888 10.632L10.6964 10.6386ZM16.048 12.0854C16.0324 12.1675 16.0004 12.2456 15.9539 12.315C15.9074 12.3844 15.8474 12.4437 15.7774 12.4894C15.6264 12.5768 15.459 12.632 15.2856 12.6515C15.1122 12.6711 14.9367 12.6546 14.77 12.6031C13.8396 12.3536 12.977 11.8988 12.2455 11.272C13.275 11.0929 14.3264 11.0787 15.3603 11.23C15.7308 11.3114 16.1504 11.5248 16.048 12.0854ZM17.2679 11.241C16.389 10.5793 15.2905 10.2784 14.197 10.3998C13.3154 10.4088 12.4357 10.4856 11.5658 10.6296C10.9913 10.0866 10.4686 9.49112 10.0047 8.85097C9.65257 8.37169 9.32745 7.87312 9.03088 7.35759C9.51263 6.03753 9.79554 4.65321 9.87034 3.24999C9.87034 2.07453 9.40834 0.818359 8.1118 0.818359C7.90071 0.824114 7.69446 0.882814 7.51198 0.98907C7.3295 1.09533 7.17664 1.24573 7.06745 1.42647C6.49345 2.3957 6.75556 4.51512 7.70368 6.59134C7.36193 7.59562 6.98868 8.57055 6.52993 9.65554C6.13529 10.5862 5.68887 11.4941 5.19278 12.3749C2.40651 13.4697 0.628027 14.7364 0.430627 15.7676C0.392164 15.9635 0.406205 16.1661 0.471327 16.3548C0.536448 16.5434 0.650331 16.7116 0.801417 16.842C1.11979 17.1099 1.52611 17.2505 1.94199 17.2365C3.82081 17.2365 5.7635 14.337 6.7672 12.582C7.49385 12.3366 8.23791 12.1149 8.97948 11.9209C9.79737 11.7089 10.5887 11.5361 11.3319 11.4081C12.5529 12.5862 14.1619 13.2781 15.8569 13.3539C16.9618 13.3539 17.3682 12.8991 17.5142 12.5176C17.5916 12.3023 17.6095 12.0701 17.5662 11.8455C17.5228 11.6209 17.4198 11.4121 17.2679 11.241Z" fill="#FE0200"/>
</g>
<defs>
<clipPath id="clip0_686_415">
<rect width="18" height="18" fill="white"/>
</clipPath>
</defs>
</svg>
