<svg xmlns="http://www.w3.org/2000/svg" width="18" height="18" viewBox="0 0 18 18">
  <g>
    <path d="M15.42219,3.139,12.90212.58344A1.986,1.986,0,0,0,11.50252,0H4.20876A2.247,2.247,0,0,0,2,2.24994V14.74518A2.25048,2.25048,0,0,0,4.21946,17h9.5708A2.24881,2.24881,0,0,0,16,14.75006V4.55258A1.98306,1.98306,0,0,0,15.42219,3.139ZM11.49569,1.5a.56261.56261,0,0,1,.34063.13916l2.52006,2.5556a.49614.49614,0,0,1,.13726.31835H11.49569Zm2.28387,14.00012H4.23024a.74494.74494,0,0,1-.731-.75V2.24551A.74232.74232,0,0,1,4.2195,1.5h5.777V5.263a.75.75,0,0,0,.74958.75h3.75472v8.741a.7429.7429,0,0,1-.72127.74607Z" fill="var(--iconFill, #464646)"/>
    <rect x="6" y="8.25533" width="6.00195" height="1.5" rx="0.5" fill="var(--iconFill, #464646)"/>
    <rect x="6" y="11.25533" width="6.00195" height="1.5" rx="0.5" fill="var(--iconFill, #464646)"/>
  </g>
</svg>
