<svg width="16" height="16" viewBox="0 0 16 16" fill="none" xmlns="http://www.w3.org/2000/svg">
<g clip-path="url(#clip0_24866_300217)">
<path d="M15.3482 6.61426C15.1945 6.61426 15.04 6.59766 14.8892 6.56543L14.25 6.42725V12.5C14.25 12.9131 13.9131 13.25 13.5 13.25H2.5C2.08691 13.25 1.75 12.9131 1.75 12.5V3.5C1.75 3.08691 2.08691 2.75 2.5 2.75H8.68793C8.42877 2.29639 8.32331 1.7627 8.41913 1.25H2.5C1.25977 1.25 0.25 2.25977 0.25 3.5V12.5C0.25 13.7402 1.25977 14.75 2.5 14.75H13.5C14.7402 14.75 15.75 13.7402 15.75 12.5V6.56104C15.6176 6.58643 15.4855 6.61426 15.3482 6.61426Z" fill="#686DF4"/>
<path d="M4.5 7.25H3.5C3.22386 7.25 3 7.47386 3 7.75V8.25C3 8.52614 3.22386 8.75 3.5 8.75H4.5C4.77614 8.75 5 8.52614 5 8.25V7.75C5 7.47386 4.77614 7.25 4.5 7.25Z" fill="#686DF4"/>
<path d="M6.5 10.25H3.5C3.22386 10.25 3 10.4739 3 10.75V11.25C3 11.5261 3.22386 11.75 3.5 11.75H6.5C6.77614 11.75 7 11.5261 7 11.25V10.75C7 10.4739 6.77614 10.25 6.5 10.25Z" fill="#686DF4"/>
<path d="M6.5 4.25H3.5C3.22386 4.25 3 4.47386 3 4.75V5.25C3 5.52614 3.22386 5.75 3.5 5.75H6.5C6.77614 5.75 7 5.52614 7 5.25V4.75C7 4.47386 6.77614 4.25 6.5 4.25Z" fill="#686DF4"/>
<path d="M11.5352 6.12517C11.4216 6.12517 11.3093 6.09958 11.2157 6.04519C10.967 5.90203 10.8402 5.61732 10.9002 5.33661L11.2965 3.50278L10.0377 2.11441C9.85773 1.91607 9.82174 1.56978 9.9565 1.33865C10.102 1.08913 10.3904 0.969965 10.6691 1.02675L12.4977 1.42183L13.8865 0.163025C14.084 -0.0161154 14.4287 -0.0537054 14.6594 0.0806546C14.9082 0.223815 15.0349 0.508525 14.9749 0.789235L14.5787 2.62306L15.8375 4.01143C16.0174 4.20977 16.0534 4.55606 15.9186 4.78719C15.7735 5.03671 15.4864 5.15987 15.2061 5.09909L13.3774 4.70401L11.9887 5.96282C11.8711 6.06919 11.7015 6.12517 11.5352 6.12517ZM12.5589 3.47799L12.4753 3.86347L12.7684 3.59795C12.916 3.46359 13.1599 3.39801 13.3546 3.442L13.7385 3.52517L13.4722 3.23166C13.3382 3.08371 13.2735 2.84058 13.3171 2.64544L13.3998 2.26236L13.1067 2.52788C12.9592 2.66144 12.7152 2.72542 12.5205 2.68383L12.1366 2.60066L12.4029 2.89417C12.5365 3.04132 12.6009 3.28365 12.5589 3.47799Z" fill="#686DF4"/>
<path d="M7.96056 9.00107C7.85499 9.00107 7.74903 8.97388 7.65346 8.9187C7.42233 8.78514 7.30397 8.51802 7.36035 8.2573L7.45232 7.83103L7.15921 7.50793C6.98007 7.31039 6.94888 7.01928 7.08203 6.78815C7.21559 6.55702 7.47951 6.44186 7.74383 6.49464L8.1705 6.58661L8.4932 6.2939C8.69154 6.11476 8.98225 6.08357 9.21298 6.21712C9.44411 6.35068 9.56247 6.6178 9.50609 6.87852L9.41412 7.30479L9.70723 7.62789C9.88637 7.82543 9.91756 8.11654 9.78441 8.34767C9.65085 8.578 9.38773 8.69396 9.12261 8.64118L8.69594 8.54921L8.37324 8.84192C8.25728 8.94669 8.10931 9.00107 7.96056 9.00107Z" fill="#686DF4"/>
</g>
<defs>
<clipPath id="clip0_24866_300217">
<rect width="16" height="16" fill="white"/>
</clipPath>
</defs>
</svg>
