<svg width="16" height="16" viewBox="0 0 16 16" fill="none" xmlns="http://www.w3.org/2000/svg">
<g clip-path="url(#clip0_24866_300211)">
<path d="M2.83333 0H13.1667C14.7333 0 16 1.26667 16 2.83333V12.7667C16 14.3333 14.7333 15.6 13.1667 15.6H2.83333C1.26666 15.6 0 14.3333 0 12.7667V2.83333C0 1.26667 1.26667 0 2.83333 0Z" fill="#EB1000"/>
<path d="M12.8667 9.03406C12.5466 8.69409 11.9399 8.52075 11.06 8.52075C10.5732 8.52734 10.08 8.56738 9.60007 8.64746C9.29343 8.34741 9.00656 8.02075 8.75998 7.66736C8.56662 7.40747 8.39328 7.13403 8.23337 6.84741C8.5466 5.86743 8.69992 5.08069 8.69992 4.4873C8.69992 3.76733 8.4133 2.99414 7.61325 2.99414C7.33322 3.00073 7.08005 3.15405 6.93991 3.38745C6.60007 3.97412 6.73337 5.18738 7.28 6.41406C7.08664 6.98071 6.87985 7.52734 6.62668 8.14074C6.40671 8.66064 6.16672 9.17407 5.89328 9.66735C5.07321 9.99413 3.33322 10.7941 3.16672 11.6807C3.11325 11.9407 3.20651 12.2074 3.40671 12.3875C3.60007 12.5608 3.85324 12.6475 4.11325 12.6408C5.15988 12.6408 6.20651 11.1874 6.9133 9.94068C7.31345 9.80738 7.71994 9.68067 8.12668 9.57398C8.57321 9.45411 8.99997 9.36072 9.40671 9.28736C10.5132 10.254 11.5 10.4006 12 10.4006C12.6799 10.4006 12.9333 10.1074 13.0266 9.86072C13.1267 9.58069 13.0666 9.26074 12.8667 9.03406ZM3.9133 12.0874C3.85324 12.0874 3.78659 12.0674 3.73996 12.0273C3.66672 11.9674 3.63327 11.874 3.65329 11.7808C3.73337 11.394 4.49338 10.834 5.63327 10.3274C4.95993 11.4075 4.30002 12.0874 3.9133 12.0874ZM7.36667 3.64074C7.4133 3.55407 7.49997 3.49413 7.60007 3.49413C7.85324 3.49413 7.90671 3.80077 7.90671 4.05407C7.90671 4.46069 7.78659 5.11401 7.57321 5.83398C7.15329 4.70068 7.21335 3.91406 7.36667 3.64074ZM7.97336 8.99414C7.75339 9.05408 7.53317 9.11401 7.31345 9.18066C7.43332 8.94067 7.54001 8.70739 7.63327 8.48071C7.75339 8.18066 7.87326 7.88745 7.97995 7.59399C8.07321 7.74072 8.16672 7.88073 8.26657 8.02075C8.45993 8.28735 8.65988 8.54077 8.87985 8.78076C8.87985 8.77405 8.2734 8.91406 7.97336 8.99414ZM11.6333 9.86072C11.5532 9.86072 11.4799 9.85401 11.4067 9.83399C10.9067 9.71412 10.4267 9.47413 9.95334 9.10071C10.3066 9.04737 10.6667 9.02075 11.0332 9.02075C11.2734 9.01404 11.5132 9.03406 11.7534 9.07397C11.9599 9.10742 12.1999 9.22729 12.1401 9.54077C12.1001 9.73413 11.9067 9.86072 11.6333 9.86072Z" fill="white"/>
</g>
<defs>
<clipPath id="clip0_24866_300211">
<rect width="16" height="16" fill="white"/>
</clipPath>
</defs>
</svg>
