<svg width="22" height="22" viewBox="0 0 22 22" fill="none" xmlns="http://www.w3.org/2000/svg">
<path d="M12.0606 11L16.624 6.43652C16.8193 6.24121 16.8193 5.92468 16.624 5.72949L16.2705 5.37597C16.0752 5.18066 15.7588 5.18066 15.5635 5.37597L11 9.93946L6.43652 5.37597C6.24121 5.18066 5.9248 5.18066 5.72949 5.37597L5.37597 5.72949C5.18066 5.92468 5.18066 6.24121 5.37597 6.43652L9.93946 11L5.37597 15.5635C5.18066 15.7587 5.18066 16.0752 5.37597 16.2705L5.72949 16.624C5.9248 16.8192 6.24121 16.8192 6.43652 16.624L11 12.0606L15.5635 16.624C15.7588 16.8192 16.0752 16.8192 16.2705 16.624L16.624 16.2705C16.8193 16.0752 16.8193 15.7587 16.624 15.5635L12.0606 11Z" fill="#C6C6C6"/>
</svg>
