<svg width="18" height="18" viewBox="0 0 18 18" fill="none" xmlns="http://www.w3.org/2000/svg">
<g clip-path="url(#clip0_109_8028)">
<path d="M9.50391 17.4502H8.49609C8.10495 17.4497 7.72997 17.2941 7.45343 17.0174C7.17689 16.7408 7.02138 16.3658 7.021 15.9746V15.2012C6.67439 15.0913 6.33799 14.9514 6.01562 14.7832L5.47021 15.332C5.19291 15.6074 4.81802 15.7622 4.42717 15.7626C4.03632 15.7629 3.66114 15.6089 3.3833 15.334L2.667 14.6191C2.39163 14.3425 2.23695 13.9682 2.23676 13.5779C2.23657 13.1875 2.3909 12.813 2.666 12.5361L3.21678 11.9854C3.04891 11.6623 2.90891 11.3254 2.79832 10.9785H2.0249C1.63386 10.9782 1.25891 10.8228 0.982351 10.5463C0.705795 10.2699 0.550231 9.89496 0.549805 9.50391V8.49609C0.551105 8.10513 0.706354 7.73042 0.981935 7.45309C1.11862 7.31577 1.28118 7.20692 1.46021 7.13283C1.63924 7.05874 1.83118 7.02088 2.02493 7.02145H2.79886C2.90901 6.67518 3.04867 6.33899 3.21631 6.0166L2.668 5.4707C2.39329 5.19313 2.23887 4.81858 2.23813 4.42805C2.2374 4.03752 2.39042 3.66239 2.66409 3.38379L3.3833 2.669C3.65909 2.39213 4.03357 2.23615 4.42436 2.23537C4.81515 2.2346 5.19024 2.3891 5.46711 2.66488L5.4683 2.66607L6.01566 3.21587C6.33835 3.04832 6.67468 2.90848 7.02104 2.79787V2.02539C7.02091 1.83175 7.05891 1.63998 7.13289 1.46103C7.20687 1.28208 7.31537 1.11945 7.4522 0.982426C7.58902 0.845404 7.7515 0.736675 7.93035 0.662446C8.1092 0.588217 8.30091 0.549941 8.49455 0.549805H9.50391C9.89506 0.55031 10.27 0.705952 10.5466 0.982584C10.8231 1.25922 10.9786 1.63424 10.979 2.02539V2.79883C11.3256 2.90874 11.662 3.0486 11.9844 3.21683L12.5298 2.668C12.6664 2.53107 12.8287 2.42239 13.0073 2.34816C13.1859 2.27393 13.3774 2.23561 13.5709 2.2354C13.7643 2.23518 13.9559 2.27306 14.1347 2.34689C14.3135 2.42071 14.476 2.52903 14.6129 2.66565L14.6211 2.67386L15.3286 3.38086C15.6057 3.65713 15.7616 4.03215 15.7622 4.42341C15.7628 4.81468 15.6079 5.19014 15.3316 5.4672L15.3281 5.4707L14.7832 6.01465C14.9511 6.33775 15.0911 6.67458 15.2017 7.02148H15.9751C16.3661 7.02178 16.7411 7.17722 17.0176 7.45369C17.2942 7.73015 17.4498 8.10505 17.4502 8.49609V9.50391C17.4498 9.89496 17.2942 10.2699 17.0176 10.5463C16.7411 10.8228 16.3661 10.9782 15.9751 10.9785H15.2012C15.0905 11.3257 14.9505 11.6629 14.7827 11.9863L15.3301 12.5371C15.606 12.8106 15.7619 13.1825 15.7636 13.571C15.7654 13.9595 15.6127 14.3328 15.3392 14.6087L15.3247 14.6231L14.6196 15.3321C14.3423 15.6075 13.9674 15.7622 13.5766 15.7626C13.1857 15.763 12.8105 15.609 12.5327 15.3341L11.9844 14.7843C11.6617 14.9518 11.3254 15.0916 10.979 15.2023V15.9747C10.9786 16.3658 10.8231 16.7408 10.5465 17.0175C10.27 17.2941 9.89505 17.4497 9.50391 17.4502ZM5.92676 13.2588C6.08778 13.259 6.24572 13.3029 6.38376 13.3858C6.80671 13.6414 7.26535 13.8326 7.7446 13.9532C7.9383 14.0009 8.11033 14.1124 8.23307 14.2696C8.3558 14.4269 8.42212 14.6209 8.42136 14.8204V15.9747C8.42127 15.9844 8.42311 15.9942 8.42677 16.0032C8.43043 16.0123 8.43584 16.0206 8.4427 16.0275C8.44955 16.0345 8.45771 16.0401 8.46672 16.0439C8.47572 16.0477 8.48539 16.0498 8.49517 16.0499H9.50391C9.5137 16.0499 9.52339 16.048 9.53244 16.0443C9.54149 16.0405 9.54972 16.0351 9.55666 16.0282C9.56359 16.0213 9.5691 16.0131 9.57287 16.0041C9.57664 15.995 9.57859 15.9853 9.57862 15.9756V14.8165C9.57934 14.6152 9.64802 14.42 9.77351 14.2626C9.89899 14.1052 10.0739 13.9948 10.27 13.9493C10.7429 13.8294 11.1954 13.6402 11.6128 13.3878C11.7836 13.2847 11.984 13.2419 12.182 13.2663C12.38 13.2908 12.564 13.381 12.7046 13.5225L13.522 14.3438C13.537 14.3572 13.5565 14.3644 13.5766 14.364C13.5967 14.3637 13.6159 14.3557 13.6304 14.3418L14.3379 13.6299L14.334 13.627L14.3379 13.5235L13.52 12.7012C13.3798 12.5619 13.2902 12.3798 13.2654 12.1837C13.2406 11.9876 13.2821 11.7889 13.3833 11.6192C13.6404 11.1951 13.8325 10.7349 13.9531 10.2539C13.9998 10.0604 14.1105 9.88831 14.2673 9.76563C14.4241 9.64295 14.6178 9.57688 14.8169 9.57815H15.9751C15.9948 9.57826 16.0137 9.57054 16.0277 9.55669C16.0418 9.54284 16.0497 9.52399 16.0498 9.50429V8.49609C16.0498 8.48634 16.0479 8.47668 16.0441 8.46767C16.0404 8.45867 16.0349 8.45048 16.028 8.44359C16.0211 8.4367 16.0129 8.43124 16.0039 8.42751C15.9949 8.42379 15.9852 8.42188 15.9755 8.42188H14.8169C14.6159 8.42254 14.4206 8.35486 14.2631 8.22994C14.1057 8.10501 13.9953 7.93027 13.9502 7.73438C13.8304 7.25967 13.6405 6.80546 13.3867 6.38672C13.2838 6.21533 13.2414 6.0143 13.2665 5.81595C13.2916 5.61759 13.3826 5.43341 13.5249 5.293L14.3394 4.47952V4.37112L13.6289 3.66112L13.522 3.65625L12.7036 4.47852C12.5636 4.61939 12.3804 4.70929 12.1833 4.73389C11.9863 4.75849 11.7866 4.71638 11.6162 4.61426C11.1933 4.35867 10.7347 4.16744 10.2554 4.04688C10.0617 3.99914 9.88968 3.88769 9.76694 3.73042C9.64421 3.57314 9.57789 3.37919 9.57864 3.17969V2.02539C9.57874 2.01561 9.5769 2.00591 9.57324 1.99683C9.56958 1.98776 9.56417 1.97949 9.55731 1.97251C9.55046 1.96553 9.5423 1.95997 9.53329 1.95614C9.52429 1.95231 9.51462 1.95029 9.50484 1.9502H8.49609L8.42139 2.02539V3.18359C8.42067 3.38489 8.352 3.58004 8.22651 3.73743C8.10103 3.89482 7.92608 4.00524 7.73 4.05078C7.25714 4.17061 6.80463 4.35984 6.38723 4.6123C6.21632 4.71492 6.01598 4.7574 5.81812 4.73298C5.62027 4.70856 5.43627 4.61864 5.29543 4.47754L4.478 3.65625L4.476 3.6582L4.36956 3.66309L3.65472 4.37309C3.64152 4.38829 3.63458 4.40794 3.6353 4.42806C3.63603 4.44819 3.64436 4.46728 3.65862 4.48149L4.47747 5.29594C4.61851 5.43528 4.70884 5.61782 4.73406 5.81446C4.75928 6.0111 4.71794 6.21053 4.61663 6.38094C4.35955 6.80499 4.16747 7.26518 4.04681 7.74617C4.00016 7.93974 3.88943 8.11184 3.73261 8.23453C3.5758 8.35722 3.38211 8.42329 3.183 8.422H2.0249L1.9502 8.49621V9.50391C1.95021 9.51367 1.95214 9.52333 1.95589 9.53234C1.95963 9.54134 1.96511 9.54953 1.97201 9.55642C1.97891 9.56331 1.98711 9.56877 1.99612 9.5725C2.00514 9.57622 2.0148 9.57813 2.02455 9.57812H3.18311C3.38413 9.57747 3.57939 9.64515 3.73688 9.77007C3.89436 9.89499 4.0047 10.0697 4.0498 10.2656C4.16964 10.7403 4.35955 11.1946 4.61328 11.6133C4.71623 11.7847 4.75857 11.9857 4.73351 12.1841C4.70845 12.3824 4.61744 12.5666 4.4751 12.707L3.65674 13.5254C3.64305 13.5394 3.63546 13.5582 3.63565 13.5778C3.63584 13.5974 3.64378 13.6161 3.65774 13.6299L4.37112 14.3427C4.38607 14.3567 4.40581 14.3644 4.42626 14.3642C4.44671 14.364 4.46631 14.356 4.48099 14.3417L5.29642 13.5214C5.37892 13.4382 5.47711 13.3721 5.5853 13.327C5.6935 13.2819 5.80956 13.2587 5.92676 13.2588ZM9 12.2832C8.13239 12.2807 7.30122 11.934 6.68903 11.3192C6.07684 10.7044 5.73368 9.87179 5.73491 9.00417C5.73614 8.13655 6.08166 7.30489 6.6956 6.69182C7.30953 6.07876 8.14169 5.73442 9.00931 5.73442C9.87692 5.73442 10.7091 6.07876 11.323 6.69182C11.9369 7.30489 12.2825 8.13655 12.2837 9.00417C12.2849 9.87179 11.9418 10.7044 11.3296 11.3192C10.7174 11.934 9.88622 12.2807 9.01861 12.2832C9.01241 12.2832 9.0062 12.2832 9 12.2832ZM8.998 7.1162C8.53059 7.11669 8.08005 7.29097 7.73398 7.60517C7.38792 7.91937 7.17106 8.35103 7.12557 8.81623C7.08009 9.28144 7.20922 9.74693 7.48786 10.1222C7.7665 10.4975 8.17475 10.7558 8.63322 10.8468C9.09169 10.9378 9.56763 10.8551 9.9685 10.6147C10.3694 10.3743 10.6665 9.99342 10.8022 9.54613C10.9378 9.09883 10.9023 8.61706 10.7025 8.19449C10.5027 7.77193 10.1529 7.43876 9.72114 7.25976C9.49191 7.16474 9.24616 7.11595 8.998 7.1162Z" fill="#222222"/>
</g>
<defs>
<clipPath id="clip0_109_8028">
<rect width="18" height="18" fill="white"/>
</clipPath>
</defs>
</svg>
