<svg width="16" height="16" viewBox="0 0 16 16" fill="none" xmlns="http://www.w3.org/2000/svg">
<g clip-path="url(#clip0_24866_300231)">
<path d="M11.5352 6.12517C11.4216 6.12517 11.3093 6.09958 11.2157 6.04519C10.967 5.90203 10.8402 5.61732 10.9002 5.33661L11.2965 3.50278L10.0377 2.11441C9.85773 1.91607 9.82174 1.56978 9.9565 1.33865C10.102 1.08913 10.3904 0.969965 10.6691 1.02675L12.4977 1.42183L13.8865 0.163025C14.084 -0.0161154 14.4287 -0.0537054 14.6594 0.0806546C14.9082 0.223815 15.0349 0.508525 14.9749 0.789235L14.5787 2.62306L15.8375 4.01143C16.0174 4.20977 16.0534 4.55606 15.9186 4.78719C15.7735 5.03671 15.4864 5.15987 15.2061 5.09909L13.3774 4.70401L11.9887 5.96282C11.8711 6.06919 11.7015 6.12517 11.5352 6.12517ZM12.5589 3.47799L12.4753 3.86347L12.7684 3.59795C12.916 3.46359 13.1599 3.39801 13.3546 3.442L13.7385 3.52517L13.4722 3.23166C13.3382 3.08371 13.2735 2.84058 13.3171 2.64544L13.3998 2.26236L13.1067 2.52788C12.9592 2.66144 12.7152 2.72542 12.5205 2.68383L12.1366 2.60066L12.4029 2.89417C12.5365 3.04132 12.6009 3.28365 12.5589 3.47799Z" fill="#686DF4"/>
<path d="M14.5 12.25H1.5C1.22386 12.25 1 12.4739 1 12.75V13.25C1 13.5261 1.22386 13.75 1.5 13.75H14.5C14.7761 13.75 15 13.5261 15 13.25V12.75C15 12.4739 14.7761 12.25 14.5 12.25Z" fill="#686DF4"/>
<path d="M7.96056 9.00107C7.85499 9.00107 7.74903 8.97388 7.65346 8.9187C7.42233 8.78514 7.30397 8.51802 7.36035 8.2573L7.45232 7.83103L7.15921 7.50793C6.98007 7.31039 6.94888 7.01928 7.08203 6.78815C7.21559 6.55702 7.47951 6.44186 7.74383 6.49464L8.1705 6.58661L8.4932 6.2939C8.69154 6.11476 8.98225 6.08357 9.21298 6.21712C9.44411 6.35068 9.56247 6.6178 9.50609 6.87852L9.41412 7.30479L9.70723 7.62789C9.88637 7.82543 9.91756 8.11654 9.78441 8.34767C9.65085 8.578 9.38773 8.69396 9.12261 8.64118L8.69594 8.54921L8.37324 8.84192C8.25728 8.94669 8.10931 9.00107 7.96056 9.00107Z" fill="#686DF4"/>
<path d="M1.5 4.75H8.23932C8.45331 4.67871 8.67609 4.63379 8.90607 4.63379C9.10742 4.63379 9.30555 4.66797 9.49774 4.72461L9.66736 3.93945L9.04236 3.25H1.5C1.22388 3.25 1 3.47363 1 3.75V4.25C1 4.52637 1.22388 4.75 1.5 4.75Z" fill="#686DF4"/>
<path d="M1.5 7.75H5.60541C5.44605 7.26318 5.48438 6.7334 5.69733 6.25H1.5C1.22388 6.25 1 6.47363 1 6.75V7.25C1 7.52637 1.22388 7.75 1.5 7.75Z" fill="#686DF4"/>
<path d="M14.5 9.25001H10.9654C10.5716 9.80421 9.93811 10.1533 9.24939 10.1533C9.20886 10.1533 9.16821 10.1519 9.12701 10.1494C8.78259 10.3774 8.37811 10.5005 7.96057 10.5005C7.59033 10.5005 7.22485 10.4023 6.90185 10.2163C6.50762 9.98779 6.22283 9.64307 6.04547 9.25H1.5C1.22388 9.25 1 9.47363 1 9.75V10.25C1 10.5264 1.22388 10.75 1.5 10.75H14.5C14.7761 10.75 15 10.5264 15 10.25V9.75C15 9.47363 14.7761 9.25001 14.5 9.25001Z" fill="#686DF4"/>
</g>
<defs>
<clipPath id="clip0_24866_300231">
<rect width="16" height="16" fill="white"/>
</clipPath>
</defs>
</svg>
