<svg width="18" height="18" viewBox="0 0 18 18" fill="none" xmlns="http://www.w3.org/2000/svg">
<path d="M10.0606 8.99995L13.6768 5.3838C13.8721 5.18855 13.8721 4.87196 13.6768 4.67671L13.3232 4.32326C13.1279 4.12801 12.8115 4.12801 12.6162 4.32326L9 7.93941L5.38379 4.32326C5.18848 4.12801 4.87207 4.12801 4.67676 4.32326L4.32324 4.67671C4.12793 4.87196 4.12793 5.18855 4.32324 5.3838L7.93945 8.99995L4.32324 12.6162C4.12793 12.8114 4.12793 13.128 4.32324 13.3232L4.67676 13.6767C4.87207 13.8719 5.18848 13.8719 5.38379 13.6767L9 10.0605L12.6162 13.6767C12.8115 13.8719 13.1279 13.8719 13.3232 13.6767L13.6768 13.3232C13.8721 13.128 13.8721 12.8114 13.6768 12.6162L10.0606 8.99995Z" fill="#222222"/>
</svg>
