<svg width="18" height="18" viewBox="0 0 18 18" fill="none" xmlns="http://www.w3.org/2000/svg">
<path d="M14.2985 13.6177C16.3603 12.2292 17.75 10.3477 17.75 9.20214C17.75 7.59276 15.2949 4.85398 12.6973 3.56443C11.5509 2.98114 10.2861 2.66829 9 2.64988C7.44769 2.67582 5.93043 3.1156 4.60486 3.92381L1.88379 1.20268C1.68861 1.00743 1.3721 1.00738 1.17685 1.20256L0.82327 1.55607C0.628 1.75124 0.62791 2.06775 0.82308 2.26302L3.342 4.78198C1.44714 6.27458 0.25 8.17735 0.25 9.20214C0.25 11.186 4.375 15.3872 8.96777 15.3872C10.3555 15.3654 11.7199 15.0267 12.9568 14.397L15.4541 16.8945C15.6493 17.0897 15.9658 17.0897 16.1611 16.8945L16.5146 16.541C16.7099 16.3458 16.7099 16.0293 16.5147 15.834L14.2985 13.6177ZM8.96777 13.8872C4.99219 13.8872 1.75 10.1206 1.75 9.20214C1.75 8.64164 2.79456 7.0977 4.42249 5.86253L6.29077 7.73088C5.58111 9.21837 6.21167 10.9995 7.69916 11.7092C8.51189 12.0969 9.45626 12.0969 10.269 11.7092L11.8292 13.2695C10.9269 13.6666 9.95352 13.8767 8.96777 13.8872ZM11.4292 10.7483C11.9892 9.99726 12.1487 9.02072 11.8568 8.13054C11.51 8.8813 10.6202 9.20875 9.86943 8.86191C9.11867 8.51507 8.79122 7.62528 9.13806 6.87452C9.28724 6.55161 9.54648 6.29236 9.86938 6.14317C8.97923 5.85125 8.0027 6.01077 7.25171 6.57078L5.71631 5.03526C6.71787 4.47546 7.84206 4.17134 8.98926 4.14988C10.0429 4.16589 11.0788 4.42314 12.0176 4.90188C14.4668 6.1157 16.25 8.44823 16.25 9.20214C16.25 9.75805 15.047 11.3546 13.2114 12.5306L11.4292 10.7483Z" fill="#222222"/>
</svg>
