<svg width="18" height="18" viewBox="0 0 18 18" fill="none" xmlns="http://www.w3.org/2000/svg">
<path d="M15.5 13.25H2.5C2.22386 13.25 2 13.4739 2 13.75V14.25C2 14.5261 2.22386 14.75 2.5 14.75H15.5C15.7761 14.75 16 14.5261 16 14.25V13.75C16 13.4739 15.7761 13.25 15.5 13.25Z" fill="#222222"/>
<path d="M15.5 8.25H2.5C2.22386 8.25 2 8.47386 2 8.75V9.25C2 9.52614 2.22386 9.75 2.5 9.75H15.5C15.7761 9.75 16 9.52614 16 9.25V8.75C16 8.47386 15.7761 8.25 15.5 8.25Z" fill="#222222"/>
<path d="M15.5 3.25H2.5C2.22386 3.25 2 3.47386 2 3.75V4.25C2 4.52614 2.22386 4.75 2.5 4.75H15.5C15.7761 4.75 16 4.52614 16 4.25V3.75C16 3.47386 15.7761 3.25 15.5 3.25Z" fill="#222222"/>
</svg>
