<svg width="24" height="24" viewBox="0 0 24 24" fill="none" xmlns="http://www.w3.org/2000/svg">
<path d="M18.5 16.25H5.5C5.22386 16.25 5 16.4739 5 16.75V17.25C5 17.5261 5.22386 17.75 5.5 17.75H18.5C18.7761 17.75 19 17.5261 19 17.25V16.75C19 16.4739 18.7761 16.25 18.5 16.25Z" fill="#222222"/>
<path d="M18.5 11.25H5.5C5.22386 11.25 5 11.4739 5 11.75V12.25C5 12.5261 5.22386 12.75 5.5 12.75H18.5C18.7761 12.75 19 12.5261 19 12.25V11.75C19 11.4739 18.7761 11.25 18.5 11.25Z" fill="#222222"/>
<path d="M18.5 6.25H5.5C5.22386 6.25 5 6.47386 5 6.75V7.25C5 7.52614 5.22386 7.75 5.5 7.75H18.5C18.7761 7.75 19 7.52614 19 7.25V6.75C19 6.47386 18.7761 6.25 18.5 6.25Z" fill="#222222"/>
</svg> 