<?xml version="1.0" encoding="UTF-8"?>
<svg id="b" data-name="Icons" xmlns="http://www.w3.org/2000/svg" width="18" height="18" viewBox="0 0 18 18">
  <path d="m5.41721,10.25h-1.83442c-.32187,0-.58279-.22386-.58279-.5v-.5c0-.27614.26092-.5.58279-.5h1.83442c.32187,0,.58279.22386.58279.5v.5c0,.27614-.26092.5-.58279.5Zm2.58279,3.25v-.5c0-.27614-.22449-.5-.50141-.5h-3.99719c-.27692,0-.50141.22386-.50141.5v.5c0,.27614.22449.5.50141.5h3.99719c.27692,0,.50141-.22386.50141-.5Zm5.10166-6.2189l1.6958-1.53711,2.23291.48242c.34229.07422.69287-.07617.87012-.38086.16455-.28223.12061-.70508-.09912-.94727l-1.53711-1.69531.48389-2.23926c.07324-.34277-.08154-.69043-.38525-.86523-.28174-.16406-.70264-.11816-.94385.10059l-1.6958,1.53711-2.23291-.48242c-.34033-.06934-.69238.07617-.87012.38086-.16455.28223-.12061.70508.09912.94727l1.53711,1.69531-.48389,2.23926c-.07324.34277.08154.69043.38525.86523.11426.06641.25146.09766.39014.09766.20312,0,.41016-.06836.55371-.19824Zm.50586-3.74707l-.3252-.3584.46875.10156c.23779.05078.53564-.02734.71582-.19043l.35791-.32422-.10107.46777c-.05322.23828.02588.53516.18945.71582l.3252.3584-.46875-.10156c-.23779-.05371-.53564.02637-.71582.19043l-.35791.32422.10205-.4707c.05127-.2373-.02734-.5332-.19043-.71289Zm3.09451,4.16641l-1.20496-.26025v7.30786c0,.41309-.33691.75-.75.75H2.24707c-.41309,0-.75-.33691-.75-.75V4.24805c0-.41309.33691-.75.75-.75h7.27374c-.34045-.42285-.51434-.96094-.50604-1.5H2.24707C1.00684,1.99805-.00293,3.00781-.00293,4.24805v10.5c0,1.24023,1.00977,2.25,2.25,2.25h12.5c1.24023,0,2.25-1.00977,2.25-2.25v-7.01587c-.09888-.00854-.19867-.01074-.29504-.03174Zm-6.39752,1.62085l-.35791-.39453.1123-.52051c.06885-.31836-.07568-.64453-.35791-.80762-.28125-.16309-.63818-.12598-.87842.09375l-.39502.35742-.52051-.1123c-.31836-.0625-.64453.07715-.80811.3584-.1626.28223-.12451.6377.09424.87891l.35791.39453-.11279.51953c-.06885.31934.07568.64551.35791.80859.1167.06738.24609.10059.375.10059.18164,0,.3623-.06641.50342-.19434l.39502-.35742.521.1123c.32227.06641.64551-.07617.80811-.3584s.12451-.6377-.09424-.87891Zm-2.30438-3.32129v-.5c0-.27614-.22386-.5-.5-.5H3.5c-.27614,0-.5.22386-.5.5v.5c0,.27614.22386.5.5.5h4.00013c.27614,0,.5-.22386.5-.5Z" fill="var(--iconFill, #464646)"/>
</svg>