<svg width="580" height="144" viewBox="0 0 580 144" fill="none" xmlns="http://www.w3.org/2000/svg">
<g filter="url(#filter0_d_5906_5412)">
<path d="M377.39 128.75C384.365 128.75 390.02 123.095 390.02 116.12C390.02 109.145 384.365 103.49 377.39 103.49C370.414 103.49 364.76 109.145 364.76 116.12C364.76 123.095 370.414 128.75 377.39 128.75Z" fill="white"/>
</g>
<path d="M381.07 119.23C381.23 119.23 381.35 119.36 381.35 119.51V119.79C381.35 119.95 381.22 120.07 381.07 120.07H373.71C373.55 120.07 373.43 119.94 373.43 119.79V119.51C373.43 119.35 373.56 119.23 373.71 119.23H381.07ZM381.07 116.4C381.23 116.4 381.35 116.53 381.35 116.68V116.96C381.35 117.12 381.22 117.24 381.07 117.24H373.71C373.55 117.24 373.43 117.11 373.43 116.96V116.68C373.43 116.52 373.56 116.4 373.71 116.4H381.07ZM381.07 113.57C381.23 113.57 381.35 113.7 381.35 113.85V114.13C381.35 114.29 381.22 114.41 381.07 114.41H373.71C373.55 114.41 373.43 114.28 373.43 114.13V113.85C373.43 113.69 373.56 113.57 373.71 113.57H381.07Z" fill="#333333"/>
<g filter="url(#filter1_d_5906_5412)">
<path d="M338.11 14.17H177.35C172.418 14.17 168.42 18.1681 168.42 23.1V115.21C168.42 120.142 172.418 124.14 177.35 124.14H338.11C343.042 124.14 347.04 120.142 347.04 115.21V23.1C347.04 18.1681 343.042 14.17 338.11 14.17Z" fill="white"/>
</g>
<path d="M347.04 28.9401V115.21C347.04 120.14 343.04 124.14 338.11 124.14H177.34C172.41 124.14 168.41 120.14 168.41 115.21V28.9401H347.03H347.04Z" fill="#878787"/>
<path d="M321.841 24.52C323.056 24.52 324.041 23.535 324.041 22.32C324.041 21.105 323.056 20.12 321.841 20.12C320.626 20.12 319.641 21.105 319.641 22.32C319.641 23.535 320.626 24.52 321.841 24.52Z" fill="#DBDBDB"/>
<path d="M329.8 24.52C331.015 24.52 332 23.535 332 22.32C332 21.105 331.015 20.12 329.8 20.12C328.585 20.12 327.6 21.105 327.6 22.32C327.6 23.535 328.585 24.52 329.8 24.52Z" fill="#DBDBDB"/>
<path d="M337.761 24.52C338.976 24.52 339.961 23.535 339.961 22.32C339.961 21.105 338.976 20.12 337.761 20.12C336.546 20.12 335.561 21.105 335.561 22.32C335.561 23.535 336.546 24.52 337.761 24.52Z" fill="#DBDBDB"/>
<path d="M230.2 37.3501H214.87C214.197 37.3501 213.65 37.8941 213.65 38.5651C213.65 39.2361 214.197 39.7801 214.87 39.7801H230.2C230.874 39.7801 231.42 39.2361 231.42 38.5651C231.42 37.8941 230.874 37.3501 230.2 37.3501Z" fill="#ADADAD"/>
<path d="M256.32 37.3501H240.99C240.316 37.3501 239.77 37.8941 239.77 38.5651C239.77 39.2361 240.316 39.7801 240.99 39.7801H256.32C256.993 39.7801 257.54 39.2361 257.54 38.5651C257.54 37.8941 256.993 37.3501 256.32 37.3501Z" fill="#ADADAD"/>
<path d="M304.909 37.3501H297.499C296.826 37.3501 296.279 37.8941 296.279 38.5651C296.279 39.2361 296.826 39.7801 297.499 39.7801H304.909C305.583 39.7801 306.129 39.2361 306.129 38.5651C306.129 37.8941 305.583 37.3501 304.909 37.3501Z" fill="#ADADAD"/>
<path d="M286.771 37.3501H266.031C265.357 37.3501 264.811 37.8941 264.811 38.5651C264.811 39.2361 265.357 39.7801 266.031 39.7801H286.771C287.444 39.7801 287.991 39.2361 287.991 38.5651C287.991 37.8941 287.444 37.3501 286.771 37.3501Z" fill="#ADADAD"/>
<path d="M339.15 49.15H213.65V124.13H339.15V49.15Z" fill="white"/>
<path d="M323.921 96.7301H224.731C223.576 96.7301 222.641 97.6636 222.641 98.8151C222.641 99.9666 223.576 100.9 224.731 100.9H323.921C325.075 100.9 326.011 99.9666 326.011 98.8151C326.011 97.6636 325.075 96.7301 323.921 96.7301Z" fill="#D3D3D3"/>
<path d="M319.811 105.33H224.731C223.576 105.33 222.641 106.264 222.641 107.415C222.641 108.567 223.576 109.5 224.731 109.5H319.811C320.965 109.5 321.901 108.567 321.901 107.415C321.901 106.264 320.965 105.33 319.811 105.33Z" fill="#D3D3D3"/>
<path d="M296.201 113.93H224.731C223.576 113.93 222.641 114.864 222.641 116.015C222.641 117.167 223.576 118.1 224.731 118.1H296.201C297.355 118.1 298.291 117.167 298.291 116.015C298.291 114.864 297.355 113.93 296.201 113.93Z" fill="#D3D3D3"/>
<path fill-rule="evenodd" clip-rule="evenodd" d="M269.86 70.67C269.27 70.08 269.27 69.11 269.86 68.52L271.27 67.18C271.82 66.63 272.7 66.59 273.31 67.09L273.38 67.15C273.45 67.21 273.47 67.32 273.4 67.4L273.29 67.54C273.23 67.61 273.12 67.63 273.04 67.56L272.97 67.5C272.58 67.18 272 67.2 271.65 67.56L270.24 68.9C269.86 69.29 269.86 69.91 270.24 70.29C270.63 70.66 271.24 70.66 271.64 70.29L272.45 69.49C272.52 69.42 272.63 69.42 272.7 69.49L272.82 69.62C272.89 69.69 272.89 69.8 272.82 69.87L272.01 70.67C271.42 71.26 270.45 71.26 269.86 70.67Z" fill="#0780DB"/>
<path fill-rule="evenodd" clip-rule="evenodd" d="M271.98 68.5501L271.92 68.4901C271.85 68.4201 271.85 68.3101 271.92 68.2401L272.04 68.1101C272.11 68.0401 272.22 68.0401 272.29 68.1101L272.35 68.1701C272.74 68.5501 273.36 68.5401 273.74 68.1701L275.07 66.7301C275.46 66.3501 275.47 65.7201 275.08 65.3401C274.69 64.9701 274.08 64.9701 273.68 65.3401L272.84 66.2201C272.77 66.2901 272.66 66.2901 272.59 66.2201L272.46 66.1001C272.39 66.0301 272.39 65.9201 272.46 65.8501L273.3 64.9701C273.89 64.3801 274.86 64.3701 275.45 64.9701C276.04 65.5601 276.05 66.5301 275.45 67.1201L274.12 68.5601C273.83 68.8501 273.44 69.0101 273.03 69.0101C272.64 69.0101 272.26 68.8601 271.97 68.5801L271.98 68.5501Z" fill="#0780DB"/>
<path d="M276.33 70.88H322.19" stroke="#0780DB" stroke-width="0.5" stroke-miterlimit="10"/>
<path d="M323.921 57.1901H224.731C223.576 57.1901 222.641 58.1236 222.641 59.2751C222.641 60.4266 223.576 61.3601 224.731 61.3601H323.921C325.075 61.3601 326.011 60.4266 326.011 59.2751C326.011 58.1236 325.075 57.1901 323.921 57.1901Z" fill="#D3D3D3"/>
<path d="M265.321 65.79H224.731C223.576 65.79 222.641 66.7235 222.641 67.875C222.641 69.0266 223.576 69.96 224.731 69.96H265.321C266.475 69.96 267.411 69.0266 267.411 67.875C267.411 66.7235 266.475 65.79 265.321 65.79Z" fill="#D3D3D3"/>
<path opacity="0.44" d="M320.1 65.79H278.42C277.266 65.79 276.33 66.7235 276.33 67.875C276.33 69.0266 277.266 69.96 278.42 69.96H320.1C321.254 69.96 322.19 69.0266 322.19 67.875C322.19 66.7235 321.254 65.79 320.1 65.79Z" fill="#0780DB"/>
<path d="M328.061 74.39H224.731C223.576 74.39 222.641 75.3235 222.641 76.475C222.641 77.6265 223.576 78.56 224.731 78.56H328.061C329.215 78.56 330.151 77.6265 330.151 76.475C330.151 75.3235 329.215 74.39 328.061 74.39Z" fill="#D3D3D3"/>
<path d="M307.591 82.99H224.731C223.576 82.99 222.641 83.9235 222.641 85.075C222.641 86.2265 223.576 87.16 224.731 87.16H307.591C308.745 87.16 309.681 86.2265 309.681 85.075C309.681 83.9235 308.745 82.99 307.591 82.99Z" fill="#D3D3D3"/>
<path d="M334.97 40.97C336.296 40.97 337.37 39.8955 337.37 38.57C337.37 37.2446 336.296 36.17 334.97 36.17C333.645 36.17 332.57 37.2446 332.57 38.57C332.57 39.8955 333.645 40.97 334.97 40.97Z" fill="#ADADAD"/>
<path d="M176.461 36.08H190.521C190.791 36.08 190.891 35.75 190.651 35.63L183.841 32.13C183.661 32.04 183.451 32.04 183.271 32.13L176.341 35.69C176.131 35.8 176.221 36.08 176.451 36.08H176.461Z" fill="white"/>
<path d="M178.56 36.88H177.87C177.72 36.88 177.6 37.0009 177.6 37.15V41.31C177.6 41.4591 177.72 41.58 177.87 41.58H178.56C178.709 41.58 178.83 41.4591 178.83 41.31V37.15C178.83 37.0009 178.709 36.88 178.56 36.88Z" fill="white"/>
<path d="M181.2 36.88H180.51C180.361 36.88 180.24 37.0009 180.24 37.15V41.31C180.24 41.4591 180.361 41.58 180.51 41.58H181.2C181.349 41.58 181.47 41.4591 181.47 41.31V37.15C181.47 37.0009 181.349 36.88 181.2 36.88Z" fill="white"/>
<path d="M176.779 42.7401V42.9701C176.779 43.1689 176.94 43.3301 177.139 43.3301H189.799C189.998 43.3301 190.159 43.1689 190.159 42.9701V42.7401C190.159 42.5413 189.998 42.3801 189.799 42.3801H177.139C176.94 42.3801 176.779 42.5413 176.779 42.7401Z" fill="white"/>
<path d="M175.711 44.4801V44.7301C175.711 44.9234 175.868 45.0801 176.061 45.0801H190.951C191.144 45.0801 191.301 44.9234 191.301 44.7301V44.4801C191.301 44.2868 191.144 44.1301 190.951 44.1301H176.061C175.868 44.1301 175.711 44.2868 175.711 44.4801Z" fill="white"/>
<path d="M183.841 36.88H183.151C183.002 36.88 182.881 37.0009 182.881 37.15V41.31C182.881 41.4591 183.002 41.58 183.151 41.58H183.841C183.99 41.58 184.111 41.4591 184.111 41.31V37.15C184.111 37.0009 183.99 36.88 183.841 36.88Z" fill="white"/>
<path d="M186.48 36.88H185.79C185.64 36.88 185.52 37.0009 185.52 37.15V41.31C185.52 41.4591 185.64 41.58 185.79 41.58H186.48C186.629 41.58 186.75 41.4591 186.75 41.31V37.15C186.75 37.0009 186.629 36.88 186.48 36.88Z" fill="white"/>
<path d="M189.11 36.88H188.42C188.271 36.88 188.15 37.0009 188.15 37.15V41.31C188.15 41.4591 188.271 41.58 188.42 41.58H189.11C189.26 41.58 189.38 41.4591 189.38 41.31V37.15C189.38 37.0009 189.26 36.88 189.11 36.88Z" fill="white"/>
<g style="mix-blend-mode:multiply" opacity="0.1">
<path d="M315.01 82.6701L296.56 72.6001C296.08 72.3401 295.53 72.2001 294.99 72.2001C294 72.2001 293.03 72.6701 292.41 73.4601C291.79 74.2501 291.57 75.2701 291.81 76.2501L296.78 96.5301C297.14 98.0001 298.45 99.0201 299.96 99.0201C301.12 99.0201 302.17 98.4201 302.77 97.4201L302.82 97.3401L302.86 97.2601L306.48 89.5301L313.78 88.7901C315.21 88.6501 316.37 87.6001 316.66 86.1901C316.95 84.7801 316.29 83.3601 315.02 82.6701H315.01Z" fill="#464646"/>
</g>
<path d="M303.01 91.8701L298.04 71.5901C297.74 70.3701 299.03 69.3801 300.13 69.9801L318.58 80.0501C319.82 80.7301 319.44 82.6101 318.03 82.7501L310.51 83.5101C310.05 83.5601 309.65 83.8101 309.41 84.2101L305.64 92.2701C304.98 93.3801 303.31 93.1301 303 91.8801L303.01 91.8701Z" fill="black"/>
<path d="M299.44 69.8C299.67 69.8 299.9 69.86 300.13 69.98L318.58 80.05C319.82 80.73 319.44 82.61 318.03 82.75L310.51 83.51C310.05 83.56 309.65 83.81 309.41 84.21L305.64 92.27C305.36 92.75 304.88 92.98 304.41 92.98C303.79 92.98 303.18 92.59 303 91.88L298.03 71.6C297.79 70.64 298.56 69.81 299.43 69.81M299.44 67.67C298.35 67.67 297.3 68.19 296.62 69.05C295.94 69.91 295.7 71.03 295.97 72.1L300.94 92.38C301.33 93.99 302.76 95.11 304.42 95.11C305.69 95.11 306.84 94.45 307.49 93.36L307.54 93.27L307.58 93.18L311.13 85.61L318.25 84.89C319.82 84.73 321.08 83.59 321.4 82.04C321.71 80.49 320.99 78.95 319.61 78.19L301.16 68.12C300.63 67.83 300.04 67.68 299.45 67.68L299.44 67.67Z" fill="white"/>
<g filter="url(#filter2_d_5906_5412)">
<path d="M348.99 103.87H263.48C256.533 103.87 250.9 109.502 250.9 116.45V116.46C250.9 123.408 256.533 129.04 263.48 129.04H348.99C355.938 129.04 361.57 123.408 361.57 116.46V116.45C361.57 109.502 355.938 103.87 348.99 103.87Z" fill="white"/>
</g>
<path d="M274.49 118.2C273.43 117.1 270.53 117.55 269.83 117.63C268.81 116.65 268.11 115.48 267.87 115.07C268.24 113.97 268.48 112.87 268.52 111.7C268.52 110.68 268.11 109.59 266.97 109.59C266.56 109.59 266.19 109.83 265.99 110.16C265.5 111.01 265.7 112.72 266.48 114.47C266.03 115.73 265.62 116.95 264.48 119.1C263.3 119.59 260.8 120.73 260.6 121.95C260.52 122.32 260.64 122.68 260.93 122.97C261.22 123.21 261.58 123.34 261.95 123.34C263.46 123.34 264.93 121.27 265.95 119.52C266.81 119.24 268.16 118.83 269.5 118.58C271.09 119.96 272.48 120.17 273.22 120.17C274.2 120.17 274.57 119.76 274.69 119.4C274.89 118.99 274.77 118.55 274.49 118.22V118.2ZM273.47 118.89C273.43 119.17 273.06 119.46 272.41 119.3C271.63 119.1 270.94 118.73 270.33 118.24C270.86 118.16 272.05 118.04 272.9 118.2C273.23 118.28 273.55 118.48 273.47 118.89ZM266.65 110.51C266.73 110.39 266.85 110.31 266.98 110.31C267.35 110.31 267.43 110.76 267.43 111.12C267.39 111.97 267.23 112.83 266.94 113.64C266.33 112.01 266.45 110.88 266.65 110.51ZM266.57 118.4C266.9 117.75 267.35 116.61 267.51 116.12C267.88 116.73 268.49 117.46 268.82 117.79C268.82 117.83 267.55 118.07 266.57 118.4ZM264.16 120.03C263.22 121.57 262.24 122.55 261.71 122.55C261.63 122.55 261.55 122.51 261.47 122.47C261.35 122.39 261.31 122.27 261.35 122.1C261.47 121.53 262.53 120.76 264.17 120.03H264.16Z" fill="#A42116"/>
<path d="M175.709 123.98C176.239 124.08 176.779 124.14 177.339 124.14H208.649V49.15H175.699V123.97L175.709 123.98Z" fill="#ADADAD"/>
<path d="M344.97 113.11H287.94C286.095 113.11 284.6 114.605 284.6 116.45C284.6 118.295 286.095 119.79 287.94 119.79H344.97C346.814 119.79 348.31 118.295 348.31 116.45C348.31 114.605 346.814 113.11 344.97 113.11Z" fill="#B3B3B3"/>
<defs>
<filter id="filter0_d_5906_5412" x="358.76" y="97.49" width="37.2598" height="37.26" filterUnits="userSpaceOnUse" color-interpolation-filters="sRGB">
<feFlood flood-opacity="0" result="BackgroundImageFix"/>
<feColorMatrix in="SourceAlpha" type="matrix" values="0 0 0 0 0 0 0 0 0 0 0 0 0 0 0 0 0 0 127 0" result="hardAlpha"/>
<feOffset/>
<feGaussianBlur stdDeviation="3"/>
<feColorMatrix type="matrix" values="0 0 0 0 0 0 0 0 0 0 0 0 0 0 0 0 0 0 0.3 0"/>
<feBlend mode="normal" in2="BackgroundImageFix" result="effect1_dropShadow_5906_5412"/>
<feBlend mode="normal" in="SourceGraphic" in2="effect1_dropShadow_5906_5412" result="shape"/>
</filter>
<filter id="filter1_d_5906_5412" x="154.42" y="0.170044" width="206.619" height="137.97" filterUnits="userSpaceOnUse" color-interpolation-filters="sRGB">
<feFlood flood-opacity="0" result="BackgroundImageFix"/>
<feColorMatrix in="SourceAlpha" type="matrix" values="0 0 0 0 0 0 0 0 0 0 0 0 0 0 0 0 0 0 127 0" result="hardAlpha"/>
<feOffset/>
<feGaussianBlur stdDeviation="7"/>
<feColorMatrix type="matrix" values="0 0 0 0 0 0 0 0 0 0 0 0 0 0 0 0 0 0 0.2 0"/>
<feBlend mode="normal" in2="BackgroundImageFix" result="effect1_dropShadow_5906_5412"/>
<feBlend mode="normal" in="SourceGraphic" in2="effect1_dropShadow_5906_5412" result="shape"/>
</filter>
<filter id="filter2_d_5906_5412" x="244.9" y="97.87" width="122.67" height="37.17" filterUnits="userSpaceOnUse" color-interpolation-filters="sRGB">
<feFlood flood-opacity="0" result="BackgroundImageFix"/>
<feColorMatrix in="SourceAlpha" type="matrix" values="0 0 0 0 0 0 0 0 0 0 0 0 0 0 0 0 0 0 127 0" result="hardAlpha"/>
<feOffset/>
<feGaussianBlur stdDeviation="3"/>
<feColorMatrix type="matrix" values="0 0 0 0 0 0 0 0 0 0 0 0 0 0 0 0 0 0 0.3 0"/>
<feBlend mode="normal" in2="BackgroundImageFix" result="effect1_dropShadow_5906_5412"/>
<feBlend mode="normal" in="SourceGraphic" in2="effect1_dropShadow_5906_5412" result="shape"/>
</filter>
</defs>
</svg>
